<?xml version="1.0" encoding="utf-8"?> <!-- Generator: IcoMoon.io --> <!DOCTYPE svg PUBLIC "-//W3C//DTD SVG 1.1//EN" "http://www.w3.org/Graphics/SVG/1.1/DTD/svg11.dtd"> <svg width="512" height="512" viewBox="0 0 512 512" xmlns="http://www.w3.org/2000/svg" xmlns:xlink="http://www.w3.org/1999/xlink" fill="#000000"><path d="M 480.00,256.00l-448.00,0.00 q-13.00,0.00 -22.50-9.25t-9.50-22.50t 9.25-22.75t 22.75-9.50l 28.00,0.00 q 10.00,15.00 25.75,23.50t 34.25,8.50t 34.25-8.50t 25.75-23.50l 152.00,0.00 q 10.00,15.00 25.75,23.50t 34.25,8.50t 34.25-8.50t 25.75-23.50l 28.00,0.00 q 13.50,0.00 22.75,9.50t 9.25,22.75t-9.50,22.50t-22.50,9.25zM 403.00,189.00q-9.50,5.50 -20.00,2.50t-16.00-12.50l-75.50-139.00q-5.50-9.50 -2.75-20.25 t 12.25-16.25t 20.00-2.50t 16.00,12.50l 75.50,139.00q 5.50,9.50 2.75,20.25t-12.25,16.25zM 145.00,179.00q-5.50,9.50 -16.00,12.50t-20.00-2.50t-12.25-16.25t 2.75-20.25l 75.50-139.00q 5.50-9.50 16.00-12.50t 20.00,2.50t 12.25,16.25t-2.75,20.25zM 448.00,480.00q-4.00,20.00 -14.75,26.00t-32.75,6.00l-287.00,0.00 q-22.50,0.00 -34.00-6.00t-15.50-26.00l-32.00-192.00l 448.00,0.00 zM 368.00,384.00l-48.00,0.00 l0.00-48.00 q0.00-6.50 -4.75-11.25t-11.25-4.75t-11.25,4.75t-4.75,11.25l0.00,48.00 l-48.00,0.00 q-6.50,0.00 -11.25,4.75t-4.75,11.25t 4.75,11.25t 11.25,4.75l 48.00,0.00 l0.00,48.00 q0.00,6.50 4.75,11.25t 11.25,4.75t 11.25-4.75t 4.75-11.25l0.00-48.00 l 48.00,0.00 q 6.50,0.00 11.25-4.75t 4.75-11.25t-4.75-11.25t-11.25-4.75z" ></path></svg>