<?xml version="1.0" encoding="utf-8"?> <!-- Generator: IcoMoon.io --> <!DOCTYPE svg PUBLIC "-//W3C//DTD SVG 1.1//EN" "http://www.w3.org/Graphics/SVG/1.1/DTD/svg11.dtd"> <svg width="512" height="512" viewBox="0 0 512 512" xmlns="http://www.w3.org/2000/svg" xmlns:xlink="http://www.w3.org/1999/xlink" fill="#000000"><path d="M 169.52,306.256L 136.48,339.648L 47.424,339.648 c-6.656,0.00-9.168,5.216-5.024,10.432l 119.936,151.488 c 4.128,5.216, 10.272,4.08, 12.256-2.288l 26.576-84.80l 20.40-22.928l 85.536-86.40l 28.688,173.952C 338.496,495.568, 357.84,512.00, 374.464,512.00l 34.976,0.00 L 409.44,201.728 l 102.336-103.60L 512.00,65.248c 0.112-16.656-16.40-33.28-33.024-33.248l-39.024,0.096L 307.088,132.80L0.00,132.80 l0.00,35.60 c0.00,16.672, 16.464,35.712, 32.928,38.112 l 205.92,29.696L 169.52,306.256" ></path></svg>