<?xml version="1.0" encoding="utf-8"?> <!-- Generator: IcoMoon.io --> <!DOCTYPE svg PUBLIC "-//W3C//DTD SVG 1.1//EN" "http://www.w3.org/Graphics/SVG/1.1/DTD/svg11.dtd"> <svg width="512" height="512" viewBox="0 0 512 512" xmlns="http://www.w3.org/2000/svg" xmlns:xlink="http://www.w3.org/1999/xlink" fill="#000000"><path d="M 509.50,367.50l-87.00,11.50q-17.00,1.00 -28.50-16.00q-12.00-17.00 -28.50-41.50l-135.50,22.50l 0.50,41.50q-2.50,24.50 -18.50,28.00l-111.50,15.00q-7.00,1.50 -10.75-5.25t-0.75-18.25l 97.00-384.00q 3.00-11.50 7.50-17.00t 10.00-4.50t 11.50,5.75t 13.50,13.75l 279.50,320.00q 5.00,6.00 6.75,12.75t0.00,11.25t-5.25,4.50zM 257.00,163.50q-6.50-8.00 -17.75-2.25t-11.25,14.25q0.00,12.50 1.00,113.00 l 104.00-14.50q-69.50-102.50 -76.00-110.50zM 54.00,478.50l 136.00-18.00q 7.50-1.50 12.50-5.50l0.00,7.50 q-3.00,27.00 -20.50,30.50l-142.50,18.50q-17.00,3.50 -28.00-11.75t-7.00-29.75l 109.00-398.50q 5.00-18.00 13.75-27.50t 19.75-8.00l-109.50,408.50q-3.50,12.50 2.75,24.25t 13.75,9.75zM 353.50,414.50q 13.50,20.00 33.00,18.50l 96.00-16.00q-1.00,11.50 -7.75,23.25t-11.75,11.75l-97.50,12.50 q-24.00,1.50 -36.00-16.00q-9.00-17.00 -23.00-42.00l-45.50,15.50q-0.50-16.50 -0.50-28.50l 63.50-9.50q 7.00,10.50 14.50,18.00t 11.00,10.00z" ></path></svg>