<?xml version="1.0" encoding="utf-8"?> <!-- Generator: IcoMoon.io --> <!DOCTYPE svg PUBLIC "-//W3C//DTD SVG 1.1//EN" "http://www.w3.org/Graphics/SVG/1.1/DTD/svg11.dtd"> <svg width="512" height="512" viewBox="0 0 512 512" xmlns="http://www.w3.org/2000/svg" xmlns:xlink="http://www.w3.org/1999/xlink" fill="#000000"><path d="M 256.00,512.00q-19.50,0.00 -44.50-14.25t-50.75-41.25t-47.50-61.50t-35.50-79.75t-13.75-91.25q0.00-48.50 12.25-89.00t 35.75-70.75t 60.25-47.25t 83.75-17.00t 83.75,17.00t 60.25,47.25t 35.75,70.75t 12.25,89.00q0.00,46.00 -13.75,91.25t-35.50,79.75t-47.50,61.50t-50.75,41.25t-44.50,14.25zM 192.00,320.00q-18.50-23.50 -44.50-35.75t-51.50-12.25 q0.00,23.50 14.00,55.25t 34.00,56.75q 9.50,11.50 18.25,18.50t 20.00,9.75t 18.75,3.25t 23.00,0.50q0.00-56.00 -32.00-96.00zM 320.00,320.00q-32.00,40.00 -32.00,96.00q 15.50,0.00 23.00-0.50t 18.75-3.25t 20.00-9.75t 18.25-18.50q 20.00-25.00 34.00-56.75t 14.00-55.25q-25.50,0.00 -51.50,12.25t-44.50,35.75z" ></path></svg>