<?xml version="1.0" encoding="utf-8"?> <!-- Generator: IcoMoon.io --> <!DOCTYPE svg PUBLIC "-//W3C//DTD SVG 1.1//EN" "http://www.w3.org/Graphics/SVG/1.1/DTD/svg11.dtd"> <svg width="512" height="512" viewBox="0 0 512 512" xmlns="http://www.w3.org/2000/svg" xmlns:xlink="http://www.w3.org/1999/xlink" fill="#000000"><path d="M 176.00,512.00q-66.00,0.00 -144.00-32.00q-32.00-78.00 -32.00-144.00q0.00-72.00 25.25-134.50t 69.50-106.75t 106.75-69.50t 134.50-25.25q 66.00,0.00 144.00,32.00q 32.00,78.00 32.00,144.00q0.00,72.00 -25.25,134.50t-69.50,106.75t-106.75,69.50t-134.50,25.25zM 39.00,258.50q-7.00,34.00 -7.00,67.50q0.00,25.50 7.50,59.00q 35.50,52.00 87.50,87.50q 33.50,7.50 59.00,7.50q 33.50,0.00 67.50-7.00 q-82.00-18.50 -139.00-75.50t-75.50-139.00zM 229.25,165.25q-5.25,5.25 -5.25,12.50t 5.50,12.75l 33.50,33.50l-38.50,38.50l-34.00-33.50q-5.00-5.50 -12.50-5.50t-12.75,5.50t-5.25,12.75t 5.50,12.75l 33.50,33.50l-38.50,38.50l-34.00-33.50q-5.00-5.50 -12.50-5.50t-12.75,5.50t-5.25,12.75t 5.50,12.75l 33.50,33.50l-1.50,1.50q-5.00,5.00 -5.00,12.50t 5.25,12.75t 12.50,5.25 t 12.75-5.50l 1.50-1.00l 33.50,33.00q 5.00,5.50 12.50,5.50t 12.75-5.25t 5.25-12.75t-5.50-12.50l-33.50-33.50l 39.00-38.50l 33.50,33.50q 5.00,5.00 12.50,5.00t 12.75-5.25t 5.25-12.75t-5.50-12.50l-33.50-33.50l 39.00-38.50l 33.50,33.50q 5.00,5.00 12.50,5.00t 12.75-5.25t 5.25-12.75t-5.50-12.50l-33.50-33.50l 38.50-39.00l 34.00,34.00q 5.00,5.00 12.50,5.00t 12.75-5.25t 5.25-12.75t-5.50-12.50l-33.50-33.50l 1.50-2.00 q 5.50-5.00 5.50-12.50t-5.25-12.75t-12.75-5.25t-12.50,5.50l-2.00,1.50l-33.50-33.50q-5.00-5.00 -12.50-5.00t-12.75,5.25t-5.25,12.50t 5.50,12.75l 33.50,33.50l-39.00,38.50l-33.50-33.50q-5.00-5.00 -12.50-5.00t-12.75,5.25zM 472.50,127.00q-35.50-52.00 -87.50-87.50q-33.50-7.50 -59.00-7.50q-33.50,0.00 -67.50,7.00q 82.00,18.50 139.00,75.50t 75.50,139.00q 7.00-34.00 7.00-67.50 q0.00-25.50 -7.50-59.00z" ></path></svg>