<?xml version="1.0" encoding="utf-8"?> <!-- Generator: IcoMoon.io --> <!DOCTYPE svg PUBLIC "-//W3C//DTD SVG 1.1//EN" "http://www.w3.org/Graphics/SVG/1.1/DTD/svg11.dtd"> <svg width="512" height="512" viewBox="0 0 512 512" xmlns="http://www.w3.org/2000/svg" xmlns:xlink="http://www.w3.org/1999/xlink" fill="#000000"><path d="M0.00,224.00l0.00-48.00 l 60.00,0.00 l 120.496-120.512C 179.696,53.104, 179.008,50.672, 179.008,48.00 c0.00-13.264, 10.736-24.00, 24.00-24.00c 13.248,0.00, 24.00,10.736, 24.00,24.00c0.00,13.248-10.752,24.00-24.00,24.00c-1.776,0.00-3.344-0.656-4.992-1.008L 92.992,176.00l 309.664,0.00 l-104.40-105.264C 296.192,71.312, 294.224,72.00, 292.00,72.00c-13.248,0.00-24.00-10.752-24.00-24.00c0.00-13.264, 10.752-24.00, 24.00-24.00s 24.00,10.736, 24.00,24.00 c0.00,2.448-0.72,4.688-1.408,6.928L 435.664,176.00L 496.00,176.00 l0.00,48.00 L0.00,224.00 z M 397.904,462.432c-4.688,18.752-17.68,17.712-17.68,17.712L 114.704,480.656 c-13.536,0.00-17.168-17.152-17.168-17.152L 27.344,240.224l 441.184-0.416L 397.904,462.432z M 159.984,272.00l-16.00,0.00 l0.00,80.00 l 16.00,0.00 L 159.984,272.00 z M 159.984,368.00l-16.00,0.00 l0.00,80.00 l 16.00,0.00 L 159.984,368.00 z M 191.984,272.00 L 176.00,272.00 l0.00,80.00 l 15.984,0.00 L 191.984,272.00 z M 191.984,368.00L 176.00,368.00 l0.00,80.00 l 15.984,0.00 L 191.984,368.00 z M 223.984,272.00l-16.00,0.00 l0.00,80.00 l 16.00,0.00 L 223.984,272.00 z M 223.984,368.00l-16.00,0.00 l0.00,80.00 l 16.00,0.00 L 223.984,368.00 z M 256.00,272.00l-16.00,0.00 l0.00,80.00 l 16.00,0.00 L 256.00,272.00 z M 256.00,368.00l-16.00,0.00 l0.00,80.00 l 16.00,0.00 L 256.00,368.00 z M 288.00,272.00l-16.00,0.00 l0.00,80.00 l 16.00,0.00 L 288.00,272.00 z M 288.00,368.00l-16.00,0.00 l0.00,80.00 l 16.00,0.00 L 288.00,368.00 z M 320.00,272.00l-16.00,0.00 l0.00,80.00 l 16.00,0.00 L 320.00,272.00 z M 320.00,368.00l-16.00,0.00 l0.00,80.00 l 16.00,0.00 L 320.00,368.00 z M 352.00,272.00l-16.00,0.00 l0.00,80.00 l 16.00,0.00 L 352.00,272.00 z M 352.00,368.00l-16.00,0.00 l0.00,80.00 l 16.00,0.00 L 352.00,368.00 z" ></path></svg>