<?xml version="1.0" encoding="utf-8"?> <!-- Generator: IcoMoon.io --> <!DOCTYPE svg PUBLIC "-//W3C//DTD SVG 1.1//EN" "http://www.w3.org/Graphics/SVG/1.1/DTD/svg11.dtd"> <svg width="500.00000000000006" height="500" viewBox="0 0 500 500" xmlns="http://www.w3.org/2000/svg" xmlns:xlink="http://www.w3.org/1999/xlink" fill="#000000"><path d="M 201.775,232.55c0.00,0.00, 47.325-3.675, 47.325-61.50S 210.375,85.00, 161.35,85.00L0.00,85.00 l0.00,323.15 l 161.35,0.00 c0.00,0.00, 98.475,3.225, 98.475-95.35 C 259.85,312.80, 264.125,232.55, 201.775,232.55z M 71.10,142.425l 90.25,0.00 c0.00,0.00, 21.925,0.00, 21.925,33.625c0.00,33.625-12.90,38.50-27.55,38.50L 71.10,214.55 L 71.10,142.425 z M 156.775,350.725L 71.10,350.725 l0.00-86.375 l 90.25,0.00 c0.00,0.00, 32.70-0.45, 32.70,44.375C 194.05,346.525, 169.625,350.45, 156.775,350.725z M 391.20,167.225 c-119.25,0.00-119.15,124.125-119.15,124.125s-8.175,123.525, 119.15,123.525c0.00,0.00, 106.10,6.35, 106.10-85.95l-54.55,0.00 c0.00,0.00, 1.80,34.775-49.725,34.775 c0.00,0.00-54.575,3.80-54.575-56.20l 160.675,0.00 C 499.15,307.525, 516.725,167.225, 391.20,167.225z M 439.725,264.375l-101.85,0.00 c0.00,0.00, 6.675-49.825, 54.575-49.825 C 440.30,214.55, 439.725,264.375, 439.725,264.375z M 452.45,104.025L 324.50,104.025 l0.00,39.80 l 127.925,0.00 L 452.425,104.025 z" ></path></svg>