<?xml version="1.0" encoding="utf-8"?> <!-- Generator: IcoMoon.io --> <!DOCTYPE svg PUBLIC "-//W3C//DTD SVG 1.1//EN" "http://www.w3.org/Graphics/SVG/1.1/DTD/svg11.dtd"> <svg width="512" height="512" viewBox="0 0 512 512" xmlns="http://www.w3.org/2000/svg" xmlns:xlink="http://www.w3.org/1999/xlink" fill="#000000"><path d="M 480.00,480.00l-169.00,0.00 q-8.50,14.50 -23.00,23.25t-32.00,8.75t-32.00-8.75t-23.00-23.25l-169.00,0.00 q-13.50,0.00 -22.75-9.50t-9.25-22.50l0.00-32.00 q 26.50,0.00 45.25-37.50t 18.75-90.50l0.00-64.00 q0.00-71.00 45.75-124.25t 114.25-64.75l0.00-3.00 q0.00-13.50 9.50-22.75t 22.50-9.25t 22.50,9.25t 9.50,22.75l0.00,3.00 q 68.50,11.50 114.25,64.75t 45.75,124.25l0.00,64.00 q0.00,53.00 18.75,90.50 t 45.25,37.50l0.00,32.00 q0.00,13.00 -9.25,22.50t-22.75,9.50z" ></path></svg>