<?xml version="1.0" encoding="utf-8"?> <!-- Generator: IcoMoon.io --> <!DOCTYPE svg PUBLIC "-//W3C//DTD SVG 1.1//EN" "http://www.w3.org/Graphics/SVG/1.1/DTD/svg11.dtd"> <svg width="512" height="512" viewBox="0 0 512 512" xmlns="http://www.w3.org/2000/svg" xmlns:xlink="http://www.w3.org/1999/xlink" fill="#000000"><path d="M 448.00,352.00l0.00,32.00 q0.00,53.00 -37.50,90.50t-90.50,37.50l-224.00,0.00 q-13.50,0.00 -22.75-9.50t-9.25-22.50l0.00-448.00 q0.00-13.00 9.25-22.50t 22.75-9.50l 224.00,0.00 q 53.00,0.00 90.50,37.50t 37.50,90.50l0.00,16.00 q0.00,28.00 -11.75,53.00t-31.75,43.00q 19.00,17.00 31.25,49.50t 12.25,62.50zM 304.00,96.00l-128.00,0.00 q-6.50,0.00 -11.25,4.75t-4.75,11.25l0.00,64.00 q0.00,6.50 4.75,11.25t 11.25,4.75l 128.00,0.00 q 19.50,0.00 33.75-14.00t 14.25-34.00t-14.25-34.00t-33.75-14.00zM 288.00,288.00l-112.00,0.00 q-6.50,0.00 -11.25,4.75t-4.75,11.25l0.00,96.00 q0.00,6.50 4.75,11.25t 11.25,4.75l 112.00,0.00 q 26.50,0.00 45.25-18.75t 18.75-45.25t-18.75-45.25t-45.25-18.75z" ></path></svg>