<?xml version="1.0" encoding="utf-8"?> <!-- Generator: IcoMoon.io --> <!DOCTYPE svg PUBLIC "-//W3C//DTD SVG 1.1//EN" "http://www.w3.org/Graphics/SVG/1.1/DTD/svg11.dtd"> <svg width="512" height="512" viewBox="0 0 512 512" xmlns="http://www.w3.org/2000/svg" xmlns:xlink="http://www.w3.org/1999/xlink" fill="#000000"><path d="M 384.00,480.00q-2.50,13.00 -10.75,22.50t-21.25,9.50l-192.00,0.00 q-13.00,0.00 -21.00-9.25t-11.00-22.75l-32.00-192.00l0.00-64.00 q0.00-14.50 9.75-24.00t 28.75-18.75t 23.50-12.25q 20.00-14.00 36.00-33.00t 23.50-40.00l-9.50,0.00 q-6.50,0.00 -11.25-4.75t-4.75-11.25l0.00-64.00 q0.00-6.50 4.75-11.25t 11.25-4.75l 96.00,0.00 q 6.50,0.00 11.25,4.75t 4.75,11.25l0.00,64.00 q0.00,6.50 -4.75,11.25t-11.25,4.75l-9.50,0.00 q 15.00,40.50 55.50,70.00q 5.50,4.50 25.00,14.00t 30.25,19.50t 10.75,24.50l0.00,64.00 z" ></path></svg>