<?xml version="1.0" encoding="utf-8"?> <!-- Generator: IcoMoon.io --> <!DOCTYPE svg PUBLIC "-//W3C//DTD SVG 1.1//EN" "http://www.w3.org/Graphics/SVG/1.1/DTD/svg11.dtd"> <svg width="512" height="512" viewBox="0 0 512 512" xmlns="http://www.w3.org/2000/svg" xmlns:xlink="http://www.w3.org/1999/xlink" fill="#000000"><path d="M 480.00,512.00l-448.00,0.00 q-13.00,0.00 -22.50-9.50t-9.50-22.50l0.00-192.00 l 192.00,0.00 l0.00,32.00 q0.00,13.00 9.50,22.50t 22.50,9.50l 64.00,0.00 q 13.50,0.00 22.75-9.50t 9.25-22.50l0.00-32.00 l 192.00,0.00 l0.00,192.00 q0.00,13.50 -9.50,22.75t-22.50,9.25zM 288.00,287.75q0.00,13.25 -9.25,22.75t-22.50,9.50t-22.75-9.50t-9.50-22.75t 9.50-22.50t 22.75-9.25t 22.50,9.25t 9.25,22.50zM 288.00,224.00l-64.00,0.00 q-13.00,0.00 -22.50,9.25 t-9.50,22.75l-192.00,0.00 l0.00-96.00 q0.00-13.50 9.25-22.75t 22.75-9.25l 96.00,0.00 l0.00-32.00 q0.00-40.00 28.00-68.00t 68.00-28.00l 64.00,0.00 q 40.00,0.00 68.00,28.00t 28.00,68.00l0.00,32.00 l 96.00,0.00 q 13.00,0.00 22.50,9.25t 9.50,22.75l0.00,96.00 l-192.00,0.00 q0.00-13.50 -9.25-22.75t-22.75-9.25zM 320.00,96.00q0.00-13.50 -9.25-22.75t-22.75-9.25l-64.00,0.00 q-13.00,0.00 -22.50,9.25t-9.50,22.75l0.00,32.00 l 128.00,0.00 l0.00-32.00 z" ></path></svg>