<?xml version="1.0" encoding="utf-8"?> <!-- Generator: IcoMoon.io --> <!DOCTYPE svg PUBLIC "-//W3C//DTD SVG 1.1//EN" "http://www.w3.org/Graphics/SVG/1.1/DTD/svg11.dtd"> <svg width="500.00000000000006" height="500" viewBox="0 0 500 500" xmlns="http://www.w3.org/2000/svg" xmlns:xlink="http://www.w3.org/1999/xlink" fill="#000000"><path d="M 69.075,339.05c-37.85,37.20-5.875,75.40-56.175,132.025c-22.70,25.55, 93.45,17.75, 151.00-38.825 c 24.40-23.975, 17.525-58.95-8.65-84.70C 129.075,321.825, 93.475,315.075, 69.075,339.05z M 488.525,16.45c-19.425-19.075-234.475,153.25-298.50,216.175 c-31.775,31.225-42.375,47.975-52.125,60.50c-4.225,5.45, 1.375,7.125, 3.875,8.425c 12.575,6.40, 21.375,12.35, 32.775,23.55 c 11.40,11.175, 17.475,19.825, 23.975,32.20c 1.30,2.475, 3.025,7.975, 8.55,3.80c 12.75-9.575, 29.775-20.00, 61.525-51.225 C 332.625,246.95, 507.90,35.55, 488.525,16.45z" ></path></svg>