<?xml version="1.0" encoding="utf-8"?> <!-- Generator: IcoMoon.io --> <!DOCTYPE svg PUBLIC "-//W3C//DTD SVG 1.1//EN" "http://www.w3.org/Graphics/SVG/1.1/DTD/svg11.dtd"> <svg width="512" height="512" viewBox="0 0 512 512" xmlns="http://www.w3.org/2000/svg" xmlns:xlink="http://www.w3.org/1999/xlink" fill="#000000"><path d="M 480.00,512.00l-448.00,0.00 q-13.50,0.00 -22.75-9.50t-9.25-22.50l0.00-384.00 q0.00-13.50 9.25-22.75t 22.75-9.25l 32.00,0.00 l0.00,64.00 q0.00,32.00 17.75,48.00t 46.25,16.00q 28.00,0.00 46.00-16.50t 18.00-47.50l0.00-64.00 l 128.00,0.00 l0.00,64.00 q0.00,32.00 17.75,48.00t 46.25,16.00t 46.25-16.00t 17.75-48.00l0.00-64.00 l 32.00,0.00 q 13.50,0.00 22.75,9.25t 9.25,22.75l0.00,384.00 q0.00,13.00 -9.25,22.50t-22.75,9.50zM 96.00,384.00l 64.00,0.00 q 26.50,0.00 45.25-18.75t 18.75-45.25l0.00-32.00 q0.00-26.50 -18.75-45.25t-45.25-18.75l-64.00,0.00 q-26.50,0.00 -45.25,18.75t-18.75,45.25q0.00,6.50 4.75,11.25t 11.25,4.75t 11.25-4.75t 4.75-11.25q0.00-13.50 9.25-22.75t 22.75-9.25l 64.00,0.00 q 13.50,0.00 22.75,9.25t 9.25,22.75l0.00,32.00 q0.00,13.00 -9.25,22.50t-22.75,9.50l-64.00,0.00 q-26.50,0.00 -45.25,18.75 t-18.75,45.25l0.00,48.00 q0.00,6.50 4.75,11.25t 11.25,4.75l 160.00,0.00 q 6.50,0.00 11.25-4.75t 4.75-11.25t-4.75-11.25t-11.25-4.75l-136.00,0.00 q-3.50,0.00 -5.75-2.25t-2.25-5.75l0.00-24.00 q0.00-13.50 9.25-22.75t 22.75-9.25zM 480.50,288.00q0.00-26.50 -19.00-45.25t-45.50-18.75l-64.00,0.00 q-26.50,0.00 -45.25,18.75t-18.75,45.25l0.00,32.00 q0.00,26.50 18.75,45.25t 45.25,18.75l 64.00,0.00 q 17.50,0.00 32.00-8.50l0.00,40.50 q0.00,13.00 -9.25,22.50t-22.75,9.50l-64.00,0.00 q-13.00,0.00 -22.50-9.50t-9.50-22.50q0.00-6.50 -4.75-11.25t-11.25-4.75t-11.25,4.75t-4.75,11.25q0.00,26.50 18.75,45.25t 45.25,18.75l 64.00,0.00 q 26.50,0.00 45.50-18.75t 19.00-45.25l0.00-128.00 zM 416.00,352.00l-64.00,0.00 q-13.00,0.00 -22.50-9.50t-9.50-22.50l0.00-32.00 q0.00-13.50 9.50-22.75t 22.50-9.25l 64.00,0.00 q 13.50,0.00 22.75,9.25 t 9.25,22.75l0.00,32.00 q0.00,13.00 -9.25,22.50t-22.75,9.50zM 384.25,160.00q-13.25,0.00 -22.75-9.50t-9.50-22.50l0.00-96.00 q0.00-13.50 9.50-22.75t 22.75-9.25t 22.50,9.25t 9.25,22.75l0.00,96.00 q0.00,13.00 -9.25,22.50t-22.50,9.50zM 128.00,160.00q-13.50,0.00 -22.75-9.50t-9.25-22.50l0.00-96.00 q0.00-13.50 9.50-22.75t 22.75-9.25t 22.50,9.25t 9.25,22.75l0.00,96.00 q0.00,13.00 -9.25,22.50 t-22.75,9.50z" ></path></svg>