<?xml version="1.0" encoding="utf-8"?> <!-- Generator: IcoMoon.io --> <!DOCTYPE svg PUBLIC "-//W3C//DTD SVG 1.1//EN" "http://www.w3.org/Graphics/SVG/1.1/DTD/svg11.dtd"> <svg width="512" height="512" viewBox="0 0 512 512" xmlns="http://www.w3.org/2000/svg" xmlns:xlink="http://www.w3.org/1999/xlink" fill="#000000"><path d="M 448.00,512.00l-384.00,0.00 q-26.50,0.00 -45.25-18.75t-18.75-45.25l0.00-256.00 q0.00-26.50 18.75-45.25t 45.25-18.75l 46.50,0.00 l 21.00-47.00q 5.50-21.00 27.50-35.00t 49.00-14.00l 96.00,0.00 q 27.00,0.00 49.00,14.00t 27.00,35.00l 21.50,47.00l 46.50,0.00 q 26.50,0.00 45.25,18.75t 18.75,45.25l0.00,256.00 q0.00,26.50 -18.75,45.25t-45.25,18.75zM 256.00,160.00q-43.50,0.00 -80.25,21.50t-58.25,58.25t-21.50,80.25t 21.50,80.25 t 58.25,58.25t 80.25,21.50t 80.25-21.50t 58.25-58.25t 21.50-80.25t-21.50-80.25t-58.25-58.25t-80.25-21.50zM 256.00,448.00q-53.00,0.00 -90.50-37.50t-37.50-90.50t 37.50-90.50t 90.50-37.50t 90.50,37.50t 37.50,90.50t-37.50,90.50t-90.50,37.50zM 256.00,224.00q-40.00,0.00 -68.00,28.00t-28.00,68.00t 28.00,68.00t 68.00,28.00t 68.00-28.00t 28.00-68.00t-28.00-68.00t-68.00-28.00z" ></path></svg>