<?xml version="1.0" encoding="utf-8"?> <!-- Generator: IcoMoon.io --> <!DOCTYPE svg PUBLIC "-//W3C//DTD SVG 1.1//EN" "http://www.w3.org/Graphics/SVG/1.1/DTD/svg11.dtd"> <svg width="500.00000000000006" height="500" viewBox="0 0 500 500" xmlns="http://www.w3.org/2000/svg" xmlns:xlink="http://www.w3.org/1999/xlink" fill="#000000"><path d="M 100.00,425.00c0.00,27.60, 22.40,50.00, 50.00,50.00c 27.625,0.00, 50.00-22.40, 50.00-50.00s-22.375-50.00-50.00-50.00C 122.40,375.00, 100.00,397.40, 100.00,425.00z M 350.00,425.00c0.00,27.60, 22.40,50.00, 50.00,50.00 c 27.625,0.00, 50.00-22.40, 50.00-50.00s-22.375-50.00-50.00-50.00C 372.40,375.00, 350.00,397.40, 350.00,425.00z M 188.675,306.80L 465.40,227.75C 470.675,226.225, 475.00,220.50, 475.00,215.00L 475.00,77.50 L 122.50,77.50 L 122.50,35.00 C 122.50,29.50, 118.025,25.00, 112.50,25.00L 35.00,25.00 C 29.50,25.00, 25.00,29.50, 25.00,35.00L 25.00,75.00 l 48.575,0.00 l 49.20,226.425L 127.525,325.00l0.00,37.50 c0.00,5.50, 4.50,10.00, 9.975,10.00L 150.00,372.50 l 250.00,0.00 l 65.025,0.00 C 470.50,372.50, 475.00,368.00, 475.00,362.50L 475.00,325.00 L 193.80,325.00 C 165.075,325.00, 164.475,313.75, 188.675,306.80z" ></path></svg>