<?xml version="1.0" encoding="utf-8"?> <!-- Generator: IcoMoon.io --> <!DOCTYPE svg PUBLIC "-//W3C//DTD SVG 1.1//EN" "http://www.w3.org/Graphics/SVG/1.1/DTD/svg11.dtd"> <svg width="512" height="512" viewBox="0 0 512 512" xmlns="http://www.w3.org/2000/svg" xmlns:xlink="http://www.w3.org/1999/xlink" fill="#000000"><path d="M 384.00,400.00c0.00,26.496, 21.504,48.00, 48.00,48.00s 48.00-21.504, 48.00-48.00s-21.504-48.00-48.00-48.00S 384.00,373.504, 384.00,400.00z M 160.00,400.00 c0.00,26.496, 21.488,48.00, 48.00,48.00c 26.496,0.00, 48.00-21.504, 48.00-48.00s-21.504-48.00-48.00-48.00C 181.488,352.00, 160.00,373.504, 160.00,400.00z M 143.20,167.024L 176.00,320.00l 288.00,0.00 l 48.00-224.00L 128.00,96.00 L0.00,64.00l0.00,32.00 L 143.20,167.024 z" ></path></svg>