<?xml version="1.0" encoding="utf-8"?> <!-- Generator: IcoMoon.io --> <!DOCTYPE svg PUBLIC "-//W3C//DTD SVG 1.1//EN" "http://www.w3.org/Graphics/SVG/1.1/DTD/svg11.dtd"> <svg width="512" height="512" viewBox="0 0 512 512" xmlns="http://www.w3.org/2000/svg" xmlns:xlink="http://www.w3.org/1999/xlink" fill="#000000"><path d="M 480.00,480.00l-448.00,0.00 q-13.00,0.00 -22.50-4.75t-9.50-11.25l0.00-64.00 l0.00-64.00 l0.00-32.00 l0.00-32.00 l0.00-32.00 l0.00-32.00 q0.00-0.50 1.50-5.00l 57.00-126.50q 1.50-5.00 10.00-8.75t 18.50-3.75l 341.00,0.00 q 10.50,0.00 18.75,3.75t 10.25,8.75l 54.00,126.50q 1.00,3.00 1.00,5.00l0.00,32.00 l0.00,32.00 l0.00,32.00 l0.00,32.00 l0.00,64.00 l0.00,64.00 q0.00,6.50 -9.50,11.25t-22.50,4.75zM 160.00,96.00l-7.50,0.00 q-6.50,12.00 -22.75,22.00t-33.75,10.00l-28.50,0.00 l-13.00,32.00l 41.50,0.00 q 25.50,0.00 32.25,4.25t 4.25,19.25l-1.50,8.50l 29.00,0.00 l0.00-96.00 zM 160.00,224.00l-128.00,0.00 l0.00,24.00 q0.00,3.50 4.75,5.75t 11.25,2.25l 112.00,0.00 l0.00-32.00 zM 160.00,288.00l-128.00,0.00 l0.00,24.00 q0.00,3.50 4.75,5.75t 11.25,2.25l 112.00,0.00 l0.00-32.00 zM 160.00,352.00l-128.00,0.00 l0.00,24.00 q0.00,3.50 4.75,5.75t 11.25,2.25l 112.00,0.00 l0.00-32.00 zM 160.00,416.00l-128.00,0.00 l0.00,24.00 q0.00,3.50 4.75,5.75t 11.25,2.25l 112.00,0.00 l0.00-32.00 zM 320.00,336.00 q0.00-6.50 -4.75-11.25t-11.25-4.75l-80.00,0.00 l0.00-32.00 l 80.00,0.00 q 10.00,0.00 14.50-9.00q-3.00-10.00 -11.50-16.50t-19.00-6.50l0.00-16.00 q0.00-6.50 -4.75-11.25t-11.25-4.75t-11.25,4.75t-4.75,11.25l0.00,16.00 l-32.00,0.00 q-13.00,0.00 -22.50,9.50t-9.50,22.50l0.00,48.00 q0.00,6.50 4.75,11.25t 11.25,4.75l 80.00,0.00 l0.00,32.00 l-80.00,0.00 q-10.00,0.00 -14.50,9.50q 3.50,10.00 11.75,16.25t 18.75,6.25l0.00,16.00 q0.00,6.50 4.75,11.25 t 11.25,4.75t 11.25-4.75t 4.75-11.25l0.00-16.00 l 32.00,0.00 q 13.50,0.00 22.75-9.25t 9.25-22.75l0.00-48.00 zM 445.00,128.00l-29.00,0.00 q-17.50,0.00 -32.75-9.75t-21.25-22.25l-10.00,0.00 l0.00,96.00 l 29.50,0.00 l-1.00-8.50q-2.50-14.50 10.50-19.00t 41.00-4.50l 25.50,0.00 zM 480.00,224.00l-128.00,0.00 l0.00,32.00 l 112.00,0.00 q 6.50,0.00 11.25-2.25t 4.75-5.75l0.00-24.00 zM 480.00,288.00l-128.00,0.00 l0.00,32.00 l 112.00,0.00 q 6.50,0.00 11.25-2.25t 4.75-5.75l0.00-24.00 zM 480.00,352.00l-128.00,0.00 l0.00,32.00 l 112.00,0.00 q 6.50,0.00 11.25-2.25t 4.75-5.75l0.00-24.00 zM 480.00,416.00l-128.00,0.00 l0.00,32.00 l 112.00,0.00 q 6.50,0.00 11.25-2.25t 4.75-5.75l0.00-24.00 z" ></path></svg>