<?xml version="1.0" encoding="utf-8"?> <!-- Generator: IcoMoon.io --> <!DOCTYPE svg PUBLIC "-//W3C//DTD SVG 1.1//EN" "http://www.w3.org/Graphics/SVG/1.1/DTD/svg11.dtd"> <svg width="512" height="512" viewBox="0 0 512 512" xmlns="http://www.w3.org/2000/svg" xmlns:xlink="http://www.w3.org/1999/xlink" fill="#000000"><path d="M 405.00,339.50l-136.00,172.50l-136.00-172.50q-36.50-38.00 -49.75-89.25t0.00-102.50t 49.75-89.75q 28.00-28.50 63.75-43.25t 72.25-14.75t 72.25,14.75t 63.75,43.25q 36.50,38.50 49.75,89.75t0.00,102.50t-49.75,89.25zM 269.25,64.50q-53.25,0.00 -90.75,37.50t-37.50,90.50t 37.50,90.25t 90.75,37.25t 90.75-37.25t 37.50-90.25t-37.50-90.50 t-90.75-37.50zM 269.50,256.00q-26.50,0.00 -45.25-18.75t-18.75-45.25t 18.75-45.25t 45.25-18.75t 45.25,18.75t 18.75,45.25t-18.75,45.25t-45.25,18.75z" ></path></svg>