<?xml version="1.0" encoding="utf-8"?> <!-- Generator: IcoMoon.io --> <!DOCTYPE svg PUBLIC "-//W3C//DTD SVG 1.1//EN" "http://www.w3.org/Graphics/SVG/1.1/DTD/svg11.dtd"> <svg width="512" height="512" viewBox="0 0 512 512" xmlns="http://www.w3.org/2000/svg" xmlns:xlink="http://www.w3.org/1999/xlink" fill="#000000"><path d="M 415.75,384.00q-39.75,0.00 -67.75-28.25t-28.00-67.75q0.00-6.50 1.50-16.00q-157.00-56.50 -247.50-157.50q 21.00,117.50 87.00,211.00q 16.50-5.50 31.00-5.50q 40.00,0.00 68.00,28.00t 28.00,67.75t-28.00,68.00t-68.00,28.25t-68.00-28.00t-28.00-68.00q0.00-44.00 34.50-73.50q-76.00-106.00 -94.00-247.00q-3.00,0.50 -4.50,0.50q-13.00,0.00 -22.50-9.50t-9.50-22.50l0.00-32.00 q0.00-13.50 9.50-22.75t 22.75-9.25 t 22.50,9.25t 9.25,22.75q0.00,3.50 1.50,18.50q 91.00,123.50 268.00,189.00q 12.50-21.50 34.50-34.50t 48.00-13.00q 40.00,0.00 68.00,28.00t 28.00,67.75t-28.25,68.00t-68.00,28.25z" ></path></svg>