<?xml version="1.0" encoding="utf-8"?> <!-- Generator: IcoMoon.io --> <!DOCTYPE svg PUBLIC "-//W3C//DTD SVG 1.1//EN" "http://www.w3.org/Graphics/SVG/1.1/DTD/svg11.dtd"> <svg width="512" height="512" viewBox="0 0 512 512" xmlns="http://www.w3.org/2000/svg" xmlns:xlink="http://www.w3.org/1999/xlink" fill="#000000"><path d="M 256.00,512.00l 112.00-192.00q 16.00-27.50 16.00-64.00q0.00-28.00 -11.50-53.00t-32.00-43.00l 152.50,0.00 q 19.00,46.50 19.00,96.00q0.00,69.50 -34.25,128.50t-93.25,93.25t-128.50,34.25zM 130.50,230.50l-76.00-132.00q 35.50-45.50 88.25-72.00t 113.25-26.50q 70.00,0.00 128.75,34.75t 92.75,93.25l-221.50,0.00 q-46.00,0.00 -81.25,29.25t-44.25,73.25zM 256.00,160.00q 40.00,0.00 68.00,28.00t 28.00,68.00 t-28.00,68.00t-68.00,28.00t-68.00-28.00t-28.00-68.00t 28.00-68.00t 68.00-28.00zM 144.00,320.00q 17.00,29.00 47.00,46.50t 65.00,17.50q 21.00,0.00 41.00-7.00l-76.50,132.50q-61.50-9.00 -112.00-44.25t-79.50-90.50t-29.00-118.75q0.00-68.50 34.50-128.00z" ></path></svg>