<?xml version="1.0" encoding="utf-8"?> <!-- Generator: IcoMoon.io --> <!DOCTYPE svg PUBLIC "-//W3C//DTD SVG 1.1//EN" "http://www.w3.org/Graphics/SVG/1.1/DTD/svg11.dtd"> <svg width="512" height="512" viewBox="0 0 512 512" xmlns="http://www.w3.org/2000/svg" xmlns:xlink="http://www.w3.org/1999/xlink" fill="#000000"><path d="M 64.00,256.00c0.00-35.344, 28.656-64.00, 64.00-64.00s 64.00,28.656, 64.00,64.00s-28.656,64.00-64.00,64.00S 64.00,291.344, 64.00,256.00z M 128.00,384.00 c 70.688,0.00, 128.00-57.312, 128.00-128.00s-57.312-128.00-128.00-128.00s-128.00,57.312-128.00,128.00S 57.312,384.00, 128.00,384.00z M 320.00,256.00c0.00-35.344, 28.656-64.00, 64.00-64.00s 64.00,28.656, 64.00,64.00s-28.656,64.00-64.00,64.00 S 320.00,291.344, 320.00,256.00z M 384.00,128.00c-70.688,0.00-128.00,57.312-128.00,128.00s 57.312,128.00, 128.00,128.00s 128.00-57.312, 128.00-128.00S 454.688,128.00, 384.00,128.00z" ></path></svg>