<?xml version="1.0" encoding="utf-8"?> <!-- Generator: IcoMoon.io --> <!DOCTYPE svg PUBLIC "-//W3C//DTD SVG 1.1//EN" "http://www.w3.org/Graphics/SVG/1.1/DTD/svg11.dtd"> <svg width="512" height="512" viewBox="0 0 512 512" xmlns="http://www.w3.org/2000/svg" xmlns:xlink="http://www.w3.org/1999/xlink" fill="#000000"><path d="M 256.00,512.00q-52.00,0.00 -99.50-20.25t-81.75-54.50t-54.50-81.75t-20.25-99.50t 20.25-99.50t 54.50-81.75t 81.75-54.50t 99.50-20.25t 99.50,20.25t 81.75,54.50t 54.50,81.75t 20.25,99.50t-20.25,99.50t-54.50,81.75t-81.75,54.50t-99.50,20.25zM 256.00,64.00q-52.00,0.00 -96.25,25.75t-70.00,70.00t-25.75,96.25t 25.75,96.25 t 70.00,70.00t 96.25,25.75t 96.25-25.75t 70.00-70.00t 25.75-96.25t-25.75-96.25t-70.00-70.00t-96.25-25.75zM 287.00,330.00q-2.00,8.50 -7.00,13.50q-9.50,9.50 -24.00,8.00q-14.00,1.50 -23.50-8.00q-5.00-5.00 -7.50-14.00l-88.50-88.50q-8.50-8.50 -8.50-20.50t 8.50-20.50t 20.50-8.50t 20.50,8.50l 78.50,79.00l 79.00-79.00q 8.50-8.50 20.50-8.50t 20.50,8.50t 8.50,20.50t-8.50,20.50z" ></path></svg>