<?xml version="1.0" encoding="utf-8"?> <!-- Generator: IcoMoon.io --> <!DOCTYPE svg PUBLIC "-//W3C//DTD SVG 1.1//EN" "http://www.w3.org/Graphics/SVG/1.1/DTD/svg11.dtd"> <svg width="512" height="512" viewBox="0 0 512 512" xmlns="http://www.w3.org/2000/svg" xmlns:xlink="http://www.w3.org/1999/xlink" fill="#000000"><path d="M 256.00,0.00C 114.608,0.00,0.00,114.624,0.00,256.00c0.00,141.376, 114.608,256.00, 256.00,256.00s 256.00-114.624, 256.00-256.00 C 512.00,114.624, 397.392,0.00, 256.00,0.00z M 256.00,448.00C 149.968,448.00, 64.00,362.032, 64.00,256.00S 149.968,64.00, 256.00,64.00s 192.00,85.968, 192.00,192.00S 362.032,448.00, 256.00,448.00zM 368.00,224.00l-80.00,0.00 L 288.00,112.00 c0.00-8.832-7.152-16.00-16.00-16.00l-32.00,0.00 c-8.848,0.00-16.00,7.168-16.00,16.00l0.00,160.00 c0.00,8.848, 7.152,16.00, 16.00,16.00 l 128.00,0.00 c 8.848,0.00, 16.00-7.152, 16.00-16.00l0.00-32.00 C 384.00,231.152, 376.848,224.00, 368.00,224.00z" ></path></svg>