<?xml version="1.0" encoding="utf-8"?> <!-- Generator: IcoMoon.io --> <!DOCTYPE svg PUBLIC "-//W3C//DTD SVG 1.1//EN" "http://www.w3.org/Graphics/SVG/1.1/DTD/svg11.dtd"> <svg width="512" height="512" viewBox="0 0 512 512" xmlns="http://www.w3.org/2000/svg" xmlns:xlink="http://www.w3.org/1999/xlink" fill="#000000"><path d="M 256.00,64.00c 105.872,0.00, 192.00,86.128, 192.00,192.00s-86.128,192.00-192.00,192.00S 64.00,361.872, 64.00,256.00S 150.128,64.00, 256.00,64.00 M 256.00,0.00 C 114.624,0.00,0.00,114.624,0.00,256.00s 114.624,256.00, 256.00,256.00s 256.00-114.624, 256.00-256.00S 397.376,0.00, 256.00,0.00L 256.00,0.00zM 342.752,297.248L 288.00,242.432L 288.00,128.00 l-64.368,0.00 l0.00,127.872 c0.00,9.632, 4.432,17.936, 11.12,23.872l 62.752,62.752 L 342.752,297.248z" ></path></svg>