<?xml version="1.0" encoding="utf-8"?> <!-- Generator: IcoMoon.io --> <!DOCTYPE svg PUBLIC "-//W3C//DTD SVG 1.1//EN" "http://www.w3.org/Graphics/SVG/1.1/DTD/svg11.dtd"> <svg width="512" height="512" viewBox="0 0 512 512" xmlns="http://www.w3.org/2000/svg" xmlns:xlink="http://www.w3.org/1999/xlink" fill="#000000"><path d="M 80.00,80.00c-22.00,22.00-22.00,66.00,0.00,88.00l 88.00,88.00L 80.00,344.00 c-22.00,22.00-22.00,66.00,0.00,88.00s 66.00,22.00, 88.00,0.00l 88.00-88.00l 88.00,88.00c 22.00,22.00, 66.00,22.00, 88.00,0.00s 22.00-66.00,0.00-88.00L 344.00,256.00 l 88.00-88.00c 22.00-22.00, 22.00-66.00,0.00-88.00s-66.00-22.00-88.00,0.00L 256.00,168.00L 168.00,80.00C 146.00,58.00, 102.00,58.00, 80.00,80.00z" ></path></svg>