<?xml version="1.0" encoding="utf-8"?> <!-- Generator: IcoMoon.io --> <!DOCTYPE svg PUBLIC "-//W3C//DTD SVG 1.1//EN" "http://www.w3.org/Graphics/SVG/1.1/DTD/svg11.dtd"> <svg width="512" height="512" viewBox="0 0 512 512" xmlns="http://www.w3.org/2000/svg" xmlns:xlink="http://www.w3.org/1999/xlink" fill="#000000"><path d="M 352.00,512.00q 11.00-7.50 18.00-18.25t 9.75-24.25t 3.50-23.00t 0.75-24.50q0.00-19.00 -10.25-38.75t-26.00-35.00t-31.00-26.25t-28.75-18.00q-27.00-13.50 -45.50-34.25t-18.50-45.75q-8.50,0.00 -20.25,14.75t-11.75,33.25q0.00,9.00 9.75,19.50t 21.25,19.00t 21.00,20.50t 9.50,24.00q0.00,24.50 -11.50,42.75t-34.00,18.25t-35.25-19.00t-12.75-45.00q-9.00,4.50 -15.50,11.75t-9.75,14.00 t-4.75,17.75t-1.75,17.50t-0.25,19.00q0.00,57.00 32.00,80.00q-32.50-6.00 -56.25-18.00t-37.50-26.25t-21.50-34.50t-10.25-38.75t-2.50-42.50q0.00-45.00 46.75-115.75t 97.25-108.25q 2.50-2.50 14.00-11.25t 21.25-18.00t 20.75-23.25t 17.50-33.50t 6.50-42.00q 6.50,0.00 16.75,6.00t 21.00,15.75t 18.50,25.50t 7.75,32.75q0.00,16.00 -5.00,30.50t-11.00,23.50t-11.00,20.25t-5.00,21.75 q0.00,20.00 14.00,34.00t 34.00,14.00q 17.50,0.00 30.75-8.50t 17.25-23.50q 44.00,32.00 70.00,75.50t 26.00,84.50q0.00,23.00 -4.00,45.00t-13.50,43.25t-23.75,36.75t-36.50,25.25t-50.25,9.75z" ></path></svg>