<?xml version="1.0" encoding="utf-8"?> <!-- Generator: IcoMoon.io --> <!DOCTYPE svg PUBLIC "-//W3C//DTD SVG 1.1//EN" "http://www.w3.org/Graphics/SVG/1.1/DTD/svg11.dtd"> <svg width="480" height="448" viewBox="0 0 480 448" xmlns="http://www.w3.org/2000/svg" xmlns:xlink="http://www.w3.org/1999/xlink" fill="#000000"><path d="M 224.00,224.00q0.00-26.50 -18.75-45.25t-45.25-18.75t-45.25,18.75t-18.75,45.25t 18.75,45.25t 45.25,18.75t 45.25-18.75t 18.75-45.25zM 416.00,352.00q0.00-13.00 -9.50-22.50t-22.50-9.50t-22.50,9.50t-9.50,22.50q0.00,13.25 9.375,22.625t 22.625,9.375t 22.625-9.375t 9.375-22.625zM 416.00,96.00q0.00-13.00 -9.50-22.50t-22.50-9.50t-22.50,9.50t-9.50,22.50q0.00,13.25 9.375,22.625t 22.625,9.375 t 22.625-9.375t 9.375-22.625zM 320.00,201.25l0.00,46.25 q0.00,2.50 -1.75,4.875t-4.00,2.625l-38.75,6.00q-2.75,8.75 -8.00,19.00q 8.50,12.00 22.50,28.75q 1.75,2.50 1.75,5.00q0.00,3.00 -1.75,4.75q-5.75,7.50 -20.625,22.375t-19.625,14.875q-2.75,0.00 -5.25-1.75l-28.75-22.50q-9.25,4.75 -19.25,7.75q-2.75,27.00 -5.75,38.75q-1.75,6.00 -7.50,6.00l-46.50,0.00 q-2.75,0.00 -5.00-1.875t-2.50-4.375 l-5.75-38.25q-8.50-2.50 -18.75-7.75l-29.50,22.25q-1.75,1.75 -5.00,1.75q-2.75,0.00 -5.25-2.00q-36.00-33.25 -36.00-40.00q0.00-2.25 1.75-4.75q 2.50-3.50 10.25-13.25t 11.75-15.25q-5.75-11.00 -8.75-20.50l-38.00-6.00q-2.50-0.25 -4.25-2.375t-1.75-4.875l0.00-46.25 q0.00-2.50 1.75-4.875t 4.00-2.625l 38.75-6.00q 2.75-8.75 8.00-19.00q-8.50-12.00 -22.50-28.75q-1.75-2.75 -1.75-5.00q0.00-3.00 1.75-5.00q 5.50-7.50 20.50-22.25t 19.75-14.75q 2.75,0.00 5.25,1.75 l 28.75,22.50q 8.50-4.50 19.25-8.00q 2.75-27.00 5.75-38.50q 1.75-6.00 7.50-6.00l 46.50,0.00 q 2.75,0.00 5.00,1.875t 2.50,4.375l 5.75,38.25q 8.50,2.50 18.75,7.75l 29.50-22.25q 2.00-1.75 5.00-1.75q 2.75,0.00 5.25,2.00q 36.00,33.25 36.00,40.00q0.00,2.25 -1.75,4.75q-3.00,4.00 -10.50,13.50t-11.25,15.00q 5.75,12.00 8.50,20.50l 38.00,5.75q 2.50,0.50 4.25,2.625t 1.75,4.875zM 480.00,334.50l0.00,35.00 q0.00,4.00 -37.25,7.75 q-3.00,6.75 -7.50,13.00q 12.75,28.25 12.75,34.50q0.00,1.00 -1.00,1.75q-30.50,17.75 -31.00,17.75q-2.00,0.00 -11.50-11.75t-13.00-17.00q-5.00,0.50 -7.50,0.50t-7.50-0.50q-3.50,5.25 -13.00,17.00t-11.50,11.75q-0.50,0.00 -31.00-17.75q-1.00-0.75 -1.00-1.75q0.00-6.25 12.75-34.50q-4.50-6.25 -7.50-13.00q-37.25-3.75 -37.25-7.75l0.00-35.00 q0.00-4.00 37.25-7.75q 3.25-7.25 7.50-13.00q-12.75-28.25 -12.75-34.50q0.00-1.00 1.00-1.75q 1.00-0.50 8.75-5.00 t 14.75-8.50t 7.50-4.00q 2.00,0.00 11.50,11.625t 13.00,16.875q 5.00-0.50 7.50-0.50t 7.50,0.50q 12.75-17.75 23.00-28.00l 1.50-0.50q 1.00,0.00 31.00,17.50q 1.00,0.75 1.00,1.75q0.00,6.25 -12.75,34.50q 4.25,5.75 7.50,13.00q 37.25,3.75 37.25,7.75zM 480.00,78.50l0.00,35.00 q0.00,4.00 -37.25,7.75q-3.00,6.75 -7.50,13.00q 12.75,28.25 12.75,34.50q0.00,1.00 -1.00,1.75q-30.50,17.75 -31.00,17.75q-2.00,0.00 -11.50-11.75t-13.00-17.00 q-5.00,0.50 -7.50,0.50t-7.50-0.50q-3.50,5.25 -13.00,17.00t-11.50,11.75q-0.50,0.00 -31.00-17.75q-1.00-0.75 -1.00-1.75q0.00-6.25 12.75-34.50q-4.50-6.25 -7.50-13.00q-37.25-3.75 -37.25-7.75l0.00-35.00 q0.00-4.00 37.25-7.75q 3.25-7.25 7.50-13.00q-12.75-28.25 -12.75-34.50q0.00-1.00 1.00-1.75q 1.00-0.50 8.75-5.00t 14.75-8.50t 7.50-4.00q 2.00,0.00 11.50,11.625t 13.00,16.875q 5.00-0.50 7.50-0.50t 7.50,0.50q 12.75-17.75 23.00-28.00l 1.50-0.50q 1.00,0.00 31.00,17.50 q 1.00,0.75 1.00,1.75q0.00,6.25 -12.75,34.50q 4.25,5.75 7.50,13.00q 37.25,3.75 37.25,7.75z" ></path></svg>