<?xml version="1.0" encoding="utf-8"?> <!-- Generator: IcoMoon.io --> <!DOCTYPE svg PUBLIC "-//W3C//DTD SVG 1.1//EN" "http://www.w3.org/Graphics/SVG/1.1/DTD/svg11.dtd"> <svg width="550" height="512" viewBox="0 0 550 512" xmlns="http://www.w3.org/2000/svg" xmlns:xlink="http://www.w3.org/1999/xlink" fill="#000000"><path d="M 402.112,210.64c0.00-82.64-90.032-149.632-201.056-149.632C 90.016,61.008,0.00,128.00,0.00,210.64 c0.00,49.664, 32.512,93.664, 82.56,120.88c-0.144,0.432-39.872,72.72-39.872,72.72s 121.312-46.272, 121.648-46.464 c 11.904,1.648, 24.176,2.48, 36.72,2.48C 312.08,360.256, 402.112,293.264, 402.112,210.64z M 550.16,257.392 c0.00-82.624-84.752-149.024-176.496-149.616c 131.52,131.008-23.376,270.592-149.616,270.592c0.00,0.00, 14.032,28.64, 125.056,28.64 c 12.528,0.00, 24.816-0.864, 36.72-2.496c 0.336,0.224, 121.664,46.464, 121.664,46.464s-39.744-72.272-39.872-72.704 C 517.648,351.056, 550.16,307.04, 550.16,257.392z" ></path></svg>