<?xml version="1.0" encoding="utf-8"?> <!-- Generator: IcoMoon.io --> <!DOCTYPE svg PUBLIC "-//W3C//DTD SVG 1.1//EN" "http://www.w3.org/Graphics/SVG/1.1/DTD/svg11.dtd"> <svg width="512" height="512" viewBox="0 0 512 512" xmlns="http://www.w3.org/2000/svg" xmlns:xlink="http://www.w3.org/1999/xlink" fill="#000000"><path d="M 441.00,283.50l 71.00,80.00l-87.00,23.50l 23.00,61.00l-82.50-23.00l-29.50,87.00l-79.00-52.50l-37.00,52.50l-33.50-64.00l-90.50,0.00 l 8.00-58.00l-78.00,0.00 l 36.50-86.50l-62.50-35.00l 47.50-38.00l-47.00-68.00l 95.50-23.50l0.00-74.50 l 43.50,28.50l 22.50-92.50l 80.50,67.50l 74.00-67.50l 16.00,57.50l 57.50-32.00l 14.00,85.00l 76.00-14.50l-34.00,77.00l 65.50,46.50zM 288.00,144.50q0.00-7.00 -4.75-11.50t-11.25-4.50l-32.00,0.00 q-6.50,0.00 -11.25,4.50t-4.75,11.50l0.00,128.00 q0.00,6.50 4.75,11.25t 11.25,4.75l 32.00,0.00 q 6.50,0.00 11.25-4.75t 4.75-11.25l0.00-128.00 zM 288.00,336.50q0.00-7.00 -4.75-11.50t-11.25-4.50l-32.00,0.00 q-6.50,0.00 -11.25,4.50t-4.75,11.50l0.00,31.50 q0.00,7.00 4.75,11.50t 11.25,4.50l 32.00,0.00 q 6.50,0.00 11.25-4.50t 4.75-11.50l0.00-31.50 z" ></path></svg>