<?xml version="1.0" encoding="utf-8"?> <!-- Generator: IcoMoon.io --> <!DOCTYPE svg PUBLIC "-//W3C//DTD SVG 1.1//EN" "http://www.w3.org/Graphics/SVG/1.1/DTD/svg11.dtd"> <svg width="512" height="512" viewBox="0 0 512 512" xmlns="http://www.w3.org/2000/svg" xmlns:xlink="http://www.w3.org/1999/xlink" fill="#000000"><path d="M 288.00,288.00q-64.00-46.50 -64.00-111.50q0.00-25.00 8.50-48.50l-9.00-9.00l-133.50,133.50l 103.00,195.50l 127.00,0.00 q 13.00,0.00 22.50,9.50t 9.50,22.75t-9.50,22.50t-22.50,9.25l-256.00,0.00 q-13.00,0.00 -22.50-9.25t-9.50-22.50t 9.50-22.75t 22.50-9.50l 93.00,0.00 l-91.00-171.50l-6.50,6.50q-4.50,5.00 -11.25,5.00t-11.50-4.75t-4.75-11.50t 4.50-11.25l 14.00-14.00l-16.00-30.50q-3.50-5.50 -1.75-12.00t 7.50-10.00t 12.00-1.75 t 9.75,7.75l 12.00,23.00l 128.00-127.50q-12.00-18.00 -10.00-40.00t 17.50-37.50q 18.00-18.00 43.50-18.00t 43.50,18.00l 23.00,23.00q 24.00-8.50 48.50-8.50q 65.50,0.00 112.00,64.00z" ></path></svg>