<?xml version="1.0" encoding="utf-8"?> <!-- Generator: IcoMoon.io --> <!DOCTYPE svg PUBLIC "-//W3C//DTD SVG 1.1//EN" "http://www.w3.org/Graphics/SVG/1.1/DTD/svg11.dtd"> <svg width="512" height="512" viewBox="0 0 512 512" xmlns="http://www.w3.org/2000/svg" xmlns:xlink="http://www.w3.org/1999/xlink" fill="#000000"><path d="M 192.00,448.00c0.00,35.344, 28.656,64.00, 64.00,64.00c 35.344,0.00, 64.00-28.656, 64.00-64.00s-28.656-64.00-64.00-64.00 C 220.656,384.00, 192.00,412.656, 192.00,448.00z M 192.00,64.00c0.00,35.344, 28.656,64.00, 64.00,64.00c 35.344,0.00, 64.00-28.656, 64.00-64.00c0.00-35.344-28.656-64.00-64.00-64.00C 220.656,0.00, 192.00,28.656, 192.00,64.00z M0.00,256.00 c0.00,32.00, 32.00,64.00, 64.00,64.00l 384.00,0.00 c 32.00,0.00, 64.00-32.00, 64.00-64.00s-32.00-64.00-64.00-64.00L 64.00,192.00 C 32.00,192.00,0.00,224.00,0.00,256.00z" ></path></svg>