<?xml version="1.0" encoding="utf-8"?> <!-- Generator: IcoMoon.io --> <!DOCTYPE svg PUBLIC "-//W3C//DTD SVG 1.1//EN" "http://www.w3.org/Graphics/SVG/1.1/DTD/svg11.dtd"> <svg width="512" height="512" viewBox="0 0 512 512" xmlns="http://www.w3.org/2000/svg" xmlns:xlink="http://www.w3.org/1999/xlink" fill="#000000"><path d="M 502.25,278.25q-9.75,9.75 -23.50,9.75t-23.25-9.50l-7.50-7.50l0.00,209.00 q0.00,13.50 -9.25,22.75t-22.75,9.25l-64.00,0.00 l0.00-128.00 q0.00-39.50 -28.00-67.50t-67.75-28.00t-67.75,28.00t-28.00,67.50l0.00,128.00 l-64.50,0.00 q-13.50,0.00 -22.75-9.25t-9.25-22.75l0.00-209.00 l-7.50,7.50q-9.50,9.50 -23.25,9.50t-23.50-9.75t-9.75-23.50t 9.50-23.25l 222.00-221.50 q 10.00-10.00 24.50-9.50q 14.50-0.50 24.50,9.50l 222.00,221.50q 9.50,9.50 9.50,23.25t-9.75,23.50z" ></path></svg>