<?xml version="1.0" encoding="utf-8"?> <!-- Generator: IcoMoon.io --> <!DOCTYPE svg PUBLIC "-//W3C//DTD SVG 1.1//EN" "http://www.w3.org/Graphics/SVG/1.1/DTD/svg11.dtd"> <svg width="500.00000000000006" height="500" viewBox="0 0 500 500" xmlns="http://www.w3.org/2000/svg" xmlns:xlink="http://www.w3.org/1999/xlink" fill="#000000"><path d="M 152.725,22.55L 10.00,111.45l 97.775,81.975L 250.00,101.05L 152.725,22.55z M 336.30,399.85c-2.55,0.00-5.075-0.875-7.125-2.60L 250.00,331.60 l-79.175,65.675c-2.05,1.70-4.60,2.60-7.125,2.60c-2.125,0.00-4.25-0.575-6.10-1.80l-58.65-38.375l0.00,22.65 L 250.00,477.45l 151.05-95.125 l0.00-22.65 l-58.65,38.375C 340.55,399.275, 338.425,399.85, 336.30,399.85z M 490.00,111.45l-142.725-88.90L 250.00,101.05l 142.20,92.35L 490.00,111.45z M 250.00,282.275l 88.175,73.20l 141.05-92.20l-87.00-69.85L 250.00,282.275z M 161.825,355.475L 250.00,282.275L 107.80,193.40l-87.00,69.875L 161.825,355.475z" ></path></svg>