<?xml version="1.0" encoding="utf-8"?> <!-- Generator: IcoMoon.io --> <!DOCTYPE svg PUBLIC "-//W3C//DTD SVG 1.1//EN" "http://www.w3.org/Graphics/SVG/1.1/DTD/svg11.dtd"> <svg width="512" height="512" viewBox="0 0 512 512" xmlns="http://www.w3.org/2000/svg" xmlns:xlink="http://www.w3.org/1999/xlink" fill="#000000"><path d="M 256.00,512.00q-61.00-0.50 -112.50-29.75t-81.50-79.50t-30.00-109.25q0.00-63.50 34.50-115.75t 91.50-80.75q 19.50-10.00 34.75-22.50t 23.50-23.75t 12.75-22.00t 4.25-18.25t-3.75-10.50q 24.00,21.50 31.00,29.50q 16.00,20.00 38.75,36.00t 64.75,37.00q 52.50,26.50 84.25,79.50t 31.75,114.50q0.00,59.00 -30.00,108.75t-81.50,78.50t-112.50,28.25zM 272.00,480.00q 26.00,0.00 53.00-10.50t 27.00-21.50 q0.00-12.00 -2.00-14.00t-14.00-2.00q-9.00,0.00 -29.50,8.00t-34.50,8.00q-10.50,0.00 -25.25-8.00t-22.75-8.00q-4.50,0.00 -6.75,0.25t-4.75,1.75t-3.50,4.75t-1.00,9.25q0.00,9.00 19.75,20.50t 44.25,11.50zM 352.00,384.00q0.00-10.50 -12.00-21.25t-36.00-10.75q-23.00,0.00 -35.25,9.50t-12.25,22.50q0.00,12.00 2.00,14.00t 14.00,2.00q 6.50,0.00 9.50-2.50t 3.75-5.50t 5.25-5.50t 13.00-2.50q 10.50,0.00 17.50,8.00 t 14.50,8.00q 5.00,0.00 7.00-0.25t 4.50-1.75t 3.50-4.75t 1.00-9.25zM 419.50,256.00q-22.00,0.00 -40.50,4.50t-28.75,10.25t-22.50,11.00t-23.25,6.75l-0.25-0.25l-0.25-0.25q-8.50,0.00 -22.25-5.00t-27.50-11.00t-36.25-11.00t-46.00-5.00q-28.00,0.00 -51.75,22.75t-23.75,49.25t 16.50,41.25t 44.50,14.75q 20.50,0.00 43.25-10.00t 39.25-22.00t 34.25-22.00t 29.75-10.00q 11.00-1.50 21.50,4.75 t 19.25,15.75t 17.25,19.50t 18.25,17.00t 19.25,7.00q 17.50,0.00 33.00-26.75t 15.50-54.25q0.00-17.50 -7.25-32.25t-21.25-14.75z" ></path></svg>