<?xml version="1.0" encoding="utf-8"?> <!-- Generator: IcoMoon.io --> <!DOCTYPE svg PUBLIC "-//W3C//DTD SVG 1.1//EN" "http://www.w3.org/Graphics/SVG/1.1/DTD/svg11.dtd"> <svg width="512" height="512" viewBox="0 0 512 512" xmlns="http://www.w3.org/2000/svg" xmlns:xlink="http://www.w3.org/1999/xlink" fill="#000000"><path d="M 508.50,367.00l-29.50-29.50q 1.00-9.50 1.00-17.50q0.00-55.00 -33.75-98.00t-85.75-56.50l 148.00-148.00q 3.50,7.00 3.50,14.50l0.00,320.00 q0.00,7.50 -3.50,15.00zM 320.00,160.00q-53.00,0.00 -96.00,32.50l-192.50-192.50l 0.50,0.00 l 448.00,0.00 l 0.50,0.00 l-160.00,160.00l-0.50,0.00 zM 3.50,367.00q-3.50-7.50 -3.50-15.00l0.00-320.00 q0.00-7.50 3.50-14.50l 175.00,174.50zM 160.00,320.00q0.00,33.50 13.50,64.00l-141.50,0.00 l-0.50,0.00 l 162.50-162.00q-34.00,43.50 -34.00,98.00z M 320.00,192.00q 53.00,0.00 90.50,37.50t 37.50,90.50q0.00,37.50 -20.50,69.00l 80.50,80.00q 4.00,4.00 4.00,9.75t-4.00,9.75l-19.50,19.50q-4.00,4.00 -9.75,4.00t-9.75-4.00l-80.00-80.00q-32.00,20.00 -69.00,20.00q-53.00,0.00 -90.50-37.50t-37.50-90.50t 37.50-90.50t 90.50-37.50zM 320.00,384.00q 26.50,0.00 45.25-18.75t 18.75-45.25t-18.75-45.25t-45.25-18.75t-45.25,18.75t-18.75,45.25 t 18.75,45.25t 45.25,18.75z" ></path></svg>