<?xml version="1.0" encoding="utf-8"?> <!-- Generator: IcoMoon.io --> <!DOCTYPE svg PUBLIC "-//W3C//DTD SVG 1.1//EN" "http://www.w3.org/Graphics/SVG/1.1/DTD/svg11.dtd"> <svg width="512" height="512" viewBox="0 0 512 512" xmlns="http://www.w3.org/2000/svg" xmlns:xlink="http://www.w3.org/1999/xlink" fill="#000000"><path d="M 496.00,352.00l-96.00,0.00 q-6.50,0.00 -11.25-4.75t-4.75-11.25l0.00-32.00 q0.00-6.50 4.75-11.25t 11.25-4.75l 96.00,0.00 q 6.50,0.00 11.25,4.75t 4.75,11.25l0.00,32.00 q0.00,6.50 -4.75,11.25t-11.25,4.75zM 416.00,32.00q0.00-13.50 9.25-22.75t 22.75-9.25t 22.75,9.25t 9.25,22.75l0.00,224.00 l-64.00,0.00 l0.00-224.00 zM 304.00,192.00l-96.00,0.00 q-6.50,0.00 -11.25-4.75t-4.75-11.25l0.00-32.00 q0.00-6.50 4.75-11.25t 11.25-4.75l 96.00,0.00 q 6.50,0.00 11.25,4.75t 4.75,11.25l0.00,32.00 q0.00,6.50 -4.75,11.25t-11.25,4.75zM 224.00,32.00q0.00-13.50 9.50-22.75t 22.50-9.25t 22.50,9.25t 9.50,22.75l0.00,64.00 l-64.00,0.00 l0.00-64.00 zM 112.00,416.00l-96.00,0.00 q-6.50,0.00 -11.25-4.75t-4.75-11.25l0.00-32.00 q0.00-6.50 4.75-11.25t 11.25-4.75l 96.00,0.00 q 6.50,0.00 11.25,4.75t 4.75,11.25l0.00,32.00 q0.00,6.50 -4.75,11.25t-11.25,4.75zM 32.00,32.00q0.00-13.50 9.25-22.75t 22.75-9.25t 22.75,9.25t 9.25,22.75l0.00,288.00 l-64.00,0.00 l0.00-288.00 zM 96.00,480.00q0.00,13.00 -9.25,22.50t-22.75,9.50t-22.75-9.50t-9.25-22.50l0.00-32.00 l 64.00,0.00 l0.00,32.00 zM 288.00,480.00q0.00,13.00 -9.50,22.50t-22.50,9.50t-22.50-9.50t-9.50-22.50l0.00-256.00 l 64.00,0.00 l0.00,256.00 zM 480.00,480.00q0.00,13.00 -9.50,22.50t-22.75,9.50 t-22.50-9.50t-9.25-22.50l0.00-96.00 l 64.00,0.00 l0.00,96.00 z" ></path></svg>