<?xml version="1.0" encoding="utf-8"?> <!-- Generator: IcoMoon.io --> <!DOCTYPE svg PUBLIC "-//W3C//DTD SVG 1.1//EN" "http://www.w3.org/Graphics/SVG/1.1/DTD/svg11.dtd"> <svg width="500.00000000000006" height="500" viewBox="0 0 500 500" xmlns="http://www.w3.org/2000/svg" xmlns:xlink="http://www.w3.org/1999/xlink" fill="#000000"><path d="M 450.00,75.00L 211.15,75.00 c-11.00,0.00-26.775,5.925-35.05,13.175L 6.20,236.825c-8.275,7.25-8.275,19.10,0.00,26.35l 169.90,148.675 C 184.375,419.075, 200.15,425.00, 211.15,425.00L 450.00,425.00 c 27.525,0.00, 50.00-22.50, 50.00-50.00L 500.00,125.00 C 500.00,97.50, 477.525,75.00, 450.00,75.00z M 379.775,350.00l-63.925-63.925L 251.975,350.00l-36.10-36.075 L 279.775,250.00L 215.875,186.10L 251.975,150.00l 63.90,63.90L 379.775,150.00l 36.075,36.10L 351.975,250.00l 63.90,63.90L 379.775,350.00z" ></path></svg>