<?xml version="1.0" encoding="utf-8"?> <!-- Generator: IcoMoon.io --> <!DOCTYPE svg PUBLIC "-//W3C//DTD SVG 1.1//EN" "http://www.w3.org/Graphics/SVG/1.1/DTD/svg11.dtd"> <svg width="512" height="512" viewBox="0 0 512 512" xmlns="http://www.w3.org/2000/svg" xmlns:xlink="http://www.w3.org/1999/xlink" fill="#000000"><path d="M 480.00,380.00l0.00,4.00 l-2.00-1.00q-33.50,59.00 -92.75,94.00t-129.25,35.00q-52.00,0.00 -99.50-20.25t-81.75-54.50t-54.50-81.75t-20.25-99.50t 20.25-99.25t 54.50-81.50t 81.75-54.50t 99.50-20.25q 70.00,0.00 129.25,35.00t 92.75,94.00l 2.00-1.50l0.00,4.50 q 32.00,57.50 32.00,123.50t-32.00,124.00zM 224.00,352.00q 13.50,0.00 22.75-9.25t 9.25-22.50t-9.25-22.75t-22.75-9.50l-60.50,0.00 q-3.50-16.00 -3.50-32.00q0.00-15.50 3.50-32.00l 60.50,0.00 q 13.00,0.00 22.50-9.25t 9.50-22.50t-9.25-22.75t-22.75-9.50l-26.00,0.00 q 32.00-32.00 74.00-32.00q 30.50,0.00 56.25,17.50t 40.25,46.50l-0.50,0.00 q 3.50,7.50 12.75,11.75t 19.25,4.25q 13.50,0.00 22.75-9.25t 9.25-22.75q0.00-17.00 -14.00-26.50q-24.50-39.00 -62.75-62.25t-83.25-23.25q-48.00,0.00 -88.50,26.25t-64.00,69.75l-23.50,0.00 q-13.00,0.00 -22.50,9.50 t-9.50,22.75t 9.50,22.50t 22.50,9.25l 2.50,0.00 q-2.50,17.00 -2.50,32.00t 2.50,32.00l-2.50,0.00 q-13.00,0.00 -22.50,9.50t-9.50,22.75t 9.50,22.50t 22.50,9.25l 23.50,0.00 q 23.50,44.00 64.00,70.00t 88.50,26.00q 45.00,0.00 83.25-23.00t 62.75-62.50q 14.00-9.50 14.00-26.50q0.00-13.00 -9.25-22.50t-22.75-9.50q-10.00,0.00 -19.25,4.25t-12.75,11.75l 0.50,0.50q-14.50,29.00 -40.25,46.25t-56.25,17.25 q-42.00,0.00 -74.00-32.00l 26.00,0.00 z" ></path></svg>