<?xml version="1.0" encoding="utf-8"?> <!-- Generator: IcoMoon.io --> <!DOCTYPE svg PUBLIC "-//W3C//DTD SVG 1.1//EN" "http://www.w3.org/Graphics/SVG/1.1/DTD/svg11.dtd"> <svg width="500.00000000000006" height="500" viewBox="0 0 500 500" xmlns="http://www.w3.org/2000/svg" xmlns:xlink="http://www.w3.org/1999/xlink" fill="#000000"><path d="M 433.475,107.70c0.00-28.75-43.30-31.95-43.30-31.95l-101.725-6.40c0.00,0.00-2.175-27.70-22.75-37.30 c-20.55-9.575-43.15-6.675-59.375-6.50S 186.225,46.45, 186.225,66.00s 0.375,42.05, 0.375,56.25c0.00,25.40-11.175,36.225-39.15,36.225L 89.775,158.475 C 73.65,157.425, 61.075,160.075, 61.075,173.125c0.00,13.025, 19.00,124.30, 45.05,149.975c 15.125,14.90, 107.60,25.35, 127.075,25.35s 13.00-57.525, 18.40-57.525 s 11.375,32.50, 42.05,40.10c 30.675,7.65, 71.625,6.225, 73.80,28.05c 2.825,28.80, 5.40,66.075-13.55,68.725l-42.875,1.70 c-29.40-2.125-21.525-34.225-8.55-34.225s 19.475-0.525, 19.475-0.525l 1.625-35.15c0.00,0.00-67.325-7.95-70.20,37.475 c-2.60,41.50, 4.525,61.075, 9.75,65.325C 268.375,466.70, 277.425,475.00, 359.875,475.00C 476.05,475.00, 433.475,136.425, 433.475,107.70z M 386.00,258.025 C 381.45,262.875, 364.95,250.00, 349.20,250.00c-15.775,0.00-32.80,8.35-36.80,2.875c-3.975-5.50, 3.675-49.80, 33.375-49.80 S 390.575,253.15, 386.00,258.025zM 145.075,104.15c0.00-5.675, 1.475-74.60, 1.475-74.60L 58.90,115.525c0.00,0.00, 60.55,0.00, 72.425,0.00C 143.25,115.525, 145.075,109.85, 145.075,104.15z" ></path></svg>