<?xml version="1.0" encoding="utf-8"?> <!-- Generator: IcoMoon.io --> <!DOCTYPE svg PUBLIC "-//W3C//DTD SVG 1.1//EN" "http://www.w3.org/Graphics/SVG/1.1/DTD/svg11.dtd"> <svg width="512" height="512" viewBox="0 0 512 512" xmlns="http://www.w3.org/2000/svg" xmlns:xlink="http://www.w3.org/1999/xlink" fill="#000000"><path d="M 146.288,256.00c0.00-58.912, 49.12-106.672, 109.712-106.672s 109.712,47.76, 109.712,106.672 s-49.12,106.672-109.712,106.672S 146.288,314.912, 146.288,256.00z M0.00,259.84C 47.408,352.576, 143.392,416.00, 254.112,416.00C 367.84,416.00, 466.064,349.04, 512.00,252.16 C 464.592,159.424, 368.592,96.00, 257.888,96.00C 144.16,96.00, 45.952,162.96,0.00,259.84z M 201.136,256.00c0.00,29.456, 24.56,53.328, 54.864,53.328s 54.864-23.872, 54.864-53.328 S 286.304,202.672, 256.00,202.672S 201.136,226.544, 201.136,256.00z" ></path></svg>