<?xml version="1.0" encoding="utf-8"?> <!-- Generator: IcoMoon.io --> <!DOCTYPE svg PUBLIC "-//W3C//DTD SVG 1.1//EN" "http://www.w3.org/Graphics/SVG/1.1/DTD/svg11.dtd"> <svg width="500.00000000000006" height="500" viewBox="0 0 500 500" xmlns="http://www.w3.org/2000/svg" xmlns:xlink="http://www.w3.org/1999/xlink" fill="#000000"><path d="M 411.25,35.00L 88.75,35.00 C 59.20,35.00, 35.00,59.20, 35.00,88.75l0.00,322.50 c0.00,29.575, 24.20,53.725, 53.725,53.725l 163.10,0.00 l0.00-154.175 l-51.50,0.00 L 200.325,243.65 l 51.50,0.00 L 251.825,210.00 c0.00-51.875, 38.30-92.50, 87.20-92.50l 47.45,0.00 l0.00,75.85 l-42.475,0.00 c-11.10,0.00-14.35,6.375-14.35,15.175l0.00,35.10 l 56.825,0.00 l0.00,67.175 l-56.825,0.00 L 329.65,465.00 l 81.575,0.00 c 29.575,0.00, 53.725-24.175, 53.725-53.725L 464.95,88.75 C 465.00,59.20, 440.825,35.00, 411.25,35.00z" ></path></svg>