<?xml version="1.0" encoding="utf-8"?> <!-- Generator: IcoMoon.io --> <!DOCTYPE svg PUBLIC "-//W3C//DTD SVG 1.1//EN" "http://www.w3.org/Graphics/SVG/1.1/DTD/svg11.dtd"> <svg width="512" height="512" viewBox="0 0 512 512" xmlns="http://www.w3.org/2000/svg" xmlns:xlink="http://www.w3.org/1999/xlink" fill="#000000"><path d="M 448.00,512.00l-384.00,0.00 q-13.00,0.00 -22.50-9.25t-9.50-22.75l0.00-447.50 q0.00-13.50 9.50-22.75t 22.50-9.25l 224.00,0.00 l0.00,176.00 q0.00,6.50 4.75,11.25t 11.25,4.75l 176.00,0.00 l0.00,0.50 l0.00,287.00 q0.00,13.50 -9.25,22.75t-22.75,9.25zM 230.50,310.00l-38.50-86.00l-38.50,86.00l-89.50,12.00l 66.00,65.00l-17.00,93.00l 79.00-45.50l 79.00,45.50l-17.00-93.00l 66.00-65.00zM 320.00,0.00q 13.00,0.00 22.00,9.00 l 128.50,128.50q 9.50,9.50 9.50,23.00l-160.00,0.00 l0.00-160.50 z" ></path></svg>