<?xml version="1.0" encoding="utf-8"?> <!-- Generator: IcoMoon.io --> <!DOCTYPE svg PUBLIC "-//W3C//DTD SVG 1.1//EN" "http://www.w3.org/Graphics/SVG/1.1/DTD/svg11.dtd"> <svg width="512" height="512" viewBox="0 0 512 512" xmlns="http://www.w3.org/2000/svg" xmlns:xlink="http://www.w3.org/1999/xlink" fill="#000000"><path d="M 68.147,375.465c-37.598,0.00-68.146,30.667-68.146,68.038c0.00,37.577, 30.55,67.901, 68.146,67.901 c 37.733,0.00, 68.247-30.324, 68.247-67.901C 136.393,406.132, 105.882,375.465, 68.147,375.465zM 0.078,173.965l0.00,98.129 c 63.892,0.00, 123.979,24.986, 169.229,70.256c 45.192,45.159, 70.141,105.518, 70.141,169.65l 98.561,0.00 C 338.008,325.59, 186.368,173.965, 0.078,173.965zM 0.194,0.00l0.00,98.178 c 227.891,0.00, 413.378,185.667, 413.378,413.822L 512.00,512.00 C 512.00,229.765, 282.373,0.00, 0.194,0.00z" ></path></svg>