<?xml version="1.0" encoding="utf-8"?> <!-- Generator: IcoMoon.io --> <!DOCTYPE svg PUBLIC "-//W3C//DTD SVG 1.1//EN" "http://www.w3.org/Graphics/SVG/1.1/DTD/svg11.dtd"> <svg width="512" height="512" viewBox="0 0 512 512" xmlns="http://www.w3.org/2000/svg" xmlns:xlink="http://www.w3.org/1999/xlink" fill="#000000"><path d="M 496.00,384.00q 6.50,0.00 11.25,4.75t 4.75,11.25l0.00,32.00 q0.00,6.50 -4.75,11.25t-11.25,4.75l-16.00,0.00 l0.00,48.00 q0.00,6.50 -4.75,11.25t-11.25,4.75l-64.00,0.00 q-6.50,0.00 -11.25-4.75t-4.75-11.25l0.00-48.00 l-64.00,0.00 l0.00,48.00 q0.00,6.50 -4.75,11.25t-11.25,4.75l-64.00,0.00 q-6.50,0.00 -11.25-4.75t-4.75-11.25l0.00-48.00 l-64.00,0.00 l0.00,48.00 q0.00,6.50 -4.75,11.25t-11.25,4.75l-64.00,0.00 q-6.50,0.00 -11.25-4.75t-4.75-11.25l0.00-48.00 l-48.00,0.00 q-6.50,0.00 -11.25-4.75t-4.75-11.25l0.00-32.00 q0.00-6.50 4.75-11.25t 11.25-4.75l 48.00,0.00 l0.00-192.00 l-48.00,0.00 q-6.50,0.00 -11.25-4.75t-4.75-11.25l0.00-32.00 q0.00-6.50 4.75-11.25t 11.25-4.75l 48.00,0.00 l0.00-48.00 q0.00-20.00 2.50-25.00l 39.00-51.50q 2.50-3.50 6.25-3.50t 6.75,3.50l 38.50,51.50q 3.00,4.00 3.00,25.00l0.00,48.00 l 64.00,0.00 l0.00-48.00 q0.00-18.50 2.50-25.00l 39.00-51.50q 2.50-3.50 6.25-3.50 t 6.75,3.50l 39.00,51.50q 2.50,4.00 2.50,25.00l0.00,48.00 l 64.00,0.00 l0.00-48.00 q0.00-21.50 2.50-25.00l 39.00-51.50q 2.50-3.50 6.25-3.50t 6.75,3.50l 38.50,51.50q 3.00,5.50 3.00,25.00l0.00,48.00 l 16.00,0.00 q 6.50,0.00 11.25,4.75t 4.75,11.25l0.00,32.00 q0.00,6.50 -4.75,11.25t-11.25,4.75l-16.00,0.00 l0.00,192.00 l 16.00,0.00 zM 224.00,192.00l-64.00,0.00 l0.00,192.00 l 64.00,0.00 l0.00-192.00 zM 384.00,192.00l-64.00,0.00 l0.00,192.00 l 64.00,0.00 l0.00-192.00 z" ></path></svg>