<?xml version="1.0" encoding="utf-8"?> <!-- Generator: IcoMoon.io --> <!DOCTYPE svg PUBLIC "-//W3C//DTD SVG 1.1//EN" "http://www.w3.org/Graphics/SVG/1.1/DTD/svg11.dtd"> <svg width="512" height="512" viewBox="0 0 512 512" xmlns="http://www.w3.org/2000/svg" xmlns:xlink="http://www.w3.org/1999/xlink" fill="#000000"><path d="M 224.00,288.00L 192.00,256.00L 96.00,352.00L 192.00,448.00L 224.00,416.00L 160.00,352.00 zM 288.00,416.00L 320.00,448.00L 416.00,352.00L 320.00,256.00L 288.00,288.00L 352.00,352.00 zM 451.716,99.715l-71.432-71.431C 364.728,12.728, 334.00,0.00, 312.00,0.00L 72.00,0.00 C 50.00,0.00, 32.00,18.00, 32.00,40.00l0.00,432.00 c0.00,22.00, 18.00,40.00, 40.00,40.00l 368.00,0.00 c 22.00,0.00, 40.00-18.00, 40.00-40.00L 480.00,168.00 C 480.00,146.00, 467.272,115.271, 451.716,99.715z M 429.089,122.343c 1.565,1.565, 3.125,3.487, 4.64,5.657L 352.00,128.00 L 352.00,46.272 c 2.17,1.515, 4.092,3.075, 5.657,4.64L 429.089,122.343z M 448.00,472.00c0.00,4.336-3.664,8.00-8.00,8.00L 72.00,480.00 c-4.336,0.00-8.00-3.664-8.00-8.00L 64.00,40.00 c0.00-4.336, 3.664-8.00, 8.00-8.00l 240.00,0.00 c 2.416,0.00, 5.127,0.305, 8.00,0.852L 320.00,160.00 l 127.148,0.00 c 0.547,2.873, 0.852,5.583, 0.852,8.00L 448.00,472.00 z" ></path></svg>