<?xml version="1.0" encoding="utf-8"?> <!-- Generator: IcoMoon.io --> <!DOCTYPE svg PUBLIC "-//W3C//DTD SVG 1.1//EN" "http://www.w3.org/Graphics/SVG/1.1/DTD/svg11.dtd"> <svg width="500.00000000000006" height="500" viewBox="0 0 500 500" xmlns="http://www.w3.org/2000/svg" xmlns:xlink="http://www.w3.org/1999/xlink" fill="#000000"><path d="M 187.125,250.00c0.00,6.45, 6.55,11.05, 6.55,11.05l 181.875,114.225C 389.025,384.10, 400.00,377.60, 400.00,360.90L 400.00,139.10 c0.00-16.725-10.975-23.225-24.45-14.40l-181.875,114.25C 193.675,238.975, 187.125,243.55, 187.125,250.00z M 100.00,133.925l0.00,232.15 c0.00,22.20, 15.30,29.00, 37.50,29.00 S 175.00,388.275, 175.00,366.10L 175.00,133.925 c0.00-22.225-15.30-29.025-37.50-29.025S 100.00,111.725, 100.00,133.925z" ></path></svg>