<?xml version="1.0" encoding="utf-8"?> <!-- Generator: IcoMoon.io --> <!DOCTYPE svg PUBLIC "-//W3C//DTD SVG 1.1//EN" "http://www.w3.org/Graphics/SVG/1.1/DTD/svg11.dtd"> <svg width="512" height="512" viewBox="0 0 512 512" xmlns="http://www.w3.org/2000/svg" xmlns:xlink="http://www.w3.org/1999/xlink" fill="#000000"><path d="M 488.00,378.00q 21.50,31.50 28.25,62.25t-4.25,51.25t-39.00,20.50l-421.00,0.00 q-28.00,0.00 -39.00-20.50t-4.25-51.25t 28.25-62.25l 129.50-164.00l0.00-150.00 l-32.00,0.00 q-13.00,0.00 -22.50-9.25t-9.50-22.50t 9.50-22.75t 22.50-9.50l 256.00,0.00 q 13.00,0.00 22.50,9.50t 9.50,22.75t-9.50,22.50t-22.50,9.25l-32.00,0.00 l0.00,150.00 zM 294.50,224.00l0.00-160.00 l-64.00,0.00 l0.00,160.00 l-74.50,96.00l 213.00,0.00 z" ></path></svg>