<?xml version="1.0" encoding="utf-8"?> <!-- Generator: IcoMoon.io --> <!DOCTYPE svg PUBLIC "-//W3C//DTD SVG 1.1//EN" "http://www.w3.org/Graphics/SVG/1.1/DTD/svg11.dtd"> <svg width="512" height="512" viewBox="0 0 512 512" xmlns="http://www.w3.org/2000/svg" xmlns:xlink="http://www.w3.org/1999/xlink" fill="#000000"><path d="M 256.00,0.00C 114.615,0.00,0.00,115.398,0.00,257.75S 114.615,515.50, 256.00,515.50s 256.00-115.398, 256.00-257.75S 397.385,0.00, 256.00,0.00z M 144.00,336.00 c-44.183,0.00-80.00-35.817-80.00-80.00c0.00-44.183, 35.817-80.00, 80.00-80.00s 80.00,35.817, 80.00,80.00C 224.00,300.183, 188.183,336.00, 144.00,336.00z M 368.00,336.00 c-44.184,0.00-80.00-35.817-80.00-80.00c0.00-44.183, 35.816-80.00, 80.00-80.00s 80.00,35.817, 80.00,80.00C 448.00,300.183, 412.184,336.00, 368.00,336.00z" ></path></svg>