<?xml version="1.0" encoding="utf-8"?> <!-- Generator: IcoMoon.io --> <!DOCTYPE svg PUBLIC "-//W3C//DTD SVG 1.1//EN" "http://www.w3.org/Graphics/SVG/1.1/DTD/svg11.dtd"> <svg width="500.00000000000006" height="500" viewBox="0 0 500 500" xmlns="http://www.w3.org/2000/svg" xmlns:xlink="http://www.w3.org/1999/xlink" fill="#000000"><path d="M 250.00,10.00C 117.45,10.00, 10.00,117.45, 10.00,250.00S 117.45,490.00, 250.00,490.00S 490.00,382.55, 490.00,250.00S 382.575,10.00, 250.00,10.00z M 185.875,300.525 c-27.375,0.00-49.55-22.60-49.55-50.525c0.00-27.925, 22.175-50.525, 49.55-50.525c 27.375,0.00, 49.575,22.60, 49.575,50.525 C 235.425,277.925, 213.25,300.525, 185.875,300.525z M 314.10,300.525c-27.40,0.00-49.575-22.60-49.575-50.525c0.00-27.925, 22.175-50.525, 49.575-50.525 c 27.35,0.00, 49.55,22.60, 49.55,50.525C 363.675,277.925, 341.45,300.525, 314.10,300.525z" ></path></svg>