<?xml version="1.0" encoding="utf-8"?> <!-- Generator: IcoMoon.io --> <!DOCTYPE svg PUBLIC "-//W3C//DTD SVG 1.1//EN" "http://www.w3.org/Graphics/SVG/1.1/DTD/svg11.dtd"> <svg width="512" height="512" viewBox="0 0 512 512" xmlns="http://www.w3.org/2000/svg" xmlns:xlink="http://www.w3.org/1999/xlink" fill="#000000"><path d="M 256.00,512.00q-52.00,0.00 -99.50-20.25t-81.75-54.50t-54.50-81.75t-20.25-99.50t 20.25-99.50t 54.50-81.75t 81.75-54.50t 99.50-20.25t 99.50,20.25t 81.75,54.50t 54.50,81.75t 20.25,99.50t-20.25,99.50t-54.50,81.75t-81.75,54.50t-99.50,20.25zM 160.00,208.00q0.00-6.50 -4.75-11.25t-11.25-4.75t-11.25,4.75t-4.75,11.25l0.00,48.00 l-32.00,0.00 l0.00-48.00 q0.00-6.50 -4.75-11.25t-11.25-4.75t-11.25,4.75t-4.75,11.25l0.00,64.00 q0.00,6.00 3.75,10.25t 9.25,5.25q 1.00,0.50 3.00,0.50l 48.00,0.00 l0.00,48.00 q0.00,6.50 4.75,11.25t 11.25,4.75t 11.25-4.75t 4.75-11.25l0.00-128.00 zM 320.00,224.00q0.00-13.00 -9.50-22.50t-22.50-9.50l-64.00,0.00 q-13.00,0.00 -22.50,9.50t-9.50,22.50l0.00,96.00 q0.00,13.50 9.50,22.75t 22.50,9.25l 64.00,0.00 q 13.00,0.00 22.50-9.25t 9.50-22.75 l0.00-96.00 zM 432.00,192.00q-6.50,0.00 -11.25,4.75t-4.75,11.25l0.00,48.00 l-32.00,0.00 l0.00-48.00 q0.00-6.50 -4.75-11.25t-11.25-4.75t-11.25,4.75t-4.75,11.25l0.00,64.00 q0.00,6.00 3.75,10.25t 9.25,5.25q 1.00,0.50 3.00,0.50l 48.00,0.00 l0.00,48.00 q0.00,6.50 4.75,11.25t 11.25,4.75t 11.25-4.75t 4.75-11.25l0.00-128.00 q0.00-6.50 -4.75-11.25t-11.25-4.75zM 224.00,224.00l 64.00,0.00 l0.00,96.00 l-64.00,0.00 l0.00-96.00 z" ></path></svg>