<?xml version="1.0" encoding="utf-8"?> <!-- Generator: IcoMoon.io --> <!DOCTYPE svg PUBLIC "-//W3C//DTD SVG 1.1//EN" "http://www.w3.org/Graphics/SVG/1.1/DTD/svg11.dtd"> <svg width="512" height="512" viewBox="0 0 512 512" xmlns="http://www.w3.org/2000/svg" xmlns:xlink="http://www.w3.org/1999/xlink" fill="#000000"><path d="M 336.00,512.00l-240.00,0.00 q-13.00,0.00 -22.50-9.50t-9.50-22.50l0.00-448.00 q0.00-13.50 9.25-22.75t 22.75-9.25l 320.00,0.00 q 13.50,0.00 22.75,9.25t 9.25,22.75l0.00,368.00 q0.00,46.50 -32.75,79.25t-79.25,32.75zM 320.25,448.00q 13.25,0.00 22.50-9.50t 9.25-22.75t-9.25-22.50t-22.50-9.25t-22.75,9.25t-9.50,22.50t 9.50,22.75t 22.75,9.50zM 96.00,360.00l0.00,16.00 q0.00,3.50 2.25,5.75 t 5.75,2.25l 24.00,0.00 l0.00,24.00 q0.00,3.50 2.25,5.75t 5.75,2.25l 16.00,0.00 q 3.50,0.00 5.75-2.25t 2.25-5.75l0.00-24.00 l 24.00,0.00 q 3.50,0.00 5.75-2.25t 2.25-5.75l0.00-16.00 q0.00-3.50 -2.25-5.75t-5.75-2.25l-24.00,0.00 l0.00-24.00 q0.00-3.50 -2.25-5.75t-5.75-2.25l-16.00,0.00 q-3.50,0.00 -5.75,2.25t-2.25,5.75l0.00,24.00 l-24.00,0.00 q-3.50,0.00 -5.75,2.25t-2.25,5.75zM 384.00,80.00q0.00-6.50 -4.75-11.25t-11.25-4.75 l-224.00,0.00 q-6.50,0.00 -11.25,4.75t-4.75,11.25l0.00,160.00 q0.00,6.50 4.75,11.25t 11.25,4.75l 224.00,0.00 q 6.50,0.00 11.25-4.75t 4.75-11.25l0.00-160.00 zM 384.25,320.00q-13.25,0.00 -22.75,9.25t-9.50,22.50t 9.50,22.75t 22.75,9.50t 22.50-9.50t 9.25-22.75t-9.25-22.50t-22.50-9.25z" ></path></svg>