<?xml version="1.0" encoding="utf-8"?> <!-- Generator: IcoMoon.io --> <!DOCTYPE svg PUBLIC "-//W3C//DTD SVG 1.1//EN" "http://www.w3.org/Graphics/SVG/1.1/DTD/svg11.dtd"> <svg width="384" height="448" viewBox="0 0 384 448" xmlns="http://www.w3.org/2000/svg" xmlns:xlink="http://www.w3.org/1999/xlink" fill="#000000"><path d="M 145.50,327.00q0.00,16.50 -23.25,16.50q-26.75,0.00 -26.75-15.75q0.00-16.00 24.50-16.00q 25.50,0.00 25.50,15.25zM 136.50,210.50q0.00,21.25 -18.50,21.25q-19.25,0.00 -19.25-21.00q0.00-22.50 19.25-22.50q 9.00,0.00 13.75,6.50t 4.75,15.75zM 178.00,191.75l0.00-31.25 q-19.50,7.25 -33.75,7.25q-12.50-7.25 -27.50-7.25q-21.50,0.00 -36.25,14.25t-14.75,35.75q0.00,12.50 7.375,25.50t 18.375,16.75l0.00,0.75 q-9.50,4.25 -9.50,21.25 q0.00,13.00 10.25,19.25l0.00,0.75 q-28.25,9.25 -28.25,34.75q0.00,15.00 9.00,24.50t 21.00,12.75t 26.75,3.25q 56.00,0.00 56.00-46.75q0.00-12.00 -6.375-19.50t-15.625-10.625t-18.50-5.375t-15.625-5.875t-6.375-9.875q0.00-11.00 12.25-13.00q 19.25-3.75 30.50-17.50t 11.25-33.50q0.00-6.00 -2.50-13.00q 7.50-1.75 12.25-3.25zM 192.75,296.50l 34.25,0.00 q-0.50-5.00 -0.50-22.50l0.00-93.00 q0.00-14.75 0.50-19.00l-34.25,0.00 q 0.75,6.50 0.75,19.75l0.00,94.25 q0.00,13.75 -0.75,20.50zM 320.00,292.50l0.00-30.25 q-7.50,5.25 -17.00,5.25q-13.25,0.00 -13.25-20.50l0.00-56.25 l 13.00,0.00 q 2.25,0.00 6.625,0.25t 6.625,0.25l0.00-29.25 l-26.25,0.00 q0.00-20.50 0.75-25.50l-35.00,0.00 q 1.00,6.00 1.00,13.75l0.00,11.75 l-15.00,0.00 l0.00,29.25 q 9.00-0.75 9.25-0.75q 1.00,0.00 2.875,0.125t 2.875,0.125l0.00,0.50 l-0.50,0.00 l0.00,54.25 q0.00,9.25 0.625,16.00t 2.875,14.125t 6.125,12.125t 10.875,7.75t 16.50,3.00q 16.00,0.00 27.00-6.00zM 231.00,116.00 q0.00-9.00 -6.00-15.875t-15.00-6.875t-15.125,6.75t-6.125,16.00q0.00,9.00 6.25,15.625t 15.00,6.625t 14.875-6.75t 6.125-15.50zM 384.00,104.00l0.00,240.00 q0.00,29.75 -21.125,50.875t-50.875,21.125l-240.00,0.00 q-29.75,0.00 -50.875-21.125t-21.125-50.875l0.00-240.00 q0.00-29.75 21.125-50.875t 50.875-21.125l 240.00,0.00 q 29.75,0.00 50.875,21.125t 21.125,50.875z" ></path></svg>