<?xml version="1.0" encoding="utf-8"?> <!-- Generator: IcoMoon.io --> <!DOCTYPE svg PUBLIC "-//W3C//DTD SVG 1.1//EN" "http://www.w3.org/Graphics/SVG/1.1/DTD/svg11.dtd"> <svg width="500.00000000000006" height="500" viewBox="0 0 500 500" xmlns="http://www.w3.org/2000/svg" xmlns:xlink="http://www.w3.org/1999/xlink" fill="#000000"><path d="M 250.35,248.725c-0.125,0.00-0.25,0.00-0.35,0.00c-0.15,0.00-0.25,0.00-0.375,0.00c-29.775,0.00-56.025-7.55-71.55,6.725 c-9.30,8.55-13.20,18.825-13.20,29.90c0.00,46.325, 37.10,52.00, 84.75,52.00l 0.70,0.00 c 47.65,0.00, 84.75-5.70, 84.75-52.00 c0.00-11.075-3.90-21.35-13.225-29.90C 306.40,241.175, 280.125,248.725, 250.35,248.725z M 209.85,312.00c-9.075,0.00-16.425-10.175-16.425-22.725 s 7.35-22.725, 16.425-22.725s 16.425,10.175, 16.425,22.725S 218.90,312.00, 209.85,312.00z M 290.125,312.00c-9.025,0.00-16.40-10.175-16.40-22.725 s 7.35-22.725, 16.40-22.725c 9.075,0.00, 16.45,10.175, 16.45,22.725S 299.225,312.00, 290.125,312.00z M 250.00,10.00C 117.45,10.00, 10.00,117.45, 10.00,250.00 S 117.45,490.00, 250.00,490.00c 132.50,0.00, 239.975-107.45, 239.975-240.00S 382.525,10.00, 250.00,10.00z M 271.875,348.50c-4.30,0.00-12.85,0.00-21.875,0.025 C 240.95,348.50, 232.40,348.50, 228.125,348.50c-19.025,0.00-94.325-1.475-94.325-92.225c0.00-20.875, 7.15-36.15, 18.875-48.875 C 150.80,202.775, 150.70,176.55, 160.675,151.50c0.00,0.00, 22.90,2.50, 57.50,26.25c 7.25-2.00, 19.525-3.00, 31.825-3.00c 12.25,0.00, 24.55,1.00, 31.825,3.00 c 34.625-23.75, 57.475-26.25, 57.475-26.25c 9.95,25.075, 9.90,51.30, 8.00,55.90c 11.725,12.725, 18.90,28.00, 18.90,48.875 C 366.20,347.05, 290.925,348.50, 271.875,348.50z" ></path></svg>