<?xml version="1.0" encoding="utf-8"?> <!-- Generator: IcoMoon.io --> <!DOCTYPE svg PUBLIC "-//W3C//DTD SVG 1.1//EN" "http://www.w3.org/Graphics/SVG/1.1/DTD/svg11.dtd"> <svg width="512" height="512" viewBox="0 0 512 512" xmlns="http://www.w3.org/2000/svg" xmlns:xlink="http://www.w3.org/1999/xlink" fill="#000000"><path d="M 405.00,373.00q-61.50,61.00 -148.00,72.50l0.00,34.50 l 48.00,0.00 q 6.50,0.00 11.25,4.75t 4.75,11.25t-4.75,11.25t-11.25,4.75l-160.00,0.00 q-6.50,0.00 -11.25-4.75t-4.75-11.25t 4.75-11.25t 11.25-4.75l 48.00,0.00 l0.00-34.50 q-87.50-10.50 -149.50-72.50l-11.50-11.50l 46.00-46.00q-44.50-53.50 -44.50-123.00q0.00-52.00 25.50-96.25t 69.75-70.00t 96.25-25.75q 69.50,0.00 123.00,45.00l 45.50-45.50l 11.50,11.50 q 49.00,49.00 66.50,114.75t0.00,131.50t-66.50,115.25zM 393.00,45.50q-6.50,7.00 -22.50,22.50q 46.00,54.00 46.00,124.50q0.00,52.00 -25.50,96.25t-69.75,69.75t-96.25,25.50q-70.50,0.00 -124.50-46.00q-4.00,4.00 -22.50,23.00q 43.00,37.50 98.25,49.75t 110.00-3.50t 96.00-57.00t 57.00-96.00t 3.50-110.00t-49.75-98.75z" ></path></svg>