<?xml version="1.0" encoding="utf-8"?> <!-- Generator: IcoMoon.io --> <!DOCTYPE svg PUBLIC "-//W3C//DTD SVG 1.1//EN" "http://www.w3.org/Graphics/SVG/1.1/DTD/svg11.dtd"> <svg width="512" height="512" viewBox="0 0 512 512" xmlns="http://www.w3.org/2000/svg" xmlns:xlink="http://www.w3.org/1999/xlink" fill="#000000"><path d="M 448.00,512.00l-208.00,0.00 q 32.00-34.00 32.00-80.00q0.00-55.50 -38.00-90.50q-6.50-6.00 -14.75-12.50t-17.75-13.50t-13.50-10.00l0.00-0.50 q-12.00-6.50 -12.00-33.00q0.00-7.00 10.75-16.50t 21.25-15.50q 12.00-6.50 22.00-28.75t 10.00-51.25q0.00-28.00 -9.25-54.25t-27.25-41.75l 36.50,0.00 l 32.00-32.00l-157.00,0.00 q-78.00,0.00 -115.00,39.00l0.00-7.00 q0.00-26.50 18.75-45.25t 45.25-18.75l 384.00,0.00 q 26.50,0.00 45.25,18.75t 18.75,45.25 l0.00,384.00 q0.00,26.50 -18.75,45.25t-45.25,18.75zM 464.00,128.00l-48.00,0.00 l0.00-48.00 q0.00-6.50 -4.75-11.25t-11.25-4.75t-11.25,4.75t-4.75,11.25l0.00,48.00 l-48.00,0.00 q-6.50,0.00 -11.25,4.75t-4.75,11.25t 4.75,11.25t 11.25,4.75l 48.00,0.00 l0.00,48.00 q0.00,6.50 4.75,11.25t 11.25,4.75t 11.25-4.75t 4.75-11.25l0.00-48.00 l 48.00,0.00 q 6.50,0.00 11.25-4.75t 4.75-11.25t-4.75-11.25t-11.25-4.75 zM 96.00,64.00q 39.00,0.00 67.50,28.25t 28.50,67.75q0.00,38.00 -22.75,59.00t-57.25,21.00q-32.50,0.00 -56.25-28.25t-23.75-67.75q0.00-33.50 20.25-56.75t 43.75-23.25zM 96.00,272.00l0.00,16.00 q0.00,11.00 4.00,23.00t 8.00,18.50l 4.00,6.50q-67.00,0.00 -112.00,26.00l0.00-121.50 q 33.50,30.50 96.00,31.50zM0.00,420.50q 11.00-27.50 46.75-40.00t 81.25-12.50q 21.00,0.00 42.75,9.75t 37.50,28.75 t 15.75,41.50q0.00,19.00 -11.25,35.75t-30.25,28.25l-118.50,0.00 q-26.50,0.00 -45.25-18.75t-18.75-45.25l0.00-27.50 z" ></path></svg>