<?xml version="1.0" encoding="utf-8"?> <!-- Generator: IcoMoon.io --> <!DOCTYPE svg PUBLIC "-//W3C//DTD SVG 1.1//EN" "http://www.w3.org/Graphics/SVG/1.1/DTD/svg11.dtd"> <svg width="500.00000000000006" height="500" viewBox="0 0 500 500" xmlns="http://www.w3.org/2000/svg" xmlns:xlink="http://www.w3.org/1999/xlink" fill="#000000"><path d="M 227.425,182.125c-6.025-21.25-15.775-27.525-30.95-27.525c-1.625,0.00-3.275,0.225-4.85,0.65C 185.025,157.125, 179.825,162.625, 176.925,170.75 C 173.95,179.00, 173.75,187.625, 176.35,197.425c 4.60,17.50, 17.05,30.225, 29.625,30.225c 1.625,0.00, 3.275-0.225, 4.85-0.65 C 224.50,223.125, 233.10,202.175, 227.425,182.125z M 250.00,10.00c-132.55,0.00-240.00,107.45-240.00,240.00s 107.45,240.00, 240.00,240.00c 132.575,0.00, 240.00-107.45, 240.00-240.00 S 382.575,10.00, 250.00,10.00z M 236.175,353.05c-15.10,7.325-31.325,8.10-37.60,8.10c-1.20,0.00-1.875-0.025-1.975-0.025c0.00,0.00-0.475,0.00-1.225,0.00 c-9.80,0.00-58.575-2.25-58.575-46.675c0.00-43.65, 53.10-47.05, 69.375-47.05l 0.45,0.00 C 197.25,254.85, 199.20,242.20, 199.20,242.20 C 198.375,242.25, 197.15,242.30, 195.675,242.30c-6.15,0.00-17.975-0.975-28.125-7.55C 155.125,226.775, 148.825,213.15, 148.825,194.275 c0.00-53.275, 58.15-55.425, 58.75-55.45l 58.075,0.00 l0.00,1.275 c0.00,6.50-11.65,7.75-19.625,8.85C 243.325,149.325, 237.925,149.875, 236.375,150.65 c 14.725,7.85, 17.10,20.225, 17.10,38.625c0.00,20.925-8.20,32.00-16.90,39.80C 231.20,233.875, 226.95,237.70, 226.95,242.75 c0.00,4.95, 5.80,10.05, 12.55,15.975c 11.025,9.70, 26.15,22.975, 26.15,45.275C 265.65,327.05, 255.725,343.55, 236.175,353.05z M 363.175,249.775 l-37.90,0.00 l0.00,37.90 l-24.00,0.00 L 301.275,249.775 l-37.90,0.00 l0.00-24.00 l 37.90,0.00 L 301.275,187.90 l 24.00,0.00 l0.00,37.90 l 37.90,0.00 L 363.175,249.775 z M 205.575,278.775c-1.30,0.00-2.60,0.05-3.90,0.15 c-11.10,0.80-21.35,4.975-28.775,11.725c-7.35,6.65-11.075,15.025-10.55,23.525c 1.10,17.75, 20.20,28.175, 43.35,26.50 c 22.825-1.65, 38.025-14.775, 36.90-32.55C 241.525,291.40, 227.00,278.775, 205.575,278.775z" ></path></svg>