<?xml version="1.0" encoding="utf-8"?> <!-- Generator: IcoMoon.io --> <!DOCTYPE svg PUBLIC "-//W3C//DTD SVG 1.1//EN" "http://www.w3.org/Graphics/SVG/1.1/DTD/svg11.dtd"> <svg width="500.00000000000006" height="500" viewBox="0 0 500 500" xmlns="http://www.w3.org/2000/svg" xmlns:xlink="http://www.w3.org/1999/xlink" fill="#000000"><path d="M 49.75,139.725c0.00,37.325, 12.475,64.30, 37.05,80.125c 20.125,12.975, 43.50,14.925, 55.65,14.925c 2.95,0.00, 5.30-0.125, 6.95-0.225 c0.00,0.00-3.85,25.075, 14.75,49.90l-0.85-0.025c-32.225,0.00-137.35,6.75-137.35,93.175c0.00,87.925, 96.55,92.375, 115.90,92.375 c 1.525,0.00, 2.40-0.025, 2.40-0.025c 0.225,0.00, 1.60,0.05, 3.95,0.05c 12.425,0.00, 44.55-1.55, 74.40-16.075 c 38.70-18.775, 58.35-51.475, 58.35-97.125c0.00-44.125-29.90-70.375-51.75-89.575c-13.325-11.70-24.85-21.80-24.85-31.625 c0.00-10.00, 8.40-17.525, 19.05-27.05c 17.20-15.40, 33.45-37.325, 33.45-78.775c0.00-36.45-4.725-60.90-33.85-76.40 c 3.05-1.55, 13.775-2.675, 19.10-3.425c 15.775-2.15, 38.85-4.60, 38.85-17.475L 280.95,30.00 L 166.00,30.00 C 164.85,30.025, 49.75,34.30, 49.75,139.725z M 235.325,365.05c 2.20,35.15-27.875,61.10-73.025,64.375c-45.85,3.375-83.625-17.275-85.825-52.425c-1.05-16.875, 6.35-33.40, 20.875-46.575 c 14.75-13.325, 34.95-21.55, 56.975-23.20c 2.60-0.15, 5.175-0.275, 7.75-0.275C 204.50,306.95, 233.25,331.90, 235.325,365.05z M 205.30,115.65 c 11.275,39.675-5.75,81.15-32.875,88.80C 169.30,205.325, 166.075,205.775, 162.825,205.775c-24.875,0.00-49.50-25.15-58.625-59.80 C 99.10,126.50, 99.50,109.50, 105.35,93.125C 111.10,77.05, 121.425,66.15, 134.425,62.50c 3.125-0.90, 6.375-1.325, 9.625-1.325 C 174.05,61.175, 193.35,73.625, 205.30,115.65z M 399.025,202.05l0.00-75.00 l-47.50,0.00 l0.00,75.00 l-75.00,0.00 l0.00,47.50 l 75.00,0.00 l0.00,75.00 l 47.50,0.00 l0.00-75.00 l 75.00,0.00 l0.00-47.50 L 399.025,202.05 z" ></path></svg>