<?xml version="1.0" encoding="utf-8"?> <!-- Generator: IcoMoon.io --> <!DOCTYPE svg PUBLIC "-//W3C//DTD SVG 1.1//EN" "http://www.w3.org/Graphics/SVG/1.1/DTD/svg11.dtd"> <svg width="512" height="512" viewBox="0 0 512 512" xmlns="http://www.w3.org/2000/svg" xmlns:xlink="http://www.w3.org/1999/xlink" fill="#000000"><path d="M 162.00,225.00q 27.50,15.50 78.00,38.25t 93.25,44.00t 70.25,41.25q 79.50,58.50 108.50,99.50l-64.00,64.00q-32.00-64.00 -69.00-108.00q-93.00,76.50 -197.00,19.00q-38.50-21.00 -67.50-45.75t-48.25-47.00t-32.25-56.00t-19.75-57.25t-10.00-67.25t-3.75-69.75t-0.50-80.00q 23.00,25.50 54.50,40.50t 64.00,20.25t 67.75,8.00t 69.50,8.00t 65.75,16.00t 60.00,36.25 t 49.00,64.50q 17.50,34.50 17.50,78.50q0.00,28.50 -9.50,54.00q-40.00-24.00 -105.25-56.00t-120.50-60.00t-84.75-50.00q-27.00-20.00 -54.00-55.50q-7.50-9.50 -9.00-6.00q-1.00,3.50 -1.00,29.50q0.00,15.50 25.50,39.50t 72.50,57.50z" ></path></svg>