<?xml version="1.0" encoding="utf-8"?> <!-- Generator: IcoMoon.io --> <!DOCTYPE svg PUBLIC "-//W3C//DTD SVG 1.1//EN" "http://www.w3.org/Graphics/SVG/1.1/DTD/svg11.dtd"> <svg width="512" height="512" viewBox="0 0 512 512" xmlns="http://www.w3.org/2000/svg" xmlns:xlink="http://www.w3.org/1999/xlink" fill="#000000"><path d="M 480.00,320.00q0.00,9.50 -8.00,41.50t-16.00,59.50t-8.00,27.00q-5.50,14.50 -10.50,24.00t-12.75,19.75t-18.00,15.25t-22.75,5.00l-224.00,0.00 q-12.50,0.00 -22.50-4.50t-17.50-14.75t-12.25-19.50t-11.75-25.25l-48.00-112.00q-3.50-7.50 -9.75-28.25t-6.25-25.25l0.00-58.50 q0.00-13.50 9.25-22.75t 22.75-9.25t 22.75,9.50t 9.25,22.50l0.00,16.00 q0.00,6.50 4.75,11.25t 11.25,4.75 t 11.25-4.75t 4.75-11.25l0.00-208.00 q0.00-13.00 9.50-22.50t 22.75-9.50t 22.50,9.25t 9.25,22.75l0.00,208.00 q0.00,6.50 4.75,11.25t 11.25,4.75t 11.25-4.75t 4.75-11.25l0.00-208.00 q0.00-13.00 9.50-22.50t 22.75-9.50t 22.50,9.50t 9.25,22.50l0.00,208.00 q0.00,6.50 4.75,11.25t 11.25,4.75t 11.25-4.75t 4.75-11.25l0.00-80.00 q0.00-13.00 9.50-22.50t 22.75-9.50t 22.50,9.50t 9.25,22.50l0.00,80.00 q0.00,6.50 4.75,11.25t 11.25,4.75t 11.25-4.75t 4.75-11.25l0.00-48.00 q0.00-13.00 9.50-22.50t 22.75-9.50t 22.50,9.50t 9.25,22.50l0.00,128.00 l0.00,0.00 z" ></path></svg>