<?xml version="1.0" encoding="utf-8"?> <!-- Generator: IcoMoon.io --> <!DOCTYPE svg PUBLIC "-//W3C//DTD SVG 1.1//EN" "http://www.w3.org/Graphics/SVG/1.1/DTD/svg11.dtd"> <svg width="512" height="512" viewBox="0 0 512 512" xmlns="http://www.w3.org/2000/svg" xmlns:xlink="http://www.w3.org/1999/xlink" fill="#000000"><path d="M 480.00,192.00l-192.00,0.00 l-16.00,0.00 q-6.50,0.00 -11.25,4.75t-4.75,11.25t 4.75,11.25t 11.25,4.75l 16.00,0.00 l 64.00,0.00 q 13.00,0.00 22.50,9.25t 9.50,22.50t-9.50,22.75t-22.50,9.50l-80.00,0.00 q-6.50,0.00 -11.25,4.75t-4.75,11.25t 4.75,11.25t 11.25,4.75l 16.00,0.00 l 64.00,0.00 q 13.00,0.00 22.50,9.25t 9.50,22.50t-9.50,22.75t-22.50,9.50l-80.00,0.00 q-6.50,0.00 -11.25,4.75t-4.75,11.25 t 4.75,11.25t 11.25,4.75l 16.00,0.00 l 32.00,0.00 q 13.50,0.00 22.75,9.50t 9.25,22.75t-9.25,22.50t-22.75,9.25l-128.00,0.00 q-6.00,0.00 -10.00-2.50l-118.00-29.50q-26.50,0.00 -45.25-18.75t-18.75-45.25l0.00-224.00 q0.00-26.50 18.75-45.25t 45.25-18.75l 12.50-3.00l 126.50-53.00q 9.00-8.00 21.00-8.00l 1.00,0.00 q 2.00-0.50 4.50,0.00l 58.50,0.00 q 13.00,0.00 22.50,9.25t 9.50,22.50t-9.50,22.75t-22.50,9.50l-16.00,0.00 q-6.50,0.00 -11.25,4.75 t-4.75,11.25t 4.75,11.25t 11.25,4.75l 16.00,0.00 l 192.00,0.00 q 13.50,0.00 22.75,9.25t 9.25,22.50t-9.50,22.75t-22.50,9.50z" ></path></svg>