<?xml version="1.0" encoding="utf-8"?> <!-- Generator: IcoMoon.io --> <!DOCTYPE svg PUBLIC "-//W3C//DTD SVG 1.1//EN" "http://www.w3.org/Graphics/SVG/1.1/DTD/svg11.dtd"> <svg width="512" height="512" viewBox="0 0 512 512" xmlns="http://www.w3.org/2000/svg" xmlns:xlink="http://www.w3.org/1999/xlink" fill="#000000"><path d="M 448.00,448.00q0.00,26.50 -18.75,45.25t-45.25,18.75l-224.00,0.00 q-5.00,0.00 -10.00-1.25t-8.75-2.50t-8.00-4.75t-6.75-5.25t-6.25-7.00t-5.25-7.25t-5.25-9.00t-4.50-8.50l-4.75-9.50l-4.50-9.00q-7.00-14.50 -17.75-37.00t-28.50-66.25t-17.75-56.75l0.00-64.00 q0.00-13.00 9.50-22.50t 22.75-9.50t 22.50,9.50t 9.25,22.50l0.00,16.00 q0.00,6.50 4.75,11.25t 11.25,4.75t 11.25-4.75 t 4.75-11.25l0.00-208.00 q0.00-13.00 9.50-22.50t 22.75-9.50t 22.50,9.25t 9.25,22.75l0.00,208.00 q0.00,6.50 4.75,11.25t 11.25,4.75t 11.25-4.75t 4.75-11.25l0.00-80.00 q0.00-13.00 9.50-22.50t 22.75-9.50t 22.50,9.50t 9.25,22.50l0.00,80.00 q0.00,6.50 4.75,11.25t 11.50,4.75t 11.25-4.75t 4.50-11.25l0.00-80.00 q0.00-13.00 9.50-22.50t 22.75-9.50t 22.50,9.50t 9.25,22.50l0.00,80.00 q0.00,6.50 4.75,11.25t 11.50,4.75 t 11.25-4.75t 4.50-11.25l0.00-48.00 q0.00-13.00 9.50-22.50t 22.75-9.50t 22.50,9.50t 9.25,22.50l0.00,128.00 q0.00,9.00 -8.00,41.00t-16.00,59.50z" ></path></svg>