<?xml version="1.0" encoding="utf-8"?> <!-- Generator: IcoMoon.io --> <!DOCTYPE svg PUBLIC "-//W3C//DTD SVG 1.1//EN" "http://www.w3.org/Graphics/SVG/1.1/DTD/svg11.dtd"> <svg width="500.00000000000006" height="500" viewBox="0 0 500 500" xmlns="http://www.w3.org/2000/svg" xmlns:xlink="http://www.w3.org/1999/xlink" fill="#000000"><path d="M 246.95,20.025c-127.025,1.70-228.625,106.05-226.925,233.075c 1.70,126.95, 106.05,228.575, 233.075,226.875 c 126.975-1.70, 228.60-106.05, 226.875-233.075C 478.30,119.925, 373.95,18.325, 246.95,20.025z M 246.275,390.00L 245.00,390.00 c-19.55-0.575-33.35-15.00-32.80-34.275 c 0.55-18.925, 14.675-32.70, 33.60-32.70l 1.15,0.025c 20.10,0.60, 33.75,14.875, 33.15,34.70C 279.55,376.725, 265.625,390.00, 246.275,390.00z M 328.55,226.70c-4.625,6.525-14.725,14.65-27.475,24.575l-14.05,9.70c-7.70,6.00-12.35,11.625-14.075,17.15 c-1.40,4.40-2.05,5.525-2.175,14.40l-0.025,2.275L 217.175,294.80 l 0.15-4.55c 0.65-18.65, 1.125-29.60, 8.85-38.675 c 12.125-14.225, 38.875-31.45, 40.00-32.175c 3.825-2.90, 7.05-6.175, 9.475-9.675c 5.625-7.75, 8.10-13.875, 8.10-19.85 c0.00-8.325-2.475-16.025-7.35-22.875c-4.70-6.625-13.625-9.975-26.525-9.975c-12.80,0.00-21.55,4.075-26.80,12.40 C 217.65,178.00, 214.95,186.975, 214.95,196.175l0.00,2.30 l-55.25,0.00 l 0.10-2.40c 1.425-33.85, 13.50-58.20, 35.90-72.425C 209.75,114.575, 227.25,110.00, 247.65,110.00 c 26.725,0.00, 49.325,6.50, 67.075,19.30c 18.00,12.975, 27.125,32.425, 27.125,57.775C 341.85,201.275, 337.375,214.60, 328.55,226.70z" ></path></svg>