<?xml version="1.0" encoding="utf-8"?> <!-- Generator: IcoMoon.io --> <!DOCTYPE svg PUBLIC "-//W3C//DTD SVG 1.1//EN" "http://www.w3.org/Graphics/SVG/1.1/DTD/svg11.dtd"> <svg width="512" height="512" viewBox="0 0 512 512" xmlns="http://www.w3.org/2000/svg" xmlns:xlink="http://www.w3.org/1999/xlink" fill="#000000"><path d="M0.00,512.00l0.00-512.50 l 512.00,0.00 l0.00,512.50 l-512.00,0.00 zM 480.00,31.50l-448.00,0.00 l0.00,384.50 l 448.00,0.00 l0.00-384.50 zM 128.00,63.50q 26.50,0.00 45.25,18.75t 18.75,45.25t-18.75,45.25t-45.25,18.75t-45.25-18.50t-18.75-45.00l0.00-0.50 q0.00-26.50 18.75-45.25t 45.25-18.75zM 183.50,264.50l 119.00,119.50l-238.50,0.00 l0.00-46.50 l 73.00-73.00q 9.00-9.00 23.25-9.00t 23.25,9.00zM 345.00,168.50q 9.00-9.50 23.25-9.50t 23.25,9.50 l 56.50,56.50l0.00,159.00 l-102.00,0.00 q0.00-0.50 -0.75-1.75t-1.25-2.25l-105.50-105.00z" ></path></svg>