<?xml version="1.0" encoding="utf-8"?> <!-- Generator: IcoMoon.io --> <!DOCTYPE svg PUBLIC "-//W3C//DTD SVG 1.1//EN" "http://www.w3.org/Graphics/SVG/1.1/DTD/svg11.dtd"> <svg width="512" height="512" viewBox="0 0 512 512" xmlns="http://www.w3.org/2000/svg" xmlns:xlink="http://www.w3.org/1999/xlink" fill="#000000"><path d="M 256.00,512.00q-52.00,0.00 -99.50-20.25t-81.75-54.50t-54.50-81.75t-20.25-99.50t 20.25-99.50t 54.50-81.75t 81.75-54.50t 99.50-20.25t 99.50,20.25t 81.75,54.50t 54.50,81.75t 20.25,99.50t-20.25,99.50t-54.50,81.75t-81.75,54.50t-99.50,20.25zM 272.00,64.00q-20.00,0.00 -34.00,14.00t-14.00,33.75t 14.00,34.00t 34.00,14.25t 34.00-14.25t 14.00-34.00 t-14.00-33.75t-34.00-14.00zM 336.50,329.00q-30.00,31.50 -44.00,40.75t-27.50,9.25q-7.50,0.00 -12.75-6.75t-5.25-17.25q0.00-21.50 41.00-163.00l-77.50-14.50q-50.50,124.50 -50.50,195.00q0.00,32.50 15.50,54.00t 38.00,21.50q 40.50,0.00 123.00-81.00l0.00-38.00 z" ></path></svg>