<?xml version="1.0" encoding="utf-8"?> <!-- Generator: IcoMoon.io --> <!DOCTYPE svg PUBLIC "-//W3C//DTD SVG 1.1//EN" "http://www.w3.org/Graphics/SVG/1.1/DTD/svg11.dtd"> <svg width="500.00000000000006" height="500" viewBox="0 0 500 500" xmlns="http://www.w3.org/2000/svg" xmlns:xlink="http://www.w3.org/1999/xlink" fill="#000000"><path d="M 246.925,20.025c-127.00,1.70-228.60,106.05-226.90,233.075c 1.70,126.95, 106.05,228.575, 233.05,226.875 c 127.00-1.70, 228.60-106.05, 226.90-233.075C 478.30,119.925, 373.925,18.325, 246.925,20.025z M 272.425,96.675c 23.375,0.00, 30.275,13.55, 30.275,29.075 c0.00,19.375-15.525,37.30-42.00,37.30c-22.15,0.00-32.675-11.15-32.05-29.55C 228.65,117.975, 241.65,96.675, 272.425,96.675z M 212.475,393.75 c-15.975,0.00-27.675-9.70-16.50-52.35l 18.325-75.60c 3.175-12.125, 3.70-16.975,0.00-16.975c-4.775,0.00-25.525,8.375-37.80,16.625l-7.975-13.075 c 38.875-32.45, 83.575-51.50, 102.725-51.50c 15.975,0.00, 18.625,18.90, 10.65,47.975l-21.00,79.50c-3.70,14.05-2.10,18.90, 1.60,18.90 c 4.775,0.00, 20.50-5.80, 35.95-17.95l 9.025,12.125C 269.70,379.20, 228.475,393.75, 212.475,393.75z" ></path></svg>