<?xml version="1.0" encoding="utf-8"?> <!-- Generator: IcoMoon.io --> <!DOCTYPE svg PUBLIC "-//W3C//DTD SVG 1.1//EN" "http://www.w3.org/Graphics/SVG/1.1/DTD/svg11.dtd"> <svg width="500.00000000000006" height="500" viewBox="0 0 500 500" xmlns="http://www.w3.org/2000/svg" xmlns:xlink="http://www.w3.org/1999/xlink" fill="#000000"><path d="M 310.80,0.00c 33.50,0.00, 50.25,22.85, 50.25,48.95c0.00,32.60-29.10,62.775-66.95,62.775c-31.75,0.00-50.25-18.75-49.375-49.725 C 244.725,35.875, 266.725,0.00, 310.80,0.00z M 207.725,500.00c-26.45,0.00-45.825-16.30-27.325-88.075l 30.35-127.275c 5.275-20.375, 6.15-28.55,0.00-28.55 c-7.95,0.00-42.25,14.075-62.55,27.95L 135.00,262.025c 64.325-54.65, 138.30-86.675, 170.025-86.675c 26.425,0.00, 30.80,31.80, 17.625,80.725l-34.775,133.80 c-6.15,23.65-3.525,31.80, 2.625,31.80c 7.95,0.00, 33.925-9.825, 59.475-30.20l 15.00,20.375C 302.45,475.50, 234.15,500.00, 207.725,500.00z" ></path></svg>