<?xml version="1.0" encoding="utf-8"?> <!-- Generator: IcoMoon.io --> <!DOCTYPE svg PUBLIC "-//W3C//DTD SVG 1.1//EN" "http://www.w3.org/Graphics/SVG/1.1/DTD/svg11.dtd"> <svg width="512" height="512" viewBox="0 0 512 512" xmlns="http://www.w3.org/2000/svg" xmlns:xlink="http://www.w3.org/1999/xlink" fill="#000000"><path d="M 384.00,418.00l0.00-83.00 q 30.00-24.50 47.00-57.50t 17.00-69.50q0.00-62.50 -45.50-112.25t-114.50-63.75l0.00-32.00 q 62.50,7.00 113.75,38.25t 80.75,80.50t 29.50,105.25q0.00,61.00 -34.75,112.50t-93.25,81.50zM 240.00,384.00q-20.00,0.00 -34.00-14.00t-14.00-34.00l0.00-192.00 q0.00-6.50 4.75-11.25t 11.25-4.75l 32.00,0.00 q 6.50,0.00 11.25,4.75t 4.75,11.25l0.00,224.00 q0.00,6.50 -4.75,11.25t-11.25,4.75z M 240.00,64.00l-32.00,0.00 q-6.50,0.00 -11.25-4.75t-4.75-11.25l0.00-32.00 q0.00-6.50 4.75-11.25t 11.25-4.75l 32.00,0.00 q 6.50,0.00 11.25,4.75t 4.75,11.25l0.00,32.00 q0.00,6.50 -4.75,11.25t-11.25,4.75zM 32.00,240.00q0.00,56.50 27.75,104.50t 75.75,75.75t 104.50,27.75q 60.50,0.00 112.00-33.00l0.00,78.00 q-46.50,19.00 -96.00,19.00q-69.50,0.00 -128.50-34.25t-93.25-93.25t-34.25-128.50 q0.00-71.00 36.25-130.75t 96.25-93.25l 27.50,0.00 l0.00,32.00 q-59.50,24.50 -93.75,69.00t-34.25,107.00z" ></path></svg>