<?xml version="1.0" encoding="utf-8"?> <!-- Generator: IcoMoon.io --> <!DOCTYPE svg PUBLIC "-//W3C//DTD SVG 1.1//EN" "http://www.w3.org/Graphics/SVG/1.1/DTD/svg11.dtd"> <svg width="512" height="512" viewBox="0 0 512 512" xmlns="http://www.w3.org/2000/svg" xmlns:xlink="http://www.w3.org/1999/xlink" fill="#000000"><path d="M 384.00,64.00l-39.00,0.00 l-111.50,384.00l 22.50,0.00 q 13.00,0.00 22.50,9.25t 9.50,22.50t-9.50,22.75t-22.50,9.50l-128.00,0.00 q-13.50,0.00 -22.75-9.50t-9.25-22.75t 9.25-22.50t 22.75-9.25l 40.00,0.00 l 111.50-384.00l-23.50,0.00 q-13.50,0.00 -22.75-9.25t-9.25-22.50t 9.25-22.75t 22.75-9.50l 128.00,0.00 q 13.00,0.00 22.50,9.50t 9.50,22.75t-9.50,22.50t-22.50,9.25z" ></path></svg>