<?xml version="1.0" encoding="utf-8"?> <!-- Generator: IcoMoon.io --> <!DOCTYPE svg PUBLIC "-//W3C//DTD SVG 1.1//EN" "http://www.w3.org/Graphics/SVG/1.1/DTD/svg11.dtd"> <svg width="512" height="512" viewBox="0 0 512 512" xmlns="http://www.w3.org/2000/svg" xmlns:xlink="http://www.w3.org/1999/xlink" fill="#000000"><path d="M 464.00,96.00q-20.00,0.00 -34.00-14.00t-14.00-34.00t 14.00-34.00t 34.00-14.00t 34.00,14.00t 14.00,34.00t-14.00,34.00t-34.00,14.00zM 421.50,229.50l-37.50-37.50q 10.00-10.50 8.50-30.25t-12.00-30.25t-30.25-12.00t-30.25,8.50l-96.50,96.00l-37.50-37.50l 93.50-93.50q 29.00-29.00 69.75-29.00t 69.75,29.00q 28.00,28.00 28.75,67.75t-26.25,68.75zM 131.50,131.50q-10.50,10.50 -12.00,30.25t 8.50,30.25 l 96.00,96.00l-38.00,37.50l-93.00-93.00q-29.00-29.00 -29.00-69.75t 29.00-69.75q 28.00-28.00 67.75-28.75t 68.75,26.25l-37.50,37.50q-10.50-10.00 -30.25-8.50t-30.25,12.00zM 48.00,96.00q-20.00,0.00 -34.00-14.00t-14.00-34.00t 14.00-34.00t 34.00-14.00t 34.00,14.00t 14.00,34.00t-14.00,34.00t-34.00,14.00zM 48.00,416.00q 20.00,0.00 34.00,14.00t 14.00,34.00t-14.00,34.00t-34.00,14.00t-34.00-14.00t-14.00-34.00t 14.00-34.00t 34.00-14.00 zM 90.00,283.00l 37.50,37.50q-10.00,10.50 -8.50,30.25t 12.00,30.25t 30.25,12.00t 30.25-8.50l 96.00-96.00l 37.50,38.00l-93.00,93.00q-29.00,29.00 -69.75,29.00t-69.75-29.00q-28.00-28.00 -28.75-67.75t 26.25-68.75zM 381.00,381.00q 10.50-10.50 12.00-30.25t-8.50-30.25l-96.00-96.50l 37.50-37.50l 93.50,93.50q 29.00,29.00 29.00,69.75t-29.00,69.75q-28.00,28.00 -67.75,28.75 t-68.75-26.25l 37.50-37.50q 10.50,10.00 30.25,8.50t 30.25-12.00zM 464.00,416.00q 20.00,0.00 34.00,14.00t 14.00,34.00t-14.00,34.00t-34.00,14.00t-34.00-14.00t-14.00-34.00t 14.00-34.00t 34.00-14.00z" ></path></svg>