<?xml version="1.0" encoding="utf-8"?> <!-- Generator: IcoMoon.io --> <!DOCTYPE svg PUBLIC "-//W3C//DTD SVG 1.1//EN" "http://www.w3.org/Graphics/SVG/1.1/DTD/svg11.dtd"> <svg width="512" height="512" viewBox="0 0 512 512" xmlns="http://www.w3.org/2000/svg" xmlns:xlink="http://www.w3.org/1999/xlink" fill="#000000"><path d="M 464.50,192.00l-142.00,0.00 q0.00,21.50 10.00,48.50t 22.00,48.75t 22.00,48.25t 10.00,46.50q0.00,28.50 -11.75,53.75t-32.25,43.25q 5.00,1.00 8.50,5.25t 3.50,9.75q0.00,6.50 -4.75,11.25t-11.25,4.75l-160.00,0.00 q-6.50,0.00 -11.25-4.75t-4.75-11.25q0.00-5.50 3.50-9.75t 9.00-5.25q-21.00-18.00 -32.75-43.25t-11.75-53.75q0.00-20.50 10.00-47.00t 22.00-48.25t 22.00-48.50t 10.00-48.25 l-96.00,0.00 l0.00,144.00 q0.00,6.50 -4.75,11.25t-11.25,4.75t-11.25-4.75t-4.75-11.25l0.00-144.00 l-14.00,0.00 q-10.00,0.00 -14.75-7.00t-1.25-16.50l 121.50-157.50q 1.50-4.50 7.50-7.75t 13.00-3.25l 165.00,0.00 q 6.50,0.00 12.50,3.25t 7.50,7.75l 118.00,157.50q 3.00,9.50 -2.00,16.50t-15.00,7.00z" ></path></svg>