<?xml version="1.0" encoding="utf-8"?> <!-- Generator: IcoMoon.io --> <!DOCTYPE svg PUBLIC "-//W3C//DTD SVG 1.1//EN" "http://www.w3.org/Graphics/SVG/1.1/DTD/svg11.dtd"> <svg width="500.00000000000006" height="500" viewBox="0 0 500 500" xmlns="http://www.w3.org/2000/svg" xmlns:xlink="http://www.w3.org/1999/xlink" fill="#000000"><path d="M 306.325,238.95l-181.875-114.25C 111.00,115.90, 100.00,122.375, 100.00,139.125l0.00,221.775 c0.00,16.75, 11.00,23.20, 24.45,14.40l 181.875-114.225 c0.00,0.00, 6.575-4.625, 6.575-11.05S 306.325,238.95, 306.325,238.95z M 362.50,104.90c-22.20,0.00-37.50,6.825-37.50,29.025l0.00,232.15 c0.00,22.225, 15.30,29.05, 37.50,29.05s 37.50-6.825, 37.50-29.05L 400.00,133.925 C 400.00,111.725, 384.70,104.90, 362.50,104.90z" ></path></svg>