<?xml version="1.0" encoding="utf-8"?> <!-- Generator: IcoMoon.io --> <!DOCTYPE svg PUBLIC "-//W3C//DTD SVG 1.1//EN" "http://www.w3.org/Graphics/SVG/1.1/DTD/svg11.dtd"> <svg width="512" height="512" viewBox="0 0 512 512" xmlns="http://www.w3.org/2000/svg" xmlns:xlink="http://www.w3.org/1999/xlink" fill="#000000"><path d="M 400.00,128.00q-20.00,0.00 -34.00,14.00t-14.00,34.00q0.00,19.00 21.25,33.50t 42.75,14.50q 40.00,0.00 68.00,28.00t 28.00,68.00t-28.00,68.00t-68.00,28.00q-24.50,0.00 -45.50-13.25t-34.50-34.75q-24.50-64.50 -48.00-112.00q-11.00-21.50 -23.00-41.50t-18.50-29.50l-6.50-9.00q-4.50-14.50 -30.00-31.25t-50.00-16.75q-53.00,0.00 -90.50,37.50t-37.50,90.50t 37.50,90.50t 90.50,37.50t 90.50-37.50l 22.50,22.50 q-22.00,22.50 -51.25,34.75t-61.75,12.25q-43.50,0.00 -80.25-21.50t-58.25-58.25t-21.50-80.25t 21.50-80.25t 58.25-58.25t 80.25-21.50q 32.50,0.00 66.00,19.75t 46.00,44.25q 23.00,30.00 48.00,80.00q 10.00,20.50 22.00,48.50t 19.00,45.50l 7.00,18.00q 20.00,32.00 48.00,32.00q 26.50,0.00 45.25-18.75t 18.75-45.25t-18.75-45.25t-45.25-18.75q-34.50,0.00 -65.25-24.00 t-30.75-56.00q0.00-33.00 23.50-56.50t 56.50-23.50q 34.50,0.00 57.25,19.50t 22.75,44.50l-32.00,0.00 q-5.50-13.00 -19.50-22.50t-28.50-9.50z" ></path></svg>