<?xml version="1.0" encoding="utf-8"?> <!-- Generator: IcoMoon.io --> <!DOCTYPE svg PUBLIC "-//W3C//DTD SVG 1.1//EN" "http://www.w3.org/Graphics/SVG/1.1/DTD/svg11.dtd"> <svg width="512" height="512" viewBox="0 0 512 512" xmlns="http://www.w3.org/2000/svg" xmlns:xlink="http://www.w3.org/1999/xlink" fill="#000000"><path d="M 192.00,272.00c0.00,11.20, 16.00,22.40, 32.00,22.40l 64.00,0.00 c 16.00,0.00, 32.00-11.20, 32.00-22.40c0.00-11.184-16.00-22.40-32.00-22.40l-64.00,0.00 C 208.00,249.60, 192.00,260.816, 192.00,272.00z M 368.00,160.00c-23.008,0.00-46.048,18.624-61.44,45.008c 10.672,1.056, 21.216,8.56, 29.44,19.504 c 8.88-11.856, 20.416-19.712, 32.00-19.712l 64.00,0.00 c 24.00,0.00, 48.00,33.616, 48.00,67.20s-24.00,67.20-48.00,67.20l-64.00,0.00 c-11.584,0.00-23.12-7.856-32.00-19.712 c-8.224,10.928-18.768,18.432-29.44,19.488C 321.952,365.376, 344.992,384.00, 368.00,384.00l 64.00,0.00 c 40.00,0.00, 80.00-56.00, 80.00-112.00s-40.00-112.00-80.00-112.00L 368.00,160.00 z M 144.00,384.00 c 23.008,0.00, 46.048-18.624, 61.44-45.024c-10.688-1.04-21.216-8.56-29.44-19.488C 167.104,331.344, 155.568,339.20, 144.00,339.20L 80.00,339.20 c-24.00,0.00-48.00-33.616-48.00-67.20 s 24.00-67.20, 48.00-67.20l 64.00,0.00 c 11.568,0.00, 23.104,7.856, 32.00,19.712c 8.224-10.944, 18.752-18.432, 29.44-19.504C 190.048,178.624, 167.008,160.00, 144.00,160.00L 80.00,160.00 c-40.00,0.00-80.00,56.00-80.00,112.00 s 40.00,112.00, 80.00,112.00L 144.00,384.00 z" ></path></svg>