<?xml version="1.0" encoding="utf-8"?> <!-- Generator: IcoMoon.io --> <!DOCTYPE svg PUBLIC "-//W3C//DTD SVG 1.1//EN" "http://www.w3.org/Graphics/SVG/1.1/DTD/svg11.dtd"> <svg width="500.00000000000006" height="500" viewBox="0 0 500 500" xmlns="http://www.w3.org/2000/svg" xmlns:xlink="http://www.w3.org/1999/xlink" fill="#000000"><path d="M 250.00,10.00c-132.55,0.00-240.00,107.45-240.00,240.00s 107.45,240.00, 240.00,240.00s 240.00-107.45, 240.00-240.00S 382.55,10.00, 250.00,10.00z M 191.25,349.475L 142.65,349.475 L 142.65,193.10 L 191.25,193.10 L 191.25,349.475 z M 166.65,173.90c-15.35,0.00-25.275-10.90-25.275-24.325c0.00-13.75, 10.225-24.30, 25.90-24.30s 25.275,10.55, 25.575,24.30 C 192.875,163.025, 182.95,173.90, 166.65,173.90z M 368.725,349.475l-48.575,0.00 l0.00-86.675 c0.00-20.15-7.05-33.875-24.625-33.875 c-13.425,0.00-21.40,9.275-24.95,18.225c-1.275,3.175-1.60,7.675-1.60,12.125l0.00,90.175 L 220.35,349.45 l0.00-106.50 c0.00-19.50-0.625-35.825-1.275-49.875l 42.20,0.00 l 2.25,21.725l 0.95,0.00 c 6.40-10.225, 22.075-25.25, 48.30-25.25c 31.975,0.00, 55.95,21.40, 55.95,67.45L 368.725,349.475 z" ></path></svg>