<?xml version="1.0" encoding="utf-8"?> <!-- Generator: IcoMoon.io --> <!DOCTYPE svg PUBLIC "-//W3C//DTD SVG 1.1//EN" "http://www.w3.org/Graphics/SVG/1.1/DTD/svg11.dtd"> <svg width="500.00000000000006" height="500" viewBox="0 0 500 500" xmlns="http://www.w3.org/2000/svg" xmlns:xlink="http://www.w3.org/1999/xlink" fill="#000000"><path d="M 126.90,76.25c0.00,26.575-19.625,48.10-51.90,48.10c-30.375,0.00-50.00-21.525-50.00-48.10c0.00-27.20, 20.275-48.10, 51.275-48.10 S 126.275,49.05, 126.90,76.25z M 27.55,471.85L 27.55,162.35 L 123.75,162.35 l0.00,309.50 L 27.55,471.85 zM 181.325,261.075c0.00-38.60-1.275-70.875-2.55-98.725l 83.55,0.00 l 4.45,43.05l 1.90,0.00 c 12.65-20.275, 43.675-50.00, 95.575-50.00 c 63.275,0.00, 110.75,42.40, 110.75,133.55l0.00,182.925 l-96.20,0.00 l0.00-171.525 c0.00-39.875-13.95-67.10-48.75-67.10c-26.575,0.00-42.375,18.35-49.35,36.075 c-2.55,6.325-3.175,15.175-3.175,24.05l0.00,178.50 L 181.325,471.875 L 181.325,261.075 z" ></path></svg>