<?xml version="1.0" encoding="utf-8"?> <!-- Generator: IcoMoon.io --> <!DOCTYPE svg PUBLIC "-//W3C//DTD SVG 1.1//EN" "http://www.w3.org/Graphics/SVG/1.1/DTD/svg11.dtd"> <svg width="512" height="512" viewBox="0 0 512 512" xmlns="http://www.w3.org/2000/svg" xmlns:xlink="http://www.w3.org/1999/xlink" fill="#000000"><path d="M 494.50,410.00l-84.50,84.50q-17.00,17.50 -41.75,17.50t-42.25-17.50l-84.50-84.50q-16.00-16.00 -17.00-38.75t 13.00-40.25l 107.00,107.50q 10.00,9.50 23.75,9.50t 23.25-9.50l 47.00-47.00q 9.50-9.50 9.50-23.25t-9.50-23.75l-107.50-107.00q 17.50-14.00 40.25-13.00t 38.75,17.00l 84.50,84.50q 17.50,17.50 17.50,42.25t-17.50,41.75zM 170.50,170.50q 9.50-9.50 22.50-10.00t 22.00,8.50l 128.50,129.00 q 9.00,8.50 8.50,21.75t-10.00,22.75t-22.50,9.75t-22.00-8.25l-128.50-129.00q-9.00-9.00 -8.50-22.00t 10.00-22.50zM 167.50,74.00q-9.50-10.00 -23.25-10.00t-23.75,10.00l-46.50,46.50q-10.00,10.00 -10.00,23.75t 10.00,23.25l 107.00,107.00q-17.50,14.00 -40.25,13.00t-38.75-17.00l-84.50-84.50q-17.50-17.50 -17.50-42.25t 17.50-42.25l 84.50-84.00q 17.00-17.50 41.75-17.50t 42.25,17.50l 84.50,84.00 q 16.00,16.50 17.00,39.25t-13.00,40.25z" ></path></svg>