<?xml version="1.0" encoding="utf-8"?> <!-- Generator: IcoMoon.io --> <!DOCTYPE svg PUBLIC "-//W3C//DTD SVG 1.1//EN" "http://www.w3.org/Graphics/SVG/1.1/DTD/svg11.dtd"> <svg width="608" height="512" viewBox="0 0 608 512" xmlns="http://www.w3.org/2000/svg" xmlns:xlink="http://www.w3.org/1999/xlink" fill="#000000"><path d="M 256.00,448.00l0.00,64.00 l 352.00,0.00 l0.00-64.00 L 256.00,448.00 z M 256.00,320.00l0.00,64.00 l 352.00,0.00 l0.00-64.00 L 256.00,320.00 z M 256.00,128.00l0.00,64.00 l 352.00,0.00 L 608.00,128.00 L 256.00,128.00 z M 256.00,0.00l0.00,64.00 l 352.00,0.00 L 608.00,0.00 L 256.00,0.00 z M0.00,320.00 l0.00,192.00 l 192.00,0.00 L 192.00,320.00 L0.00,320.00 z M0.00,0.00l0.00,192.00 l 192.00,0.00 L 192.00,0.00 L0.00,0.00 z" ></path></svg>