<?xml version="1.0" encoding="utf-8"?> <!-- Generator: IcoMoon.io --> <!DOCTYPE svg PUBLIC "-//W3C//DTD SVG 1.1//EN" "http://www.w3.org/Graphics/SVG/1.1/DTD/svg11.dtd"> <svg width="512" height="512" viewBox="0 0 512 512" xmlns="http://www.w3.org/2000/svg" xmlns:xlink="http://www.w3.org/1999/xlink" fill="#000000"><path d="M 480.00,64.00l-32.00,0.00 l0.00,32.00 q0.00,49.50 -23.25,91.50t-62.75,68.50q 39.50,26.50 62.75,68.75t 23.25,91.25l0.00,32.00 l 32.00,0.00 q 13.00,0.00 22.50,9.25t 9.50,22.75t-9.50,22.75t-22.50,9.25l-448.00,0.00 q-13.00,0.00 -22.50-9.25t-9.50-22.50t 9.50-22.75t 22.50-9.50l 32.00,0.00 l0.00-32.00 q0.00-49.00 23.25-91.25t 62.75-68.75q-39.50-26.50 -62.75-68.50t-23.25-91.50l0.00-32.00 l-32.00,0.00 q-13.00,0.00 -22.50-9.25t-9.50-22.75t 9.50-22.75t 22.50-9.25l 448.00,0.00 q 13.00,0.00 22.50,9.25t 9.50,22.75t-9.50,22.75t-22.50,9.25zM 288.00,292.00l0.00,96.00 l 96.00,60.00l0.00-32.00 q0.00-44.00 -27.00-78.50t-69.00-45.50zM 128.00,416.00l0.00,32.00 l 96.00-60.00l0.00-96.00 q-42.00,11.00 -69.00,45.50t-27.00,78.50zM 384.00,64.00l-256.00,0.00 l0.00,32.00 q0.00,34.00 17.50,64.00l 221.00,0.00 q 17.50-30.00 17.50-64.00l0.00-32.00 z" ></path></svg>