<?xml version="1.0" encoding="utf-8"?> <!-- Generator: IcoMoon.io --> <!DOCTYPE svg PUBLIC "-//W3C//DTD SVG 1.1//EN" "http://www.w3.org/Graphics/SVG/1.1/DTD/svg11.dtd"> <svg width="512" height="512" viewBox="0 0 512 512" xmlns="http://www.w3.org/2000/svg" xmlns:xlink="http://www.w3.org/1999/xlink" fill="#000000"><path d="M 224.00,320.00c0.00-16.00, 16.00-32.00, 32.00-32.00s 32.00,16.00, 32.00,32.00l0.00,64.00 c0.00,16.00-16.00,32.00-32.00,32.00s-32.00-16.00-32.00-32.00L 224.00,320.00 z M 384.00,192.00L 128.00,192.00 L 128.00,117.344 C 128.00,74.672, 170.672,64.00, 213.328,64.00l 85.328,0.00 C 341.328,64.00, 384.00,74.672, 384.00,117.344L 384.00,192.00 z M 32.00,256.00l0.00,192.00 c0.00,32.00, 32.00,64.00, 64.00,64.00l 320.00,0.00 c 32.00,0.00, 64.00-32.00, 64.00-64.00L 480.00,256.00 c0.00-20.896-13.632-41.776-32.00-53.744L 448.00,128.00 c0.00-64.00-64.00-128.00-128.00-128.00l-128.00,0.00 C 128.00,0.00, 64.00,64.00, 64.00,128.00l0.00,74.256 C 45.632,214.224, 32.00,235.104, 32.00,256.00z" ></path></svg>