<?xml version="1.0" encoding="utf-8"?> <!-- Generator: IcoMoon.io --> <!DOCTYPE svg PUBLIC "-//W3C//DTD SVG 1.1//EN" "http://www.w3.org/Graphics/SVG/1.1/DTD/svg11.dtd"> <svg width="512" height="512" viewBox="0 0 512 512" xmlns="http://www.w3.org/2000/svg" xmlns:xlink="http://www.w3.org/1999/xlink" fill="#000000"><path d="M 512.00,31.50l-109.50,191.00q-39.50-43.50 -96.50-57.00l 76.50-134.00q 7.50-13.00 22.00-22.50t 28.00-9.50l 64.50,0.00 q 13.50,0.00 18.00,9.50t-3.00,22.50zM 420.50,352.00q0.00,43.50 -21.25,80.25t-58.25,58.25t-80.50,21.50t-80.50-21.50t-58.25-58.25t-21.25-80.25t 21.25-80.50t 58.25-58.50t 80.50-21.50t 80.50,21.50t 58.25,58.50t 21.25,80.50zM 260.50,384.00q 26.50,0.00 45.25-18.75 t 18.75-45.25t-18.75-45.50t-45.25-19.00t-45.25,19.00t-18.75,45.50q0.00,6.50 4.50,11.25t 11.25,4.75t 11.50-4.75t 4.75-11.25q0.00-13.50 9.25-22.75t 22.50-9.25t 22.75,9.25t 9.50,22.50t-9.50,22.75t-22.50,9.50q-26.50,0.00 -45.25,18.75t-18.75,45.25l0.00,16.00 q0.00,6.50 4.50,11.25t 11.50,4.75l 96.00,0.00 q 6.50,0.00 11.25-4.75t 4.75-11.25t-4.75-11.25t-11.25-4.75 l-80.00,0.00 q0.00-13.50 9.25-22.75t 22.75-9.25zM 9.00,31.50q-7.50-13.00 -3.00-22.50t 18.00-9.50l 64.50,0.00 q 13.50,0.00 28.00,9.50t 22.00,22.50l 76.50,134.00q-57.00,13.50 -96.50,57.00z" ></path></svg>