<?xml version="1.0" encoding="utf-8"?> <!-- Generator: IcoMoon.io --> <!DOCTYPE svg PUBLIC "-//W3C//DTD SVG 1.1//EN" "http://www.w3.org/Graphics/SVG/1.1/DTD/svg11.dtd"> <svg width="512" height="512" viewBox="0 0 512 512" xmlns="http://www.w3.org/2000/svg" xmlns:xlink="http://www.w3.org/1999/xlink" fill="#000000"><path d="M 474.50,505.50l-146.00-121.50l-200.50,0.00 l0.00,96.00 q0.00,13.50 -9.50,22.75t-22.50,9.25l-32.00,0.00 q-13.50,0.00 -22.75-9.25t-9.25-22.75l0.00-96.00 q-13.50,0.00 -22.75-9.25t-9.25-22.75l0.00-192.00 q0.00-13.50 9.25-22.75t 22.75-9.25l 296.50,0.00 l 146.00-121.50q 5.50-6.00 14.75-6.25t 16.00,3.75t 6.75,10.00l0.00,484.50 q0.00,6.00 -6.75,10.00t-16.00,3.50t-14.75-6.50zM 240.00,128.00l-64.00,0.00 q 6.50,0.00 11.25,4.75t 4.75,11.25l0.00,224.00 q0.00,6.50 -4.75,11.25t-11.25,4.75l 64.00,0.00 q-7.00,0.00 -11.50-4.75t-4.50-11.25l0.00-224.00 q0.00-6.50 4.50-11.25t 11.50-4.75z" ></path></svg>