<?xml version="1.0" encoding="utf-8"?> <!-- Generator: IcoMoon.io --> <!DOCTYPE svg PUBLIC "-//W3C//DTD SVG 1.1//EN" "http://www.w3.org/Graphics/SVG/1.1/DTD/svg11.dtd"> <svg width="512" height="512" viewBox="0 0 512 512" xmlns="http://www.w3.org/2000/svg" xmlns:xlink="http://www.w3.org/1999/xlink" fill="#000000"><path d="M 64.00,64.00l 384.00,0.00 l0.00,256.00 L 64.00,320.00 L 64.00,64.00 z M 64.00,0.00C 32.00,0.00,0.00,32.00,0.00,64.00l0.00,256.00 c0.00,32.00, 32.00,64.00, 64.00,64.00l 160.00,0.00 l0.00,64.00 L 128.00,448.00 l0.00,64.00 l 256.00,0.00 l0.00-64.00 l-96.00,0.00 l0.00-64.00 l 160.00,0.00 c 32.00,0.00, 64.00-32.00, 64.00-64.00L 512.00,64.00 c0.00-32.00-32.00-64.00-64.00-64.00L 64.00,0.00 z" ></path></svg>