<?xml version="1.0" encoding="utf-8"?> <!-- Generator: IcoMoon.io --> <!DOCTYPE svg PUBLIC "-//W3C//DTD SVG 1.1//EN" "http://www.w3.org/Graphics/SVG/1.1/DTD/svg11.dtd"> <svg width="500.00000000000006" height="500" viewBox="0 0 500 500" xmlns="http://www.w3.org/2000/svg" xmlns:xlink="http://www.w3.org/1999/xlink" fill="#000000"><path d="M 467.25,308.65l-43.175-38.50c-12.50-11.15-12.50-29.35,0.00-40.50l 43.175-38.475c 12.50-11.15, 9.15-21.525-7.425-23.10l-57.225-5.425 c-16.575-1.575-25.50-15.825-19.80-31.675l 30.375-84.55c 5.70-15.85-1.275-21.625-15.475-12.825l-67.525,41.75 c-14.20,8.80-32.55,4.00-40.775-10.675l-24.475-43.65c-8.20-14.675-21.80-14.75-30.175-0.175L 212.025,60.40 C 203.65,74.975, 184.40,81.20, 169.25,74.225l-40.00-18.375C 114.075,48.90, 102.425,56.95, 103.325,73.80L 105.50,114.175 c 0.90,16.825-11.525,34.175-27.60,38.50L 39.275,163.05C 23.20,167.40, 20.25,180.05, 32.75,191.20l 43.175,38.475c 12.50,11.125, 12.50,29.35,0.00,40.475 L 32.75,308.60c-12.50,11.175-9.20,21.925, 7.325,23.925l 52.375,6.35c 16.525,2.05, 25.75,16.80, 20.475,32.775l-26.875,81.45 c-5.275,16.025, 2.25,22.275, 16.70,13.875l 61.575-35.60c 14.475-8.40, 33.90-3.75, 43.20,10.20l 25.575,38.425 c 9.275,14.025, 23.25,13.225, 30.975-1.70l 22.475-43.30c 7.775-14.95, 26.325-21.05, 41.225-13.575l 43.35,21.675 c 14.95,7.475, 26.425-0.20, 25.525-17.05l-2.175-40.375c-0.90-16.85, 11.525-34.175, 27.60-38.525l 38.60-10.35 C 476.80,332.425, 479.75,319.775, 467.25,308.65z M 275.00,354.875L 225.00,354.875 l0.00-52.50 l 50.00,0.00 L 275.00,354.875 z M 275.00,274.90L 225.00,274.90 l0.00-130.00 l 50.00,0.00 L 275.00,274.90 z" ></path></svg>