<?xml version="1.0" encoding="utf-8"?> <!-- Generator: IcoMoon.io --> <!DOCTYPE svg PUBLIC "-//W3C//DTD SVG 1.1//EN" "http://www.w3.org/Graphics/SVG/1.1/DTD/svg11.dtd"> <svg width="512" height="512" viewBox="0 0 512 512" xmlns="http://www.w3.org/2000/svg" xmlns:xlink="http://www.w3.org/1999/xlink" fill="#000000"><path d="M 168.752,378.656c-24.96,20.032-49.888,8.096-49.888-23.904L 118.864,157.264 c0.00-32.016, 24.816-43.792, 49.632-23.60l 101.888,82.992c 24.816,20.208, 24.688,60.464-0.272,80.512L 168.752,378.656z M 343.76,160.00c0.00-16.00, 16.00-32.00, 32.00-32.00l 9.136,0.00 c 16.00,0.00, 32.00,16.00, 32.00,32.00l0.00,192.00 c0.00,16.00-16.00,32.00-32.00,32.00l-9.136,0.00 c-16.00,0.00-32.00-16.00-32.00-32.00L 343.76,160.00 z M0.00,256.00c0.00,141.392, 114.608,256.00, 256.00,256.00s 256.00-114.608, 256.00-256.00c0.00-141.376-114.608-256.00-256.00-256.00 S0.00,114.624,0.00,256.00z" ></path></svg>