<?xml version="1.0" encoding="utf-8"?> <!-- Generator: IcoMoon.io --> <!DOCTYPE svg PUBLIC "-//W3C//DTD SVG 1.1//EN" "http://www.w3.org/Graphics/SVG/1.1/DTD/svg11.dtd"> <svg width="512" height="512" viewBox="0 0 512 512" xmlns="http://www.w3.org/2000/svg" xmlns:xlink="http://www.w3.org/1999/xlink" fill="#000000"><path d="M 352.00,448.00 L 480.00,448.00 L 512.00,384.00 L 512.00,512.00 L 320.00,512.00 L 320.00,404.893 C 385.556,376.651 432.00,306.312 432.00,224.00 C 432.00,116.784 353.201,32.867 256.00,32.867 C 158.797,32.867 80.00,116.783 80.00,224.00 C 80.00,306.312 126.443,376.651 192.00,404.893 L 192.00,512.00 L 0.00,512.00 L 0.00,384.00 L 32.00,448.00 L 160.00,448.00 L 160.00,431.705 C 66.185,398.475 0.00,318.004 0.00,224.00 C 0.00,100.288 114.615,0.00 256.00,0.00 C 397.385,0.00 512.00,100.288 512.00,224.00 C 512.00,318.004 445.815,398.475 352.00,431.705 L 352.00,448.00 Z" ></path></svg>