<?xml version="1.0" encoding="utf-8"?> <!-- Generator: IcoMoon.io --> <!DOCTYPE svg PUBLIC "-//W3C//DTD SVG 1.1//EN" "http://www.w3.org/Graphics/SVG/1.1/DTD/svg11.dtd"> <svg width="512" height="512" viewBox="0 0 512 512" xmlns="http://www.w3.org/2000/svg" xmlns:xlink="http://www.w3.org/1999/xlink" fill="#000000"><path d="M 471.50,183.50q-1.50,1.50 -3.25,4.75t-4.25,3.75l-176.00,176.00q-16.00,16.00 -32.00,16.00l-64.00,0.00 q-13.50,0.00 -22.75-9.50t-9.25-22.50l0.00-64.00 q0.00-5.00 2.50-10.00t 5.00-7.50t 7.50-7.00t 6.00-6.00l 89.50-89.50q 8.50-8.50 20.50-8.50t 20.50,8.50t 8.50,20.50t-8.50,20.50l-87.50,87.50l0.00,23.50 l 23.00,0.00 l 160.00-160.00l-87.50-87.50l-223.50,224.00l0.00,151.50 l 151.00,0.00 l 183.50-183.50q 8.50-8.50 20.50-8.50t 20.25,8.50 t 8.25,20.25t-8.00,20.25l-185.50,185.50q-2.50,2.50 -7.00,7.75t-7.00,7.25t-6.75,4.25t-9.25,2.25l-192.00,0.00 q-13.50,0.00 -22.75-9.50t-9.25-22.50l0.00-192.00 q0.00-5.00 3.00-10.25t 5.75-8.50t 7.50-7.25t 5.25-4.50l 234.50-241.50l 8.00-8.00q 9.50-9.50 23.50-8.00q 14.50-1.50 24.00,8.00l 8.50,8.00l 112.00,112.00q 3.50,4.50 7.50,8.00q 9.00,9.50 7.50,24.00q 1.50,14.00 -7.50,23.50z" ></path></svg>