<?xml version="1.0" encoding="utf-8"?> <!-- Generator: IcoMoon.io --> <!DOCTYPE svg PUBLIC "-//W3C//DTD SVG 1.1//EN" "http://www.w3.org/Graphics/SVG/1.1/DTD/svg11.dtd"> <svg width="512" height="512" viewBox="0 0 512 512" xmlns="http://www.w3.org/2000/svg" xmlns:xlink="http://www.w3.org/1999/xlink" fill="#000000"><path d="M 268.00,416.00q 4.00-3.50 80.00-78.50t 89.00-88.50q 9.50-9.00 22.75-9.00t 22.75,9.25t 9.50,22.75t-9.50,22.50q-11.00,11.00 -86.50,87.00t-79.50,79.50q-34.00,33.50 -79.75,45.50t-91.50-0.50t-80.25-46.50t-47.00-79.50t-0.50-90.75t 46.00-79.25l 174.00-172.00q 38.00-38.00 92.00-38.00t 92.25,37.75t 38.25,91.25t-38.00,91.00l-143.00,141.50q-23.50,22.50 -57.50,22.50 t-57.75-22.75t-23.75-54.00t 23.50-54.25q 8.50-8.50 57.50-58.75t 56.00-57.25q 9.50-9.50 22.75-9.50t 22.50,9.50t 9.25,22.75t-9.00,22.75q-5.50,5.00 -56.25,56.50t-55.75,56.50q-4.50,4.50 -4.50,11.00t 4.75,11.00t 11.25,4.50t 11.50-4.50l 142.50-143.00q 46.00-45.50 -0.25-91.25t-92.25,0.25l-175.50,172.50q-34.50,34.50 -34.25,80.75t 34.00,79.50t 79.75,33.50 t 80.50-33.75z" ></path></svg>