<?xml version="1.0" encoding="utf-8"?> <!-- Generator: IcoMoon.io --> <!DOCTYPE svg PUBLIC "-//W3C//DTD SVG 1.1//EN" "http://www.w3.org/Graphics/SVG/1.1/DTD/svg11.dtd"> <svg width="512" height="512" viewBox="0 0 512 512" xmlns="http://www.w3.org/2000/svg" xmlns:xlink="http://www.w3.org/1999/xlink" fill="#000000"><path d="M 448.00,512.00l-64.00,0.00 q-26.50,0.00 -45.25-18.75t-18.75-45.25l0.00-384.00 q0.00-26.50 18.75-45.25t 45.25-18.75l 64.00,0.00 q 26.50,0.00 45.25,18.75t 18.75,45.25l0.00,384.00 q0.00,26.50 -18.75,45.25t-45.25,18.75zM 128.00,512.00l-64.00,0.00 q-26.50,0.00 -45.25-18.75t-18.75-45.25l0.00-384.00 q0.00-26.50 18.75-45.25t 45.25-18.75l 64.00,0.00 q 26.50,0.00 45.25,18.75t 18.75,45.25l0.00,384.00 q0.00,26.50 -18.75,45.25t-45.25,18.75z" ></path></svg>