<?xml version="1.0" encoding="utf-8"?> <!-- Generator: IcoMoon.io --> <!DOCTYPE svg PUBLIC "-//W3C//DTD SVG 1.1//EN" "http://www.w3.org/Graphics/SVG/1.1/DTD/svg11.dtd"> <svg width="512" height="512" viewBox="0 0 512 512" xmlns="http://www.w3.org/2000/svg" xmlns:xlink="http://www.w3.org/1999/xlink" fill="#000000"><path d="M 464.384,103.984l-39.472,39.472l-56.368-56.368l 39.472-39.472 c 15.568-15.568, 40.816-15.568, 56.368,0.00S 479.952,88.416, 464.384,103.984z M 441.824,149.072c 3.12-3.104, 8.176-3.104, 11.28,0.00 c 3.12,3.12, 3.12,8.176,0.00,11.28l-146.56,146.576c-3.12,3.104-8.176,3.104-11.28,0.00s-3.104-8.16,0.00-11.264l 95.84-95.84l-78.944-78.944 l 33.824-33.808l 78.928,78.928L 441.824,149.072z M 312.176,143.456l 56.368,56.368L 143.04,425.328L 86.672,368.96L 314.08,141.552L 312.176,143.456z M 35.936,476.064l 39.456-95.824l 56.368,56.368L 35.936,476.064z" ></path></svg>