<?xml version="1.0" encoding="utf-8"?> <!-- Generator: IcoMoon.io --> <!DOCTYPE svg PUBLIC "-//W3C//DTD SVG 1.1//EN" "http://www.w3.org/Graphics/SVG/1.1/DTD/svg11.dtd"> <svg width="512" height="512" viewBox="0 0 512 512" xmlns="http://www.w3.org/2000/svg" xmlns:xlink="http://www.w3.org/1999/xlink" fill="#000000"><path d="M 34.016,19.008c 20.448-20.496, 82.256-23.92, 82.72-13.072 c 0.464,10.832, 55.664,131.056, 56.144,141.904c 0.48,10.832-36.384,47.792-47.168,58.608c-10.688,10.704, 72.128,104.528, 73.696,106.304 c 1.76,1.584, 95.36,84.592, 106.048,73.872c 10.784-10.816, 47.664-47.76, 58.448-47.28c 10.816,0.464, 130.768,55.792, 141.584,56.288 c 10.816,0.464, 7.408,62.40-13.04,82.912c-17.488,17.52-108.032,81.136-265.472-32.464c-17.264-9.952-44.608-32.784-86.08-74.336 c-0.016-0.016-0.048-0.048-0.08-0.064c-0.032-0.048-0.064-0.064-0.096-0.096s-0.064-0.064-0.096-0.096 c-0.016-0.032-0.048-0.064-0.064-0.08c-41.44-41.568-64.224-68.992-74.16-86.288C-46.928,127.296, 16.544,36.528, 34.016,19.008z" ></path></svg>