<?xml version="1.0" encoding="utf-8"?> <!-- Generator: IcoMoon.io --> <!DOCTYPE svg PUBLIC "-//W3C//DTD SVG 1.1//EN" "http://www.w3.org/Graphics/SVG/1.1/DTD/svg11.dtd"> <svg width="512" height="512" viewBox="0 0 512 512" xmlns="http://www.w3.org/2000/svg" xmlns:xlink="http://www.w3.org/1999/xlink" fill="#000000"><path d="M 352.00,64.00L 160.00,64.00 L 160.00,32.00 c0.00-16.00-16.00-32.00-32.00-32.00S 96.00,16.00, 96.00,32.00l0.00,416.00 c0.00,32.00, 32.00,64.00, 64.00,64.00l 192.00,0.00 c 32.00,0.00, 64.00-32.00, 64.00-64.00L 416.00,128.00 C 416.00,96.00, 384.00,64.00, 352.00,64.00z M 192.00,480.00L 128.00,480.00 l0.00-64.00 l 64.00,0.00 L 192.00,480.00 z M 192.00,384.00L 128.00,384.00 l0.00-64.00 l 64.00,0.00 L 192.00,384.00 z M 192.00,288.00L 128.00,288.00 l0.00-64.00 l 64.00,0.00 L 192.00,288.00 z M 288.00,480.00l-64.00,0.00 l0.00-64.00 l 64.00,0.00 L 288.00,480.00 z M 288.00,384.00l-64.00,0.00 l0.00-64.00 l 64.00,0.00 L 288.00,384.00 z M 288.00,288.00l-64.00,0.00 l0.00-64.00 l 64.00,0.00 L 288.00,288.00 z M 384.00,480.00l-64.00,0.00 l0.00-64.00 l 64.00,0.00 L 384.00,480.00 z M 384.00,384.00l-64.00,0.00 l0.00-64.00 l 64.00,0.00 L 384.00,384.00 z M 384.00,288.00l-64.00,0.00 l0.00-64.00 l 64.00,0.00 L 384.00,288.00 z M 384.00,192.00L 128.00,192.00 L 128.00,96.00 l 32.00,0.00 l 224.00,0.00 L 384.00,192.00 z" ></path></svg>