<?xml version="1.0" encoding="utf-8"?> <!-- Generator: IcoMoon.io --> <!DOCTYPE svg PUBLIC "-//W3C//DTD SVG 1.1//EN" "http://www.w3.org/Graphics/SVG/1.1/DTD/svg11.dtd"> <svg width="512" height="512" viewBox="0 0 512 512" xmlns="http://www.w3.org/2000/svg" xmlns:xlink="http://www.w3.org/1999/xlink" fill="#000000"><path d="M 448.00,512.00l-384.00,0.00 q-26.50,0.00 -45.25-18.75t-18.75-45.25l0.00-384.00 q0.00-26.50 18.75-45.25t 45.25-18.75l 384.00,0.00 q 26.50,0.00 45.25,18.75t 18.75,45.25l0.00,384.00 q0.00,26.50 -18.75,45.25t-45.25,18.75zM 448.00,160.00q0.00-26.50 -18.75-45.25t-45.25-18.75t-45.25,18.75t-18.75,45.25t 18.75,45.25t 45.25,18.75q-34.00,0.00 -58.00,23.25t-33.00,63.75 q-35.00-55.00 -101.00-55.00q 39.50,0.00 67.75-28.00t 28.25-67.75t-28.25-68.00t-68.00-28.25t-67.75,28.25t-28.00,68.00t 28.00,67.75t 68.00,28.00q-58.00,0.00 -93.00,44.00t-35.00,116.00q 32.00,18.00 58.00,25.00t 70.00,7.00t 70.00-7.00t 58.00-25.00q0.00-22.00 -4.00-43.50q 26.50,11.50 68.00,11.50q 33.00,0.00 52.50-5.75t 43.50-20.75q0.00-60.50 -26.25-97.00t-69.75-36.50q 26.50,0.00 45.25-18.75 t 18.75-45.25z" ></path></svg>