<?xml version="1.0" encoding="utf-8"?> <!-- Generator: IcoMoon.io --> <!DOCTYPE svg PUBLIC "-//W3C//DTD SVG 1.1//EN" "http://www.w3.org/Graphics/SVG/1.1/DTD/svg11.dtd"> <svg width="500.00000000000006" height="500" viewBox="0 0 500 500" xmlns="http://www.w3.org/2000/svg" xmlns:xlink="http://www.w3.org/1999/xlink" fill="#000000"><path d="M 145.20,45.55C 67.95,85.275, 20.00,163.575, 20.00,250.475c0.00,15.85, 2.00,31.925, 5.525,47.95L 224.25,117.475 C 203.05,98.20, 147.35,47.525, 145.20,45.55z M 344.825,40.65C 314.80,27.00, 282.90,20.00, 249.975,20.00c-23.35,0.00-46.375,3.875-68.75,11.025 l 163.575,148.775L 344.80,40.65 z M 379.80,60.925l0.00,265.45 l 87.125,0.00 c 8.575-24.55, 13.05-50.075, 13.05-75.90C 480.00,174.675, 441.90,103.675, 379.80,60.925z M 36.55,335.70c 16.85,42.35, 46.45,78.775, 84.20,104.60l0.00-181.25 l-51.10,46.525C 52.20,321.45, 37.625,334.725, 36.55,335.70z M 155.75,460.60 c 23.375,10.55, 47.825,17.075, 73.00,19.40l 42.225,0.00 c 75.475-7.05, 143.175-51.725, 179.975-118.625L 155.75,361.375 L 155.75,460.60 z" ></path></svg>