<?xml version="1.0" encoding="utf-8"?> <!-- Generator: IcoMoon.io --> <!DOCTYPE svg PUBLIC "-//W3C//DTD SVG 1.1//EN" "http://www.w3.org/Graphics/SVG/1.1/DTD/svg11.dtd"> <svg width="512" height="512" viewBox="0 0 512 512" xmlns="http://www.w3.org/2000/svg" xmlns:xlink="http://www.w3.org/1999/xlink" fill="#000000"><path d="M 496.00,512.00l-480.00,0.00 q-6.50,0.00 -11.25-4.75t-4.75-11.25l0.00-352.00 q0.00-6.50 4.75-11.25t 11.25-4.75l 105.50,0.00 l 122.50-122.50l 0.25-0.50l 0.25-0.50q 5.00-4.50 11.50-4.50t 11.50,4.50l 0.25,0.50l 0.25,0.50l 122.50,122.50l 105.50,0.00 q 6.50,0.00 11.25,4.75t 4.75,11.25l0.00,352.00 q0.00,6.50 -4.75,11.25t-11.25,4.75zM 256.00,38.50l-89.50,89.50l 179.00,0.00 zM 448.00,192.00l-384.00,0.00 l0.00,256.00 l 384.00,0.00 l0.00-256.00 z" ></path></svg>