<?xml version="1.0" encoding="utf-8"?> <!-- Generator: IcoMoon.io --> <!DOCTYPE svg PUBLIC "-//W3C//DTD SVG 1.1//EN" "http://www.w3.org/Graphics/SVG/1.1/DTD/svg11.dtd"> <svg width="512" height="512" viewBox="0 0 512 512" xmlns="http://www.w3.org/2000/svg" xmlns:xlink="http://www.w3.org/1999/xlink" fill="#000000"><path d="M 256.00,0.00C 114.615,0.00,0.00,114.615,0.00,256.00s 114.613,256.00, 256.00,256.00c 141.385,0.00, 256.00-114.615, 256.00-256.00S 397.385,0.00, 256.00,0.00z M 280.822,342.059 c-23.26-1.807-33.021-13.328-51.252-24.404C 219.54,370.243, 207.288,420.663, 171.00,446.998 c-11.202-79.484, 16.447-139.182, 29.285-202.557c-21.892-36.853, 2.635-111.017, 48.81-92.737 c 56.813,22.474-49.20,137.004, 21.966,151.308c 74.31,14.934, 104.644-128.929, 58.571-175.712 c-66.579-67.553-193.799-1.54-178.155,95.178c 3.807,23.646, 28.236,30.819, 9.762,63.451c-42.61-9.446-55.325-43.051-53.688-87.856 c 2.634-73.337, 65.892-124.682, 129.343-131.783c 80.242-8.982, 155.553,29.454, 165.953,104.938 C 414.553,256.423, 366.623,348.693, 280.822,342.059z" ></path></svg>