<?xml version="1.0" encoding="utf-8"?> <!-- Generator: IcoMoon.io --> <!DOCTYPE svg PUBLIC "-//W3C//DTD SVG 1.1//EN" "http://www.w3.org/Graphics/SVG/1.1/DTD/svg11.dtd"> <svg width="500.00000000000006" height="500" viewBox="0 0 500 500" xmlns="http://www.w3.org/2000/svg" xmlns:xlink="http://www.w3.org/1999/xlink" fill="#000000"><path d="M 250.00,10.00c-132.55,0.00-240.00,107.45-240.00,240.00s 107.45,240.00, 240.00,240.00s 240.00-107.45, 240.00-240.00S 382.55,10.00, 250.00,10.00z M 266.40,306.90 c-15.375-1.20-21.825-8.825-33.875-16.15c-6.65,34.80-14.725,68.15-38.75,85.55c-7.40-52.575, 10.90-92.05, 19.375-133.95 C 198.675,218.00, 214.90,168.95, 245.425,181.025c 37.575,14.875-32.55,90.60, 14.525,100.075c 49.15,9.875, 69.20-85.275, 38.725-116.20 c-44.025-44.675-128.15-1.025-117.80,62.95c 2.525,15.65, 18.65,20.375, 6.45,41.975c-28.175-6.25-36.60-28.475-35.50-58.10 C 153.575,163.20, 195.40,129.25, 237.35,124.525c 53.075-5.925, 102.875,19.475, 109.775,69.40C 354.85,250.30, 323.15,311.30, 266.40,306.90z" ></path></svg>