<?xml version="1.0" encoding="utf-8"?> <!-- Generator: IcoMoon.io --> <!DOCTYPE svg PUBLIC "-//W3C//DTD SVG 1.1//EN" "http://www.w3.org/Graphics/SVG/1.1/DTD/svg11.dtd"> <svg width="500.00000000000006" height="500" viewBox="0 0 500 500" xmlns="http://www.w3.org/2000/svg" xmlns:xlink="http://www.w3.org/1999/xlink" fill="#000000"><path d="M 215.40,330.70C 202.275,399.525, 186.25,465.525, 138.75,500.00c-14.65-104.05, 21.525-182.175, 38.325-265.125 c-28.65-48.25, 3.45-145.30, 63.90-121.375c 74.375,29.425-64.40,179.325, 28.75,198.05c 97.275,19.55, 136.975-168.75, 76.675-229.975 C 259.25-6.875, 92.70,79.525, 113.20,206.10c 4.975,30.95, 36.95,40.35, 12.775,83.05c-55.775-12.35-72.425-56.35-70.275-115.00 C 59.15,78.175, 141.95,10.975, 225.00,1.675c 105.05-11.775, 203.625,38.55, 217.20,137.35c 15.325,111.50-47.375,232.275-159.725,223.575 C 252.05,360.275, 239.275,345.20, 215.40,330.70z" ></path></svg>