<?xml version="1.0" encoding="utf-8"?> <!-- Generator: IcoMoon.io --> <!DOCTYPE svg PUBLIC "-//W3C//DTD SVG 1.1//EN" "http://www.w3.org/Graphics/SVG/1.1/DTD/svg11.dtd"> <svg width="512" height="512" viewBox="0 0 512 512" xmlns="http://www.w3.org/2000/svg" xmlns:xlink="http://www.w3.org/1999/xlink" fill="#000000"><path d="M 416.00,512.00l-320.00,0.00 q0.00-40.00 -28.25-68.00t-67.75-28.00l0.00-320.00 q 40.00,0.00 68.00-28.00t 28.00-68.00l 320.00,0.00 q0.00,40.00 28.00,68.00t 68.00,28.00l0.00,320.00 q-40.00,0.00 -68.00,28.00t-28.00,68.00zM 448.00,128.00q-26.50,0.00 -45.25-18.75t-18.75-45.25l-256.00,0.00 q0.00,26.50 -18.75,45.25t-45.25,18.75l0.00,256.00 q 26.50,0.00 45.25,18.75t 18.75,45.25l 256.00,0.00 q0.00-26.50 18.75-45.25t 45.25-18.75l0.00-256.00 zM 352.00,416.00l-192.00,0.00 q-5.00-23.50 -22.75-41.25t-41.25-22.75l0.00-192.00 q 23.50-5.00 41.25-22.75t 22.75-41.25l 192.00,0.00 q 5.00,23.50 22.75,41.25t 41.25,22.75l0.00,192.00 q-23.50,5.00 -41.25,22.75t-22.75,41.25z" ></path></svg>