<?xml version="1.0" encoding="utf-8"?> <!-- Generator: IcoMoon.io --> <!DOCTYPE svg PUBLIC "-//W3C//DTD SVG 1.1//EN" "http://www.w3.org/Graphics/SVG/1.1/DTD/svg11.dtd"> <svg width="512" height="512" viewBox="0 0 512 512" xmlns="http://www.w3.org/2000/svg" xmlns:xlink="http://www.w3.org/1999/xlink" fill="#000000"><path d="M 427.50,384.00l-107.50,0.00 l-128.00,128.00l0.00-128.00 l-107.50,0.00 q-28.50,0.00 -56.50-28.50t-28.00-57.50l0.00-212.00 q0.00-29.00 28.00-57.50t 56.50-28.50l 343.00,0.00 q 28.50,0.00 56.50,28.50t 28.00,57.50l0.00,212.00 q0.00,29.00 -28.00,57.50t-56.50,28.50zM 448.00,113.50q0.00-20.50 -14.50-35.00t-34.50-14.50l-286.00,0.00 q-20.50,0.00 -34.75,14.50t-14.25,35.00l0.00,157.00 q0.00,20.50 14.25,35.00t 34.75,14.50l 286.00,0.00 q 20.00,0.00 34.50-14.50t 14.50-35.00l0.00-157.00 z" ></path></svg>