<?xml version="1.0" encoding="utf-8"?> <!-- Generator: IcoMoon.io --> <!DOCTYPE svg PUBLIC "-//W3C//DTD SVG 1.1//EN" "http://www.w3.org/Graphics/SVG/1.1/DTD/svg11.dtd"> <svg width="512" height="512" viewBox="0 0 512 512" xmlns="http://www.w3.org/2000/svg" xmlns:xlink="http://www.w3.org/1999/xlink" fill="#000000"><path d="M 256.00,512.00q-52.00,0.00 -99.50-20.25t-81.75-54.50t-54.50-81.75t-20.25-99.50t 20.25-99.25t 54.50-81.50t 81.75-54.50t 99.50-20.25t 99.50,20.25t 81.75,54.50t 54.50,81.50t 20.25,99.25t-20.25,99.50t-54.50,81.75t-81.75,54.50t-99.50,20.25zM 224.00,288.00l 32.00,0.00 q 13.00,0.00 22.50-9.25t 9.50-22.50t-9.50-22.75t-22.50-9.50l-56.00,0.00 l-1.00-3.00 q-7.00-14.00 -7.00-29.00q0.00-26.50 18.75-45.25t 45.25-18.75t 45.25,18.75t 18.75,45.25q0.00,13.50 9.25,22.75t 22.50,9.25t 22.75-9.25t 9.50-22.75q0.00-53.00 -37.50-90.50t-90.50-37.50t-90.50,37.50t-37.50,90.50q0.00,14.50 4.50,32.00l-4.50,0.00 q-13.00,0.00 -22.50,9.50t-9.50,22.75t 9.50,22.50t 22.50,9.25l 32.00,0.00 q0.00,17.50 -5.00,33.00t-11.00,24.50t-11.00,19.50t-5.00,19.00 q0.00,13.50 9.50,22.75t 22.50,9.25l 192.00,0.00 q 13.00,0.00 22.50-9.25t 9.50-22.50t-9.50-22.75t-22.50-9.50l-146.00,0.00 q 8.00-7.50 12.25-23.50t 5.25-28.50z" ></path></svg>