<?xml version="1.0" encoding="utf-8"?> <!-- Generator: IcoMoon.io --> <!DOCTYPE svg PUBLIC "-//W3C//DTD SVG 1.1//EN" "http://www.w3.org/Graphics/SVG/1.1/DTD/svg11.dtd"> <svg width="512" height="512" viewBox="0 0 512 512" xmlns="http://www.w3.org/2000/svg" xmlns:xlink="http://www.w3.org/1999/xlink" fill="#000000"><path d="M 480.00,319.50l-448.00,0.00 q-13.00,0.00 -22.50-9.25t-9.50-22.75l0.00-191.50 q0.00-13.50 9.50-22.75t 22.50-9.25l 448.00,0.00 q 13.00,0.00 22.50,9.25t 9.50,22.75l0.00,192.00 q0.00,13.00 -9.50,22.25t-22.50,9.25zM 496.00,32.00l-480.00,0.00 q-6.50,0.00 -11.25-4.75t-4.75-11.50t 4.75-11.25t 11.25-4.50l 480.00,0.00 q 6.50,0.00 11.25,4.50t 4.75,11.25t-4.75,11.50t-11.25,4.75zM 16.00,351.50l 480.00,0.00 q 6.50,0.00 11.25,4.75 t 4.75,11.50t-4.75,11.25t-11.25,4.50l-163.00,0.00 l 47.50,88.50q 5.50,9.50 2.75,20.25t-12.25,16.25t-20.00,2.50t-16.00-12.50l-62.50-115.00l-33.00,0.00 l-62.50,115.00q-5.50,9.50 -16.00,12.50t-20.00-2.50t-12.25-16.25t 2.75-20.25l 47.50-88.50l-163.00,0.00 q-6.50,0.00 -11.25-4.50t-4.75-11.25t 4.75-11.50t 11.25-4.75z" ></path></svg>