<?xml version="1.0" encoding="utf-8"?> <!-- Generator: IcoMoon.io --> <!DOCTYPE svg PUBLIC "-//W3C//DTD SVG 1.1//EN" "http://www.w3.org/Graphics/SVG/1.1/DTD/svg11.dtd"> <svg width="512" height="512" viewBox="0 0 512 512" xmlns="http://www.w3.org/2000/svg" xmlns:xlink="http://www.w3.org/1999/xlink" fill="#000000"><path d="M 503.00,340.50l-162.50,162.50q-9.00,9.00 -22.25,9.00t-22.25-9.00l-287.00-287.00q-9.00-9.00 -9.00-39.50l0.00-144.00 q0.00-13.50 9.50-22.75t 22.50-9.25l 144.00,0.00 q 31.00,0.00 40.00,9.00l 287.00,286.50q 9.00,9.50 9.00,22.50t-9.00,22.00zM 128.00,64.00q-26.50,0.00 -45.25,18.75t-18.75,45.25t 18.75,45.25t 45.25,18.75t 45.25-18.75t 18.75-45.25t-18.75-45.25t-45.25-18.75z" ></path></svg>