<?xml version="1.0" encoding="utf-8"?> <!-- Generator: IcoMoon.io --> <!DOCTYPE svg PUBLIC "-//W3C//DTD SVG 1.1//EN" "http://www.w3.org/Graphics/SVG/1.1/DTD/svg11.dtd"> <svg width="512" height="512" viewBox="0 0 512 512" xmlns="http://www.w3.org/2000/svg" xmlns:xlink="http://www.w3.org/1999/xlink" fill="#000000"><path d="M 447.50,512.00l-351.50,0.00 q-13.50,0.00 -22.75-9.25t-9.25-22.75l0.00-447.50 q0.00-13.50 9.25-22.75t 22.75-9.25l 192.00,0.00 l0.00,176.00 q0.00,6.50 4.50,11.25t 11.50,4.75l 175.50,0.00 l0.00,0.50 l0.00,287.00 q0.00,13.50 -9.25,22.75t-22.75,9.25zM 362.00,320.00l-42.00,0.00 l0.00-80.00 q0.00-7.00 -4.75-11.50t-11.25-4.50l-64.00,0.00 q-6.50,0.00 -11.25,4.50t-4.75,11.50l0.00,80.00 l-43.50,0.00 q-11.50,0.00 -17.50,13.25t-1.00,18.75l 44.50,44.50 t 42.50,42.00q 8.50,9.00 21.00,9.00t 21.00-9.00l 89.50-86.50q 7.00-7.00 0.50-19.50t-19.00-12.50zM 320.00,0.00q 13.00,0.00 22.00,9.00l 128.00,128.50q 9.50,9.50 9.50,23.00l-159.50,0.00 l0.00-160.50 z" ></path></svg>