<?xml version="1.0" encoding="utf-8"?> <!-- Generator: IcoMoon.io --> <!DOCTYPE svg PUBLIC "-//W3C//DTD SVG 1.1//EN" "http://www.w3.org/Graphics/SVG/1.1/DTD/svg11.dtd"> <svg width="512" height="512" viewBox="0 0 512 512" xmlns="http://www.w3.org/2000/svg" xmlns:xlink="http://www.w3.org/1999/xlink" fill="#000000"><path d="M 448.00,448.00l-96.00,0.00 q-26.50,0.00 -45.25-18.75t-18.75-45.25l0.00-96.00 q0.00-26.50 18.75-45.25t 45.25-18.75l 64.00,0.00 l0.00-64.00 q0.00-13.00 -9.25-22.50t-22.50-9.50t-22.75-9.25t-9.50-22.50t 9.50-22.75t 22.50-9.50l 64.00,0.00 q 15.50,0.00 30.50,16.00t 24.25,38.50t 9.25,41.50l0.00,224.00 q0.00,26.50 -18.75,45.25t-45.25,18.75zM 160.00,448.00l-96.00,0.00 q-26.50,0.00 -45.25-18.75t-18.75-45.25l0.00-96.00 q0.00-26.50 18.75-45.25t 45.25-18.75l 64.00,0.00 l0.00-64.00 q0.00-13.00 -9.50-22.50t-22.75-9.50t-22.50-9.25t-9.25-22.50t 9.25-22.75t 22.75-9.50l 64.00,0.00 q 15.00,0.00 30.25,16.00t 24.50,38.50t 9.25,41.50l0.00,224.00 q0.00,26.50 -18.75,45.25t-45.25,18.75z" ></path></svg>