<?xml version="1.0" encoding="utf-8"?> <!-- Generator: IcoMoon.io --> <!DOCTYPE svg PUBLIC "-//W3C//DTD SVG 1.1//EN" "http://www.w3.org/Graphics/SVG/1.1/DTD/svg11.dtd"> <svg width="512" height="512" viewBox="0 0 512 512" xmlns="http://www.w3.org/2000/svg" xmlns:xlink="http://www.w3.org/1999/xlink" fill="#000000"><path d="M 512.00,352.00q-4.00-4.00 -11.50-8.50q-0.50-0.50 -3.50-2.00q-5.50-3.00 -11.00-5.50q-3.00-1.50 -4.00-1.50q-15.50-6.50 -34.00-10.50l0.00-66.50 q 36.50,5.00 64.00,30.50l0.00,64.00 zM 410.00,256.00q-11.50,0.00 -26.00,1.50l0.00-64.00 q 14.50-1.50 26.00-1.50q 25.00,0.00 38.00,1.50l0.00,64.00 q-12.50-1.50 -38.00-1.50zM 384.00,129.50l0.00-64.00 q 14.50-1.50 26.00-1.50q 25.50,0.00 38.00,1.50l0.00,64.00 q-12.50-1.50 -38.00-1.50q-11.50,0.00 -26.00,1.50zM 256.00,169.00l0.00-64.00 q 47.50-19.50 64.00-25.00l0.00,64.00 q-15.50,5.00 -64.00,25.00zM 167.50,192.00q-19.00,0.00 -39.50-4.00l0.00-64.00 q 20.50,4.00 39.50,4.00q 11.00,0.00 24.50-2.50l0.00,64.00 q-13.50,2.50 -24.50,2.50zM 64.00,160.00q 21.50,19.50 64.00,28.00l0.00,64.00 q-43.00-8.50 -64.00-28.00l0.00,64.00 q 21.50,19.50 64.00,28.00l0.00,66.50 q-7.00-1.00 -14.50-3.00q-1.00,0.00 -2.50-0.50t-1.50-1.00q-5.50-1.50 -10.50-3.50q-3.00-1.00 -5.00-2.00q-5.00-2.50 -10.50-6.00q-4.00-2.50 -4.50-2.50q-8.50-6.00 -15.00-12.00l0.00,128.00 q0.00,13.00 -9.50,22.50t-22.75,9.50t-22.50-9.50t-9.25-22.50l0.00-448.00 q0.00-13.50 9.25-22.75t 22.50-9.25t 22.75,9.25t 9.50,22.75q 4.50,4.50 12.00,9.00q 0.50,0.00 1.25,0.50l 1.50,1.00t 1.25,0.50q 5.00,3.00 10.50,5.50q 2.50,1.00 4.00,2.00q 7.50,2.50 14.00,4.50l 1.50,0.50q 8.50,2.50 18.00,4.50l0.00,64.00 q-42.50-8.50 -64.00-28.00l0.00,64.00 zM 167.50,256.00q 11.00,0.00 24.50-2.50l0.00,64.00 q-13.50,2.50 -24.50,2.50q-19.00,0.00 -39.50-4.00l0.00-64.00 q 20.50,4.00 39.50,4.00zM 320.00,208.00l0.00,64.00 q-16.00,5.50 -64.00,25.00l0.00-64.00 q 47.50-19.50 64.00-25.00zM 320.00,144.00q 33.50-11.00 64.00-14.50l0.00,64.00 q-30.50,3.50 -64.00,14.50l0.00-64.00 zM 192.00,253.50l0.00-64.00 q 24.00-4.00 64.00-20.50l0.00,64.00 q-40.00,16.50 -64.00,20.50zM 384.00,321.50q-31.00,3.00 -64.00,14.00l0.00-63.50 q 33.50-11.00 64.00-14.50l0.00,64.00 zM 256.00,360.50q-7.50,3.00 -14.00,5.50q-1.50,0.50 -3.50,1.50q-5.50,2.00 -12.50,4.50 l-3.00,1.00q-8.50,3.00 -15.00,4.50q-8.50,2.50 -16.00,4.00l0.00-64.00 q 24.00-4.00 64.00-20.50l0.00,63.50 zM 192.00,61.50q 20.00-3.50 47.50-14.00l 0.50-0.25t 1.00-0.25q 8.00-3.00 15.00-6.00l0.00,64.00 q-40.00,16.50 -64.00,20.50l0.00-64.00 zM 320.00,16.00q 33.50-11.00 64.00-14.50l0.00,64.00 q-30.50,3.50 -64.00,14.50l0.00-64.00 zM 462.50,4.50q 1.00,0.00 2.25,0.50t 1.75,0.50q 5.50,1.50 11.00,4.00q 2.00,1.00 4.50,2.00q 5.00,2.50 10.50,6.00q 4.00,2.50 4.50,2.50 q 8.50,6.00 15.00,12.00l0.00,64.00 q-27.50-25.50 -64.00-30.50l0.00-64.00 q 7.00,1.00 14.50,3.00zM 512.00,160.00l0.00,64.00 q-27.50-25.50 -64.00-30.50l0.00-64.00 q 36.50,5.00 64.00,30.50zM 410.00,0.00l 1.00,0.00 l-1.00,0.00 z" ></path></svg>