<?xml version="1.0" encoding="utf-8"?> <!-- Generator: IcoMoon.io --> <!DOCTYPE svg PUBLIC "-//W3C//DTD SVG 1.1//EN" "http://www.w3.org/Graphics/SVG/1.1/DTD/svg11.dtd"> <svg width="512" height="512" viewBox="0 0 512 512" xmlns="http://www.w3.org/2000/svg" xmlns:xlink="http://www.w3.org/1999/xlink" fill="#000000"><path d="M 479.50,319.50l-399.50,0.50q-6.50,0.00 -11.25,4.75t-4.75,11.50t 4.75,11.25t 11.25,4.50l 208.00,0.00 l0.00,32.00 l-208.00,0.00 q-6.50,0.00 -11.25,4.75t-4.75,11.25t 4.75,11.25t 11.25,4.75l 208.00,0.00 l0.00,95.50 l-224.00,0.00 q-13.50,0.00 -22.75-9.25t-9.25-22.75l0.00-447.50 q0.00-13.50 9.25-22.75t 22.75-9.25l 383.50,0.00 q 13.50,0.00 22.75,9.25t 9.25,22.75l0.00,287.00 l0.00,0.50 zM 431.50,64.50l-351.50,0.00 q-6.50,0.00 -11.25,4.50t-4.75,11.25t 4.75,11.50t 11.25,4.75l 351.50,0.00 q 7.00,0.00 11.50-4.75t 4.50-11.50t-4.50-11.25t-11.50-4.50zM 431.50,128.50l-351.50,0.00 q-6.50,0.00 -11.25,4.50t-4.75,11.25t 4.75,11.50t 11.25,4.75l 351.50,0.00 q 7.00,0.00 11.50-4.75t 4.50-11.50t-4.50-11.25t-11.50-4.50zM 431.50,192.00l-351.50,0.00 q-6.50,0.00 -11.25,4.75t-4.75,11.50t 4.75,11.25t 11.25,4.50l 351.50,0.00 q 7.00,0.00 11.50-4.50t 4.50-11.25 t-4.50-11.50t-11.50-4.75zM 431.50,256.00l-351.50,0.00 q-6.50,0.00 -11.25,4.75t-4.75,11.50t 4.75,11.25t 11.25,4.50l 351.50,0.00 q 7.00,0.00 11.50-4.50t 4.50-11.25t-4.50-11.50t-11.50-4.75zM 470.00,374.50l-128.00,128.50q-9.00,9.00 -22.00,9.00l0.00-160.50 l 159.50,0.00 q0.00,13.50 -9.50,23.00z" ></path></svg>