<?xml version="1.0" encoding="utf-8"?> <!-- Generator: IcoMoon.io --> <!DOCTYPE svg PUBLIC "-//W3C//DTD SVG 1.1//EN" "http://www.w3.org/Graphics/SVG/1.1/DTD/svg11.dtd"> <svg width="500.00000000000006" height="500" viewBox="0 0 500 500" xmlns="http://www.w3.org/2000/svg" xmlns:xlink="http://www.w3.org/1999/xlink" fill="#000000"><path d="M 211.70,21.625C 102.925,39.875, 20.00,134.425, 20.00,248.40c0.00,56.65, 20.525,108.475, 54.475,148.525c 80.525-38.975, 136.80-127.125, 137.225-229.75L 211.70,21.625 z M 250.025,306.45c-14.325,59.325-57.125,110.025-110.45,143.725c 32.775,17.975, 70.40,28.20, 110.425,28.20c 40.05,0.00, 77.65-10.225, 110.45-28.225 C 307.125,416.45, 264.35,365.775, 250.025,306.45z M 288.35,166.075c0.00,103.10, 56.40,191.725, 137.175,230.85c 33.95-40.10, 54.475-91.90, 54.475-148.525 c0.00-113.95-82.875-208.50-191.65-226.75L 288.35,166.075 z" ></path></svg>