<?xml version="1.0" encoding="utf-8"?> <!-- Generator: IcoMoon.io --> <!DOCTYPE svg PUBLIC "-//W3C//DTD SVG 1.1//EN" "http://www.w3.org/Graphics/SVG/1.1/DTD/svg11.dtd"> <svg width="512" height="512" viewBox="0 0 512 512" xmlns="http://www.w3.org/2000/svg" xmlns:xlink="http://www.w3.org/1999/xlink" fill="#000000"><path d="M 512.00,352.00q0.00,9.00 -7.50,13.50q-10.00,8.50 -29.50,13.50t-43.00,5.00t-43.00-5.00t-29.50-13.50q-7.50-5.00 -7.50-13.50l0.00,0.00 q0.00-3.00 0.50-4.00l 58.00-284.00l-122.50,0.00 l0.00,384.50 q 55.50,2.50 91.75,11.25t 36.25,20.25q0.00,13.00 -9.25,22.50t-22.75,9.50l-256.00,0.00 q-13.50,0.00 -22.75-9.50t-9.25-22.50q0.00-11.50 36.25-20.25t 91.75-11.25l0.00-384.50 l-122.50,0.00 l 58.00,284.00q 0.50,1.00 0.50,4.00l0.00,0.00 q0.00,9.00 -7.50,13.50q-10.00,8.50 -29.50,13.50t-43.00,5.00t-43.00-5.00t-29.50-13.50q-7.50-5.00 -7.50-13.50l0.00,0.00 q0.00-3.50 0.50-4.00l 62.00-304.00q 3.50-11.00 16.00-11.50l 0.50-0.25t 1.00-0.25l 144.00,0.00 q0.00-13.50 9.25-22.75t 22.75-9.25t 22.75,9.25t 9.25,22.75l 144.00,0.00 q 0.50,0.00 1.50,0.50q 12.50,0.50 16.00,11.50l 62.00,304.00q 0.50,1.00 0.50,4.00l0.00,0.00 zM 39.50,324.50q 19.00-4.50 40.50-4.50t 40.50,4.50l-40.50-198.00zM 432.00,126.50 l-40.50,198.00q 19.00-4.50 40.50-4.50t 40.50,4.50z" ></path></svg>