<?xml version="1.0" encoding="utf-8"?> <!-- Generator: IcoMoon.io --> <!DOCTYPE svg PUBLIC "-//W3C//DTD SVG 1.1//EN" "http://www.w3.org/Graphics/SVG/1.1/DTD/svg11.dtd"> <svg width="500.00000000000006" height="500" viewBox="0 0 500 500" xmlns="http://www.w3.org/2000/svg" xmlns:xlink="http://www.w3.org/1999/xlink" fill="#000000"><path d="M 450.00,30.00L 50.00,30.00 c-27.50,0.00-50.00,22.50-50.00,50.00l0.00,275.00 c0.00,27.50, 22.05,54.425, 49.025,59.825l 109.30,21.85c0.00,0.00-94.075,33.325-33.325,33.325l 250.00,0.00 c 60.75,0.00-33.325-33.325-33.325-33.325l 109.30-21.85C 477.925,409.425, 500.00,382.50, 500.00,355.00l0.00-275.00 C 500.00,52.50, 477.50,30.00, 450.00,30.00z M 450.00,352.50L 50.00,352.50 L 50.00,75.00 l 400.00,0.00 L 450.00,352.50 z" ></path></svg>