<?xml version="1.0" encoding="utf-8"?> <!-- Generator: IcoMoon.io --> <!DOCTYPE svg PUBLIC "-//W3C//DTD SVG 1.1//EN" "http://www.w3.org/Graphics/SVG/1.1/DTD/svg11.dtd"> <svg width="512" height="512" viewBox="0 0 512 512" xmlns="http://www.w3.org/2000/svg" xmlns:xlink="http://www.w3.org/1999/xlink" fill="#000000"><path d="M 64.48,206.288c0.00-79.104, 65.60-143.248, 146.528-143.248c 80.928,0.00, 146.528,64.144, 146.528,143.248 c0.00,79.12-65.616,143.264-146.528,143.264C 130.064,349.552, 64.48,285.408, 64.48,206.288z M0.00,206.288c0.00,113.936, 94.464,206.304, 211.008,206.304 c 33.392,0.00, 64.976-7.584, 93.04-21.088l 105.664,110.576c 12.00,12.56, 36.832,13.36, 49.664,1.60l 42.464-38.912c 12.832-11.76, 13.664-36.096, 1.664-48.656 l-106.80-111.76c 16.144-29.152, 25.296-62.56, 25.296-98.048C 422.00,92.352, 327.536,0.00, 211.008,0.00C 94.464,0.00,0.00,92.352,0.00,206.288z" ></path></svg>