<?xml version="1.0" encoding="utf-8"?> <!-- Generator: IcoMoon.io --> <!DOCTYPE svg PUBLIC "-//W3C//DTD SVG 1.1//EN" "http://www.w3.org/Graphics/SVG/1.1/DTD/svg11.dtd"> <svg width="512" height="512" viewBox="0 0 512 512" xmlns="http://www.w3.org/2000/svg" xmlns:xlink="http://www.w3.org/1999/xlink" fill="#000000"><path d="M 512.00,320.00q 1.00,9.00 1.00,16.00t-1.00,16.00l-32.00,0.00 q-1.50,12.00 -4.50,24.00l 29.50,12.50q-4.50,14.50 -12.00,29.50l-30.00-12.50q-5.50,10.50 -13.50,20.50l 22.50,22.50q-10.00,12.50 -22.50,22.50l-22.50-22.50q-10.00,8.00 -20.50,13.50l 12.50,29.50q-15.00,8.00 -29.50,12.50l-12.50-29.50q-12.00,3.00 -24.00,4.50l0.00,32.00 q-9.00,1.00 -16.00,1.00t-16.00-1.00l0.00-32.00 q-12.00-1.50 -24.00-4.50l-12.00,29.50q-15.00-4.50 -30.00-12.50l 12.50-29.50 q-10.50-5.50 -20.00-13.50l-23.00,22.50q-12.50-10.00 -22.50-22.50l 22.50-22.50q-7.50-10.00 -13.50-20.50l-29.50,12.50q-8.00-15.00 -12.50-29.50l 30.00-12.50q-3.50-12.00 -5.00-24.00l-32.00,0.00 q-1.00-9.00 -1.00-16.00t 1.00-16.00l 32.00,0.00 q 1.50-12.00 5.00-24.00l-30.00-12.50q 4.50-14.50 12.50-29.50l 29.50,12.50q 6.00-10.50 13.50-20.50l-22.50-22.50q 10.00-12.50 22.50-22.50l 23.00,22.50q 9.50-8.00 20.00-13.50l-12.50-30.00q 15.00-7.50 30.00-12.00l 12.00,29.50q 12.00-3.50 24.00-4.50l0.00-32.00 q 9.00-1.00 16.00-1.00t 16.00,1.00l0.00,32.00 q 12.00,1.00 24.00,4.50l 12.50-29.50q 14.50,4.50 29.50,12.00l-12.50,30.00q 10.50,6.00 20.50,13.50l 22.50-22.50q 12.50,10.00 22.50,22.50l-22.50,22.50q 8.00,10.00 13.50,20.50l 30.00-12.50q 7.50,15.00 12.00,29.50l-29.50,12.50q 3.00,12.00 4.50,24.00l 32.00,0.00 zM 337.00,256.00q-33.00,0.00 -56.50,23.50t-23.50,56.50t 23.50,56.50t 56.50,23.50t 56.50-23.50t 23.50-56.50t-23.50-56.50t-56.50-23.50zM 224.50,149.00l-6.00,15.50 q-1.50,3.00 -4.75,4.50t-6.25,0.00l-28.50-11.50q-8.50,12.00 -20.50,20.00l 12.00,28.50q 1.50,3.50 0.00,6.50t-4.50,4.50l-15.50,6.50q-3.00,1.50 -6.25,0.00t-4.75-4.50l-12.00-28.50q-8.00,1.50 -14.50,1.50q-6.00,0.00 -14.00-1.50l-12.00,28.50q-1.00,3.00 -4.25,4.50t-6.75,0.00l-15.00-6.50q-3.50-1.00 -4.75-4.25t-0.25-6.75l 12.00-28.00q-12.00-8.50 -20.50-20.50l-28.50,12.00q-3.00,1.00 -6.25-0.25t-4.75-4.25l-6.00-15.50 q-1.50-3.50 -0.25-6.75t 4.75-4.25l 28.00-12.00q-1.50-8.00 -1.50-14.50q0.00-6.00 1.50-14.50l-28.50-11.50q-3.00-1.50 -4.25-4.50t-0.25-6.50l 6.50-15.50q 1.50-3.00 4.50-4.50t 6.50,0.00l 28.50,11.50q 8.00-12.00 20.00-20.00l-11.50-28.50q-1.50-3.50 -0.25-6.50t 4.75-4.50l 15.50-6.50q 3.00-1.50 6.25,0.00t 4.75,4.50l 11.50,28.50q 8.00-1.50 14.50-1.50t 14.50,1.50l 11.50-28.50q 1.50-3.50 4.75-4.75t 6.25,0.25l 15.50,6.50q 3.50,1.00 4.75,4.25t-0.25,6.25 l-11.50,28.50q 12.00,8.50 20.50,20.50l 28.00-12.00q 3.50-1.00 6.75,0.25t 4.25,4.25l 6.50,15.50q 1.50,3.50 0.25,6.75t-4.75,4.25l-28.50,12.00q 1.50,8.00 1.50,14.50t-1.50,14.50l 28.50,11.50q 3.50,1.50 4.75,4.50t-0.25,6.50zM 113.25,64.00q-19.75,0.00 -34.00,14.00t-14.25,34.00t 14.25,34.00t 34.00,14.00t 33.75-14.00t 14.00-34.00t-14.00-34.00t-33.75-14.00z" ></path></svg>