<?xml version="1.0" encoding="utf-8"?> <!-- Generator: IcoMoon.io --> <!DOCTYPE svg PUBLIC "-//W3C//DTD SVG 1.1//EN" "http://www.w3.org/Graphics/SVG/1.1/DTD/svg11.dtd"> <svg width="512" height="512" viewBox="0 0 512 512" xmlns="http://www.w3.org/2000/svg" xmlns:xlink="http://www.w3.org/1999/xlink" fill="#000000"><path d="M 416.00,192.00q-22.00,0.00 -41.50-9.75t-33.00-26.25l-153.00,75.00q 3.50,13.50 3.50,25.00t-3.50,25.00l 153.00,75.00q 14.00-17.00 33.25-26.50t 41.25-9.50q 40.00,0.00 68.00,28.00t 28.00,67.75t-28.00,68.00t-68.00,28.25q-39.50,0.00 -67.50-28.00t-28.50-67.50l-168.50-82.50q-25.00,18.00 -55.50,18.00q-40.00,0.00 -68.00-28.25t-28.00-68.00t 28.00-67.75t 68.00-28.00q 30.50,0.00 55.50,17.50l 168.50-82.00 q 0.50-39.50 28.50-67.50t 67.50-28.00q 40.00,0.00 68.00,28.00t 28.00,67.75t-28.00,68.00t-68.00,28.25z" ></path></svg>