<?xml version="1.0" encoding="utf-8"?> <!-- Generator: IcoMoon.io --> <!DOCTYPE svg PUBLIC "-//W3C//DTD SVG 1.1//EN" "http://www.w3.org/Graphics/SVG/1.1/DTD/svg11.dtd"> <svg width="512" height="512" viewBox="0 0 512 512" xmlns="http://www.w3.org/2000/svg" xmlns:xlink="http://www.w3.org/1999/xlink" fill="#000000"><path d="M 484.50,64.00l-38.00,0.00 l-61.00,297.50q-2.50,9.50 -10.75,16.00t-17.25,6.50l-273.50,0.00 q-9.50,0.00 -17.75-6.50t-10.75-16.00l-49.00-188.50q-5.00-18.00 1.50-31.50t 20.00-13.50l 354.50-61.50l 9.00-44.50q 2.50-9.00 10.75-15.50t 17.25-6.50l 65.00,0.00 q 13.50,0.00 22.75,9.25t 9.25,22.50t-9.50,22.75t-22.50,9.50zM 148.50,416.00q 20.00,0.00 34.00,14.00t 14.00,34.00t-14.00,34.00t-34.00,14.00t-34.00-14.00t-14.00-34.00t 14.00-34.00 t 34.00-14.00zM 308.50,416.00q 20.00,0.00 34.00,14.00t 14.00,34.00t-14.00,34.00t-34.00,14.00t-34.00-14.00t-14.00-34.00t 14.00-34.00t 34.00-14.00z" ></path></svg>