<?xml version="1.0" encoding="utf-8"?> <!-- Generator: IcoMoon.io --> <!DOCTYPE svg PUBLIC "-//W3C//DTD SVG 1.1//EN" "http://www.w3.org/Graphics/SVG/1.1/DTD/svg11.dtd"> <svg width="500.00000000000006" height="500" viewBox="0 0 500 500" xmlns="http://www.w3.org/2000/svg" xmlns:xlink="http://www.w3.org/1999/xlink" fill="#000000"><path d="M 377.325,167.35L 395.00,167.35 l0.00,50.325 l 105.00-90.00l-105.00-90.00l0.00,59.675 l-17.675,0.00 c-92.325,0.00-144.40,68.425-190.35,128.80 c-41.325,54.30-77.00,101.20-134.65,101.20L0.00,327.35 l0.00,70.025 l 52.325,0.00 c 92.35,0.00, 144.40-68.45, 190.375-128.825C 284.00,214.225, 319.675,167.35, 377.325,167.35z M 135.275,211.45c 3.925-5.10, 7.90-10.30, 11.925-15.575c 9.775-12.85, 20.10-26.40, 31.275-39.90C 145.45,125.125, 105.60,102.35, 52.325,102.35L0.00,102.35 l0.00,70.00 l 52.325,0.00 C 85.50,172.35, 111.40,187.925, 135.275,211.45z M 395.00,332.325l-17.675,0.00 c-35.175,0.00-62.15-17.475-87.25-43.45 c-2.525,3.275-5.025,6.60-7.575,9.95c-11.025,14.45-22.90,30.025-35.975,45.40c 33.925,33.10, 75.025,58.10, 130.80,58.10L 395.00,402.325 l0.00,60.00 l 105.00-90.00 l-105.00-90.05L 395.00,332.325 z" ></path></svg>