<?xml version="1.0" encoding="utf-8"?> <!-- Generator: IcoMoon.io --> <!DOCTYPE svg PUBLIC "-//W3C//DTD SVG 1.1//EN" "http://www.w3.org/Graphics/SVG/1.1/DTD/svg11.dtd"> <svg width="500.00000000000006" height="500" viewBox="0 0 500 500" xmlns="http://www.w3.org/2000/svg" xmlns:xlink="http://www.w3.org/1999/xlink" fill="#000000"><path d="M 466.775,300.95c 3.325-15.60, 5.075-31.80, 5.075-48.45c0.00-124.65-98.225-225.725-219.40-225.725c-12.775,0.00-25.325,1.15-37.50,3.30 C 195.30,17.375, 172.125,10.00, 147.225,10.00C 76.975,10.00, 20.00,68.625, 20.00,140.925c0.00,24.15, 6.40,46.775, 17.50,66.20 c-2.90,14.65-4.45,29.825-4.45,45.375c0.00,124.65, 98.25,225.725, 219.40,225.725c 13.725,0.00, 27.175-1.30, 40.175-3.775 c 17.90,9.90, 38.375,15.525, 60.125,15.525c 70.30,0.00, 127.25-58.60, 127.25-130.90C 480.00,338.20, 475.225,318.45, 466.775,300.95z M 364.975,360.40 c-10.15,14.775-25.15,26.50-44.575,34.80c-19.25,8.225-42.275,12.40-68.55,12.40c-31.525,0.00-57.925-5.70-78.55-16.975 c-14.75-8.175-26.90-19.275-36.125-32.95c-9.325-13.85-14.05-27.575-14.05-40.80c0.00-8.275, 3.075-15.45, 9.15-21.325 c 6.025-5.80, 13.725-8.775, 22.90-8.775c 7.525,0.00, 14.05,2.325, 19.325,6.90c 5.05,4.425, 9.375,10.95, 12.85,19.325 c 3.90,9.175, 8.125,16.90, 12.60,23.00c 4.30,5.85, 10.50,10.80, 18.40,14.65c 7.95,3.85, 18.675,5.825, 31.875,5.825 c 18.125,0.00, 33.00-3.975, 44.175-11.85c 10.95-7.70, 16.25-16.90, 16.25-28.175c0.00-8.90-2.775-15.925-8.475-21.40 c-5.975-5.725-13.875-10.20-23.425-13.275c-9.975-3.20-23.525-6.65-40.25-10.25c-22.775-5.025-42.125-10.975-57.50-17.70 C 165.30,246.975, 152.60,237.425, 143.325,225.475c-9.425-12.10-14.20-27.35-14.20-45.25c0.00-17.05, 5.00-32.425, 14.90-45.675 c 9.825-13.15, 24.125-23.40, 42.575-30.425C 204.825,97.20, 226.50,93.675, 251.00,93.675c 19.60,0.00, 36.825,2.35, 51.20,6.925 c 14.45,4.65, 26.65,10.90, 36.225,18.60c 9.65,7.775, 16.825,16.075, 21.35,24.65c 4.55,8.725, 6.85,17.375, 6.85,25.75 c0.00,8.075-3.025,15.40-9.00,21.80c-6.00,6.425-13.60,9.675-22.525,9.675c-8.10,0.00-14.475-2.05-18.90-6.05 c-4.10-3.725-8.375-9.575-13.075-17.925c-5.475-10.725-12.10-19.15-19.675-25.075c-7.40-5.775-19.70-8.725-36.65-8.725 c-15.725,0.00-28.525,3.25-38.025,9.675C 199.60,159.175, 195.175,166.25, 195.175,174.625c0.00,5.15, 1.425,9.45, 4.375,13.125 c 3.125,3.925, 7.50,7.375, 13.075,10.225c 5.75,2.975, 11.70,5.35, 17.65,7.05c 6.10,1.725, 16.325,4.30, 30.375,7.65 c 17.75,3.925, 34.05,8.325, 48.475,13.05c 14.625,4.80, 27.25,10.75, 37.55,17.625c 10.50,7.05, 18.825,16.10, 24.725,26.875 c 5.90,10.85, 8.90,24.225, 8.90,39.75C 380.325,328.625, 375.175,345.55, 364.975,360.40z" ></path></svg>