<?xml version="1.0" encoding="utf-8"?> <!-- Generator: IcoMoon.io --> <!DOCTYPE svg PUBLIC "-//W3C//DTD SVG 1.1//EN" "http://www.w3.org/Graphics/SVG/1.1/DTD/svg11.dtd"> <svg width="512" height="512" viewBox="0 0 512 512" xmlns="http://www.w3.org/2000/svg" xmlns:xlink="http://www.w3.org/1999/xlink" fill="#000000"><path d="M 512.00,384.00q0.00,53.00 -37.50,90.50t-90.50,37.50q-51.50,0.00 -88.50-35.50q-20.50,3.50 -39.50,3.50q-45.50,0.00 -87.00-17.75t-71.50-47.75t-47.75-71.50t-17.75-87.00q0.00-18.50 3.50-39.50q-35.50-37.00 -35.50-88.50q0.00-53.00 37.50-90.50t 90.50-37.50q 51.50,0.00 88.50,35.50q 20.50-3.50 39.50-3.50q 45.50,0.00 87.00,17.75t 71.50,47.75t 47.75,71.50t 17.75,87.00q0.00,19.00 -3.50,39.50q 35.50,37.00 35.50,88.50 zM 256.00,160.00q 26.50,0.00 45.25,9.25t 18.75,22.50t 9.50,22.75t 22.75,9.50t 22.50-9.50t 9.25-22.50q0.00-40.00 -37.50-68.00t-90.50-28.00t-90.50,28.00t-37.50,68.00t 37.50,68.00t 90.50,28.00q 26.50,0.00 45.25,9.25t 18.75,22.75t-18.75,22.75t-45.25,9.25t-45.25-9.50t-18.75-22.75t-9.25-22.50t-22.50-9.25t-22.75,9.25t-9.50,22.75q0.00,40.00 37.50,68.00t 90.50,28.00 t 90.50-28.00t 37.50-68.00t-37.50-68.00t-90.50-28.00q-26.50,0.00 -45.25-9.50t-18.75-22.75t 18.75-22.50t 45.25-9.25z" ></path></svg>