<?xml version="1.0" encoding="utf-8"?> <!-- Generator: IcoMoon.io --> <!DOCTYPE svg PUBLIC "-//W3C//DTD SVG 1.1//EN" "http://www.w3.org/Graphics/SVG/1.1/DTD/svg11.dtd"> <svg width="500.00000000000006" height="500" viewBox="0 0 500 500" xmlns="http://www.w3.org/2000/svg" xmlns:xlink="http://www.w3.org/1999/xlink" fill="#000000"><path d="M 223.60,282.825C 161.15,259.25, 108.70,217.15, 105.225,162.30C 103.00,127.325, 111.825,96.75, 134.575,71.05L 41.675,93.225 C 23.00,97.70, 11.50,116.45, 15.95,135.125L 93.25,458.325c 4.475,18.675, 23.20,30.175, 41.875,25.70l 39.775-9.50 c-15.425-5.125-42.125-14.875-67.70-28.525l 37.075-84.10c0.00,0.00, 43.625,38.875, 106.30,38.875C 313.225,400.775, 341.10,327.225, 223.60,282.825zM 484.025,364.875L 406.775,41.675c-4.475-18.675-23.225-30.175-41.90-25.70l-66.55,15.925c 16.975,2.675, 50.55,10.025, 87.60,29.45 l-28.975,80.35c0.00,0.00-24.125-26.95-88.825-30.225c-61.475-3.10-95.70,63.40, 24.25,102.625c 91.825,30.025, 121.20,87.90, 119.675,141.425 c-0.80,27.825-10.55,50.475-21.825,67.525l 68.125-16.275C 477.00,402.30, 488.50,383.55, 484.025,364.875z" ></path></svg>