<?xml version="1.0" encoding="utf-8"?> <!-- Generator: IcoMoon.io --> <!DOCTYPE svg PUBLIC "-//W3C//DTD SVG 1.1//EN" "http://www.w3.org/Graphics/SVG/1.1/DTD/svg11.dtd"> <svg width="512" height="512" viewBox="0 0 512 512" xmlns="http://www.w3.org/2000/svg" xmlns:xlink="http://www.w3.org/1999/xlink" fill="#000000"><path d="M 472.50,158.00l-92.00,54.50q 3.50,14.50 3.50,27.50q0.00,34.50 -19.50,63.50q 23.50,26.50 37.50,61.75t 14.00,69.25q0.00,19.00 -4.25,32.75t-14.75,22.00t-19.75,13.25t-28.50,6.75t-31.25,2.25t-37.00,0.50l-8.25,0.00 l-8.75,0.00 q-24.50,0.00 -36.75-0.50t-31.25-2.25t-28.50-6.75t-20.00-13.25t-14.75-22.00t-4.25-32.75q0.00-34.00 14.00-69.25t 38.00-61.75q-20.00-29.00 -20.00-63.50 q0.00-13.00 3.50-27.50l-91.50-54.50q-6.00-3.50 -7.50-10.00t 1.75-12.00t 9.25-7.25t 12.00,1.25l 88.50,53.00q 16.50-27.50 44.50-42.50q-28.50-24.00 -28.50-60.50q0.00-33.00 23.50-56.50t 56.75-23.50t 56.50,23.50t 23.25,56.50q0.00,36.50 -28.00,60.50q 28.00,15.00 44.50,42.50l 88.50-53.00q 5.50-3.00 11.75-1.25t 9.50,7.25t 1.50,12.00t-7.25,10.00zM 272.25,320.00q 6.75,0.00 11.25-4.75t 4.50-11.25t-4.50-11.25 t-11.25-4.75t-11.50,4.75t-4.75,11.25t 4.75,11.25t 11.50,4.75zM 272.25,256.00q 6.75,0.00 11.25-4.75t 4.50-11.25t-4.50-11.25t-11.25-4.75t-11.50,4.75t-4.75,11.25t 4.75,11.25t 11.50,4.75zM 240.25,64.00q-6.75,0.00 -11.50,4.75t-4.75,11.25t 4.75,11.25t 11.50,4.75t 11.25-4.75t 4.50-11.25t-4.50-11.25t-11.25-4.75zM 272.25,160.00 q-6.75,0.00 -11.50,4.75t-4.75,11.25t 4.75,11.25t 11.50,4.75t 11.25-4.75t 4.50-11.25t-4.50-11.25t-11.25-4.75zM 304.00,64.00q-6.50,0.00 -11.25,4.75t-4.75,11.25t 4.75,11.25t 11.25,4.75t 11.25-4.75t 4.75-11.25t-4.75-11.25t-11.25-4.75z" ></path></svg>