<?xml version="1.0" encoding="utf-8"?> <!-- Generator: IcoMoon.io --> <!DOCTYPE svg PUBLIC "-//W3C//DTD SVG 1.1//EN" "http://www.w3.org/Graphics/SVG/1.1/DTD/svg11.dtd"> <svg width="512" height="512" viewBox="0 0 512 512" xmlns="http://www.w3.org/2000/svg" xmlns:xlink="http://www.w3.org/1999/xlink" fill="#000000"><path d="M 362.00,512.00l-212.00,0.00 l-150.00-150.00l0.00-212.00 l 150.00-150.00l 212.00,0.00 l 150.00,150.00l0.00,212.00 zM 288.00,80.00q0.00-6.50 -4.75-11.25t-11.25-4.75l-32.00,0.00 q-6.50,0.00 -11.25,4.75t-4.75,11.25l0.00,224.00 q0.00,6.50 4.75,11.25t 11.25,4.75l 32.00,0.00 q 6.50,0.00 11.25-4.75t 4.75-11.25l0.00-224.00 zM 288.00,400.00q0.00-6.50 -4.75-11.25t-11.25-4.75l-32.00,0.00 q-6.50,0.00 -11.25,4.75t-4.75,11.25l0.00,32.00 q0.00,6.50 4.75,11.25t 11.25,4.75l 32.00,0.00 q 6.50,0.00 11.25-4.75t 4.75-11.25l0.00-32.00 z" ></path></svg>