<?xml version="1.0" encoding="utf-8"?> <!-- Generator: IcoMoon.io --> <!DOCTYPE svg PUBLIC "-//W3C//DTD SVG 1.1//EN" "http://www.w3.org/Graphics/SVG/1.1/DTD/svg11.dtd"> <svg width="512" height="512" viewBox="0 0 512 512" xmlns="http://www.w3.org/2000/svg" xmlns:xlink="http://www.w3.org/1999/xlink" fill="#000000"><path d="M 210.75,366.75q-18.75-18.75 -18.75-45.25t 19.00-45.50l 272.00-181.00l-181.50,272.00q-18.50,18.50 -45.25,18.50t-45.50-18.75zM 256.00,96.50q-45.50,0.00 -87.25,18.00t-71.75,48.00t-47.75,71.50t-17.75,87.00q0.00,53.00 24.00,101.00l-28.00,14.00q-27.50-54.50 -27.50-114.50q0.00-52.50 20.25-99.75t 54.50-81.50t 81.75-54.50t 99.50-20.25q 80.50,0.00 146.50,46.00l-28.50,19.00 q-54.50-34.00 -118.00-34.00zM 466.50,175.50q 45.50,66.00 45.50,146.00q0.00,60.00 -27.50,114.50l-28.00-14.50q 24.00-47.50 24.00-100.50q0.00-62.50 -33.00-117.00z" ></path></svg>