<?xml version="1.0" encoding="utf-8"?> <!-- Generator: IcoMoon.io --> <!DOCTYPE svg PUBLIC "-//W3C//DTD SVG 1.1//EN" "http://www.w3.org/Graphics/SVG/1.1/DTD/svg11.dtd"> <svg width="512" height="512" viewBox="0 0 512 512" xmlns="http://www.w3.org/2000/svg" xmlns:xlink="http://www.w3.org/1999/xlink" fill="#000000"><path d="M 453.00,314.00q-23.00,23.00 -44.00,39.00q 3.50,18.00 6.00,35.50q 4.00,34.00 4.50,56.75t-3.75,38.50t-12.75,22.25t-24.00,5.75t-35.75-8.25t-49.75-22.00q-17.50-9.00 -34.50-19.50q-16.00,10.00 -34.50,19.50q-29.50,14.50 -49.75,22.00t-35.75,8.25t-24.00-5.75t-12.75-22.25t-3.75-38.50t 4.50-56.75q 2.50-17.00 6.00-35.50q-21.00-16.00 -44.00-39.00q-24.00-24.00 -38.25-41.75t-20.00-32.75 t-2.25-25.50t 17.50-19.50t 36.25-15.25t 57.25-12.75q 24.50-4.00 45.50-6.00q 8.50-20.50 21.00-43.50q 16.00-29.50 28.50-47.75t 25.00-28.00t 23.50-9.75t 23.50,9.75t 25.00,28.00t 28.50,47.75q 12.50,23.00 21.00,43.50q 21.00,2.00 45.50,6.00q 35.00,6.50 57.25,12.75t 36.25,15.25t 17.50,19.50t-2.25,25.50t-20.00,32.75t-38.25,41.75z" ></path></svg>