<?xml version="1.0" encoding="utf-8"?> <!-- Generator: IcoMoon.io --> <!DOCTYPE svg PUBLIC "-//W3C//DTD SVG 1.1//EN" "http://www.w3.org/Graphics/SVG/1.1/DTD/svg11.dtd"> <svg width="512" height="512" viewBox="0 0 512 512" xmlns="http://www.w3.org/2000/svg" xmlns:xlink="http://www.w3.org/1999/xlink" fill="#000000"><path d="M 512.00,432.00q0.00,6.50 -4.75,11.25t-11.25,4.75t-11.25-4.75t-4.75-11.25l0.00-210.50 l-176.50,88.50q-20.00,10.00 -47.50,10.00t-47.50-10.00l-189.00-94.50q-19.50-10.00 -19.50-23.75t 19.50-23.25l 189.00-94.50q 20.00-10.00 47.50-10.00t 47.50,10.00l 189.00,94.50q 17.00,8.50 19.00,21.00q 0.50,0.50 0.50,2.00l0.00,0.50 l0.00,240.00 l0.00,0.00 zM 319.50,342.00l 96.50-48.50l0.00,70.50 q0.00,21.50 -46.75,36.75t-113.25,15.25 t-113.25-15.25t-46.75-36.75l0.00-70.50 l 96.50,48.50q 20.00,10.00 63.50,10.00t 63.50-10.00z" ></path></svg>