<?xml version="1.0" encoding="utf-8"?> <!-- Generator: IcoMoon.io --> <!DOCTYPE svg PUBLIC "-//W3C//DTD SVG 1.1//EN" "http://www.w3.org/Graphics/SVG/1.1/DTD/svg11.dtd"> <svg width="512" height="512" viewBox="0 0 512 512" xmlns="http://www.w3.org/2000/svg" xmlns:xlink="http://www.w3.org/1999/xlink" fill="#000000"><path d="M 426.00,0.00L 86.00,0.00 C 38.70,0.00,0.00,38.70,0.00,86.00l0.00,340.00 c0.00,47.30, 38.70,86.00, 86.00,86.00l 340.00,0.00 c 47.30,0.00, 86.00-38.70, 86.00-86.00L 512.00,86.00 C 512.00,38.70, 473.30,0.00, 426.00,0.00z M 256.00,160.00 c-17.645,0.00-32.00,14.355-32.00,32.00l0.00,128.00 c0.00,52.936-43.065,96.00-96.00,96.00s-96.00-43.064-96.00-96.00l0.00-64.00 l 64.00,0.00 l0.00,64.00 c0.00,17.645, 14.355,32.00, 32.00,32.00s 32.00-14.355, 32.00-32.00L 160.00,192.00 c0.00-52.935, 43.065-96.00, 96.00-96.00c 52.935,0.00, 96.00,43.065, 96.00,89.00l0.00,31.00 l-41.00,12.00l-23.00-12.00l0.00-31.00 C 288.00,174.355, 273.645,160.00, 256.00,160.00z M 480.00,320.00 c0.00,52.936-43.065,96.00-96.00,96.00s-96.00-43.064-96.00-103.00l0.00-62.00 l 23.00,12.00l 41.00-12.00l0.00,62.00 c0.00,24.645, 14.355,39.00, 32.00,39.00s 32.00-14.355, 32.00-32.00l0.00-64.00 l 64.00,0.00 L 480.00,320.00 z" ></path></svg>