<?xml version="1.0" encoding="utf-8"?> <!-- Generator: IcoMoon.io --> <!DOCTYPE svg PUBLIC "-//W3C//DTD SVG 1.1//EN" "http://www.w3.org/Graphics/SVG/1.1/DTD/svg11.dtd"> <svg width="512" height="512" viewBox="0 0 512 512" xmlns="http://www.w3.org/2000/svg" xmlns:xlink="http://www.w3.org/1999/xlink" fill="#000000"><path d="M 256.00,0.00C 114.615,0.00,0.00,114.615,0.00,256.00s 114.615,256.00, 256.00,256.00s 256.00-114.615, 256.00-256.00S 397.385,0.00, 256.00,0.00z M 256.00,128.00 c-17.645,0.00-32.00,14.355-32.00,32.00l0.00,128.00 c0.00,52.935-43.065,96.00-96.00,96.00s-96.00-43.065-96.00-96.00l0.00-64.00 l 64.00,0.00 l0.00,64.00 c0.00,17.645, 14.355,32.00, 32.00,32.00s 32.00-14.355, 32.00-32.00L 160.00,160.00 c0.00-52.935, 43.065-96.00, 96.00-96.00s 96.00,43.065, 96.00,89.00l0.00,31.00 l-41.00,12.00l-23.00-12.00l0.00-31.00 C 288.00,142.355, 273.645,128.00, 256.00,128.00z M 384.00,384.00 c-52.935,0.00-96.00-43.065-96.00-103.00l0.00-62.00 l 23.00,12.00l 41.00-12.00l0.00,62.00 c0.00,24.645, 14.355,39.00, 32.00,39.00s 32.00-14.355, 32.00-32.00l0.00-64.00 l 64.00,0.00 l0.00,64.00 C 480.00,340.935, 436.935,384.00, 384.00,384.00z" ></path></svg>