<?xml version="1.0" encoding="utf-8"?> <!-- Generator: IcoMoon.io --> <!DOCTYPE svg PUBLIC "-//W3C//DTD SVG 1.1//EN" "http://www.w3.org/Graphics/SVG/1.1/DTD/svg11.dtd"> <svg width="500.00000000000006" height="500" viewBox="0 0 500 500" xmlns="http://www.w3.org/2000/svg" xmlns:xlink="http://www.w3.org/1999/xlink" fill="#000000"><path d="M 482.275,10.15c-2.70-7.875-11.225-12.025-19.025-9.30s-11.90,11.35-9.175,19.25c 23.00,66.75-22.65,116.60-57.425,143.275 l-14.075-20.35c-4.70-6.80-15.30-12.475-23.50-12.60l-78.875,0.375c-8.20-0.125-20.40,3.675-27.15,8.425l-232.40,164.70 c-11.25,7.975-14.025,23.675-6.125,35.075l 105.65,152.675c 7.875,11.40, 20.55,10.025, 31.80,2.075l 232.40-164.725 c 6.75-4.75, 14.425-15.10, 17.15-22.95l 24.70-78.65c 2.675-7.85, 1.05-19.85-3.65-26.65l-8.60-12.40 C 460.70,152.25, 509.20,88.325, 482.275,10.15z M 374.15,244.05c-18.025,12.775-42.85,8.325-55.475-9.90 c-12.60-18.225-8.225-43.35, 9.80-56.125c 14.30-10.15, 32.875-9.40, 46.25,0.45c-6.75,4.10-11.35,6.45-12.225,6.875 c-7.45,3.55-10.65,12.55-7.125,20.10c 2.55,5.475, 7.90,8.70, 13.525,8.70c 2.125,0.00, 4.30-0.475, 6.35-1.45 c 4.775-2.275, 9.95-5.05, 15.325-8.275C 392.975,219.25, 387.125,234.85, 374.15,244.05z" ></path></svg>