<?xml version="1.0" encoding="utf-8"?> <!-- Generator: IcoMoon.io --> <!DOCTYPE svg PUBLIC "-//W3C//DTD SVG 1.1//EN" "http://www.w3.org/Graphics/SVG/1.1/DTD/svg11.dtd"> <svg width="512" height="512" viewBox="0 0 512 512" xmlns="http://www.w3.org/2000/svg" xmlns:xlink="http://www.w3.org/1999/xlink" fill="#000000"><path d="M 480.00,192.00q0.00,64.00 -32.00,64.00q-1.50,0.00 -2.50,2.50q 2.50,16.00 2.50,29.50q0.00,54.00 -27.25,107.25t-71.25,84.75l-187.00,0.00 q-49.50-35.50 -77.50-98.50q-9.00,2.50 -21.00,2.50q-17.00,0.00 -32.00-23.25t-23.50-56.25t-8.50-64.50q0.00-80.00 64.00-80.00q 25.50,0.00 40.00,11.00q 27.00-35.00 66.75-55.00t 85.25-20.00q 48.50,0.00 90.50,22.75t 68.50,61.75q 1.00-3.00 1.00-4.50q0.00-33.00 23.50-56.50 t 56.50-23.50q 8.00,0.00 16.00,1.50l0.00,62.50 q-13.50,0.00 -22.75,9.25t-9.25,22.75zM 64.00,192.00q-32.00,0.00 -32.00,57.00q0.00,28.50 13.75,60.25t 27.75,40.25q-9.50-32.50 -9.50-61.50q0.00-42.50 18.50-81.50q-8.50-14.50 -18.50-14.50zM 224.00,63.75q0.00-13.25 9.25-22.50t 22.50-9.25t 22.75,9.25t 9.50,22.50t-9.50,22.75t-22.75,9.50t-22.50-9.50t-9.25-22.75z" ></path></svg>