<?xml version="1.0" encoding="utf-8"?> <!-- Generator: IcoMoon.io --> <!DOCTYPE svg PUBLIC "-//W3C//DTD SVG 1.1//EN" "http://www.w3.org/Graphics/SVG/1.1/DTD/svg11.dtd"> <svg width="512" height="512" viewBox="0 0 512 512" xmlns="http://www.w3.org/2000/svg" xmlns:xlink="http://www.w3.org/1999/xlink" fill="#000000"><path d="M 256.00,512.00q-69.50,0.00 -128.50-34.25t-93.25-93.25t-34.25-128.50q 69.50,0.00 128.50-34.25t 93.25-93.25t 34.25-128.50q 69.50,0.00 128.50,34.25t 93.25,93.25t 34.25,128.50q-69.50,0.00 -128.50,34.25t-93.25,93.25t-34.25,128.50zM 2.00,224.00q 11.00-87.00 73.00-149.00t 149.00-73.00q-0.50,60.00 -30.25,111.00t-80.75,80.75t-111.00,30.25zM 510.00,288.00 q-11.00,87.00 -73.00,149.00t-149.00,73.00q 0.50-60.00 30.25-111.00t 80.75-80.75t 111.00-30.25z" ></path></svg>