<?xml version="1.0" encoding="utf-8"?> <!-- Generator: IcoMoon.io --> <!DOCTYPE svg PUBLIC "-//W3C//DTD SVG 1.1//EN" "http://www.w3.org/Graphics/SVG/1.1/DTD/svg11.dtd"> <svg width="500.00000000000006" height="500" viewBox="0 0 500 500" xmlns="http://www.w3.org/2000/svg" xmlns:xlink="http://www.w3.org/1999/xlink" fill="#000000"><path d="M 341.20,184.075c-3.30-8.875, 88.50-90.875, 34.95-157.30c-12.55-15.525-55.025,74.40-115.375,115.10C 227.50,164.325, 150.00,212.125, 150.00,238.55l0.00,171.025 C 150.00,441.35, 272.85,475.00, 366.225,475.00C 400.45,475.00, 450.00,260.625, 450.00,226.55C 450.00,192.375, 344.50,192.975, 341.20,184.075z M 125.00,186.45c-16.425,0.00-75.00,10.00-75.00,78.05 l0.00,121.20 c0.00,68.05, 58.575,75.525, 75.00,75.525s-25.00-14.30-25.00-56.475L 100.00,245.425 C 100.00,201.225, 141.425,186.45, 125.00,186.45z" ></path></svg>