<?xml version="1.0" encoding="utf-8"?> <!-- Generator: IcoMoon.io --> <!DOCTYPE svg PUBLIC "-//W3C//DTD SVG 1.1//EN" "http://www.w3.org/Graphics/SVG/1.1/DTD/svg11.dtd"> <svg width="500.00000000000006" height="500" viewBox="0 0 500 500" xmlns="http://www.w3.org/2000/svg" xmlns:xlink="http://www.w3.org/1999/xlink" fill="#000000"><path d="M 78.35,172.25C 101.70,154.125, 121.05,166.60, 146.875,196.50C 149.80,199.85, 153.70,195.925, 155.90,194.00c 2.20-1.95, 36.30-32.60, 37.95-34.025 C 195.525,158.50, 197.525,155.75, 194.875,152.675s-12.35-15.625-18.575-23.75c-45.20-59.125, 123.65-99.225, 97.70-99.85 c-13.175-0.35-66.15-0.95-74.05-0.125C 167.875,32.35, 127.60,62.325, 107.325,76.275c-26.50,18.225-36.425,28.80-38.05,30.275 c-7.50,6.575-1.20,21.675-14.80,33.60C 40.10,152.75, 31.15,143.225, 22.825,150.525c-4.15,3.65-15.675,12.275-19.00,15.20 C 0.525,168.625-0.075,173.55, 3.30,177.50c0.00,0.00, 31.575,34.90, 34.25,37.975C 40.20,218.55, 47.325,221.15, 51.75,217.25 c 4.425-3.875, 15.775-13.85, 17.70-15.55C 71.40,200.025, 68.20,180.125, 78.35,172.25z M 221.075,185.15c-3.00-3.475-6.70-3.55-9.925-0.70 L 175.275,215.725c-2.80,2.50-3.175,7.10-0.65,10.00l 207.35,235.95c 4.825,5.60, 13.225,6.175, 18.80,1.325l 24.275-20.30 c 5.525-4.85, 6.10-13.35, 1.275-18.925L 221.075,185.15z M 497.55,84.725c-1.85-12.35-8.25-9.75-11.575-4.50 c-3.275,5.225-18.025,27.525-24.075,37.60c-6.00,10.05-20.75,29.775-48.35,10.30c-28.70-20.30-18.70-34.475-13.725-44.00 c 5.025-9.575, 20.45-36.375, 22.70-39.75c 2.20-3.375-0.40-13.175-9.275-9.075c-8.925,4.125-63.075,25.65-70.60,56.50 c-7.675,31.425, 6.45,59.475-21.25,87.35l-33.55,35.00l 33.70,39.20l 41.35-39.275c 9.875-9.90, 30.90-19.525, 49.95-15.20 c 40.825,9.25, 63.075-6.10, 76.525-31.425C 501.425,144.775, 499.425,97.075, 497.55,84.725z M 68.50,426.275c-5.20,5.25-5.20,13.75,0.00,18.975 l 23.775,23.25c 5.20,5.225, 13.45,3.025, 18.65-2.20l 122.675-120.625L 196.00,302.85L 68.50,426.275z" ></path></svg>