<?xml version="1.0" encoding="utf-8"?> <!-- Generator: IcoMoon.io --> <!DOCTYPE svg PUBLIC "-//W3C//DTD SVG 1.1//EN" "http://www.w3.org/Graphics/SVG/1.1/DTD/svg11.dtd"> <svg width="500.00000000000006" height="500" viewBox="0 0 500 500" xmlns="http://www.w3.org/2000/svg" xmlns:xlink="http://www.w3.org/1999/xlink" fill="#000000"><path d="M 480.00,107.325c-16.95,7.525-35.125,12.575-54.225,14.875c 19.50-11.675, 34.475-30.175, 41.50-52.20c-18.225,10.80-38.425,18.675-59.90,22.90 c-17.225-18.35-41.75-29.80-68.90-29.80c-52.125,0.00-94.375,42.25-94.375,94.35c0.00,7.40, 0.825,14.60, 2.45,21.50 c-78.425-3.925-147.975-41.50-194.50-98.60C 43.90,94.275, 39.225,110.50, 39.225,127.80c0.00,32.75, 16.675,61.625, 42.00,78.55 c-15.475-0.50-30.025-4.725-42.75-11.80c0.00,0.40,0.00,0.775,0.00,1.175c0.00,45.725, 32.55,83.85, 75.70,92.55c-7.90,2.15-16.25,3.30-24.875,3.30 c-6.075,0.00-11.975-0.575-17.75-1.675c 12.00,37.50, 46.875,64.775, 88.15,65.525c-32.30,25.325-72.975,40.40-117.20,40.40 c-7.625,0.00-15.125-0.45-22.50-1.325c 41.75,26.775, 91.35,42.40, 144.675,42.40c 173.575,0.00, 268.50-143.80, 268.50-268.525 c0.00-4.075-0.075-8.15-0.275-12.20C 451.35,142.875, 467.325,126.25, 480.00,107.325z" ></path></svg>