<?xml version="1.0" encoding="utf-8"?> <!-- Generator: IcoMoon.io --> <!DOCTYPE svg PUBLIC "-//W3C//DTD SVG 1.1//EN" "http://www.w3.org/Graphics/SVG/1.1/DTD/svg11.dtd"> <svg width="512" height="512" viewBox="0 0 512 512" xmlns="http://www.w3.org/2000/svg" xmlns:xlink="http://www.w3.org/1999/xlink" fill="#000000"><path d="M 501.00,224.00q-10.50-14.50 -28.75-23.25t-40.00-8.75t-40.25,8.75t-29.00,23.25l-38.00,0.00 q-13.00-18.00 -37.00-26.50l0.00,218.50 q0.00,39.50 -28.00,67.75t-67.75,28.25t-68.00-28.25t-28.25-67.75q0.00-13.50 9.50-22.75t 22.75-9.25t 22.50,9.25t 9.25,22.50t 9.50,22.75t 22.75,9.50t 22.50-9.50t 9.25-22.50l0.00-218.50 q-23.50,8.50 -37.00,26.50l-38.00,0.00 q-10.50-14.50 -29.00-23.25 t-40.25-8.75t-40.00,8.75t-28.75,23.25l-11.00,0.00 q0.00-48.00 29.50-89.75t 80.75-68.25t 113.75-32.50l0.00-1.50 q0.00-13.50 9.25-22.75t 22.75-9.25t 22.75,9.25t 9.25,22.75l0.00,1.50 q 62.50,6.00 113.75,32.50t 80.75,68.00t 29.50,90.00l-11.00,0.00 z" ></path></svg>