<?xml version="1.0" encoding="utf-8"?> <!-- Generator: IcoMoon.io --> <!DOCTYPE svg PUBLIC "-//W3C//DTD SVG 1.1//EN" "http://www.w3.org/Graphics/SVG/1.1/DTD/svg11.dtd"> <svg width="512" height="512" viewBox="0 0 512 512" xmlns="http://www.w3.org/2000/svg" xmlns:xlink="http://www.w3.org/1999/xlink" fill="#000000"><path d="M 256.50,512.00q-59.00,0.00 -111.00-25.25t-88.00-69.75l 50.50-39.50q 27.00,33.00 65.75,51.75t 82.75,18.75q 52.00,0.00 96.25-25.75t 70.00-70.00t 25.75-96.25t-25.75-96.25t-70.00-70.00t-96.25-25.75q-72.00,0.00 -126.50,48.00l 63.00,63.00q 0.50,17.50 -11.50,17.00l-165.00,0.00 q-6.50,0.00 -10.75-7.00t-4.75-14.50l-0.50-159.00q-0.50-12.00 17.00-11.50l 67.00,67.00 q 35.00-31.50 79.25-49.25t 92.75-17.75q 52.00,0.00 99.50,20.50t 81.75,54.75t 54.50,81.50t 20.25,99.25t-20.25,99.50t-54.50,81.75t-81.75,54.50t-99.50,20.25z" ></path></svg>