<?xml version="1.0" encoding="utf-8"?> <!-- Generator: IcoMoon.io --> <!DOCTYPE svg PUBLIC "-//W3C//DTD SVG 1.1//EN" "http://www.w3.org/Graphics/SVG/1.1/DTD/svg11.dtd"> <svg width="512" height="512" viewBox="0 0 512 512" xmlns="http://www.w3.org/2000/svg" xmlns:xlink="http://www.w3.org/1999/xlink" fill="#000000"><path d="M 396.50,406.00q 79.00-11.50 112.50-31.50q 3.00,5.50 3.00,9.50l0.00,64.00 q0.00,17.50 -34.25,32.25t-93.25,23.25t-128.50,8.50t-128.50-8.50t-93.25-23.25t-34.25-32.25l0.00-64.00 q0.00-4.00 3.00-9.50q 33.50,20.00 112.00,31.50q 2.50-5.50 6.00-9.50l 19.50-19.50q-63.50-8.00 -102.00-23.25t-38.50-33.75l0.00-64.00 q0.00-4.00 3.00-9.00q 33.00,19.00 110.00,30.50q 2.50-9.50 8.00-15.50l 14.00-13.50q-61.50-8.50 -98.25-23.50 t-36.75-33.00l0.00-64.00 q0.00-4.00 3.00-9.00q 31.00,18.00 101.25,29.50t 151.75,11.50t 151.75-11.50t 101.25-29.50q 3.00,5.00 3.00,9.00l0.00,64.00 q0.00,18.00 -37.00,33.25t-98.00,23.25l 13.50,13.50q 5.50,6.00 8.00,16.00q 77.50-11.50 110.50-31.00q 3.00,5.00 3.00,9.00l0.00,64.00 q0.00,18.50 -38.75,33.75t-102.25,23.25l 19.50,19.50q 3.50,4.00 6.00,9.50zM 343.00,308.00q 9.00-9.00 9.00-21.75t-9.00-21.75t-21.75-9.00 t-21.75,9.00l-44.00,43.50l-43.50-43.50q-9.00-9.00 -21.75-9.00t-21.75,9.00t-9.00,21.75t 9.00,21.75l 43.50,44.00l-43.50,43.50q-9.00,9.00 -9.00,21.75t 9.00,21.75t 21.75,9.00t 21.75-9.00l 43.50-43.50l 44.00,43.50q 9.00,9.00 21.75,9.00t 21.75-9.00t 9.00-21.75t-9.00-21.75l-43.50-43.50zM 256.00,128.00q-69.50,0.00 -128.50-8.50t-93.25-23.25t-34.25-32.25t 34.25-32.25 t 93.25-23.25t 128.50-8.50t 128.50,8.50t 93.25,23.25t 34.25,32.25t-34.25,32.25t-93.25,23.25t-128.50,8.50z" ></path></svg>