<?xml version="1.0" encoding="utf-8"?> <!-- Generator: IcoMoon.io --> <!DOCTYPE svg PUBLIC "-//W3C//DTD SVG 1.1//EN" "http://www.w3.org/Graphics/SVG/1.1/DTD/svg11.dtd"> <svg width="512" height="512" viewBox="0 0 512 512" xmlns="http://www.w3.org/2000/svg" xmlns:xlink="http://www.w3.org/1999/xlink" fill="#000000"><path d="M 256.00,512.00q-69.50,0.00 -128.50-34.25t-93.25-93.25t-34.25-128.50t 34.25-128.50t 93.25-93.25t 128.50-34.25t 128.50,34.25t 93.25,93.25t 34.25,128.50t-34.25,128.50t-93.25,93.25t-128.50,34.25zM 256.00,64.00q-52.00,0.00 -96.25,25.75t-70.00,70.00t-25.75,96.25t 25.75,96.25t 70.00,70.00t 96.25,25.75t 96.25-25.75t 70.00-70.00 t 25.75-96.25t-25.75-96.25t-70.00-70.00t-96.25-25.75zM 255.00,329.50q-2.50,9.00 -7.50,14.00q-10.00,10.00 -24.50,8.00q-14.00,1.00 -23.00-8.00q-5.00-5.00 -7.00-13.50l-57.00-57.00q-8.50-8.50 -8.50-20.50t 8.50-20.50t 20.50-8.50t 20.50,8.50l 46.50,46.50l 111.00-110.50q 8.50-8.50 20.50-8.50t 20.50,8.50t 8.50,20.50t-8.50,20.50z" ></path></svg>