<?xml version="1.0" encoding="utf-8"?> <!-- Generator: IcoMoon.io --> <!DOCTYPE svg PUBLIC "-//W3C//DTD SVG 1.1//EN" "http://www.w3.org/Graphics/SVG/1.1/DTD/svg11.dtd"> <svg width="512" height="512" viewBox="0 0 512 512" xmlns="http://www.w3.org/2000/svg" xmlns:xlink="http://www.w3.org/1999/xlink" fill="#000000"><path d="M 512.00,384.00l0.00,64.00 q0.00,24.00 -62.00,41.75t-155.00,21.25q-3.50,1.00 -7.00,1.00l-64.00,0.00 q-3.50,0.00 -7.00-1.00q-93.00-3.50 -155.00-21.25t-62.00-41.75l0.00-64.00 q0.00-4.00 3.00-9.50q 31.00,18.50 100.50,30.00q-7.50-9.00 -7.50-20.50l0.00-14.00 q-44.50-9.00 -70.25-22.00t-25.75-28.00l0.00-64.00 q0.00-4.00 3.00-9.00q 24.50,14.00 75.25,24.50t 113.75,14.50l0.00-32.00 q-83.50-5.50 -137.75-22.75t-54.25-39.25l0.00-64.00 q0.00-4.00 3.00-9.00q 31.00,18.00 101.25,29.50t 151.75,11.50t 151.75-11.50t 101.25-29.50q 3.00,5.00 3.00,9.00l0.00,64.00 q0.00,22.00 -54.25,39.25t-137.75,22.75l0.00,32.00 q 63.00-4.00 113.75-14.50t 75.25-24.50q 3.00,5.00 3.00,9.00l0.00,64.00 q0.00,15.00 -25.50,28.00t-70.50,22.00l0.00,14.00 q0.00,11.50 -7.50,20.50q 69.50-11.50 100.50-30.00q 3.00,5.50 3.00,9.50zM 352.00,320.00l-64.00,0.00 l0.00-64.00 q0.00-13.00 -9.50-22.50t-22.50-9.50 t-22.50,9.50t-9.50,22.50l0.00,64.00 l-64.00,0.00 q-13.00,0.00 -22.50,9.50t-9.50,22.75t 9.50,22.50t 22.50,9.25l 64.00,0.00 l0.00,64.00 q0.00,13.50 9.50,22.75t 22.50,9.25t 22.50-9.25t 9.50-22.75l0.00-64.00 l 64.00,0.00 q 13.00,0.00 22.50-9.25t 9.50-22.50t-9.50-22.75t-22.50-9.50zM 256.00,128.00q-69.50,0.00 -128.50-8.50t-93.25-23.25t-34.25-32.25t 34.25-32.25t 93.25-23.25t 128.50-8.50t 128.50,8.50t 93.25,23.25 t 34.25,32.25t-34.25,32.25t-93.25,23.25t-128.50,8.50z" ></path></svg>