<?xml version="1.0" encoding="utf-8"?> <!-- Generator: IcoMoon.io --> <!DOCTYPE svg PUBLIC "-//W3C//DTD SVG 1.1//EN" "http://www.w3.org/Graphics/SVG/1.1/DTD/svg11.dtd"> <svg width="512" height="512" viewBox="0 0 512 512" xmlns="http://www.w3.org/2000/svg" xmlns:xlink="http://www.w3.org/1999/xlink" fill="#000000"><path d="M 256.00,448.00q-33.00,0.00 -67.00-8.00q-17.00,20.00 -34.75,34.75t-30.00,21.75t-23.75,10.75t-15.00,4.25t-5.50,0.50l0.00,0.00 q 13.00-28.50 15.00-62.25t-7.00-56.75q-41.00-31.50 -64.50-75.50t-23.50-93.50q0.00-45.50 20.25-87.00t 54.50-71.50t 81.75-47.75t 99.50-17.75t 99.50,17.75t 81.75,47.75t 54.50,71.50t 20.25,87.00t-20.25,87.00t-54.50,71.50t-81.75,47.75 t-99.50,17.75zM 224.00,368.00q0.00,6.50 4.50,11.25t 11.50,4.75l 32.00,0.00 q 6.50,0.00 11.25-4.75t 4.75-11.25l0.00-32.00 q0.00-7.00 -4.75-11.50t-11.25-4.50l-32.00,0.00 q-7.00,0.00 -11.50,4.50t-4.50,11.50l0.00,32.00 zM 256.00,64.00q-42.50,0.00 -76.00,18.75t-46.00,48.25l 58.00,29.00q0.00-13.50 18.75-22.75t 45.25-9.25t 45.25,9.25t 18.75,22.50t-18.75,22.75t-45.25,9.50q-13.50,0.00 -22.75,9.25 t-9.25,22.75l0.00,48.00 q0.00,6.50 4.50,11.25t 11.50,4.75l 32.00,0.00 q 6.50,0.00 11.25-4.75t 4.75-11.25l0.00-19.50 q 41.50-8.00 68.75-33.75t 27.25-58.75q0.00-40.00 -37.50-68.00t-90.50-28.00z" ></path></svg>