<?xml version="1.0" encoding="utf-8"?> <!-- Generator: IcoMoon.io --> <!DOCTYPE svg PUBLIC "-//W3C//DTD SVG 1.1//EN" "http://www.w3.org/Graphics/SVG/1.1/DTD/svg11.dtd"> <svg width="512" height="512" viewBox="0 0 512 512" xmlns="http://www.w3.org/2000/svg" xmlns:xlink="http://www.w3.org/1999/xlink" fill="#000000"><path d="M 448.00,512.00l-384.00,0.00 q-26.50,0.00 -45.25-18.75t-18.75-45.25l0.00-384.00 q0.00-26.50 18.75-45.00t 45.25-18.50l 288.00,0.00 l-64.00,63.50l-192.00,0.00 q-13.50,0.00 -22.75,9.50t-9.25,22.50l0.00,320.00 q0.00,13.50 9.50,22.75t 22.50,9.25l 320.00,0.00 q 13.50,0.00 22.75-9.25t 9.25-22.75l0.00-192.00 l 64.00-64.00l0.00,288.00 q0.00,26.50 -18.75,45.25t-45.25,18.75zM 160.00,280.00l 72.00,72.00l-104.00,32.00zM 264.00,328.00 l-80.00-79.50l 239.50-240.00q 8.50-8.00 20.25-8.00t 20.25,8.00l 39.50,40.00q 8.00,8.00 8.25,19.75t-8.25,20.25z" ></path></svg>