<?xml version="1.0" encoding="utf-8"?> <!-- Generator: IcoMoon.io --> <!DOCTYPE svg PUBLIC "-//W3C//DTD SVG 1.1//EN" "http://www.w3.org/Graphics/SVG/1.1/DTD/svg11.dtd"> <svg width="512" height="512" viewBox="0 0 512 512" xmlns="http://www.w3.org/2000/svg" xmlns:xlink="http://www.w3.org/1999/xlink" fill="#000000"><path d="M 480.00,512.00l-448.00,0.00 q-13.00,0.00 -22.50-9.25t-9.50-22.75l0.00-448.00 q0.00-13.50 9.50-22.75t 22.50-9.25l 448.00,0.00 q 13.50,0.00 22.75,9.25t 9.25,22.75l0.00,448.00 q0.00,13.50 -9.25,22.75t-22.75,9.25zM 480.00,32.00l-448.00,0.00 l0.00,448.00 l 448.00,0.00 l0.00-448.00 zM 80.00,64.00l 32.00,0.00 l 96.00,0.00 q 6.50,0.00 11.25,4.75t 4.75,11.25l0.00,32.00 q0.00,6.50 -4.75,11.25t-11.25,4.75l-34.00,0.00 l 82.50,82.50l 82.00-82.50l-34.50,0.00 q-6.50,0.00 -11.25-4.75t-4.75-11.25l0.00-32.00 q0.00-6.50 4.75-11.25t 11.25-4.75l 128.00,0.00 q 6.50,0.00 11.25,4.75t 4.75,11.25l0.00,32.00 l0.00,96.00 q0.00,6.50 -4.75,11.25t-11.25,4.75l-32.00,0.00 q-6.50,0.00 -11.25-4.75t-4.75-11.25l0.00-34.50 l-82.00,82.50l 82.00,81.50l0.00-33.50 q0.00-6.50 4.75-11.25t 11.25-4.75l 32.00,0.00 q 6.50,0.00 11.25,4.75t 4.75,11.25l0.00,128.00 q0.00,6.50 -4.75,11.25 t-11.25,4.75l-32.00,0.00 l-96.00,0.00 q-6.50,0.00 -11.25-4.75t-4.75-11.25l0.00-32.00 q0.00-6.50 4.75-11.25t 11.25-4.75l 35.50,0.00 l-82.50-82.50l-82.50,82.50l 33.50,0.00 q 6.50,0.00 11.25,4.75t 4.75,11.25l0.00,32.00 q0.00,6.50 -4.75,11.25t-11.25,4.75l-128.00,0.00 q-6.50,0.00 -11.25-4.75t-4.75-11.25l0.00-32.00 l0.00-96.00 q0.00-6.50 4.75-11.25t 11.25-4.75l 32.00,0.00 q 6.50,0.00 11.25,4.75t 4.75,11.25l0.00,35.50 l 83.00-83.50l-83.00-82.50l0.00,34.50 q0.00,6.50 -4.75,11.25t-11.25,4.75l-32.00,0.00 q-6.50,0.00 -11.25-4.75t-4.75-11.25l0.00-128.00 q0.00-6.50 4.75-11.25t 11.25-4.75z" ></path></svg>