<?xml version="1.0" encoding="utf-8"?> <!-- Generator: IcoMoon.io --> <!DOCTYPE svg PUBLIC "-//W3C//DTD SVG 1.1//EN" "http://www.w3.org/Graphics/SVG/1.1/DTD/svg11.dtd"> <svg width="512" height="512" viewBox="0 0 512 512" xmlns="http://www.w3.org/2000/svg" xmlns:xlink="http://www.w3.org/1999/xlink" fill="#000000"><path d="M 481.00,506.50l-193.00-221.50l0.00,215.00 q-19.00,20.00 -31.00,6.50l-193.00-221.00l0.00,194.50 q0.00,13.00 -9.50,22.50t-22.75,9.50t-22.50-9.50t-9.25-22.50l0.00-448.00 q0.00-13.50 9.25-22.75t 22.50-9.25t 22.75,9.25t 9.50,22.75l0.00,195.00 l 193.00-221.50q 12.50-13.50 31.00,6.50l0.00,215.50 l 193.00-222.00q 12.50-13.50 31.00,6.50l0.00,488.00 q-18.50,20.00 -31.00,6.50z" ></path></svg>