<?xml version="1.0" encoding="utf-8"?> <!-- Generator: IcoMoon.io --> <!DOCTYPE svg PUBLIC "-//W3C//DTD SVG 1.1//EN" "http://www.w3.org/Graphics/SVG/1.1/DTD/svg11.dtd"> <svg width="512" height="512" viewBox="0 0 512 512" xmlns="http://www.w3.org/2000/svg" xmlns:xlink="http://www.w3.org/1999/xlink" fill="#000000"><path d="M 448.00,202.256L 448.00,128.00 c0.00-64.00-64.00-128.00-128.00-128.00l-128.00,0.00 C 138.768,0.00, 85.52,44.288, 69.12,96.00l 63.36,0.00 c 12.032-25.056, 46.448-32.00, 80.864-32.00l 85.328,0.00 C 341.344,64.00, 384.00,74.672, 384.00,117.344L 384.00,192.00 L 64.00,192.00 l0.00,10.256 C 45.632,214.224, 32.00,235.104, 32.00,256.00l0.00,192.00 c0.00,32.00, 32.00,64.00, 64.00,64.00l 320.00,0.00 c 32.00,0.00, 64.00-32.00, 64.00-64.00L 480.00,256.00 C 480.00,235.104, 466.368,214.224, 448.00,202.256z M 288.00,384.00c0.00,16.00-16.00,32.00-32.00,32.00s-32.00-16.00-32.00-32.00l0.00-64.00 c0.00-16.00, 16.00-32.00, 32.00-32.00s 32.00,16.00, 32.00,32.00L 288.00,384.00 z" ></path></svg>