<?xml version="1.0" encoding="utf-8"?> <!-- Generator: IcoMoon.io --> <!DOCTYPE svg PUBLIC "-//W3C//DTD SVG 1.1//EN" "http://www.w3.org/Graphics/SVG/1.1/DTD/svg11.dtd"> <svg width="512" height="512" viewBox="0 0 512 512" xmlns="http://www.w3.org/2000/svg" xmlns:xlink="http://www.w3.org/1999/xlink" fill="#000000"><path d="M 448.00,512.00l-384.00,0.00 q-26.50,0.00 -45.25-18.75t-18.75-45.25l0.00-48.00 q0.00-13.00 9.50-22.50t 22.50-9.50t 22.50,9.50t 9.50,22.50l0.00,16.00 q0.00,13.50 9.25,22.75t 22.75,9.25l 320.00,0.00 q 13.50,0.00 22.75-9.25t 9.25-22.75l0.00-16.00 q0.00-13.00 9.50-22.50t 22.50-9.50t 22.50,9.50t 9.50,22.50l0.00,48.00 q0.00,26.50 -18.75,45.25t-45.25,18.75zM 437.50,192.00l-117.50,0.00 l0.00,160.00 q0.00,13.50 -9.25,22.75t-22.75,9.25 l-64.00,0.00 q-13.50,0.00 -22.75-9.25t-9.25-22.75l0.00-160.00 l-118.00,0.00 q-7.50,0.00 -9.25-3.00t 4.25-9.50l 170.50-172.50q 7.00-7.00 16.50-7.00t 16.50,7.00l 170.50,172.50q 6.00,6.50 4.00,9.50t-9.50,3.00z" ></path></svg>