<?xml version="1.0" encoding="utf-8"?> <!-- Generator: IcoMoon.io --> <!DOCTYPE svg PUBLIC "-//W3C//DTD SVG 1.1//EN" "http://www.w3.org/Graphics/SVG/1.1/DTD/svg11.dtd"> <svg width="512" height="512" viewBox="0 0 512 512" xmlns="http://www.w3.org/2000/svg" xmlns:xlink="http://www.w3.org/1999/xlink" fill="#000000"><path d="M 256.00,512.00q-52.00,0.00 -99.50-20.25t-81.75-54.50t-54.50-81.75t-20.25-99.50t 20.25-99.50t 54.50-81.75t 81.75-54.50t 99.50-20.25t 99.50,20.25t 81.75,54.50t 54.50,81.75t 20.25,99.50t-20.25,99.50t-54.50,81.75t-81.75,54.50t-99.50,20.25zM 391.00,222.50q-6.00,3.00 -12.50,0.00t-9.25-9.75t0.00-13.75t 9.25-9.50l 47.50-21.50 q-28.50-54.50 -82.00-82.50l-21.50,48.00q-2.50,6.50 -9.50,9.25t-13.75,0.00t-9.75-9.25t0.00-13.00l 21.50-48.50q-27.00-8.00 -55.00-8.00t-55.00,8.00l 21.50,48.50q 3.00,6.50 0.00,13.00t-9.75,9.25t-13.75,0.00t-9.50-9.25l-21.50-48.00q-53.50,27.50 -82.00,82.50l 47.50,21.00q 6.00,3.00 8.75,9.75t0.00,13.75t-9.00,9.75t-12.75-0.25l-48.50-21.00q-8.00,27.00 -8.00,55.00t 8.00,55.00 l 48.50-21.00q 6.50-3.00 12.75-0.25t 9.00,9.75t0.00,13.75t-8.75,9.75l-47.50,21.00q 28.50,54.50 82.00,82.50l 21.00-48.00q 3.00-6.00 9.75-8.75t 13.75,0.00t 9.75,9.00t-0.25,12.75l-21.00,48.50q 27.00,8.00 55.00,8.00t 55.00-8.00l-21.00-48.50q-3.00-6.50 -0.25-12.75t 9.75-9.00t 13.75,0.00t 9.75,8.75l 21.00,48.00q 54.00-28.00 82.00-82.50l-47.50-21.50q-6.50-2.50 -9.25-9.50t0.00-13.75 t 9.25-9.75t 12.50,0.00l 49.00,21.50q 8.00-27.00 8.00-55.00t-8.00-55.00zM 256.00,288.00q-13.50,0.00 -22.75-9.25t-9.25-22.75q0.00-10.50 6.25-19.00t 16.25-11.50l 121.50-97.50l 8.00,0.00 q 3.50,0.00 5.75,2.25t 2.25,5.75l0.00,8.00 l-97.50,121.50q-3.00,10.00 -11.50,16.25t-19.00,6.25z" ></path></svg>