<?xml version="1.0" encoding="utf-8"?> <!-- Generator: IcoMoon.io --> <!DOCTYPE svg PUBLIC "-//W3C//DTD SVG 1.1//EN" "http://www.w3.org/Graphics/SVG/1.1/DTD/svg11.dtd"> <svg width="512" height="512" viewBox="0 0 512 512" xmlns="http://www.w3.org/2000/svg" xmlns:xlink="http://www.w3.org/1999/xlink" fill="#000000"><path d="M 288.00,320.00q-77.00,0.00 -137.00-13.50t-79.00-34.00q 68.00,15.50 152.00,15.50q 61.50,0.00 116.75-8.50t 89.25-23.50t 34.00-32.00l0.00-32.00 l 16.00,0.00 q 14.50,3.00 23.25,12.25t 8.75,19.75l0.00,32.00 q0.00,17.50 -30.00,32.25t-81.50,23.25t-112.50,8.50zM 256.00,192.00q-48.50,0.00 -89.00-5.25t-64.50-12.50t-40.75-15.50t-23.25-14.25t-6.50-8.50l0.00-19.50 q 25.50,19.00 88.00,31.25t 136.00,12.25t 136.00-12.25 t 88.00-31.25l0.00,11.50 q0.00,17.00 -30.00,31.75t-81.50,23.50t-112.50,8.75zM 256.00,128.00q-61.00,0.00 -112.50-8.75t-81.50-23.50t-30.00-32.00t 30.00-32.00t 81.50-23.25t 112.50-8.50t 112.50,8.50t 81.50,23.25t 30.00,32.00t-30.00,32.00t-81.50,23.50t-112.50,8.75zM 16.00,160.00q0.00,17.00 34.00,32.00t 89.25,23.50t 116.75,8.50q 56.00,0.00 107.00-7.25t 85.00-19.75q-0.50,1.00 -1.75,3.25 t-7.75,8.25t-15.75,11.50t-27.00,12.50t-40.00,11.75t-56.75,8.25t-75.00,3.50q-61.00,0.00 -112.50-8.75t-81.50-23.50t-30.00-31.75l0.00-32.00 q0.00-12.00 16.00-23.50l0.00,23.50 zM 16.00,328.50l0.00,23.50 q0.00,17.00 34.00,32.00t 89.25,23.50t 116.75,8.50q 55.00,0.00 105.75-7.00t 85.25-19.50q-7.50,25.00 -71.50,41.75t-151.50,16.75q-61.00,0.00 -112.50-8.50t-81.50-23.25t-30.00-32.25l0.00-32.00 q0.00-12.00 16.00-23.50zM 288.00,352.00q 55.50,0.00 106.25-7.25t 84.75-19.75q-7.00,25.00 -71.00,42.00t-152.00,17.00q-61.00,0.00 -112.50-8.50t-81.50-23.25t-30.00-32.25l0.00-32.00 q0.00-11.00 14.50-22.50q 7.50,2.50 13.00,4.00q-9.50,9.50 -9.50,18.50q0.00,17.00 33.50,32.00t 88.50,23.50t 116.00,8.50zM 464.00,416.00l0.00-23.50 q 16.00,11.50 16.00,23.50l0.00,32.00 q0.00,17.50 -30.00,32.25t-81.50,23.25t-112.50,8.50 q-88.00,0.00 -152.00-17.00t-71.00-42.00q 34.00,12.50 84.75,19.75t 106.25,7.25q 61.50,0.00 116.75-8.50t 89.25-23.50t 34.00-32.00z" ></path></svg>