<?xml version="1.0" encoding="utf-8"?> <!-- Generator: IcoMoon.io --> <!DOCTYPE svg PUBLIC "-//W3C//DTD SVG 1.1//EN" "http://www.w3.org/Graphics/SVG/1.1/DTD/svg11.dtd"> <svg width="512" height="512" viewBox="0 0 512 512" xmlns="http://www.w3.org/2000/svg" xmlns:xlink="http://www.w3.org/1999/xlink" fill="#000000"><path d="M 240.00,512.00q-23.00,0.00 -42.00-12.75t-32.00-35.75t-22.75-49.75t-16.75-59.50t-11.75-60.25t-9.75-57.00t-9.00-45.00q-1.00-3.50 -2.75-13.50t-3.50-17.50t-5.00-15.75t-8.50-12.75t-12.25-4.50q-7.50,0.00 -22.50,9.50t-25.50,22.50l-16.00-32.00q 72.00-128.00 144.00-128.00q 25.00,0.00 41.00,21.25t 23.00,58.75q 4.00,21.00 11.25,63.25t 12.50,70.75t 12.25,59.25t 14.00,46.75t 14.00,16.00 q 15.00,0.00 38.25-29.00t 40.50-67.50t 17.25-63.50q0.00-27.50 -11.25-37.75t-32.25-10.25q-20.50,0.00 -36.50,14.00q 0.50-35.00 15.00-67.50t 40.50-53.50t 56.50-21.00q 112.00,0.00 112.00,128.00q0.00,37.00 -20.25,88.75t-52.50,102.00t-68.50,94.50t-72.00,71.50t-58.75,27.25z" ></path></svg>