<?xml version="1.0" encoding="utf-8"?> <!-- Generator: IcoMoon.io --> <!DOCTYPE svg PUBLIC "-//W3C//DTD SVG 1.1//EN" "http://www.w3.org/Graphics/SVG/1.1/DTD/svg11.dtd"> <svg width="500.00000000000006" height="500" viewBox="0 0 500 500" xmlns="http://www.w3.org/2000/svg" xmlns:xlink="http://www.w3.org/1999/xlink" fill="#000000"><path d="M 472.75,146.025c-25.15,144.30-165.625,266.50-207.875,294.40c-42.275,27.90-80.80-11.175-94.80-40.75 C 154.075,366.00, 106.10,183.25, 93.525,168.15C 80.975,152.975, 43.275,183.25, 43.275,183.25L 25.00,158.85c0.00,0.00, 76.55-93.125, 134.80-104.75 c 61.75-12.325, 61.65,96.60, 76.50,157.075c 14.375,58.525, 24.025,92.025, 36.55,92.025c 12.575,0.00, 36.55-32.65, 62.825-82.675 c 26.325-50.075-1.125-94.275-52.55-62.85C 303.675,31.975, 497.90,1.75, 472.75,146.025z" ></path></svg>