<?xml version="1.0" encoding="utf-8"?> <!-- Generator: IcoMoon.io --> <!DOCTYPE svg PUBLIC "-//W3C//DTD SVG 1.1//EN" "http://www.w3.org/Graphics/SVG/1.1/DTD/svg11.dtd"> <svg width="512" height="512" viewBox="0 0 512 512" xmlns="http://www.w3.org/2000/svg" xmlns:xlink="http://www.w3.org/1999/xlink" fill="#000000"><path d="M 480.00,448.00l-448.00,0.00 q-13.00,0.00 -22.50-9.25t-9.50-22.75l0.00-64.00 l 512.00,0.00 l0.00,64.00 q0.00,13.50 -9.25,22.75t-22.75,9.25zM0.00,96.00q0.00-13.00 9.25-22.50t 22.75-9.50l 448.00,0.00 q 13.50,0.00 22.75,9.50t 9.25,22.50l0.00,32.00 l-512.00,0.00 l0.00-32.00 zM 164.50,320.00l 26.00-160.00l 41.50,0.00 l-26.00,160.00l-41.50,0.00 zM 429.00,160.00l 33.50,0.00 l 33.50,160.00l-38.50,0.00 l-9.50-16.00l-48.00,0.00 l-9.00,16.00l-43.50,0.00 l 62.00-148.00l 0.50-1.25t 2.00-3.00t 3.50-3.50 t 5.50-3.00t 8.00-1.25zM 448.00,272.00l-14.50-68.50l-17.50,68.50l 32.00,0.00 zM 279.00,320.00q-12.50,0.00 -24.50-2.25t-17.00-4.25l-5.50-2.00l 6.00-35.00q 8.50,7.00 25.00,9.75t 30.25-0.50t 13.75-13.25q0.00-6.50 -9.00-12.75t-20.00-10.75t-20.00-14.50t-9.00-23.50q0.00-14.50 7.75-25.50t 19.75-16.00t 22.50-7.25t 20.00-2.25q 8.50,0.00 18.00,1.75t 14.50,3.25l 5.00,1.50l-6.00,33.50q-13.00-8.00 -35.75-7.25 t-22.75,12.75q0.00,6.00 9.25,11.75t 20.25,10.50t 20.00,15.25t 9.00,24.00q0.00,18.00 -12.25,30.75t-27.75,17.50t-31.50,4.75zM 51.00,160.00q 8.00,0.00 12.75,3.75t 5.75,7.25l 1.00,3.50l 14.00,72.00l 5.00,23.50l 39.50-110.00l 45.00,0.00 l-66.50,160.00l-43.50,0.00 l-36.00-139.00q-11.00-6.50 -28.00-12.00l0.00-9.00 l 51.00,0.00 z" ></path></svg>