<?xml version="1.0" encoding="utf-8"?> <!-- Generator: IcoMoon.io --> <!DOCTYPE svg PUBLIC "-//W3C//DTD SVG 1.1//EN" "http://www.w3.org/Graphics/SVG/1.1/DTD/svg11.dtd"> <svg width="500.00000000000006" height="500" viewBox="0 0 500 500" xmlns="http://www.w3.org/2000/svg" xmlns:xlink="http://www.w3.org/1999/xlink" fill="#000000"><path d="M 275.875,274.525c-7.70-4.475-18.375-4.475-27.075-4.475L 220.275,270.05 l0.00,58.80 l 26.20,0.00 c 9.70,0.00, 22.05,0.675, 30.40-5.175 c 7.70-5.175, 12.025-15.30, 12.025-24.95C 288.90,289.75, 283.55,279.025, 275.875,274.525z M 265.10,224.35 c 6.35-4.825, 9.675-13.475, 9.675-21.40c0.00-8.625-4.00-16.90-11.325-21.375c-7.70-4.475-21.725-3.45-30.75-3.45L 220.275,178.125 l0.00,51.75 l 16.425,0.00 C 246.075,229.85, 257.10,230.55, 265.10,224.35z M 405.625,10.00L 94.35,10.00 C 47.775,10.00, 10.00,47.775, 10.00,94.375l0.00,311.225 c0.00,46.60, 37.775,84.375, 84.35,84.375 l 311.25,0.00 c 46.60,0.00, 84.375-37.775, 84.375-84.375L 489.975,94.375 C 490.00,47.775, 452.225,10.00, 405.625,10.00z M 263.025,372.675L 164.975,372.675 L 164.975,136.00 l 107.125,0.00 c 31.025,0.00, 59.675,19.75, 59.675,54.60c0.00,26.90-15.025,45.325-34.175,51.075l0.00,0.675 c 28.425,5.85, 48.70,21.30, 48.70,58.525 C 346.30,335.325, 322.825,372.675, 263.025,372.675z" ></path></svg>