<?xml version="1.0" encoding="utf-8"?> <!-- Generator: IcoMoon.io --> <!DOCTYPE svg PUBLIC "-//W3C//DTD SVG 1.1//EN" "http://www.w3.org/Graphics/SVG/1.1/DTD/svg11.dtd"> <svg width="512" height="512" viewBox="0 0 512 512" xmlns="http://www.w3.org/2000/svg" xmlns:xlink="http://www.w3.org/1999/xlink" fill="#000000"><path d="M 396.00,381.50l-22.50-22.50q 42.00-42.50 42.00-102.25t-42.00-101.75l 22.50-22.50q 24.50,24.00 38.00,56.25t 13.50,68.25t-13.50,68.00t-38.00,56.50zM 281.50,507.00l-122.50-122.00l0.00-256.50 l 122.50-121.50q 15.00-15.00 38.00,7.50l0.00,485.00 q-22.50,22.50 -38.00,7.50zM 127.00,385.00l-96.00,0.00 q-13.00,0.00 -22.50-9.25t-9.50-22.75l0.00-192.50 q0.00-13.00 9.50-22.50t 22.50-9.50l 96.00,0.00 l0.00,256.50 z" ></path></svg>