<?xml version="1.0" encoding="utf-8"?> <!-- Generator: IcoMoon.io --> <!DOCTYPE svg PUBLIC "-//W3C//DTD SVG 1.1//EN" "http://www.w3.org/Graphics/SVG/1.1/DTD/svg11.dtd"> <svg width="512" height="512" viewBox="0 0 512 512" xmlns="http://www.w3.org/2000/svg" xmlns:xlink="http://www.w3.org/1999/xlink" fill="#000000"><path d="M 437.00,437.00l-22.50-22.50q 31.00-31.00 48.25-71.75t 17.25-86.50t-17.25-86.50t-48.25-71.75l 22.50-23.00q 35.50,35.50 55.25,82.25t 19.75,99.00t-19.75,99.00t-55.25,81.75zM 380.50,380.50l-22.50-22.50q 42.00-42.00 42.00-101.75t-42.00-101.75l 22.50-22.50q 24.50,24.00 38.00,56.25t 13.50,68.00t-13.50,68.00t-38.00,56.25zM 282.50,506.00l-122.50-121.50l0.00-256.00 l 122.50-122.00 q 15.00-15.00 37.50,8.00l0.00,484.00 q-22.50,22.50 -37.50,7.50zM 128.00,384.50l-96.00,0.00 q-13.50,0.00 -22.75-9.50t-9.25-22.50l0.00-192.50 q0.00-13.00 9.25-22.50t 22.75-9.50l 96.00,0.00 l0.00,256.50 z" ></path></svg>