<?xml version="1.0" encoding="utf-8"?> <!-- Generator: IcoMoon.io --> <!DOCTYPE svg PUBLIC "-//W3C//DTD SVG 1.1//EN" "http://www.w3.org/Graphics/SVG/1.1/DTD/svg11.dtd"> <svg width="512" height="512" viewBox="0 0 512 512" xmlns="http://www.w3.org/2000/svg" xmlns:xlink="http://www.w3.org/1999/xlink" fill="#000000"><path d="M 64.00,32.00l 32.00,0.00 l0.00,32.00 L 64.00,64.00 L 64.00,32.00 z M 128.00,32.00l 32.00,0.00 l0.00,32.00 L 128.00,64.00 L 128.00,32.00 z M 192.00,32.00l 256.00,0.00 l0.00,32.00 L 192.00,64.00 L 192.00,32.00 z M 480.00,96.00l0.00,328.00 c0.00,28.00-28.00,56.00-56.00,56.00 l-336.00,0.00 C 60.00,480.00, 32.00,452.00, 32.00,424.00L 32.00,96.00 L 480.00,96.00 z M0.00,64.00l0.00,384.00 c0.00,32.00, 32.00,64.00, 64.00,64.00l 384.00,0.00 c 32.00,0.00, 64.00-32.00, 64.00-64.00L 512.00,64.00 c0.00-32.00-32.00-64.00-64.00-64.00L 64.00,0.00 C 32.00,0.00,0.00,32.00,0.00,64.00z M 136.00,216.00L 208.00,288.00l-72.00,72.00l 48.00,48.00 L 256.00,336.00l 72.00,72.00l 48.00-48.00L 304.00,288.00l 72.00-72.00l-48.00-48.00L 256.00,240.00l-72.00-72.00L 136.00,216.00z" ></path></svg>