<?xml version="1.0" encoding="utf-8"?> <!-- Generator: IcoMoon.io --> <!DOCTYPE svg PUBLIC "-//W3C//DTD SVG 1.1//EN" "http://www.w3.org/Graphics/SVG/1.1/DTD/svg11.dtd"> <svg width="512" height="512" viewBox="0 0 512 512" xmlns="http://www.w3.org/2000/svg" xmlns:xlink="http://www.w3.org/1999/xlink" fill="#000000"><path d="M 503.50,502.00q-9.50,9.50 -22.50,10.00t-22.00-8.50l-224.50-225.00q-9.00-9.00 -8.50-22.00t 10.00-22.50t 22.50-10.00t 22.00,8.50l 224.50,225.00q 9.00,9.00 8.50,22.00t-10.00,22.50zM 322.00,192.00l-64.00,16.00l-74.00-71.50q-8.50-9.00 -21.50-8.50t-22.50,10.00t-10.00,22.50t 8.50,22.00l 71.50,73.50l-16.00,64.00q-1.00,1.50 -2.75,4.00t-2.75,4.00t-2.50,3.25t-2.75,2.50t-3.00,0.75t-3.25-1.50l-63.00-77.00 l-96.00,0.00 q-8.00-2.50 -13.00-6.50t-3.00-9.50l 64.00-96.00l-32.50-96.50q0.00-6.50 4.75-11.25t 11.25-4.75l 96.50,32.50l 96.00-64.00q 5.50-2.00 9.50,3.00t 6.50,13.00l0.00,96.00 l 76.50,63.00q 1.50,1.50 1.50,3.25t-0.75,3.00t-2.50,3.00t-3.25,2.75t-4.00,2.50t-3.50,2.50z" ></path></svg>