<?xml version="1.0" encoding="utf-8"?> <!-- Generator: IcoMoon.io --> <!DOCTYPE svg PUBLIC "-//W3C//DTD SVG 1.1//EN" "http://www.w3.org/Graphics/SVG/1.1/DTD/svg11.dtd"> <svg width="512" height="512" viewBox="0 0 512 512" xmlns="http://www.w3.org/2000/svg" xmlns:xlink="http://www.w3.org/1999/xlink" fill="#000000"><path d="M 507.50,399.00q 4.50,5.00 4.50,43.25t-4.50,43.25l-22.00,22.00q-5.00,4.50 -43.25,4.50t-43.25-4.50l-207.50-267.50l0.00-0.50 t-0.50-0.50q-29.50,17.00 -63.00,17.00q-52.50,0.00 -89.50-36.50t-38.50-88.50l0.00-3.00 l 19.00,0.00 l 41.50,41.50q 22.50,22.50 54.25,22.50t 54.25-22.50t 22.50-54.50t-22.50-54.50l-41.00-41.00l0.00-19.50 l 3.00,0.00 q 52.00,1.50 88.25,38.75t 36.25,89.25q0.00,34.00 -16.50,63.50l 0.50,0.50zM 447.75,480.00 q 13.25,0.00 22.50-9.50t 9.25-22.75t-9.25-22.50t-22.50-9.25t-22.75,9.25t-9.50,22.50t 9.50,22.75t 22.75,9.50z" ></path></svg>