<?xml version="1.0" encoding="utf-8"?> <!-- Generator: IcoMoon.io --> <!DOCTYPE svg PUBLIC "-//W3C//DTD SVG 1.1//EN" "http://www.w3.org/Graphics/SVG/1.1/DTD/svg11.dtd"> <svg width="512" height="512" viewBox="0 0 512 512" xmlns="http://www.w3.org/2000/svg" xmlns:xlink="http://www.w3.org/1999/xlink" fill="#000000"><path d="M 496.00,128.00l-59.50,0.00 l-148.50,164.00l0.00,156.00 l 48.00,0.00 q 6.50,0.00 11.25,4.75t 4.75,11.25l0.00,32.00 q0.00,6.50 -4.75,11.25t-11.25,4.75l-192.00,0.00 q-6.50,0.00 -11.25-4.75t-4.75-11.25l0.00-32.00 q0.00-6.50 4.75-11.25t 11.25-4.75l 48.00,0.00 l0.00-152.50 l-131.00-230.50l0.00-0.50 l0.00-0.50 l-45.00,0.00 q-6.50,0.00 -11.25-4.75t-4.75-11.25l0.00-32.00 q0.00-6.50 4.75-11.25t 11.25-4.75l 192.00,0.00 q 6.50,0.00 11.25,4.75t 4.75,11.25 l0.00,32.00 q0.00,6.50 -4.75,11.25t-11.25,4.75l-63.00,0.00 l 106.00,183.50l 109.00-119.50l-56.00,0.00 q-6.50,0.00 -11.25-4.75t-4.75-11.25l0.00-32.00 q0.00-6.50 4.75-11.25t 11.25-4.75l 192.00,0.00 q 6.50,0.00 11.25,4.75t 4.75,11.25l0.00,32.00 q0.00,6.50 -4.75,11.25t-11.25,4.75z" ></path></svg>