<?xml version="1.0" encoding="utf-8"?> <!-- Generator: IcoMoon.io --> <!DOCTYPE svg PUBLIC "-//W3C//DTD SVG 1.1//EN" "http://www.w3.org/Graphics/SVG/1.1/DTD/svg11.dtd"> <svg width="512" height="512" viewBox="0 0 512 512" xmlns="http://www.w3.org/2000/svg" xmlns:xlink="http://www.w3.org/1999/xlink" fill="#000000"><path d="M 256.00,512.00q-52.00,0.00 -99.50-20.25t-81.75-54.50t-54.50-81.75t-20.25-99.50t 20.25-99.25t 54.50-81.50t 81.75-54.50t 99.50-20.25t 99.50,20.25t 81.75,54.50t 54.50,81.50t 20.25,99.25t-20.25,99.50t-54.50,81.75t-81.75,54.50t-99.50,20.25zM 407.00,105.00q-9.00-9.00 -21.75-9.00t-21.75,9.00l-107.50,81.00l-108.00-81.00q-9.00-9.00 -21.75-9.00 t-21.75,9.00t-9.00,21.75t 9.00,21.75l 119.50,90.00l0.00,17.50 l-48.00,0.00 q-6.50,0.00 -11.25,4.75t-4.75,11.50t 4.75,11.25t 11.25,4.50l 48.00,0.00 l0.00,32.00 l-48.00,0.00 q-6.50,0.00 -11.25,4.75t-4.75,11.25t 4.75,11.25t 11.25,4.75l 48.00,0.00 l0.00,64.00 q0.00,13.50 9.25,22.75t 22.50,9.25t 22.75-9.25t 9.50-22.75l0.00-64.00 l 48.00,0.00 q 6.50,0.00 11.25-4.75t 4.75-11.25t-4.75-11.25t-11.25-4.75 l-48.00,0.00 l0.00-32.00 l 48.00,0.00 q 6.50,0.00 11.25-4.50t 4.75-11.25t-4.75-11.50t-11.25-4.75l-48.00,0.00 l0.00-17.50 l 119.00-90.00q 9.00-9.00 9.00-21.75t-9.00-21.75z" ></path></svg>