<?xml version="1.0" encoding="utf-8"?> <!-- Generator: IcoMoon.io --> <!DOCTYPE svg PUBLIC "-//W3C//DTD SVG 1.1//EN" "http://www.w3.org/Graphics/SVG/1.1/DTD/svg11.dtd"> <svg width="512" height="512" viewBox="0 0 512 512" xmlns="http://www.w3.org/2000/svg" xmlns:xlink="http://www.w3.org/1999/xlink" fill="#000000"><path d="M 464.00,432.00q-111.00,16.00 -208.00,16.00q-43.00,0.00 -95.00-4.00t-82.50-8.00l-30.50-4.00q-13.50-2.50 -23.75-18.75t-15.00-39.25t-7.00-43.00t-2.25-36.50l0.00-77.00 q0.00-127.50 48.00-137.50q 111.00-16.00 208.00-16.00q 43.00,0.00 95.00,4.00t 82.50,8.00l 30.50,4.00q 14.50,2.00 24.75,18.25t 14.75,39.75t 6.50,43.00t 2.00,36.50l0.00,77.00 q0.00,18.00 -1.50,36.50t-6.00,42.50t-15.00,40.00t-25.50,18.50zM 346.50,243.50 l-131.00-80.00q-5.50-5.00 -14.50-2.75t-9.00,7.25l0.00,176.00 q0.00,5.50 9.00,7.50t 14.50-3.00l 131.00-80.00q 5.50-5.00 5.50-12.50t-5.50-12.50z" ></path></svg>