<?xml version="1.0" encoding="utf-8"?> <!-- Generator: IcoMoon.io --> <!DOCTYPE svg PUBLIC "-//W3C//DTD SVG 1.1//EN" "http://www.w3.org/Graphics/SVG/1.1/DTD/svg11.dtd"> <svg width="512" height="512" viewBox="0 0 512 512" xmlns="http://www.w3.org/2000/svg" xmlns:xlink="http://www.w3.org/1999/xlink" fill="#000000"><path d="M 502.50,502.50q-9.50,9.50 -22.75,9.50t-22.75-9.50l-99.00-99.00q-60.00,44.50 -134.00,44.50q-45.50,0.00 -87.00-17.75t-71.50-47.75t-47.75-71.50t-17.75-87.00t 17.75-87.00t 47.75-71.50t 71.50-47.75t 87.00-17.75t 87.00,17.75t 71.50,47.75t 47.75,71.50t 17.75,87.00q0.00,74.00 -44.50,134.00l 99.00,99.00q 9.50,9.50 9.50,22.75t-9.50,22.75zM 224.00,64.00 q-43.50,0.00 -80.25,21.50t-58.25,58.25t-21.50,80.25t 21.50,80.50t 58.25,58.25t 80.25,21.25t 80.25-21.25t 58.25-58.25t 21.50-80.50t-21.50-80.25t-58.25-58.25t-80.25-21.50zM 288.00,256.00l-128.00,0.00 q-13.50,0.00 -22.75-9.25t-9.25-22.50t 9.25-22.75t 22.75-9.50l 128.00,0.00 q 13.00,0.00 22.50,9.50t 9.50,22.75t-9.50,22.50t-22.50,9.25z" ></path></svg>