<?xml version="1.0" encoding="utf-8"?> <!-- Generator: IcoMoon.io --> <!DOCTYPE svg PUBLIC "-//W3C//DTD SVG 1.1//EN" "http://www.w3.org/Graphics/SVG/1.1/DTD/svg11.dtd"> <svg width="512" height="512" viewBox="0 0 512 512" xmlns="http://www.w3.org/2000/svg" xmlns:xlink="http://www.w3.org/1999/xlink" fill="#000000"><path d="M 512.00,239.00q0.00,6.00 -10.75,9.75t-31.50,5.25t-34.25,1.75t-35.50,0.25t-35.50-0.25t-34.25-1.75t-31.50-5.25t-10.75-9.75q 0.50-21.00 23.00-37.50t 57.00-22.50l0.00-10.00 q-48.00-21.00 -48.00-105.00q0.00-31.50 22.50-47.75t 57.75-16.25t 57.50,16.25t 22.25,47.75q0.00,86.50 -48.00,105.50l0.00,9.50 q 35.00,6.00 57.25,22.50t 22.75,37.50zM 112.00,256.00q-22.00,0.00 -35.50-0.25 t-34.25-1.75t-31.50-5.25t-10.75-9.75q 0.50-21.00 22.75-37.50t 57.25-22.50l0.00-10.00 q-48.00-21.00 -48.00-105.00q0.00-31.50 22.25-47.75t 57.50-16.25t 57.75,16.25t 22.50,47.75q0.00,86.50 -48.00,105.50l0.00,9.50 q 34.50,6.00 57.00,22.50t 23.00,37.50q0.00,6.00 -10.75,9.75t-31.50,5.25t-34.25,1.75t-35.50,0.25zM 95.75,288.00q 13.25,0.00 22.75,9.25t 9.50,22.75l0.00,112.00 q0.00,6.50 4.75,11.25t 11.25,4.75l 224.00,0.00 q 6.50,0.00 11.25-4.75t 4.75-11.25l0.00-112.00 q0.00-13.50 9.50-22.75t 22.75-9.25t 22.50,9.25t 9.25,22.75l0.00,128.00 q0.00,26.50 -18.75,45.25t-45.25,18.75l-256.00,0.00 q-26.50,0.00 -45.25-18.75t-18.75-45.25l0.00-128.00 q0.00-13.50 9.25-22.75t 22.50-9.25z" ></path></svg>