<?xml version="1.0" encoding="utf-8"?> <!-- Generator: IcoMoon.io --> <!DOCTYPE svg PUBLIC "-//W3C//DTD SVG 1.1//EN" "http://www.w3.org/Graphics/SVG/1.1/DTD/svg11.dtd"> <svg width="512" height="512" viewBox="0 0 512 512" xmlns="http://www.w3.org/2000/svg" xmlns:xlink="http://www.w3.org/1999/xlink" fill="#000000"><path d="M 515.50,384.00q 2.50,0.00 4.00,2.25t 1.50,5.75l0.00,16.00 q0.00,3.50 -1.50,5.75t-4.00,2.25l-64.50,26.00l-26.00,64.50q0.00,2.50 -2.25,4.00t-5.75,1.50l-16.00,0.00 q-3.50,0.00 -5.75-1.50t-2.25-4.00l0.00-57.00 l-142.00-141.50l-50.00,188.00q0.00,6.50 -4.75,11.25t-11.25,4.75l-32.00,0.00 q-7.00,0.00 -11.50-4.75t-4.50-11.25l0.00-302.00 l-90.00-89.50q-12.50-13.00 -28.25-52.25t-6.50-48.75t 48.75,6.25 t 52.00,28.75l 90.00,89.50l 302.00,0.00 q 6.50,0.00 11.25,4.75t 4.75,11.25l0.00,32.00 q0.00,6.50 -4.75,11.25t-11.25,4.75l-188.00,50.00l 142.50,142.00l 56.00,0.00 z" ></path></svg>