<?xml version="1.0" encoding="utf-8"?> <!-- Generator: IcoMoon.io --> <!DOCTYPE svg PUBLIC "-//W3C//DTD SVG 1.1//EN" "http://www.w3.org/Graphics/SVG/1.1/DTD/svg11.dtd"> <svg width="512" height="512" viewBox="0 0 512 512" xmlns="http://www.w3.org/2000/svg" xmlns:xlink="http://www.w3.org/1999/xlink" fill="#000000"><path d="M 362.50,327.00q 3.00-5.00 4.50-7.00l 110.50-192.00q 34.50,59.50 34.50,128.00q0.00,14.00 -2.00,31.50zM 381.50,231.00l-2.00-8.00l-57.00-214.00q 82.50,22.00 135.00,89.50zM 327.00,149.50q-5.50-3.50 -7.00-4.50l-192.00-110.50q 59.50-34.50 128.00-34.50q 14.00,0.00 31.50,2.00zM 231.00,130.50l-8.00,2.00l-214.00,57.00q 22.00-82.50 89.50-135.00zM 149.50,185.00q-3.50,5.50 -4.50,7.00l-110.50,192.00q-34.50-59.50 -34.50-128.00q0.00-14.00 2.00-31.50 zM 130.50,281.00q 1.50,6.50 2.00,8.00l 57.00,214.00q-82.50-22.00 -135.00-89.50zM 185.00,362.50q 5.50,3.50 7.00,4.50l 192.00,110.50q-59.50,34.50 -128.00,34.50q-14.00,0.00 -31.50-2.00zM 281.00,381.50q 7.00-1.50 8.00-2.00l 214.00-57.00q-22.00,82.50 -89.50,135.00z" ></path></svg>