<?xml version="1.0" encoding="utf-8"?> <!-- Generator: IcoMoon.io --> <!DOCTYPE svg PUBLIC "-//W3C//DTD SVG 1.1//EN" "http://www.w3.org/Graphics/SVG/1.1/DTD/svg11.dtd"> <svg width="512" height="512" viewBox="0 0 512 512" xmlns="http://www.w3.org/2000/svg" xmlns:xlink="http://www.w3.org/1999/xlink" fill="#000000"><path d="M 406.16,272.064c 0.752,77.456, 72.944,103.184, 73.776,103.568 c-0.656,1.744-11.568,36.72-38.096,72.832c-22.944,31.184-46.688,62.24-84.16,62.864c-36.848,0.656-48.688-20.336-90.816-20.336 c-42.112,0.00-55.264,19.712-90.112,20.992c-36.144,1.28-63.696-33.664-86.832-64.768c-47.264-63.584-83.36-179.664-34.848-258.00 c 24.048-38.912, 67.072-63.552, 113.792-64.208c 35.52-0.592, 69.072,22.304, 90.752,22.304c 21.744,0.00, 62.496-27.504, 105.312-23.472 c 17.936,0.688, 68.288,6.72, 100.592,50.704C 462.976,176.096, 405.44,207.20, 406.16,272.064z M 255.296,118.00c-4.176-29.424, 11.392-60.016, 29.184-79.232 C 304.336,17.12, 337.84,1.024, 365.504,0.00c 3.536,29.984-9.44,60.08-28.624,81.744C 317.664,103.376, 286.16,120.224, 255.296,118.00z" ></path></svg>