<?xml version="1.0" encoding="utf-8"?> <!-- Generator: IcoMoon.io --> <!DOCTYPE svg PUBLIC "-//W3C//DTD SVG 1.1//EN" "http://www.w3.org/Graphics/SVG/1.1/DTD/svg11.dtd"> <svg width="512" height="512" viewBox="0 0 512 512" xmlns="http://www.w3.org/2000/svg" xmlns:xlink="http://www.w3.org/1999/xlink" fill="#000000"><path d="M 416.00,272.00q0.00,36.00 15.00,64.75t 38.50,40.75q-22.00,57.00 -54.00,95.75t-63.50,38.75q-13.50,0.00 -26.75-8.00l-26.50-16.00t-26.75-8.00t-26.75,8.00l-26.50,16.00t-26.75,8.00q-25.00,0.00 -49.50-26.50t-41.25-65.50t-27.00-83.25t-10.25-80.75q0.00-53.00 37.50-90.50t 90.50-37.50q 13.50,0.00 28.50,8.00t 28.25,16.00t 23.25,8.00q 11.00,0.00 24.25-8.00t 27.75-16.00t 28.00-8.00 q 29.00,0.00 57.25,12.25t 49.75,33.25q-19.50,14.50 -31.25,40.75t-11.75,57.75zM 272.00,112.00q-1.00-18.50 7.75-39.25t 26.50-38.25t 38.50-26.50t 39.25-8.00q 1.00,18.50 -7.75,39.25t-26.50,38.50t-38.50,26.75t-39.25,7.50z" ></path></svg>