<?xml version="1.0" encoding="utf-8"?> <!-- Generator: IcoMoon.io --> <!DOCTYPE svg PUBLIC "-//W3C//DTD SVG 1.1//EN" "http://www.w3.org/Graphics/SVG/1.1/DTD/svg11.dtd"> <svg width="500.00000000000006" height="500" viewBox="0 0 500 500" xmlns="http://www.w3.org/2000/svg" xmlns:xlink="http://www.w3.org/1999/xlink" fill="#000000"><path d="M 20.00,250.00c0.00,127.025, 103.00,230.00, 230.00,230.00c 127.025,0.00, 230.00-102.975, 230.00-230.00C 480.00,122.975, 377.025,20.00, 250.00,20.00C 122.975,20.00, 20.00,122.975, 20.00,250.00z M 430.00,250.00c0.00,99.40-80.60,180.00-180.00,180.00S 70.00,349.425, 70.00,250.00C 70.00,150.575, 150.575,70.00, 250.00,70.00S 430.00,150.575, 430.00,250.00z M 153.75,205.00l0.00,90.00 l 102.25,0.00 l0.00,56.25 L 351.25,250.00l-95.25-101.25L 256.00,205.00 L 153.75,205.00 z" ></path></svg>