<?xml version="1.0" encoding="utf-8"?> <!-- Generator: IcoMoon.io --> <!DOCTYPE svg PUBLIC "-//W3C//DTD SVG 1.1//EN" "http://www.w3.org/Graphics/SVG/1.1/DTD/svg11.dtd"> <svg width="512" height="512" viewBox="0 0 512 512" xmlns="http://www.w3.org/2000/svg" xmlns:xlink="http://www.w3.org/1999/xlink" fill="#000000"><path d="M 320.25,512.00q-52.25,0.00 -96.50-25.75t-69.75-69.75t-25.50-96.50q0.00-41.00 17.50-79.50l-33.50,0.00 l0.00-80.00 l-31.00,0.00 l-17.00-17.50l0.00-30.50 l-30.50,0.00 l-1.50-1.50l0.00-30.50 l-28.50,0.00 q-4.00-8.00 -3.00-16.50l-1.00,0.00 l0.00-64.00 l 64.00,0.00 l0.00,1.00 q 14.00-1.50 23.50,7.50l 142.00,142.50q 42.50-22.50 90.50-22.50q 52.50,0.00 96.50,25.50t 69.75,69.75t 25.75,96.50t-25.75,96.25t-69.75,69.75t-96.25,25.75zM 49.00,16.50l-16.50,16.50 l 159.50,159.50l 16.50-16.50zM 352.00,288.00q-26.50,0.00 -45.25,18.75t-18.75,45.25t 18.75,45.25t 45.25,18.75t 45.25-18.75t 18.75-45.25t-18.75-45.25t-45.25-18.75z" ></path></svg>