<?xml version="1.0" encoding="utf-8"?> <!-- Generator: IcoMoon.io --> <!DOCTYPE svg PUBLIC "-//W3C//DTD SVG 1.1//EN" "http://www.w3.org/Graphics/SVG/1.1/DTD/svg11.dtd"> <svg width="512" height="512" viewBox="0 0 512 512" xmlns="http://www.w3.org/2000/svg" xmlns:xlink="http://www.w3.org/1999/xlink" fill="#000000"><path d="M 32.00,448.00l0.00,32.00 l 448.00,0.00 l0.00-32.00 L 32.00,448.00 z M 192.00,32.00c-16.00,0.00-32.00,16.00-32.00,32.00l0.00,320.00 l 64.00,0.00 L 224.00,64.00 C 224.00,48.00, 208.00,32.00, 192.00,32.00z M 448.00,96.00c-16.00,0.00-32.00,16.00-32.00,32.00 l0.00,256.00 l 64.00,0.00 L 480.00,128.00 C 480.00,112.00, 464.00,96.00, 448.00,96.00z M 320.00,224.00c-16.00,0.00-32.00,16.00-32.00,32.00l0.00,128.00 l 64.00,0.00 l0.00-128.00 C 352.00,240.00, 336.00,224.00, 320.00,224.00z M 64.00,160.00c-16.00,0.00-32.00,16.00-32.00,32.00l0.00,192.00 l 64.00,0.00 L 96.00,192.00 C 96.00,176.00, 80.00,160.00, 64.00,160.00z" ></path></svg>