<?xml version="1.0" encoding="utf-8"?> <!-- Generator: IcoMoon.io --> <!DOCTYPE svg PUBLIC "-//W3C//DTD SVG 1.1//EN" "http://www.w3.org/Graphics/SVG/1.1/DTD/svg11.dtd"> <svg width="512" height="512" viewBox="0 0 512 512" xmlns="http://www.w3.org/2000/svg" xmlns:xlink="http://www.w3.org/1999/xlink" fill="#000000"><path d="M 502.50,440.00l-62.50,62.50q-9.50,9.50 -23.00,9.50t-23.25-9.50t-9.75-23.25t 9.50-23.25l 9.00-9.00l-74.50-74.50q-19.00-19.00 -53.50-38.25t-65.25-35.00t-41.75-26.75l-160.00-160.00q-11.50-11.00 -6.00-40.00t 23.75-47.25t 47.25-23.75t 40.00,6.00l 160.00,160.00q 11.00,11.00 26.75,41.75t 35.00,65.25t 38.25,53.50l 74.50,74.50l 9.00-9.00q 9.50-9.50 23.25-9.50 t 23.25,9.75t 9.50,23.25t-9.50,23.00z" ></path></svg>