<?xml version="1.0" encoding="utf-8"?> <!-- Generator: IcoMoon.io --> <!DOCTYPE svg PUBLIC "-//W3C//DTD SVG 1.1//EN" "http://www.w3.org/Graphics/SVG/1.1/DTD/svg11.dtd"> <svg width="512" height="512" viewBox="0 0 512 512" xmlns="http://www.w3.org/2000/svg" xmlns:xlink="http://www.w3.org/1999/xlink" fill="#000000"><path d="M 32.00,128.00l 416.00,0.00 l0.00,64.00 l0.00,128.00 l0.00,64.00 L 32.00,384.00 L 32.00,128.00 z M 64.00,96.00c-32.00,0.00-64.00,32.00-64.00,64.00l0.00,192.00 c0.00,32.00, 32.00,64.00, 64.00,64.00l 352.00,0.00 c 32.00,0.00, 64.00-32.00, 64.00-64.00l0.00-32.00 l 32.00,0.00 l0.00-128.00 l-32.00,0.00 l0.00-32.00 c0.00-32.00-32.00-64.00-64.00-64.00L 64.00,96.00 z M 64.00,160.00l0.00,192.00 l 352.00,0.00 L 64.00,160.00z" ></path></svg>