<?xml version="1.0" encoding="utf-8"?> <!-- Generator: IcoMoon.io --> <!DOCTYPE svg PUBLIC "-//W3C//DTD SVG 1.1//EN" "http://www.w3.org/Graphics/SVG/1.1/DTD/svg11.dtd"> <svg width="512" height="512" viewBox="0 0 512 512" xmlns="http://www.w3.org/2000/svg" xmlns:xlink="http://www.w3.org/1999/xlink" fill="#000000"><path d="M 478.898,192.00l-28.103,0.00 l-0.60,0.00 c-17.583,0.00-32.994-14.871-34.195-32.00l0.00,0.00C 416.002,68.666, 342.371,0.00, 250.405,0.00l-83.912,0.00 C 74.587,0.00, 0.065,74.00,0.00,165.333l0.00,181.399 C0.00,438.059, 74.587,512.00, 166.492,512.00l 179.21,0.00 C 437.676,512.00, 512.00,438.059, 512.00,346.732L 512.00,229.541 C 512.00,211.29, 497.28,192.00, 478.898,192.00z M 160.00,128.00l 96.00,0.00 c 17.60,0.00, 32.00,14.40, 32.00,32.00s-14.40,32.00-32.00,32.00l-96.00,0.00 c-17.60,0.00-32.00-14.40-32.00-32.00S 142.40,128.00, 160.00,128.00 z M 352.00,384.00L 160.00,384.00 c-17.60,0.00-32.00-14.40-32.00-32.00s 14.40-32.00, 32.00-32.00l 192.00,0.00 c 17.60,0.00, 32.00,14.40, 32.00,32.00S 369.60,384.00, 352.00,384.00z" ></path></svg>