<?xml version="1.0" encoding="utf-8"?> <!-- Generator: IcoMoon.io --> <!DOCTYPE svg PUBLIC "-//W3C//DTD SVG 1.1//EN" "http://www.w3.org/Graphics/SVG/1.1/DTD/svg11.dtd"> <svg width="512" height="512" viewBox="0 0 512 512" xmlns="http://www.w3.org/2000/svg" xmlns:xlink="http://www.w3.org/1999/xlink" fill="#000000"><path d="M 352.00,512.00l-192.00,0.00 q-43.50,0.00 -80.25-21.50t-58.25-58.25t-21.50-80.25l0.00-192.00 q0.00-43.50 21.50-80.25t 58.25-58.25t 80.25-21.50l 96.00,0.00 q 43.50,0.00 80.25,21.50t 58.25,58.25t 21.50,80.25q0.00,13.00 9.25,22.50t 22.75,9.50l 32.00,0.00 q 13.00,0.00 22.50,9.25t 9.50,22.75l0.00,128.00 q0.00,43.50 -21.50,80.25t-58.25,58.25t-80.25,21.50zM 256.00,128.00l-96.00,0.00 q-13.50,0.00 -22.75,9.25t-9.25,22.50t 9.25,22.75t 22.75,9.50l 96.00,0.00 q 13.50,0.00 22.75-9.50t 9.25-22.75t-9.50-22.50t-22.50-9.25zM 352.00,320.00l-192.00,0.00 q-13.50,0.00 -22.75,9.25t-9.25,22.50t 9.25,22.75t 22.75,9.50l 192.00,0.00 q 13.00,0.00 22.50-9.50t 9.50-22.75t-9.50-22.50t-22.50-9.25z" ></path></svg>