<?xml version="1.0" encoding="utf-8"?> <!-- Generator: IcoMoon.io --> <!DOCTYPE svg PUBLIC "-//W3C//DTD SVG 1.1//EN" "http://www.w3.org/Graphics/SVG/1.1/DTD/svg11.dtd"> <svg width="500.00000000000006" height="500" viewBox="0 0 500 500" xmlns="http://www.w3.org/2000/svg" xmlns:xlink="http://www.w3.org/1999/xlink" fill="#000000"><path d="M 227.50,275.05L 272.50,275.05 l0.00,50.00 L 500.00,325.05 c0.00,0.00-3.70-111.45-5.00-146.35c-1.225-33.15-13.075-53.65-50.00-53.65l-80.20,0.00 c-12.425-23.425-25.80-48.625-29.90-56.375c-8.275-15.60-11.10-18.625-29.50-18.625L 194.60,50.05 c-18.40,0.00-21.225,3.025-29.50,18.625 C 161.00,76.425, 147.625,101.625, 135.20,125.05L 55.00,125.05 c-36.925,0.00-48.625,20.50-50.00,53.65S0.00,325.05,0.00,325.05l 227.50,0.00 L 227.50,275.05 z M 191.25,97.925 c 5.725-10.80, 7.70-12.90, 20.40-12.90l 76.675,0.00 c 12.75,0.00, 14.70,2.10, 20.40,12.90c 2.15,4.05, 7.95,15.00, 14.40,27.10L 176.875,125.025 C 183.30,112.95, 189.10,102.00, 191.25,97.925z M 272.50,400.05L 227.50,400.05 l0.00-50.00 L 12.50,350.05 c0.00,0.00, 3.125,44.95, 5.00,83.05c 0.775,15.825, 5.425,41.95, 44.975,41.95 l 375.05,0.00 c 39.55,0.00, 44.10-26.15, 44.975-41.95c 2.175-39.175, 5.00-83.05, 5.00-83.05l-215.00,0.00 L 272.50,400.05 z" ></path></svg>