<?xml version="1.0" encoding="utf-8"?> <!-- Generator: IcoMoon.io --> <!DOCTYPE svg PUBLIC "-//W3C//DTD SVG 1.1//EN" "http://www.w3.org/Graphics/SVG/1.1/DTD/svg11.dtd"> <svg width="512" height="512" viewBox="0 0 512 512" xmlns="http://www.w3.org/2000/svg" xmlns:xlink="http://www.w3.org/1999/xlink" fill="#000000"><path d="M 96.00,128.00c0.00-32.00, 32.00-64.00, 64.00-64.00l 192.00,0.00 c 32.00,0.00, 64.00,32.00, 64.00,64.00s-32.00,64.00-64.00,64.00L 160.00,192.00 C 128.00,192.00, 96.00,160.00, 96.00,128.00z M 96.00,256.00l 64.00,0.00 l0.00,64.00 L 96.00,320.00 L 96.00,256.00 z M 224.00,256.00l 64.00,0.00 l0.00,64.00 l-64.00,0.00 L 224.00,256.00 z M 352.00,256.00l 64.00,0.00 l0.00,64.00 l-64.00,0.00 L 352.00,256.00 z M 352.00,384.00l 64.00,0.00 l0.00,64.00 l-64.00,0.00 L 352.00,384.00 z M 224.00,384.00l 64.00,0.00 l0.00,64.00 l-64.00,0.00 L 224.00,384.00 z M 96.00,384.00l 64.00,0.00 l0.00,64.00 L 96.00,448.00 L 96.00,384.00 z M 32.00,64.00l0.00,384.00 c0.00,32.00, 32.00,64.00, 64.00,64.00l 320.00,0.00 c 32.00,0.00, 64.00-32.00, 64.00-64.00L 480.00,64.00 c0.00-32.00-32.00-64.00-64.00-64.00L 96.00,0.00 C 64.00,0.00, 32.00,32.00, 32.00,64.00z" ></path></svg>