<?xml version="1.0" encoding="utf-8"?> <!-- Generator: IcoMoon.io --> <!DOCTYPE svg PUBLIC "-//W3C//DTD SVG 1.1//EN" "http://www.w3.org/Graphics/SVG/1.1/DTD/svg11.dtd"> <svg width="512" height="512" viewBox="0 0 512 512" xmlns="http://www.w3.org/2000/svg" xmlns:xlink="http://www.w3.org/1999/xlink" fill="#000000"><path d="M 480.00,64.00l-64.00,0.00 c0.00-16.00-16.00-32.00-32.00-32.00s-32.00,16.00-32.00,32.00l-64.00,0.00 c0.00-16.00-16.00-32.00-32.00-32.00s-32.00,16.00-32.00,32.00l-64.00,0.00 c0.00-16.00-16.00-32.00-32.00-32.00S 96.00,48.00, 96.00,64.00L 32.00,64.00 C 16.00,64.00,0.00,80.00,0.00,96.00l0.00,352.00 c0.00,32.00, 32.00,64.00, 64.00,64.00l 384.00,0.00 c 32.00,0.00, 64.00-32.00, 64.00-64.00L 512.00,96.00 C 512.00,80.00, 496.00,64.00, 480.00,64.00z M 480.00,418.144c0.00,32.00-32.00,63.984-64.00,63.984L 96.00,482.128 c-32.00,0.00-64.00-31.984-64.00-63.984L 32.00,128.00 l 448.00,0.00 L 480.00,418.144 zM 278.00,416.00L 328.496,416.00L 421.504,216.00L 421.504,192.00L 248.992,192.00L 248.992,224.00L 370.496,224.00 zM 152.496,258.496c 3.008-2.496, 8.496-7.504, 16.496-15.504L 168.00,416.00l 48.00,0.00 L 216.00,192.00 l-39.504,0.00 l-73.504,58.00l 23.008,28.992L 152.496,258.496z" ></path></svg>