<?xml version="1.0" encoding="utf-8"?> <!-- Generator: IcoMoon.io --> <!DOCTYPE svg PUBLIC "-//W3C//DTD SVG 1.1//EN" "http://www.w3.org/Graphics/SVG/1.1/DTD/svg11.dtd"> <svg width="500.00000000000006" height="500" viewBox="0 0 500 500" xmlns="http://www.w3.org/2000/svg" xmlns:xlink="http://www.w3.org/1999/xlink" fill="#000000"><path d="M 425.00,75.00l-22.50,0.00 l0.00,50.00 L 322.50,125.00 L 322.50,75.00 L 177.50,75.00 l0.00,50.00 L 97.50,125.00 L 97.50,75.00 L 75.00,75.00 C 47.50,75.00, 25.00,97.50, 25.00,125.00l0.00,300.00 c0.00,27.50, 22.50,50.00, 50.00,50.00l 350.00,0.00 c 27.50,0.00, 50.00-22.50, 50.00-50.00L 475.00,125.00 C 475.00,97.50, 452.50,75.00, 425.00,75.00z M 425.00,425.00L 75.00,425.00 L 75.00,225.00 l 350.00,0.00 L 425.00,425.00 z M 155.00,25.00L 120.00,25.00 l0.00,85.00 l 35.00,0.00 L 155.00,25.00 z M 380.00,25.00l-35.00,0.00 l0.00,85.00 l 35.00,0.00 L 380.00,25.00 z" ></path></svg>