<?xml version="1.0" encoding="utf-8"?> <!-- Generator: IcoMoon.io --> <!DOCTYPE svg PUBLIC "-//W3C//DTD SVG 1.1//EN" "http://www.w3.org/Graphics/SVG/1.1/DTD/svg11.dtd"> <svg width="512" height="512" viewBox="0 0 512 512" xmlns="http://www.w3.org/2000/svg" xmlns:xlink="http://www.w3.org/1999/xlink" fill="#000000"><path d="M 128.00,288.00c0.00-70.688, 57.312-128.00, 128.00-128.00s 128.00,57.312, 128.00,128.00c0.00,70.688-57.312,128.00-128.00,128.00S 128.00,358.688, 128.00,288.00z M0.00,160.00 l0.00,256.00 c0.00,32.00, 32.00,64.00, 64.00,64.00l 384.00,0.00 c 32.00,0.00, 64.00-32.00, 64.00-64.00L 512.00,160.00 c0.00-32.00-32.00-64.00-64.00-64.00l-99.36,0.00 C 350.816,90.848, 352.00,85.424, 352.00,80.00c0.00-24.00-24.00-48.00-48.00-48.00l-96.00,0.00 c-24.00,0.00-48.00,24.00-48.00,48.00 c0.00,5.424, 1.184,10.848, 3.36,16.00L 64.00,96.00 C 32.00,96.00,0.00,128.00,0.00,160.00z M 192.00,288.00c0.00,35.344, 28.656,64.00, 64.00,64.00s 64.00-28.656, 64.00-64.00s-28.656-64.00-64.00-64.00S 192.00,252.656, 192.00,288.00z" ></path></svg>