<?xml version="1.0" encoding="utf-8"?> <!-- Generator: IcoMoon.io --> <!DOCTYPE svg PUBLIC "-//W3C//DTD SVG 1.1//EN" "http://www.w3.org/Graphics/SVG/1.1/DTD/svg11.dtd"> <svg width="512" height="512" viewBox="0 0 512 512" xmlns="http://www.w3.org/2000/svg" xmlns:xlink="http://www.w3.org/1999/xlink" fill="#000000"><path d="M 134.992,153.60L 153.60,134.992c 9.328-9.312, 27.936-9.312, 37.248,0.00L 256.00,200.144l 65.152-65.152 c 9.312-9.312, 27.936-9.312, 37.248,0.00L 377.008,153.60c 9.312,9.312, 9.312,27.936,0.00,37.248L 311.84,256.00l 65.168,65.152 c 9.312,9.312, 9.312,27.936,0.00,37.248L 358.40,377.008c-9.312,9.312-27.936,9.312-37.248,0.00L 256.00,311.856l-65.168,65.152 c-9.312,9.312-27.92,9.312-37.248,0.00L 134.992,358.40c-9.312-9.312-9.312-27.936,0.00-37.248L 200.144,256.00l-65.152-65.152 C 125.664,181.536, 125.664,162.912, 134.992,153.60z M0.00,256.00c0.00,141.392, 114.608,256.00, 256.00,256.00c 141.376,0.00, 256.00-114.608, 256.00-256.00S 397.376,0.00, 256.00,0.00C 114.608,0.00,0.00,114.608,0.00,256.00z" ></path></svg>