<?xml version="1.0" encoding="utf-8"?> <!-- Generator: IcoMoon.io --> <!DOCTYPE svg PUBLIC "-//W3C//DTD SVG 1.1//EN" "http://www.w3.org/Graphics/SVG/1.1/DTD/svg11.dtd"> <svg width="512" height="512" viewBox="0 0 512 512" xmlns="http://www.w3.org/2000/svg" xmlns:xlink="http://www.w3.org/1999/xlink" fill="#000000"><path d="M 480.00,224.00l-121.00,20.00q 25.00,34.00 25.00,76.00q0.00,53.00 -37.50,90.50t-90.50,37.50q-42.50,0.00 -76.00-24.75t-46.00-64.25l-41.00,72.50q-7.50,13.00 -22.50,16.00q-3.00,0.50 -5.50,0.50l-0.50,0.00 l-0.50,0.00 l-32.00,0.00 q-13.00,0.00 -22.50-9.50t-9.50-22.75t 9.50-22.50t 22.50-9.25l 13.00,0.00 l 55.50-97.00l-4.50,1.00q-36.50,2.00 -66.25-27.50t-29.75-68.50q0.00-39.50 27.00-68.75t 63.00-27.25l 6.00,0.00 l0.00-16.00 q0.00-6.50 4.75-11.25t 11.25-4.75t 11.25,4.75t 4.75,11.25l0.00,16.00 l 352.00,0.00 q 13.50,0.00 22.75,18.75t 9.25,45.25q0.00,25.50 -9.00,42.50t-23.00,21.50zM 256.00,256.00q-26.50,0.00 -45.25,18.75t-18.75,45.25t 18.75,45.25t 45.25,18.75t 45.25-18.75t 18.75-45.25t-18.75-45.25t-45.25-18.75zM 255.75,352.00q-13.25,0.00 -22.50-9.50t-9.25-22.75t 9.25-22.50 t 22.50-9.25t 22.75,9.25t 9.50,22.50t-9.50,22.75t-22.75,9.50z" ></path></svg>