<?xml version="1.0" encoding="utf-8"?> <!-- Generator: IcoMoon.io --> <!DOCTYPE svg PUBLIC "-//W3C//DTD SVG 1.1//EN" "http://www.w3.org/Graphics/SVG/1.1/DTD/svg11.dtd"> <svg width="512" height="512" viewBox="0 0 512 512" xmlns="http://www.w3.org/2000/svg" xmlns:xlink="http://www.w3.org/1999/xlink" fill="#000000"><path d="M 64.00,464.00A48.00,48.00 10800.00 1,0 160.00,464A48.00,48.00 10800.00 1,0 64.00,464zM 384.00,464.00A48.00,48.00 10800.00 1,0 480.00,464A48.00,48.00 10800.00 1,0 384.00,464zM 480.00,256.00L 480.00,64.00 L 64.00,64.00 C 64.00,28.654, 35.347,0.00,0.00,0.00l0.00,32.00 c 17.645,0.00, 32.00,14.355, 32.00,32.00l 24.037,206.027C 41.39,281.756, 32.00,299.777, 32.00,320.00 c0.00,35.347, 28.654,64.00, 64.00,64.00l 384.00,0.00 l0.00-32.00 L 96.00,352.00 c-17.673,0.00-32.00-14.327-32.00-32.00c0.00-0.11, 0.007-0.218, 0.008-0.328L 480.00,256.00z" ></path></svg>