<?xml version="1.0" encoding="utf-8"?> <!-- Generator: IcoMoon.io --> <!DOCTYPE svg PUBLIC "-//W3C//DTD SVG 1.1//EN" "http://www.w3.org/Graphics/SVG/1.1/DTD/svg11.dtd"> <svg width="512" height="512" viewBox="0 0 512 512" xmlns="http://www.w3.org/2000/svg" xmlns:xlink="http://www.w3.org/1999/xlink" fill="#000000"><path d="M 510.624,86.40L 464.00,272.00c0.00,2.224-0.448,4.32-1.248,6.224 c-1.632,3.84-4.688,6.912-8.512,8.528C 452.32,287.568, 450.208,288.00, 448.00,288.00L 144.00,288.00 l 12.80,64.00L 432.00,352.00 c 8.848,0.00, 16.00,7.152, 16.00,16.00s-7.152,16.00-16.00,16.00L 144.00,384.00 c-8.848,0.00-16.00-7.152-16.00-16.00L 67.20,64.00L 16.00,64.00 C 7.168,64.00,0.00,56.832,0.00,48.00s 7.168-16.00, 16.00-16.00l 64.00,0.00 c 8.848,0.00, 16.00,7.168, 16.00,16.00l 3.20,16.00L 496.00,64.00 c 8.848,0.00, 16.00,7.168, 16.00,16.00 C 512.00,82.288, 511.488,84.432, 510.624,86.40z M 137.60,256.00L 192.00,256.00 L 192.00,96.00 L 105.60,96.00 L 137.60,256.00z M 288.00,96.00l-80.00,0.00 l0.00,160.00 l 80.00,0.00 L 288.00,96.00 z M 384.00,96.00l-80.00,0.00 l0.00,160.00 l 80.00,0.00 L 384.00,96.00 z M 400.00,96.00l0.00,160.00 l 36.048,0.00 l 40.528-160.00L 400.00,96.00 z M 176.00,416.00c 26.512,0.00, 48.00,21.504, 48.00,48.00s-21.488,48.00-48.00,48.00s-48.00-21.504-48.00-48.00S 149.488,416.00, 176.00,416.00z M 176.00,480.00c 8.848,0.00, 16.00-7.152, 16.00-16.00s-7.152-16.00-16.00-16.00s-16.00,7.152-16.00,16.00 S 167.152,480.00, 176.00,480.00z M 400.00,416.00c 26.512,0.00, 48.00,21.504, 48.00,48.00s-21.488,48.00-48.00,48.00s-48.00-21.504-48.00-48.00S 373.488,416.00, 400.00,416.00z M 400.00,480.00c 8.848,0.00, 16.00-7.152, 16.00-16.00s-7.152-16.00-16.00-16.00 s-16.00,7.152-16.00,16.00S 391.152,480.00, 400.00,480.00z" ></path></svg>