<?xml version="1.0" encoding="utf-8"?> <!-- Generator: IcoMoon.io --> <!DOCTYPE svg PUBLIC "-//W3C//DTD SVG 1.1//EN" "http://www.w3.org/Graphics/SVG/1.1/DTD/svg11.dtd"> <svg width="500.00000000000006" height="500" viewBox="0 0 500 500" xmlns="http://www.w3.org/2000/svg" xmlns:xlink="http://www.w3.org/1999/xlink" fill="#000000"><path d="M 246.80,10.025C 114.25,11.80, 8.25,120.675, 10.025,253.20c 1.775,132.525, 110.65,238.55, 243.20,236.775c 132.525-1.75, 238.55-110.65, 236.775-243.20 C 488.225,114.25, 379.30,8.25, 246.80,10.025z M 252.525,439.45c-104.65,1.425-190.60-82.275-192.00-186.925c-1.40-104.65, 82.30-190.60, 186.95-192.00 c 104.625-1.40, 190.575,82.30, 191.975,186.925S 357.175,438.025, 252.525,439.45z M 191.275,290.675c-10.125,0.00-17.80-3.70-23.00-11.10 C 163.05,272.175, 160.475,262.325, 160.475,250.00c0.00-27.10, 10.275-40.65, 30.80-40.65c 4.10,0.00, 8.55,1.375, 13.35,4.10 c 4.775,2.75, 8.825,7.55, 12.125,14.375l 30.775-16.025C 235.225,189.625, 214.80,178.525, 186.325,178.525c-19.45,0.00-35.50,6.425-48.25,19.30 C 125.35,210.70, 118.975,228.10, 118.975,250.00c0.00,22.45, 6.30,40.00, 18.90,52.60c 12.575,12.60, 29.175,18.90, 49.70,18.90 c 12.85,0.00, 24.625-3.225, 35.30-9.675s 19.05-15.275, 25.075-26.525l-28.35-14.375C 214.125,284.075, 204.675,290.675, 191.275,290.675z M 323.925,290.675 c-10.15,0.00-17.825-3.70-23.00-11.10c-5.225-7.375-7.80-17.25-7.80-29.575c0.00-27.10, 10.25-40.65, 30.80-40.65 c 4.40,0.00, 8.975,1.375, 13.775,4.10c 4.775,2.75, 8.85,7.55, 12.10,14.375l 30.375-16.025c-12.05-22.175-32.275-33.275-60.80-33.275 c-19.425,0.00-35.50,6.425-48.225,19.30c-12.75,12.875-19.10,30.25-19.10,52.15c0.00,22.45, 6.225,40.00, 18.675,52.60 c 12.475,12.60, 29.125,18.90, 49.925,18.90c 12.60,0.00, 24.225-3.225, 34.90-9.675c 10.65-6.45, 19.15-15.275, 25.45-26.525l-28.75-14.375 C 346.775,284.075, 337.35,290.675, 323.925,290.675z" ></path></svg>