<?xml version="1.0" encoding="utf-8"?> <!-- Generator: IcoMoon.io --> <!DOCTYPE svg PUBLIC "-//W3C//DTD SVG 1.1//EN" "http://www.w3.org/Graphics/SVG/1.1/DTD/svg11.dtd"> <svg width="512" height="512" viewBox="0 0 512 512" xmlns="http://www.w3.org/2000/svg" xmlns:xlink="http://www.w3.org/1999/xlink" fill="#000000"><path d="M 226.32,267.104L 176.00,212.928L 128.00,264.624L 224.00,368.00L 384.00,178.464L 352.00,144.00 zM 384.00,0.00L 128.00,0.00 C 64.00,0.00,0.00,64.00,0.00,128.00l0.00,256.00 c0.00,64.00, 64.00,128.00, 128.00,128.00l 256.00,0.00 c 64.00,0.00, 128.00-64.00, 128.00-128.00L 512.00,128.00 C 512.00,64.00, 448.00,0.00, 384.00,0.00z M 448.00,352.00c0.00,48.00-48.00,96.00-96.00,96.00L 160.00,448.00 c-48.00,0.00-96.00-48.00-96.00-96.00L 64.00,160.00 c0.00-48.00, 48.00-96.00, 96.00-96.00 l 192.00,0.00 c 48.00,0.00, 96.00,48.00, 96.00,96.00L 448.00,352.00 z" ></path></svg>