<?xml version="1.0" encoding="utf-8"?> <!-- Generator: IcoMoon.io --> <!DOCTYPE svg PUBLIC "-//W3C//DTD SVG 1.1//EN" "http://www.w3.org/Graphics/SVG/1.1/DTD/svg11.dtd"> <svg width="512" height="512" viewBox="0 0 512 512" xmlns="http://www.w3.org/2000/svg" xmlns:xlink="http://www.w3.org/1999/xlink" fill="#000000"><path d="M 479.00,223.00q-7.50,8.00 -15.50,17.00t-20.25,24.00t-19.75,30.00t-7.50,26.00q0.00,13.50 -46.75,22.75t-113.25,9.25t-113.25-9.25t-46.75-22.75q0.00-14.50 -13.50-36.25t-25.25-35.00t-23.25-24.75q-34.00-33.00 -34.00-80.00q0.00-46.50 32.75-79.25t 79.25-32.75q 11.50,0.00 24.00,2.50q-8.00,20.50 -8.00,45.50q0.00,53.50 33.00,89.00q-1.00-27.00 -1.00-57.00q0.00-46.50 28.00-79.25 t 68.00-32.75t 68.00,32.75t 28.00,79.25q0.00,30.50 -1.00,57.00q 33.00-35.50 33.00-89.00q0.00-25.00 -8.00-45.50q 12.50-2.50 24.00-2.50q 46.50,0.00 79.25,32.75t 32.75,79.25t-33.00,79.00zM 255.75,384.00q 66.25,0.00 113.25-9.50t 47.00-22.50l0.00,32.00 l0.00,96.00 q0.00,13.00 -47.00,22.50t-113.25,9.50t-113.00-9.50t-46.75-22.50l0.00-96.00 l0.00-32.00 q0.00,13.50 46.75,22.75t 113.00,9.25z" ></path></svg>