<?xml version="1.0" encoding="utf-8"?> <!-- Generator: IcoMoon.io --> <!DOCTYPE svg PUBLIC "-//W3C//DTD SVG 1.1//EN" "http://www.w3.org/Graphics/SVG/1.1/DTD/svg11.dtd"> <svg width="512" height="512" viewBox="0 0 512 512" xmlns="http://www.w3.org/2000/svg" xmlns:xlink="http://www.w3.org/1999/xlink" fill="#000000"><path d="M 129.139,223.271 L 55.873,96.37 C 102.782,37.638 174.99,0.00 256.00,0.00 C 349.716,0.00 431.655,50.368 476.266,125.50 L 267.381,125.50 C 263.629,125.175 259.835,125.00 256.00,125.00 C 195.063,125.00 143.711,166.822 129.139,223.271 ZM 347.653,162.50 L 494.383,162.50 C 505.753,191.465 512.00,223.002 512.00,256.00 C 512.00,396.413 398.95,510.402 258.907,511.963 L 363.604,330.624 C 378.344,309.435 387.00,283.711 387.00,256.00 C 387.00,219.415 371.918,186.29 347.653,162.50 ZM 163.00,256.00 C 163.00,204.72 204.72,163.00 256.00,163.00 C 307.28,163.00 349.00,204.72 349.00,256.00 C 349.00,307.28 307.28,349.00 256.00,349.00 C 204.72,349.00 163.00,307.28 163.00,256.00 ZM 291.091,382.221 L 217.802,509.16 C 94.536,490.718 0.00,384.402 0.00,256.00 C 0.00,210.391 11.942,167.577 32.848,130.488 L 137.363,311.515 C 158.297,356.071 203.601,387.00 256.00,387.00 C 268.15,387.00 279.918,385.33 291.091,382.221 Z" ></path></svg>