<?xml version="1.0" encoding="utf-8"?> <!-- Generator: IcoMoon.io --> <!DOCTYPE svg PUBLIC "-//W3C//DTD SVG 1.1//EN" "http://www.w3.org/Graphics/SVG/1.1/DTD/svg11.dtd"> <svg width="512" height="512" viewBox="0 0 512 512" xmlns="http://www.w3.org/2000/svg" xmlns:xlink="http://www.w3.org/1999/xlink" fill="#000000"><path d="M 344.00,344.00c-11.008,11.008-32.992,11.008-44.00,0.00L 256.00,300.00l-44.00,44.00 c-11.008,11.008-33.008,11.008-44.016,0.00c-10.992-11.008-10.992-32.992,0.00-44.00L 212.00,256.00l-44.016-44.00c-10.992-11.008-10.992-32.992,0.00-44.00 c 11.008-11.008, 33.008-11.008, 44.016,0.00L 256.00,212.00l 44.00-44.00c 11.008-11.008, 32.992-11.008, 44.00,0.00s 11.008,32.992,0.00,44.00L 300.00,256.00l 44.00,44.00 C 355.008,311.008, 355.008,332.992, 344.00,344.00z M 80.00,432.00c 97.20,97.20, 254.80,97.20, 352.00,0.00s 97.20-254.80,0.00-352.00S 177.20-17.20, 80.00,80.00 S-17.20,334.80, 80.00,432.00z" ></path></svg>