<?xml version="1.0" encoding="utf-8"?> <!-- Generator: IcoMoon.io --> <!DOCTYPE svg PUBLIC "-//W3C//DTD SVG 1.1//EN" "http://www.w3.org/Graphics/SVG/1.1/DTD/svg11.dtd"> <svg width="512" height="512" viewBox="0 0 512 512" xmlns="http://www.w3.org/2000/svg" xmlns:xlink="http://www.w3.org/1999/xlink" fill="#000000"><path d="M 239.52,164.144l 56.64,0.00 l0.00,50.208 l0.00,61.472 l 69.344-2.048l-97.664,91.84l-97.664-91.84l 69.344,2.048 L 239.52,164.144 z M 419.552,228.704c 0.048-1.312, 0.064-2.608, 0.064-3.92c0.00-71.12-56.88-128.784-127.04-128.784c-53.104,0.00-98.608,33.04-117.584,79.968 c-11.104-8.528-25.072-13.616-40.256-13.616c-36.144,0.00-65.44,28.832-65.44,64.384c0.00,1.76, 0.064,3.504, 0.208,5.232 C 29.456,242.784,0.00,279.136,0.00,322.336C0.00,374.08, 42.224,416.00, 94.32,416.00l 1.936,0.00 l 319.504,0.00 l 1.936,0.00 C 469.776,416.00, 512.00,374.08, 512.00,322.336 C 512.00,271.232, 470.784,229.68, 419.552,228.704z" ></path></svg>