<?xml version="1.0" encoding="utf-8"?> <!-- Generator: IcoMoon.io --> <!DOCTYPE svg PUBLIC "-//W3C//DTD SVG 1.1//EN" "http://www.w3.org/Graphics/SVG/1.1/DTD/svg11.dtd"> <svg width="512" height="512" viewBox="0 0 512 512" xmlns="http://www.w3.org/2000/svg" xmlns:xlink="http://www.w3.org/1999/xlink" fill="#000000"><path d="M 340.288,352.624l 11.344-11.344c 12.528-12.528, 12.528-32.848,0.00-45.376l-19.584-19.568 c 6.304-10.976, 11.248-22.784, 14.688-35.248l 21.184,0.00 c 17.712,0.00, 32.08-14.368, 32.08-32.08l0.00-16.032 c0.00-17.712-14.352-32.08-32.08-32.08l-20.928,0.00 C 343.664,148.56, 338.944,136.816, 332.80,125.92l 18.832-18.816c 12.528-12.528, 12.528-32.848,0.00-45.376l-11.344-11.328 c-12.528-12.528-32.848-12.528-45.376,0.00l-18.448,18.448c-11.28-6.576-23.472-11.696-36.352-15.216L 240.112,32.08 C 240.096,14.352, 225.728,0.00, 208.016,0.00 l-16.032,0.00 c-17.712,0.00-32.096,14.352-32.096,32.08l0.00,21.552 c-12.88,3.52-25.056,8.64-36.352,15.216L 105.072,50.384 c-12.512-12.528-32.832-12.528-45.36,0.00L 48.368,61.712c-12.528,12.528-12.528,32.848,0.00,45.376L 67.184,125.92c-6.128,10.896-10.88,22.64-14.192,34.992 L 32.08,160.912 C 14.352,160.896,0.00,175.264,0.00,192.992l0.00,16.032 c0.00,17.712, 14.352,32.08, 32.08,32.08l 21.168,0.00 c 3.456,12.464, 8.384,24.272, 14.704,35.248 l-19.584,19.568c-12.528,12.528-12.528,32.848,0.00,45.376l 11.344,11.344c 12.528,12.528, 32.848,12.528, 45.36,0.00l 19.696-19.696 c 10.944,6.224, 22.704,11.072, 35.104,14.448l0.00,20.544 c0.00,17.696, 14.368,32.08, 32.096,32.08l 16.032,0.00 c 17.712,0.00, 32.08-14.368, 32.08-32.08l0.00-20.544 c 12.40-3.376, 24.192-8.24, 35.104-14.448l 19.696,19.696C 307.44,365.152, 327.744,365.152, 340.288,352.624z M 200.00,289.712 c-48.72,0.00-88.224-39.488-88.224-88.224c0.00-48.72, 39.504-88.224, 88.224-88.224s 88.224,39.504, 88.224,88.224 C 288.224,250.224, 248.72,289.712, 200.00,289.712z M 200.00,160.40c-22.16,0.00-40.112,17.952-40.112,40.096s 17.952,40.096, 40.112,40.096 c 22.144,0.00, 40.096-17.952, 40.096-40.096S 222.144,160.40, 200.00,160.40z M 400.992,461.792c-10.752,0.00-19.456,8.704-19.456,19.456 c0.00,10.736, 8.704,19.44, 19.456,19.44c 10.736,0.00, 19.456-8.704, 19.456-19.44C 420.448,470.496, 411.728,461.792, 400.992,461.792z M 482.432,462.032 l-10.144,0.00 c-1.616-5.984-3.92-11.68-6.896-16.976l 9.12-9.12c 6.08-6.08, 6.08-15.936,0.00-22.00l-5.504-5.504c-6.08-6.08-15.92-6.08-22.00,0.00 l-8.96,8.944c-5.472-3.184-11.392-5.664-17.632-7.376l0.00-10.432 c0.00-8.592-6.976-15.568-15.568-15.568l-7.776,0.00 c-8.592,0.00-15.568,6.976-15.568,15.568l0.00,10.432 c-6.256,1.712-12.16,4.192-17.632,7.376l-8.96-8.944c-6.08-6.08-15.936-6.08-22.00,0.00 l-5.504,5.504c-6.08,6.064-6.08,15.92,0.00,22.00l 9.12,9.12c-2.992,5.28-5.28,10.992-6.896,16.976l-10.144,0.00 c-8.592,0.00-15.568,6.976-15.568,15.568l0.00,7.776 c0.00,8.592, 6.976,15.568, 15.568,15.568l 10.272,0.00 c 1.664,6.032, 4.064,11.76, 7.12,17.088 l-9.488,9.488c-6.08,6.08-6.08,15.92,0.00,22.016l 5.504,5.504c 6.064,6.064, 15.92,6.064, 22.00,0.00l 9.552-9.568 c 5.312,3.008, 11.008,5.376, 17.024,7.008l0.00,9.968 c0.00,8.592, 6.976,15.568, 15.568,15.568l 7.776,0.00 c 8.592,0.00, 15.568-6.976, 15.568-15.568l0.00-9.968 c 6.016-1.632, 11.712-3.984, 17.008-7.008l 9.568,9.568c 6.08,6.064, 15.92,6.064, 22.00,0.00l 5.504-5.504c 6.08-6.096, 6.08-15.936,0.00-22.016 l-9.488-9.488c 3.04-5.328, 5.456-11.056, 7.12-17.088l 10.272,0.00 c 8.592,0.00, 15.568-6.976, 15.568-15.568L 497.936,477.60 C 498.00,468.992, 491.024,462.032, 482.432,462.032z M 400.992,524.512c-23.632,0.00-42.784-19.152-42.784-42.80c0.00-23.632, 19.152-42.784, 42.784-42.784 s 42.784,19.152, 42.784,42.784C 443.776,505.36, 424.624,524.512, 400.992,524.512z" ></path></svg>