<?xml version="1.0" encoding="utf-8"?> <!-- Generator: IcoMoon.io --> <!DOCTYPE svg PUBLIC "-//W3C//DTD SVG 1.1//EN" "http://www.w3.org/Graphics/SVG/1.1/DTD/svg11.dtd"> <svg width="512" height="512" viewBox="0 0 512 512" xmlns="http://www.w3.org/2000/svg" xmlns:xlink="http://www.w3.org/1999/xlink" fill="#000000"><path d="M 456.00,368.00L 260.064,368.00 c 5.744-9.904, 10.144-20.64, 13.056-32.00L 456.00,336.00 c 8.848,0.00, 16.00,7.152, 16.00,16.00 C 472.00,360.832, 464.848,368.00, 456.00,368.00z M 456.00,320.00L 276.224,320.00 c 0.656-5.248, 1.104-10.576, 1.104-16.00c0.00-5.44-0.448-10.752-1.104-16.00L 456.00,288.00 c 8.848,0.00, 16.00,7.152, 16.00,16.00C 472.00,312.832, 464.848,320.00, 456.00,320.00z M 456.00,272.00L 273.12,272.00 c-2.928-11.36-7.312-22.096-13.056-32.00L 456.00,240.00 c 8.848,0.00, 16.00,7.152, 16.00,16.00 C 472.00,264.832, 464.848,272.00, 456.00,272.00z M 456.00,224.00L 249.152,224.00 c-10.40-12.976-23.248-23.888-37.904-32.00L 456.00,192.00 c 8.848,0.00, 16.00,7.152, 16.00,16.00 C 472.00,216.832, 464.848,224.00, 456.00,224.00z M 456.00,176.00l-256.00,0.00 c-8.848,0.00-16.00-7.168-16.00-16.00c0.00-8.848, 7.152-16.00, 16.00-16.00l 256.00,0.00 c 8.848,0.00, 16.00,7.152, 16.00,16.00 C 472.00,168.832, 464.848,176.00, 456.00,176.00z M 456.00,128.00l-256.00,0.00 c-8.848,0.00-16.00-7.168-16.00-16.00c0.00-8.848, 7.152-16.00, 16.00-16.00l 256.00,0.00 c 8.848,0.00, 16.00,7.152, 16.00,16.00 C 472.00,120.832, 464.848,128.00, 456.00,128.00z M 264.00,304.00c0.00,61.856-50.16,112.00-112.00,112.00c-61.856,0.00-112.00-50.144-112.00-112.00s 50.144-112.00, 112.00-112.00C 213.84,192.00, 264.00,242.144, 264.00,304.00z M 191.648,316.176c-1.616-3.824-3.696-7.152-6.304-9.984c-2.608-2.832-5.568-5.264-8.896-7.296c-3.328-2.032-6.72-3.84-10.192-5.456 c-3.472-1.60-6.864-3.104-10.192-4.544c-3.328-1.424-6.32-2.96-8.944-4.592c-2.64-1.632-4.736-3.504-6.304-5.60 c-1.568-2.096-2.352-4.576-2.352-7.456c0.00-1.92, 0.352-3.744, 1.04-5.472c 0.704-1.712, 1.76-3.20, 3.20-4.432 c 1.424-1.216, 3.216-2.192, 5.344-2.88c 2.128-0.704, 4.64-1.04, 7.504-1.04c 3.664,0.00, 7.024,0.432, 10.096,1.328 c 3.056,0.912, 5.76,1.888, 8.096,2.992c 2.336,1.088, 4.304,2.096, 5.904,3.024c 1.60,0.928, 2.768,1.376, 3.504,1.376 s 1.312-0.192, 1.744-0.592c 0.416-0.40, 0.768-1.024, 0.992-1.904c 0.24-0.864, 0.384-1.968, 0.496-3.296 c 0.096-1.344, 0.144-2.992, 0.144-4.928c0.00-1.728-0.032-3.184-0.096-4.336c-0.064-1.168-0.192-2.144-0.336-2.912 c-0.176-0.768-0.368-1.392-0.592-1.856c-0.256-0.464-0.688-1.024-1.36-1.68c-0.672-0.672-2.032-1.504-4.096-2.48 c-2.064-0.992-4.432-1.888-7.088-2.672c-2.672-0.80-5.536-1.424-8.592-1.888c-0.624-0.096-1.264-0.064-1.888-0.144l0.00-16.544 L 146.736,220.912 l0.00,16.544 l0.00,0.00c-2.896,0.384-5.696,0.96-8.416,1.744c-5.296,1.536-9.888,3.84-13.792,6.944s-7.008,7.008-9.296,11.68 c-2.304,4.704-3.44,10.144-3.44,16.336c0.00,5.392, 0.80,10.032, 2.384,13.888c 1.60,3.856, 3.68,7.216, 6.256,10.048 c 2.576,2.832, 5.472,5.248, 8.736,7.28c 3.264,2.048, 6.64,3.856, 10.096,5.456c 3.472,1.60, 6.832,3.104, 10.096,4.544 s 6.176,2.976, 8.736,4.592c 2.576,1.648, 4.656,3.504, 6.256,5.60c 1.60,2.112, 2.40,4.624, 2.40,7.552c0.00,2.544-0.464,4.848-1.392,6.928 c-0.944,2.064-2.288,3.792-4.048,5.20c-1.76,1.408-3.904,2.48-6.432,3.248c-2.544,0.768-5.392,1.152-8.608,1.152 c-4.864,0.00-9.152-0.544-12.848-1.648c-3.696-1.104-6.88-2.32-9.552-3.664c-2.672-1.328-4.848-2.528-6.544-3.648 c-1.696-1.088-3.008-1.648-3.952-1.648c-0.672,0.00-1.264,0.192-1.744,0.544c-0.512,0.368-0.912,0.992-1.20,1.856 c-0.304,0.88-0.512,2.00-0.656,3.408s-0.208,3.136-0.208,5.20c0.00,3.072, 0.192,5.424, 0.544,7.056 c 0.368,1.648, 0.992,2.896, 1.856,3.744c 0.864,0.864, 2.272,1.84, 4.24,2.976s 4.416,2.192, 7.344,3.216 c 2.928,1.008, 6.32,1.888, 10.144,2.624c 3.824,0.72, 7.984,1.072, 12.448,1.072c 0.192,0.00, 0.368-0.032, 0.576-0.032l0.00,15.408 l 15.728,0.00 l0.00-17.472 c 0.752-0.192, 1.552-0.288, 2.288-0.496c 5.792-1.728, 10.864-4.32, 15.20-7.744c 4.336-3.424, 7.76-7.696, 10.304-12.832 c 2.528-5.136, 3.776-11.088, 3.776-17.888C 194.032,324.512, 193.232,320.016, 191.648,316.176z M 249.152,384.00L 456.00,384.00 c 8.848,0.00, 16.00,7.152, 16.00,16.00 c0.00,8.832-7.152,16.00-16.00,16.00L 211.248,416.00 C 225.904,407.888, 238.752,396.976, 249.152,384.00z" ></path></svg>