<?xml version="1.0" encoding="utf-8"?> <!-- Generator: IcoMoon.io --> <!DOCTYPE svg PUBLIC "-//W3C//DTD SVG 1.1//EN" "http://www.w3.org/Graphics/SVG/1.1/DTD/svg11.dtd"> <svg width="512" height="512" viewBox="0 0 512 512" xmlns="http://www.w3.org/2000/svg" xmlns:xlink="http://www.w3.org/1999/xlink" fill="#000000"><path d="M 256.00,448.00q-33.00,0.00 -67.00-8.00q-17.00,20.00 -34.75,34.75t-30.00,21.75t-23.75,10.75t-15.00,4.25t-5.50,0.50q 13.00-28.50 15.00-62.25t-6.50-56.75q-41.50-31.50 -65.00-75.50t-23.50-93.50q0.00-45.50 20.25-87.00t 54.50-71.50t 81.75-47.75t 99.50-17.75t 99.50,17.75t 81.75,47.75t 54.50,71.50t 20.25,87.00t-20.25,87.00t-54.50,71.50t-81.75,47.75 t-99.50,17.75zM 127.75,192.00q-13.25,0.00 -22.50,9.25t-9.25,22.50t 9.25,22.75t 22.50,9.50t 22.75-9.50t 9.50-22.75t-9.50-22.50t-22.75-9.25zM 255.75,192.00q-13.25,0.00 -22.50,9.25t-9.25,22.50t 9.25,22.75t 22.50,9.50t 22.75-9.50t 9.50-22.75t-9.50-22.50t-22.75-9.25zM 383.75,192.00q-13.25,0.00 -22.50,9.25t-9.25,22.50t 9.25,22.75t 22.50,9.50 t 22.75-9.50t 9.50-22.75t-9.50-22.50t-22.75-9.25z" ></path></svg>