<?xml version="1.0" encoding="utf-8"?> <!-- Generator: IcoMoon.io --> <!DOCTYPE svg PUBLIC "-//W3C//DTD SVG 1.1//EN" "http://www.w3.org/Graphics/SVG/1.1/DTD/svg11.dtd"> <svg width="512" height="512" viewBox="0 0 512 512" xmlns="http://www.w3.org/2000/svg" xmlns:xlink="http://www.w3.org/1999/xlink" fill="#000000"><path d="M 256.00,512.00q-52.00,0.00 -99.50-20.25t-81.75-54.50t-54.50-81.75t-20.25-99.50t 20.25-99.50t 54.50-81.75t 81.75-54.50t 99.50-20.25t 99.50,20.25t 81.75,54.50t 54.50,81.75t 20.25,99.50t-20.25,99.50t-54.50,81.75t-81.75,54.50t-99.50,20.25zM 256.00,64.00q-52.00,0.00 -96.25,25.50t-70.00,69.75t-25.75,96.50t 25.75,96.50t 70.00,70.00 t 96.25,25.75t 96.25-25.75t 70.00-70.00t 25.75-96.50t-25.75-96.50t-70.00-69.75t-96.25-25.50zM 256.00,288.00q-17.50,0.00 -27.00-15.00l-117.00-65.00l 144.00,16.00q 17.50,0.00 27.00,15.00l 117.00,65.00z" ></path></svg>