<?xml version="1.0" encoding="utf-8"?> <!-- Generator: IcoMoon.io --> <!DOCTYPE svg PUBLIC "-//W3C//DTD SVG 1.1//EN" "http://www.w3.org/Graphics/SVG/1.1/DTD/svg11.dtd"> <svg width="512" height="512" viewBox="0 0 512 512" xmlns="http://www.w3.org/2000/svg" xmlns:xlink="http://www.w3.org/1999/xlink" fill="#000000"><path d="M 64.00,256.00C 64.00,149.952, 149.968,64.00, 256.00,64.00s 192.00,85.952, 192.00,192.00c0.00,106.032-85.968,192.00-192.00,192.00S 64.00,362.032, 64.00,256.00z M0.00,256.00c0.00,141.392, 114.608,256.00, 256.00,256.00s 256.00-114.608, 256.00-256.00S 397.392,0.00, 256.00,0.00S0.00,114.608,0.00,256.00z M 237.536,241.712c 7.936-8.464, 20.80-8.88, 28.72-0.912 c 7.936,7.968, 7.936,21.264,0.00,29.728c-7.92,8.448-20.784,8.864-28.72,0.912C 229.616,263.488, 229.616,250.176, 237.536,241.712z M 280.608,280.72 l 50.064-106.496l-103.392,52.96l-45.952,110.608L 280.608,280.72z" ></path></svg>