<?xml version="1.0" encoding="utf-8"?> <!-- Generator: IcoMoon.io --> <!DOCTYPE svg PUBLIC "-//W3C//DTD SVG 1.1//EN" "http://www.w3.org/Graphics/SVG/1.1/DTD/svg11.dtd"> <svg width="500.00000000000006" height="500" viewBox="0 0 500 500" xmlns="http://www.w3.org/2000/svg" xmlns:xlink="http://www.w3.org/1999/xlink" fill="#000000"><path d="M 250.00,301.975c 59.75,0.00, 109.775-20.30, 112.80-46.825c-8.875-24.925-18.575-52.10-28.10-78.825c-6.60,19.05-43.125,32.50-84.70,32.50 S 171.925,195.40, 165.275,176.35C 155.75,203.075, 146.10,230.225, 137.20,255.175C 140.225,281.675, 190.225,301.975, 250.00,301.975z M 250.00,134.35 c 28.075,0.00, 54.175-8.70, 61.825-22.20c-10.525-29.575-19.575-54.925-25.30-70.925C 282.75,30.55, 265.525,25.00, 250.00,25.00S 217.25,30.55, 213.475,41.20 c-5.725,16.00-14.75,41.375-25.30,70.925C 195.825,125.65, 221.925,134.35, 250.00,134.35z M 469.50,326.65l-93.875-37.825l 10.825,30.175 c-0.55,31.95-62.625,57.45-136.45,57.45s-135.90-25.50-136.425-57.45l 10.80-30.175L 30.50,326.65c-26.325,10.625-27.425,30.25-2.475,43.625 l 176.55,94.675c 24.975,13.375, 65.85,13.375, 90.825,0.00l 176.55-94.675C 496.95,356.90, 495.825,337.275, 469.50,326.65z" ></path></svg>