<?xml version="1.0" encoding="utf-8"?> <!-- Generator: IcoMoon.io --> <!DOCTYPE svg PUBLIC "-//W3C//DTD SVG 1.1//EN" "http://www.w3.org/Graphics/SVG/1.1/DTD/svg11.dtd"> <svg width="512" height="512" viewBox="0 0 512 512" xmlns="http://www.w3.org/2000/svg" xmlns:xlink="http://www.w3.org/1999/xlink" fill="#000000"><path d="M 512.00,320.00q0.00,25.00 -2.50,47.00t-8.00,40.75t-15.25,29.50t-22.25,10.75q-25.50,0.00 -48.50-19.00t-31.50-45.00q-21.50-64.00 -128.00-64.00t-128.00,64.00q-8.50,26.00 -31.50,45.00t-48.50,19.00q-12.50,0.00 -22.25-10.75t-15.25-29.50t-8.00-40.75t-2.50-47.00q0.00-23.00 4.75-50.75t 15.00-59.25t 30.00-58.25t 46.25-39.75l0.00-16.00 q0.00-13.50 9.25-22.75t 22.75-9.25l 32.00,0.00 q 13.00,0.00 22.50,9.25t 9.50,22.75l 128.00,0.00 q0.00-13.50 9.50-22.75t 22.50-9.25l 32.00,0.00 q 13.00,0.00 22.50,9.25t 9.50,22.75l0.00,16.00 q 26.50,13.00 46.25,39.75t 30.00,58.25t 15.00,59.25t 4.75,50.75zM 144.00,192.00l-16.00,0.00 l0.00-16.00 q0.00-6.50 -4.75-11.25t-11.25-4.75t-11.25,4.75t-4.75,11.25l0.00,16.00 l-16.00,0.00 q-6.50,0.00 -11.25,4.75t-4.75,11.25t 4.75,11.25t 11.25,4.75l 16.00,0.00 l0.00,16.00 q0.00,6.50 4.75,11.25t 11.25,4.75t 11.25-4.75t 4.75-11.25l0.00-16.00 l 16.00,0.00 q 6.50,0.00 11.25-4.75t 4.75-11.25t-4.75-11.25t-11.25-4.75zM 352.00,224.00q-13.00,0.00 -22.50,9.25t-9.50,22.50t 9.50,22.75t 22.75,9.50t 22.50-9.50t 9.25-22.75t-9.50-22.50t-22.50-9.25zM 384.00,191.75q0.00,13.25 9.25,22.75t 22.50,9.50t 22.75-9.50t 9.50-22.75t-9.50-22.50t-22.75-9.25 t-22.50,9.25t-9.25,22.50z" ></path></svg>