<?xml version="1.0" encoding="utf-8"?> <!-- Generator: IcoMoon.io --> <!DOCTYPE svg PUBLIC "-//W3C//DTD SVG 1.1//EN" "http://www.w3.org/Graphics/SVG/1.1/DTD/svg11.dtd"> <svg width="512" height="512" viewBox="0 0 512 512" xmlns="http://www.w3.org/2000/svg" xmlns:xlink="http://www.w3.org/1999/xlink" fill="#000000"><path d="M 256.00,512.00q-69.50,0.00 -128.50-34.25t-93.25-93.25t-34.25-128.50t 34.25-128.50t 93.25-93.25t 128.50-34.25t 128.50,34.25t 93.25,93.25t 34.25,128.50t-34.25,128.50t-93.25,93.25t-128.50,34.25zM 256.00,64.00q-52.00,0.00 -96.25,25.75t-70.00,70.00t-25.75,96.25t 25.75,96.25t 70.00,70.00t 96.25,25.75t 96.25-25.75t 70.00-70.00 t 25.75-96.25t-25.75-96.25t-70.00-70.00t-96.25-25.75zM 320.00,224.00q-13.50,0.00 -22.75,9.25t-9.25,22.75t 9.25,22.75t 22.75,9.25l 55.00,0.00 q-8.50,14.50 -23.00,23.25t-32.00,8.75q-26.50,0.00 -45.25-18.75t-18.75-45.25t 18.75-45.25t 45.25-18.75q 17.50,0.00 32.00,8.75t 23.00,23.25l-55.00,0.00 zM 160.00,256.00q0.00,13.00 9.50,22.50t 22.50,9.50l 55.00,0.00 q-8.50,14.50 -23.00,23.25t-32.00,8.75q-26.50,0.00 -45.25-18.75t-18.75-45.25t 18.75-45.25t 45.25-18.75q 17.50,0.00 32.00,8.75t 23.00,23.25l-55.00,0.00 q-13.00,0.00 -22.50,9.50t-9.50,22.50z" ></path></svg>