<?xml version="1.0" encoding="utf-8"?> <!-- Generator: IcoMoon.io --> <!DOCTYPE svg PUBLIC "-//W3C//DTD SVG 1.1//EN" "http://www.w3.org/Graphics/SVG/1.1/DTD/svg11.dtd"> <svg width="512" height="512" viewBox="0 0 512 512" xmlns="http://www.w3.org/2000/svg" xmlns:xlink="http://www.w3.org/1999/xlink" fill="#000000"><path d="M 445.00,110.00q 3.00,10.00 3.00,18.00l0.00,256.00 l 32.00,0.00 q 13.00,0.00 22.50,9.25t 9.50,22.50t-9.25,22.75t-22.75,9.50l-32.00,0.00 l0.00,32.00 q0.00,13.50 -9.50,22.75t-22.75,9.25t-22.50-9.25t-9.25-22.75l0.00-32.00 l-256.00,0.00 q-26.50,0.00 -45.25-18.75t-18.75-45.25l0.00-256.00 l-32.00,0.00 q-13.00,0.00 -22.50-9.25t-9.50-22.75t 9.25-22.75t 22.75-9.25l 32.00,0.00 l0.00-32.00 q0.00-13.00 9.25-22.50t 22.75-9.50t 22.75,9.50 t 9.25,22.50l0.00,32.00 l 256.00,0.00 q 8.00,0.00 17.50,2.50l 58.00-58.00q 9.00-9.00 21.75-9.00t 21.75,9.00t 9.00,21.75t-9.00,21.75zM 384.00,171.00l-213.00,213.00l 213.00,0.00 l0.00-213.00 zM 128.00,128.00l0.00,212.00 l 212.00-212.00l-212.00,0.00 z" ></path></svg>