<?xml version="1.0" encoding="utf-8"?> <!-- Generator: IcoMoon.io --> <!DOCTYPE svg PUBLIC "-//W3C//DTD SVG 1.1//EN" "http://www.w3.org/Graphics/SVG/1.1/DTD/svg11.dtd"> <svg width="500.00000000000006" height="500" viewBox="0 0 500 500" xmlns="http://www.w3.org/2000/svg" xmlns:xlink="http://www.w3.org/1999/xlink" fill="#000000"><path d="M 358.725,328.80L 289.775,250.00l 68.95-78.80c 11.725-11.725, 11.725-30.725,0.00-42.425c-11.725-11.70-30.725-11.70-42.425,0.00L 250.00,204.55 l-66.275-75.75c-11.725-11.725-30.725-11.725-42.425,0.00c-11.70,11.725-11.70,30.725,0.00,42.425L 210.225,250.00l-68.95,78.80 c-11.70,11.725-11.70,30.675,0.00,42.375c 11.725,11.725, 30.725,11.725, 42.425,0.00L 250.00,295.45l 66.275,75.725c 11.725,11.725, 30.725,11.725, 42.425,0.00 S 370.425,340.525, 358.725,328.80z" ></path></svg>