<?xml version="1.0" encoding="utf-8"?> <!-- Generator: IcoMoon.io --> <!DOCTYPE svg PUBLIC "-//W3C//DTD SVG 1.1//EN" "http://www.w3.org/Graphics/SVG/1.1/DTD/svg11.dtd"> <svg width="512" height="512" viewBox="0 0 512 512" xmlns="http://www.w3.org/2000/svg" xmlns:xlink="http://www.w3.org/1999/xlink" fill="#000000"><path d="M 426.00,0.00L 86.00,0.00 C 38.70,0.00,0.00,38.70,0.00,86.00l0.00,340.00 c0.00,47.30, 38.70,86.00, 86.00,86.00l 340.00,0.00 c 47.30,0.00, 86.00-38.70, 86.00-86.00L 512.00,86.00 C 512.00,38.70, 473.30,0.00, 426.00,0.00z M 480.00,384.00L 288.00,384.00 L 288.00,266.00 c0.00,0.00, 35.167,0.50, 54.00,20.00l0.00,34.00 l 77.205,0.00 c-5.91-18.941-18.534-37.556-36.564-53.332C 351.651,239.553, 301.044,226.00, 256.00,226.00l0.00,158.00 L 32.00,384.00 l0.00-48.00 c0.00-21.698, 7.325-43.269, 21.182-62.38c 12.297-16.959, 29.432-31.916, 50.93-44.457c 25.216-14.709, 55.281-25.354, 87.888-31.389L 192.00,128.00 l 64.00,0.00 l0.00,64.00 c 73.50,0.00, 110.806,13.198, 151.889,37.163c 21.498,12.541, 38.633,27.498, 50.93,44.457C 472.676,292.731, 480.00,314.302, 480.00,336.00L 480.00,384.00 zM 99.795,320.00 C 105.705,301.059 118.33,282.444 136.359,266.668 C 152.129,252.87 171.169,242.074 192.00,234.79 L 192.00,320.00 L 99.795,320.00 Z" ></path></svg>