<?xml version="1.0" encoding="utf-8"?> <!-- Generator: IcoMoon.io --> <!DOCTYPE svg PUBLIC "-//W3C//DTD SVG 1.1//EN" "http://www.w3.org/Graphics/SVG/1.1/DTD/svg11.dtd"> <svg width="512" height="512" viewBox="0 0 512 512" xmlns="http://www.w3.org/2000/svg" xmlns:xlink="http://www.w3.org/1999/xlink" fill="#000000"><path d="M 32.00,256.00q 7.00-3.50 19.50-10.50t 46.25-32.00t 62.25-53.50q 18.00-18.00 34.25-41.00t 27.00-43.25t 19.00-37.75t 11.75-27.50l 4.00-10.50q 1.00,4.00 3.50,10.75t 11.50,26.75t 19.25,38.75t 27.00,42.25t 34.75,41.50q 28.00,28.50 60.00,52.50t 50.00,33.50l 17.50,10.00q-7.00,3.50 -19.50,10.75t-46.25,32.00t-61.75,53.25q-18.00,18.00 -34.50,41.00t-27.25,43.25t-19.00,37.75t-11.75,27.50 l-3.50,10.50q-1.50-4.00 -4.00-10.75t-11.50-26.75t-19.25-38.75t-26.75-42.25t-34.50-41.50q-28.50-28.50 -60.75-52.50t-49.25-33.75t-18.00-9.75z" ></path></svg>