<?xml version="1.0" encoding="utf-8"?> <!-- Generator: IcoMoon.io --> <!DOCTYPE svg PUBLIC "-//W3C//DTD SVG 1.1//EN" "http://www.w3.org/Graphics/SVG/1.1/DTD/svg11.dtd"> <svg width="500.00000000000006" height="500" viewBox="0 0 500 500" xmlns="http://www.w3.org/2000/svg" xmlns:xlink="http://www.w3.org/1999/xlink" fill="#000000"><path d="M 212.50,25.00L 190.025,25.00 C 184.50,25.00, 180.00,29.50, 180.00,35.00l0.00,95.00 L 91.60,130.00 c-4.125,0.00-9.25,0.95-14.15,2.45 C 72.50,133.975, 67.775,136.075, 64.40,138.375l-59.375,40.75C 1.675,181.425,0.00,184.45,0.00,187.50s 1.675,6.075, 5.025,8.375l 59.375,40.75 C 67.775,238.925, 72.50,241.025, 77.45,242.55C 82.35,244.05, 87.475,245.00, 91.60,245.00L 180.00,245.00 l0.00,220.00 c0.00,5.525, 4.50,10.00, 10.00,10.00L 212.50,475.00 c 5.525,0.00, 10.00-4.50, 10.00-10.00L 222.50,35.00 C 222.50,29.50, 218.025,25.00, 212.50,25.00z M 494.975,129.15l-59.375-40.75c-3.35-2.30-8.075-4.40-13.025-5.925 C 417.65,80.95, 412.525,80.00, 408.40,80.00L 237.50,80.00 l 20.025,115.00l 150.875,0.00 c 4.125,0.00, 9.25-0.95, 14.175-2.45s 9.675-3.625, 13.025-5.90l 59.375-40.75 C 498.35,143.575, 500.00,140.55, 500.00,137.50S 498.35,131.425, 494.975,129.15z" ></path></svg>