<?xml version="1.0" encoding="utf-8"?> <!-- Generator: IcoMoon.io --> <!DOCTYPE svg PUBLIC "-//W3C//DTD SVG 1.1//EN" "http://www.w3.org/Graphics/SVG/1.1/DTD/svg11.dtd"> <svg width="512" height="512" viewBox="0 0 512 512" xmlns="http://www.w3.org/2000/svg" xmlns:xlink="http://www.w3.org/1999/xlink" fill="#000000"><path d="M 448.00,320.00l-384.00,0.00 q-26.50,0.00 -45.25-18.75t-18.75-45.25t 18.75-45.25t 45.25-18.75l 384.00,0.00 q 26.50,0.00 45.25,18.75t 18.75,45.25t-18.75,45.25t-45.25,18.75zM 448.00,224.00l-240.00,0.00 q-6.50,0.00 -11.25,4.75t-4.75,11.25l0.00,32.00 q0.00,6.50 4.75,11.25t 11.25,4.75l 240.00,0.00 q 13.00,0.00 22.50-9.25t 9.50-22.50t-9.50-22.75t-22.50-9.50zM 448.00,128.00l-384.00,0.00 q-26.50,0.00 -45.25-18.75t-18.75-45.25t 18.75-45.25t 45.25-18.75l 384.00,0.00 q 26.50,0.00 45.25,18.75t 18.75,45.25t-18.75,45.25t-45.25,18.75zM 448.00,32.00l-48.00,0.00 q-6.50,0.00 -11.25,4.75t-4.75,11.25l0.00,32.00 q0.00,7.00 4.75,11.50t 11.25,4.50l 48.00,0.00 q 13.00,0.00 22.50-9.25t 9.50-22.50t-9.50-22.75t-22.50-9.50zM 64.00,384.00l 384.00,0.00 q 26.50,0.00 45.25,18.75t 18.75,45.25 t-18.75,45.25t-45.25,18.75l-384.00,0.00 q-26.50,0.00 -45.25-18.75t-18.75-45.25t 18.75-45.25t 45.25-18.75zM 288.00,464.00q0.00,6.50 4.75,11.25t 11.25,4.75l 144.00,0.00 q 13.00,0.00 22.50-9.25t 9.50-22.50t-9.50-22.75t-22.50-9.50l-144.00,0.00 q-6.50,0.00 -11.25,4.75t-4.75,11.25l0.00,32.00 z" ></path></svg>