<?xml version="1.0" encoding="utf-8"?> <!-- Generator: IcoMoon.io --> <!DOCTYPE svg PUBLIC "-//W3C//DTD SVG 1.1//EN" "http://www.w3.org/Graphics/SVG/1.1/DTD/svg11.dtd"> <svg width="512" height="512" viewBox="0 0 512 512" xmlns="http://www.w3.org/2000/svg" xmlns:xlink="http://www.w3.org/1999/xlink" fill="#000000"><path d="M 448.00,512.00l-384.00,0.00 q-13.00,0.00 -22.50-9.25t-9.50-22.75l0.00-448.00 q0.00-13.00 9.50-22.50t 22.50-9.50l 384.00,0.00 q 13.50,0.00 22.75,9.50t 9.25,22.50l0.00,448.00 q0.00,13.50 -9.25,22.75t-22.75,9.25zM 240.00,416.00l 32.00,0.00 q 6.50,0.00 11.25-4.75t 4.75-11.25t-4.75-11.25t-11.25-4.75l-32.00,0.00 q-6.50,0.00 -11.25,4.75t-4.75,11.25t 4.75,11.25t 11.25,4.75zM 112.00,416.00l 64.00,0.00 q 6.50,0.00 11.25-4.75t 4.75-11.25t-4.75-11.25t-11.25-4.75l-64.00,0.00 q-6.50,0.00 -11.25,4.75t-4.75,11.25t 4.75,11.25t 11.25,4.75zM 112.00,320.00l 160.00,0.00 q 6.50,0.00 11.25-4.75t 4.75-11.25t-4.75-11.25t-11.25-4.75l-160.00,0.00 q-6.50,0.00 -11.25,4.75t-4.75,11.25t 4.75,11.25t 11.25,4.75zM 112.00,224.00l 64.00,0.00 q 6.50,0.00 11.25-4.75t 4.75-11.25t-4.75-11.25 t-11.25-4.75l-64.00,0.00 q-6.50,0.00 -11.25,4.75t-4.75,11.25t 4.75,11.25t 11.25,4.75zM 240.00,96.00l-128.00,0.00 q-6.50,0.00 -11.25,4.75t-4.75,11.25t 4.75,11.25t 11.25,4.75l 128.00,0.00 q 6.50,0.00 11.25-4.75t 4.75-11.25t-4.75-11.25t-11.25-4.75zM 400.00,96.00l-96.00,0.00 q-6.50,0.00 -11.25,4.75t-4.75,11.25t 4.75,11.25t 11.25,4.75l 96.00,0.00 q 6.50,0.00 11.25-4.75 t 4.75-11.25t-4.75-11.25t-11.25-4.75zM 400.00,192.00l-160.00,0.00 q-6.50,0.00 -11.25,4.75t-4.75,11.25t 4.75,11.25t 11.25,4.75l 160.00,0.00 q 6.50,0.00 11.25-4.75t 4.75-11.25t-4.75-11.25t-11.25-4.75zM 400.00,288.00l-64.00,0.00 q-6.50,0.00 -11.25,4.75t-4.75,11.25t 4.75,11.25t 11.25,4.75l 64.00,0.00 q 6.50,0.00 11.25-4.75t 4.75-11.25t-4.75-11.25t-11.25-4.75z M 400.00,384.00l-64.00,0.00 q-6.50,0.00 -11.25,4.75t-4.75,11.25t 4.75,11.25t 11.25,4.75l 64.00,0.00 q 6.50,0.00 11.25-4.75t 4.75-11.25t-4.75-11.25t-11.25-4.75z" ></path></svg>