<?xml version="1.0" encoding="utf-8"?> <!-- Generator: IcoMoon.io --> <!DOCTYPE svg PUBLIC "-//W3C//DTD SVG 1.1//EN" "http://www.w3.org/Graphics/SVG/1.1/DTD/svg11.dtd"> <svg width="512" height="512" viewBox="0 0 512 512" xmlns="http://www.w3.org/2000/svg" xmlns:xlink="http://www.w3.org/1999/xlink" fill="#000000"><path d="M 256.00,512.00q-52.00,0.00 -99.50-20.25t-81.75-54.50t-54.50-81.75t-20.25-99.50t 20.25-99.25t 54.50-81.50t 81.75-54.50t 99.50-20.25t 99.50,20.25t 81.75,54.50t 54.50,81.50t 20.25,99.25t-20.25,99.50t-54.50,81.75t-81.75,54.50t-99.50,20.25zM 160.00,192.00q0.00-32.50 26.50-48.25t 69.50-15.75t 69.50,11.50t 26.50,36.50q0.00,13.50 9.25,22.75 t 22.50,9.25t 22.75-9.25t 9.50-22.75l0.00,0.00 l0.00,0.00 q0.00-26.00 -19.25-49.50t-48.00-38.50t-61.25-20.50q 0.50-2.00 0.50-3.50q0.00-13.00 -9.50-22.25t-22.75-9.25t-22.50,9.25t-9.25,22.25l0.00,1.50 l0.00,1.00 q-24.50,4.00 -46.50,13.00t-40.75,23.75t-29.75,37.75t-11.00,51.00q0.00,47.00 43.00,71.50t 117.00,24.50l 12.50,0.00 q 15.50,0.00 23.00,0.25t 19.25,1.00t 17.50,2.75t 12.25,5.50t 9.00,9.00t 2.50,13.50 q0.00,33.00 -26.50,48.50t-69.50,15.50q-43.50,0.00 -69.75-11.50t-26.25-36.50q0.00-13.00 -9.50-22.50t-22.75-9.50t-22.50,9.50t-9.25,22.50l0.00,0.00 l0.00,0.00 q0.00,26.50 19.25,49.75t 48.00,38.25t 60.75,21.00l0.00,3.00 q0.00,13.50 9.25,22.75t 22.50,9.25t 22.75-9.25t 9.50-22.75q0.00-0.50 -0.25-1.25t-0.25-1.25q 25.00-3.50 47.00-12.50t 40.75-23.75t 29.75-37.75t 11.00-51.50q0.00-46.50 -43.00-71.25 t-117.00-24.75l-13.00,0.00 q-15.00,0.50 -22.50,0.25t-19.25-1.00t-17.50-2.75t-12.25-5.50t-9.00-9.25t-2.50-13.75z" ></path></svg>