<?xml version="1.0" encoding="utf-8"?> <!-- Generator: IcoMoon.io --> <!DOCTYPE svg PUBLIC "-//W3C//DTD SVG 1.1//EN" "http://www.w3.org/Graphics/SVG/1.1/DTD/svg11.dtd"> <svg width="512" height="512" viewBox="0 0 512 512" xmlns="http://www.w3.org/2000/svg" xmlns:xlink="http://www.w3.org/1999/xlink" fill="#000000"><path d="M 440.50,161.00q-5.00-1.00 -7.50-1.00q-18.50,0.00 -32.00,12.50q-30.50-13.50 -57.00-22.00q-43.50-14.00 -91.00-23.00q-4.50-12.00 -13.50-20.00q 12.50-59.00 33.50-107.00q 63.00,4.50 115.75,36.50t 85.25,84.00q-18.50,20.00 -33.50,40.00zM 208.50,96.00q-13.00,0.00 -24.50,7.00q-40.50-30.00 -81.50-51.00q 62.00-47.00 139.00-51.50q-19.50,43.50 -31.50,95.50l-1.00,0.00 l-0.50,0.00 zM 35.00,127.00q 17.00-28.50 43.00-54.00q 34.00,17.50 70.50,43.00 q-64.50-1.50 -113.50,11.00zM 160.50,147.00q 1.00,15.50 10.75,27.25t 24.25,15.75q-3.00,35.00 -3.00,66.50q0.00,22.00 1.50,50.50q-11.00,3.50 -19.50,12.00q-27.00-10.50 -52.00-24.00q 5.50-11.00 5.50-22.50q0.00-20.00 -14.00-34.00t-34.00-14.00q-22.00,0.00 -36.50,17.00q-21.00-19.00 -37.50-39.50q 4.50-21.50 13.50-42.50q 61.00-17.00 141.00-12.50zM 32.50,276.50q 1.50,18.50 15.25,31.25t 32.25,12.75q 5.50,0.00 12.00-2.00 q 32.00,18.50 68.50,32.00l0.00,1.00 l0.00,1.00 q0.00,19.50 13.25,33.25t 32.75,14.75q 12.50,61.00 35.00,111.50q-50.00-3.00 -94.50-24.25t-76.75-55.25t-51.25-80.00t-19.00-96.00q0.00-0.50 0.50-13.50q 14.00,17.50 32.00,33.50zM 250.50,375.00q 36.00,6.50 72.50,8.50q 3.50,10.00 11.00,18.50q-11.50,52.50 -14.00,102.00q-25.50,6.50 -47.00,8.00q-23.50-53.50 -36.50-121.00q 9.00-6.00 14.00-16.00zM 405.50,399.00 q 6.50-8.00 9.00-17.00q 36.50-3.00 70.50-9.50q-24.00,47.00 -66.00,81.50q-4.50-26.00 -13.50-55.00zM 324.00,351.50q-35.00-2.00 -69.00-9.00q-5.50-25.00 -28.50-34.50q-2.00-29.50 -2.00-51.50q0.00-33.00 3.00-68.50q 1.00,0.00 2.50-1.00t 2.00-1.00q 19.50,19.00 34.00,35.00q 43.50,48.00 74.00,109.00q-11.00,8.50 -16.00,21.50zM 368.50,416.50q 1.00,0.00 5.50-0.50q 8.50,30.50 12.50,60.50q-14.50,8.50 -35.00,17.00q 3.50-39.00 12.00-77.50q 4.00,0.50 5.00,0.50z M 366.00,297.00q-0.50,1.00 -1.25,3.00t-1.25,3.00q-31.50-57.00 -74.00-103.50q-15.50-17.50 -37.00-38.00q 0.50,0.00 0.75-0.75l 0.25-0.75q 42.00,8.50 80.50,21.00q 23.50,7.50 51.50,20.00q-1.00,5.00 -1.00,7.50q0.00,15.00 9.00,27.50q-16.50,31.50 -27.50,61.00zM 389.50,326.00q 6.00-17.50 6.00-18.00q 10.00-25.00 25.00-53.50q 6.50,2.00 12.50,2.00q 17.00,0.00 30.50-11.50q 24.50,17.00 48.00,38.00q-3.00,28.50 -12.00,55.00 q-41.00,8.50 -86.50,12.00q-6.50-16.00 -23.50-24.00zM 481.00,208.00q0.00-16.50 -11.00-30.00q 10.50-13.50 21.00-24.50q 18.00,41.00 21.00,84.50q-16.50-12.50 -32.00-22.50q 1.00-4.50 1.00-7.50z" ></path></svg>