<?xml version="1.0" encoding="utf-8"?> <!-- Generator: IcoMoon.io --> <!DOCTYPE svg PUBLIC "-//W3C//DTD SVG 1.1//EN" "http://www.w3.org/Graphics/SVG/1.1/DTD/svg11.dtd"> <svg width="500.00000000000006" height="500" viewBox="0 0 500 500" xmlns="http://www.w3.org/2000/svg" xmlns:xlink="http://www.w3.org/1999/xlink" fill="#000000"><path d="M 239.125,185.525C 205.175,125.15, 168.875,75.95, 166.20,72.35C 111.425,98.225, 70.525,148.675, 57.80,209.50C 62.95,209.60, 144.80,210.575, 239.125,185.525 z M 263.60,251.50c 2.60-0.825, 5.15-1.575, 7.775-2.325c-4.925-11.175-10.325-22.35-15.95-33.375c-101.15,30.25-198.225,28.075-201.675,27.975 C 53.675,245.85, 53.60,247.90, 53.60,250.00c0.00,50.525, 19.10,96.525, 50.40,131.325c-0.05-0.05-0.15-0.175-0.15-0.175 S 157.625,285.80, 263.60,251.50z M 129.275,404.825l 0.05-0.075c-1.475-1.15-3.025-2.175-4.45-3.375 C 127.475,403.475, 129.275,404.825, 129.275,404.825z M 202.95,59.30C 202.775,59.35, 202.60,59.375, 202.45,59.425C 202.725,59.35, 202.925,59.325, 202.95,59.30 L 202.95,59.30z M 379.725,102.60c-34.60-30.475-79.975-49.00-129.70-49.00c-15.975,0.00-31.45,1.95-46.30,5.55 c 2.975,3.95, 39.85,52.95, 73.45,114.575C 351.225,145.95, 379.225,103.40, 379.725,102.60z M 250.025,480.00C 122.975,480.00, 20.00,377.025, 20.00,250.00 s 102.975-230.00, 230.025-230.00c 127.025,0.00, 229.975,102.975, 229.975,230.00S 377.05,480.00, 250.025,480.00z M 283.425,282.125c-115.275,40.175-153.35,120.975-154.10,122.625 c 33.30,26.025, 75.15,41.65, 120.70,41.65c 27.20,0.00, 53.10-5.525, 76.65-15.525c-2.90-17.225-14.325-77.40-41.95-149.20 C 284.30,281.85, 283.85,281.975, 283.425,282.125z M 292.25,202.975c 4.60,9.375, 8.975,18.875, 13.05,28.50c 1.475,3.40, 2.85,6.775, 4.25,10.15 c 67.85-8.525, 134.625,5.95, 136.80,6.425c-0.45-46.60-17.10-89.35-44.65-122.80C 401.30,125.825, 369.80,171.325, 292.25,202.975z M 321.525,272.625 c 25.80,70.875, 36.25,128.55, 38.225,140.30c 44.125-29.775, 75.45-77.00, 84.175-131.775C 440.05,279.875, 385.025,262.45, 321.525,272.625z" ></path></svg>