<?xml version="1.0" encoding="utf-8"?> <!-- Generator: IcoMoon.io --> <!DOCTYPE svg PUBLIC "-//W3C//DTD SVG 1.1//EN" "http://www.w3.org/Graphics/SVG/1.1/DTD/svg11.dtd"> <svg width="500.00000000000006" height="500" viewBox="0 0 500 500" xmlns="http://www.w3.org/2000/svg" xmlns:xlink="http://www.w3.org/1999/xlink" fill="#000000"><path d="M 256.475,249.575c 0.85-0.275, 1.70-0.525, 2.60-0.80c-2.075-4.65-4.375-9.425-6.975-14.575 c-47.00,13.90-92.00,14.05-100.025,13.95C 152.025,248.75, 152.00,249.40, 152.00,250.00c0.00,23.625, 8.50,46.35, 23.95,64.175 C 181.125,305.85, 208.40,265.125, 256.475,249.575z M 313.875,175.725C 296.10,160.425, 273.475,152.025, 250.00,152.025c-7.075,0.00-14.20,0.775-21.225,2.325 c 5.10,6.90, 20.80,28.675, 35.525,55.575C 296.35,197.625, 310.85,179.85, 313.875,175.725z M 190.60,327.825C 207.825,341.05, 228.35,348.00, 250.00,348.00 c 12.95,0.00, 25.50-2.50, 37.375-7.375c-1.65-9.525-7.375-38.50-20.55-73.025C 213.775,286.35, 193.775,321.625, 190.60,327.825z M 242.625,216.625 C 227.425,189.825, 211.60,167.75, 207.275,161.825c-26.675,12.975-46.30,37.675-52.825,66.50l 0.40,0.00 C 165.00,228.325, 201.05,227.475, 242.625,216.625z M 287.85,262.45 c 11.625,32.275, 17.00,59.15, 18.50,67.725c 21.30-15.00, 35.85-38.025, 40.225-63.55c-4.35-1.30-20.025-5.55-39.80-5.55 C 300.35,261.075, 293.95,261.55, 287.85,262.45z M 250.00,10.00c-132.55,0.00-240.00,107.45-240.00,240.00s 107.45,240.00, 240.00,240.00c 132.575,0.00, 240.00-107.45, 240.00-240.00 S 382.575,10.00, 250.00,10.00z M 250.00,367.45c-64.75,0.00-117.45-52.675-117.45-117.45S 185.225,132.55, 250.00,132.55c 64.80,0.00, 117.50,52.675, 117.50,117.45 S 314.80,367.45, 250.00,367.45z M 273.05,226.90c 2.175,4.45, 4.175,8.90, 6.05,13.25c 0.575,1.425, 1.225,2.825, 1.80,4.25 c 6.925-0.825, 14.30-1.25, 22.025-1.25c 21.35,0.00, 39.10,3.125, 45.025,4.30c-0.525-21.25-8.05-41.90-21.30-58.475 C 322.65,194.15, 306.20,213.05, 273.05,226.90z" ></path></svg>