<?xml version="1.0" encoding="utf-8"?> <!-- Generator: IcoMoon.io --> <!DOCTYPE svg PUBLIC "-//W3C//DTD SVG 1.1//EN" "http://www.w3.org/Graphics/SVG/1.1/DTD/svg11.dtd"> <svg width="512" height="512" viewBox="0 0 512 512" xmlns="http://www.w3.org/2000/svg" xmlns:xlink="http://www.w3.org/1999/xlink" fill="#000000"><path d="M 269.376,257.962 C 170.70,289.86 118.19,376.801 113.855,384.223 C 83.297,350.302 64.668,305.435 64.668,256.294 C 64.668,254.336 64.707,252.389 64.766,250.446 C 73.138,250.617 165.856,251.812 261.405,223.217 C 266.881,233.937 272.113,244.818 276.917,255.687 C 274.385,256.40 271.871,257.157 269.376,257.962 ZM 382.833,113.173 C 379.392,118.075 350.59,156.788 282.555,182.287 C 251.203,124.684 216.452,77.362 211.164,70.281 C 225.552,66.813 240.563,64.961 256.001,64.961 C 304.616,64.961 349.045,83.196 382.833,113.173 ZM 245.594,193.794 C 156.096,217.56 77.269,217.218 68.711,217.105 C 81.118,157.734 121.129,108.389 174.657,83.142 C 179.701,90.059 213.893,137.439 245.594,193.794 ZM 288.66,287.75 C 289.08,287.604 289.50,287.468 289.921,287.324 C 316.783,357.127 327.892,415.63 330.739,432.417 C 307.766,442.201 282.506,447.622 256.001,447.622 C 211.769,447.622 171.00,432.53 138.56,407.232 C 142.003,400.193 180.742,325.355 288.66,287.75 ZM 426.00,0.00L 86.00,0.00 C 38.70,0.00,0.00,38.70,0.00,86.00l0.00,340.00 c0.00,47.30, 38.70,86.00, 86.00,86.00l 340.00,0.00 c 47.30,0.00, 86.00-38.70, 86.00-86.00L 512.00,86.00 C 512.00,38.70, 473.30,0.00, 426.00,0.00z M 256.001,480.00 C 132.486,480.00, 32.00,379.515, 32.00,256.00C 32.00,132.486, 132.486,32.00, 256.001,32.00C 379.517,32.00, 480.00,132.486, 480.00,256.00 C 480.00,379.515, 379.517,480.00, 256.001,480.00zM 325.732,278.482 C 385.69,268.886 438.365,284.598 444.912,286.662 C 436.382,339.899 405.826,385.876 362.902,414.898 C 360.941,403.26 350.758,347.251 325.732,278.482 ZM 297.266,210.738 C 368.008,181.856 400.07,140.756 404.103,135.298 C 430.749,167.856 446.886,209.324 447.309,254.484 C 441.00,253.15 377.744,240.32 314.08,248.326 C 312.739,245.05 311.367,241.759 309.959,238.451 C 305.987,229.121 301.718,219.852 297.266,210.738 Z" ></path></svg>