<?xml version="1.0" encoding="utf-8"?> <!-- Generator: IcoMoon.io --> <!DOCTYPE svg PUBLIC "-//W3C//DTD SVG 1.1//EN" "http://www.w3.org/Graphics/SVG/1.1/DTD/svg11.dtd"> <svg width="512" height="512" viewBox="0 0 512 512" xmlns="http://www.w3.org/2000/svg" xmlns:xlink="http://www.w3.org/1999/xlink" fill="#000000"><path d="M 256.00,512.00q-69.50,0.00 -128.50-34.25t-93.25-93.25t-34.25-128.50t 34.25-128.50t 93.25-93.25t 128.50-34.25t 128.50,34.25t 93.25,93.25t 34.25,128.50t-34.25,128.50t-93.25,93.25t-128.50,34.25zM 432.50,331.00q-33.50-10.50 -65.00-10.50q-5.00,0.00 -18.50,2.00q 9.50,46.50 10.00,95.00q 50.00-32.00 73.50-86.50zM 302.00,442.00q 1.00-51.00 -9.00-103.00q-15.00,7.50 -27.50,16.50 q-54.00,38.00 -71.00,82.00q 30.00,10.50 61.50,10.50q 22.50,0.00 46.00-6.00zM 65.00,239.00q-1.00,9.50 -1.00,17.00q0.00,46.50 20.75,86.75t 56.75,66.75q 25.50-65.50 81.50-105.00q 26.50-18.50 53.00-30.00q-8.00-22.50 -16.00-41.00q-48.00,23.00 -100.00,22.50q-47.50-0.50 -95.00-17.00zM 153.00,94.50q-48.00,30.50 -71.50,82.00q 40.00,15.50 78.50,15.50q 35.50,0.00 69.00-16.00q-33.50-52.50 -76.00-81.50zM 256.00,64.00 q-22.50,0.00 -47.00,6.50q 37.00,29.00 68.00,75.00q 39.00-30.50 54.00-66.00q-36.00-15.50 -75.00-15.50zM 382.00,111.50q-24.00,55.50 -72.00,92.00q 12.00,26.00 22.00,55.00q 18.50-2.50 35.50-2.50q 38.50,0.50 79.50,12.00q 1.00-11.50 1.00-12.00q0.00-42.50 -17.50-80.00t-48.50-64.50z" ></path></svg>