<?xml version="1.0" encoding="utf-8"?> <!-- Generator: IcoMoon.io --> <!DOCTYPE svg PUBLIC "-//W3C//DTD SVG 1.1//EN" "http://www.w3.org/Graphics/SVG/1.1/DTD/svg11.dtd"> <svg width="512" height="512" viewBox="0 0 512 512" xmlns="http://www.w3.org/2000/svg" xmlns:xlink="http://www.w3.org/1999/xlink" fill="#000000"><path d="M 256.00,512.00q-52.00,0.00 -99.50-20.25t-81.75-54.50t-54.50-81.75t-20.25-99.50t 20.25-99.50t 54.50-81.75t 81.75-54.50t 99.50-20.25t 99.50,20.25t 81.75,54.50t 54.50,81.75t 20.25,99.50t-20.25,99.50t-54.50,81.75t-81.75,54.50t-99.50,20.25zM 208.00,64.00q-59.50,0.00 -101.75,42.25t-42.25,101.75t 42.25,101.75t 101.75,42.25 t 101.75-42.25t 42.25-101.75t-42.25-101.75t-101.75-42.25zM 255.00,215.50q 3.50,24.00 -9.75,44.00t-36.75,26.50q-25.50,6.50 -48.50-6.75t-30.00-38.75q-5.50-21.50 3.25-41.50t 27.75-30.50q-3.50-24.00 9.75-44.00t 36.75-26.50q 25.50-6.50 48.50,6.75t 30.00,38.75q 5.50,21.50 -3.25,41.50t-27.75,30.50zM 183.50,193.00q-12.50,3.50 -19.25,15.00t-3.25,24.25t 15.00,19.50 t 24.25,3.25t 19.50-15.00t 3.25-24.50q-1.00-3.50 -3.25-4.50t-5.75-1.25t-6.00-1.75t-7.25-6.25t-9.00-7.25t-8.25-1.50zM 255.00,151.50q-3.50-12.50 -15.00-19.25t-24.50-3.25q-11.00,3.00 -17.50,12.25t-6.00,20.75q 11.50,2.00 32.00,14.00q 11.50,6.50 17.00,11.00q 8.50-5.50 12.50-15.25t 1.50-20.25z" ></path></svg>