<?xml version="1.0" encoding="utf-8"?> <!-- Generator: IcoMoon.io --> <!DOCTYPE svg PUBLIC "-//W3C//DTD SVG 1.1//EN" "http://www.w3.org/Graphics/SVG/1.1/DTD/svg11.dtd"> <svg width="512" height="512" viewBox="0 0 512 512" xmlns="http://www.w3.org/2000/svg" xmlns:xlink="http://www.w3.org/1999/xlink" fill="#000000"><path d="M 256.00,288.50l-224.50-224.50l 0.50,0.00 l 448.00,0.00 l 0.50,0.00 zM 3.50,430.50q-3.50-7.00 -3.50-14.50l0.00-320.00 q0.00-7.50 3.50-14.50l 175.00,174.50zM 236.50,314.50q 3.00,2.50 7.75,4.00t 8.25,1.50l 3.50,0.00 q 13.00,0.50 19.50-5.50l 35.50-36.00l 169.50,169.50l-0.50,0.00 l-448.00,0.00 l-0.50,0.00 l 169.50-169.50zM 508.50,81.50q 3.50,7.00 3.50,14.50l0.00,320.00 q0.00,7.50 -3.50,14.50l-175.00-174.50z" ></path></svg>