<?xml version="1.0" encoding="utf-8"?> <!-- Generator: IcoMoon.io --> <!DOCTYPE svg PUBLIC "-//W3C//DTD SVG 1.1//EN" "http://www.w3.org/Graphics/SVG/1.1/DTD/svg11.dtd"> <svg width="512" height="512" viewBox="0 0 512 512" xmlns="http://www.w3.org/2000/svg" xmlns:xlink="http://www.w3.org/1999/xlink" fill="#000000"><path d="M 508.50,367.00l-175.00-174.50l 175.00-175.00q 3.50,7.50 3.50,15.00l0.00,320.00 q0.00,7.50 -3.50,14.50zM 31.50,0.50l 0.50,0.00 l 448.00,0.00 l 0.50,0.00 l-224.50,224.50zM 3.50,367.00q-3.50-7.00 -3.50-14.50l0.00-320.00 q0.00-7.50 3.50-15.00l 175.00,175.00zM 236.50,250.50q 3.00,3.00 7.75,4.50t 8.25,1.50l 3.50,0.00 q 13.00,0.50 19.50-6.00l 35.50-35.50l 169.50,169.50l-0.50,0.00 l0.00,1.00 t 0.25,2.00t-0.25,3.00t-1.25,3.75t-2.25,4.25t-4.00,5.00l-121.50,104.00 q-4.00,3.50 -14.25,4.25t-21.00-1.75t-19.25-9.25t-8.50-16.25l0.00-36.00 l-96.00,0.00 q-13.00,0.00 -22.50-9.50t-9.50-22.50l0.00-32.00 l-128.00,0.00 l-0.50,0.00 l 169.50-169.50zM 224.00,416.50l 96.00,0.00 l0.00,40.50 q 13.00,12.50 21.50,4.00l 74.50-64.50q 5.00-5.00 5.00-12.00t-5.00-12.00l-74.50-64.50q-8.50-8.50 -21.50,4.00l0.00,40.50 l-96.00,0.00 q-13.50,0.00 -22.75,9.25t-9.25,22.50t 9.50,22.75t 22.50,9.50z" ></path></svg>