<?xml version="1.0" encoding="utf-8"?> <!-- Generator: IcoMoon.io --> <!DOCTYPE svg PUBLIC "-//W3C//DTD SVG 1.1//EN" "http://www.w3.org/Graphics/SVG/1.1/DTD/svg11.dtd"> <svg width="512" height="512" viewBox="0 0 512 512" xmlns="http://www.w3.org/2000/svg" xmlns:xlink="http://www.w3.org/1999/xlink" fill="#000000"><path d="M 416.00,224.00l 64.00,0.00 l0.00,32.00 l-64.00,0.00 L 416.00,224.00 z M 416.00,0.00l0.00,192.00 l-32.00,0.00 l0.00,96.00 l 32.00,0.00 l0.00,224.00 l 64.00,0.00 L 480.00,288.00 l 32.00,0.00 l0.00-96.00 l-32.00,0.00 L 480.00,0.00 L 416.00,0.00 z M 224.00,352.00l 64.00,0.00 l0.00,32.00 l-64.00,0.00 L 224.00,352.00 z M 224.00,0.00 l0.00,320.00 l-32.00,0.00 l0.00,96.00 l 32.00,0.00 l0.00,96.00 l 64.00,0.00 l0.00-96.00 l 32.00,0.00 l0.00-96.00 l-32.00,0.00 L 288.00,0.00 L 224.00,0.00 z M 32.00,160.00l 64.00,0.00 l0.00,32.00 L 32.00,192.00 L 32.00,160.00 z M 32.00,0.00l0.00,128.00 L0.00,128.00 l0.00,96.00 l 32.00,0.00 l0.00,288.00 l 64.00,0.00 L 96.00,224.00 l 32.00,0.00 L 128.00,128.00 L 96.00,128.00 L 96.00,0.00 L 32.00,0.00 z" ></path></svg>