<?xml version="1.0" encoding="utf-8"?> <!-- Generator: IcoMoon.io --> <!DOCTYPE svg PUBLIC "-//W3C//DTD SVG 1.1//EN" "http://www.w3.org/Graphics/SVG/1.1/DTD/svg11.dtd"> <svg width="512" height="512" viewBox="0 0 512 512" xmlns="http://www.w3.org/2000/svg" xmlns:xlink="http://www.w3.org/1999/xlink" fill="#000000"><path d="M 128.00,320.00c0.00-16.00, 16.00-32.00, 32.00-32.00l 192.00,0.00 c 16.00,0.00, 32.00,16.00, 32.00,32.00s-16.00,32.00-32.00,32.00L 160.00,352.00 C 144.00,352.00, 128.00,336.00, 128.00,320.00z M 128.00,192.00c0.00-16.00, 16.00-32.00, 32.00-32.00 l 192.00,0.00 c 16.00,0.00, 32.00,16.00, 32.00,32.00s-16.00,32.00-32.00,32.00L 160.00,224.00 C 144.00,224.00, 128.00,208.00, 128.00,192.00z M0.00,256.00c0.00,141.392, 114.608,256.00, 256.00,256.00s 256.00-114.608, 256.00-256.00c0.00-141.376-114.608-256.00-256.00-256.00S0.00,114.624,0.00,256.00z" ></path></svg>