<?xml version="1.0" encoding="utf-8"?> <!-- Generator: IcoMoon.io --> <!DOCTYPE svg PUBLIC "-//W3C//DTD SVG 1.1//EN" "http://www.w3.org/Graphics/SVG/1.1/DTD/svg11.dtd"> <svg width="512" height="512" viewBox="0 0 512 512" xmlns="http://www.w3.org/2000/svg" xmlns:xlink="http://www.w3.org/1999/xlink" fill="#000000"><path d="M 481.00,320.00q0.00,88.50 -12.00,129.50t-40.00,48.00q-1.50,0.50 -11.00,3.25t-15.50,4.00t-16.75,3.25t-22.75,3.00t-26.00,1.00q-52.00,0.00 -64.00-16.00q-5.00-7.00 -10.50-22.50t-5.50-25.50q0.00-33.50 14.25-48.75t 49.75-15.25q 32.00,0.00 32.00,16.00q0.00,0.50 -3.50,4.25t-11.50,7.75t-17.00,4.00q-7.00,0.00 -19.50,10.25t-12.50,21.75q0.00,10.50 13.00,21.25t 35.00,10.75q 9.50,0.00 15.50-0.50t 13.00-2.25 t 10.75-5.00t 6.25-9.25t 2.50-15.00l0.00-64.00 q0.00-7.00 -1.00-12.25t-2.50-8.75t-4.75-5.75t-5.75-3.50t-7.50-1.75t-8.00-0.50t-9.00,0.25t-9.50,0.25q-51.00,0.00 -64.00-16.00l-2.25-2.75t-3.75-4.75t-3.50-5.50t-3.75-8.50t-2.75-10.50q0.00,15.00 -15.75,34.50t-34.75,32.50t-29.50,13.00l-48.00,0.00 q-15.00,0.00 -38.25-18.25t-40.50-41.50t-17.25-36.25l0.00-128.00 q0.00-13.50 8.50-22.75t 23.50-9.25 l 64.00,0.00 q 10.00,0.00 21.00-11.50t 11.00-20.50l0.00-64.00 q0.00-14.50 12.75-23.25t 38.75-8.75q 29.00,0.00 54.00,9.50t 38.50,22.50q 35.50,0.50 55.00,1.50t 42.00,4.50t 31.00,10.00q 13.50,10.50 20.50,16.75t 14.50,15.75t 10.25,21.00t 2.75,26.50l0.00,192.00 zM 385.25,192.00q-13.25,0.00 -22.75,9.50t-9.50,22.50l 51.50,25.50q 12.50-9.50 12.50-25.50q0.00-13.00 -9.25-22.50t-22.50-9.50zM 113.00,96.00l-79.50,0.00 l-0.50-0.50q-1.00-2.00 13.50-21.50 t 27.00-33.50q 12.00-13.00 31.00-27.50t 23.50-13.00l 1.00,2.00l0.00,78.00 q0.00,6.50 -4.50,11.25t-11.50,4.75z" ></path></svg>