<?xml version="1.0" encoding="utf-8"?> <!-- Generator: IcoMoon.io --> <!DOCTYPE svg PUBLIC "-//W3C//DTD SVG 1.1//EN" "http://www.w3.org/Graphics/SVG/1.1/DTD/svg11.dtd"> <svg width="512" height="512" viewBox="0 0 512 512" xmlns="http://www.w3.org/2000/svg" xmlns:xlink="http://www.w3.org/1999/xlink" fill="#000000"><path d="M 256.00,0.00 C 397.385,0.00 512.00,114.615 512.00,256.00 C 512.00,386.547 414.281,494.265 288.00,510.013 L 288.00,320.00 L 376.00,320.00 L 384.00,256.00 L 288.00,256.00 L 288.00,224.00 C 288.00,206.327 302.327,192.00 320.00,192.00 L 384.00,192.00 L 384.00,128.00 L 320.00,128.00 C 266.98,128.00 224.00,170.98 224.00,224.00 L 224.00,256.00 L 176.00,256.00 L 176.00,320.00 L 224.00,320.00 L 224.00,446.50 L 224.00,503.935 L 224.00,510.013 C 97.719,494.265 0.00,386.547 0.00,256.00 C 0.00,114.615 114.615,0.00 256.00,0.00 Z" ></path></svg>