<?xml version="1.0" encoding="utf-8"?> <!-- Generator: IcoMoon.io --> <!DOCTYPE svg PUBLIC "-//W3C//DTD SVG 1.1//EN" "http://www.w3.org/Graphics/SVG/1.1/DTD/svg11.dtd"> <svg width="512" height="512" viewBox="0 0 512 512" xmlns="http://www.w3.org/2000/svg" xmlns:xlink="http://www.w3.org/1999/xlink" fill="#000000"><path d="M 426.672,0.00L 85.342,0.00 C 38.406,0.00,0.00,38.407,0.00,85.344l0.00,341.313 C0.00,473.626, 38.406,512.00, 85.342,512.00l 341.33-0.001 c 46.938,0.00, 85.328-38.373, 85.328-85.344L 512.00,85.344 C 512.00,38.407, 473.609,0.00, 426.672,0.00z M 435.296,256.00L 352.00,256.00 l0.00,224.00 l-96.00,0.00 L 256.00,256.00 l-46.263,0.00 l0.00-73.282 L 256.00,182.718 l0.00-47.593 C 256.00,70.454, 283.896,32.00, 359.935,32.00l 87.622,0.00 l0.00,79.285 l-71.565,0.00 c-21.241-0.035-23.876,11.076-23.876,31.756L 352.00,182.718l 96.00,0.00 L 435.296,256.00z" ></path></svg>