<?xml version="1.0" encoding="utf-8"?> <!-- Generator: IcoMoon.io --> <!DOCTYPE svg PUBLIC "-//W3C//DTD SVG 1.1//EN" "http://www.w3.org/Graphics/SVG/1.1/DTD/svg11.dtd"> <svg width="500.00000000000006" height="500" viewBox="0 0 500 500" xmlns="http://www.w3.org/2000/svg" xmlns:xlink="http://www.w3.org/1999/xlink" fill="#000000"><path d="M 250.00,10.00c-132.55,0.00-240.00,107.45-240.00,240.00s 107.45,240.00, 240.00,240.00s 240.00-107.45, 240.00-240.00S 382.55,10.00, 250.00,10.00z M 306.825,175.85L 270.75,175.85 c-4.25,0.00-9.00,5.625-9.00,13.10l0.00,26.05 l 45.10,0.00 l0.00,37.15 L 261.75,252.15 l0.00,111.525 L 219.15,363.675 l0.00-111.525 L 180.55,252.15 L 180.55,215.025 l 38.60,0.00 L 219.15,193.175 c0.00-31.35, 21.75-56.825, 51.60-56.825l 36.075,0.00 L 306.825,175.85 z" ></path></svg>