<?xml version="1.0" encoding="utf-8"?> <!-- Generator: IcoMoon.io --> <!DOCTYPE svg PUBLIC "-//W3C//DTD SVG 1.1//EN" "http://www.w3.org/Graphics/SVG/1.1/DTD/svg11.dtd"> <svg width="500.00000000000006" height="500" viewBox="0 0 500 500" xmlns="http://www.w3.org/2000/svg" xmlns:xlink="http://www.w3.org/1999/xlink" fill="#000000"><path d="M 106.35,494.05c 7.65-25.025, 19.25-60.275, 34.775-111.275c 67.65-10.925, 95.65,8.725, 138.625-69.60 c-34.875,10.90-76.925-20.225-74.65-33.70c 2.25-13.50, 97.825,9.725, 160.375-80.95c-78.85,17.725-104.10-21.325-93.925-27.225 c 23.475-13.625, 93.175-5.65, 130.325-42.575c 19.15-19.00, 28.10-65.225, 20.325-81.725c-9.375-19.90-66.425-49.60-97.875-46.825 c-31.45,2.80-80.775,122.225-95.40,121.275S 211.375,67.975, 236.90,19.125c-26.925,12.15-76.25,49.975-91.725,82.30 c-28.825,60.15, 2.70,198.075-7.40,203.00c-10.125,4.90-44.15-63.325-54.30-94.25c-13.875,47.40-14.20,94.90, 26.35,158.00 c-15.30,41.40-23.65,89.05-24.925,113.275C 84.30,500.85, 102.975,505.00, 106.35,494.05z" ></path></svg>