<?xml version="1.0" encoding="utf-8"?> <!-- Generator: IcoMoon.io --> <!DOCTYPE svg PUBLIC "-//W3C//DTD SVG 1.1//EN" "http://www.w3.org/Graphics/SVG/1.1/DTD/svg11.dtd"> <svg width="512" height="512" viewBox="0 0 512 512" xmlns="http://www.w3.org/2000/svg" xmlns:xlink="http://www.w3.org/1999/xlink" fill="#000000"><path d="M 256.00,0.00C 114.615,0.00,0.00,114.615,0.00,256.00s 114.615,256.00, 256.00,256.00s 256.00-114.615, 256.00-256.00S 397.385,0.00, 256.00,0.00z M 160.00,384.00 c-17.673,0.00-32.00-14.327-32.00-32.00s 14.327-32.00, 32.00-32.00s 32.00,14.327, 32.00,32.00S 177.673,384.00, 160.00,384.00z M 248.00,384.00c0.00-66.168-53.832-120.00-120.00-120.00l0.00-48.00 c 92.636,0.00, 168.00,75.364, 168.00,168.00L 248.00,384.00 z M 344.00,384.00c0.00-57.695-22.468-111.938-63.265-152.735C 239.938,190.468, 185.696,168.00, 128.00,168.00l0.00-48.00 c 70.517,0.00, 136.813,27.461, 186.677,77.324C 364.539,247.187, 392.00,313.483, 392.00,384.00L 344.00,384.00 z" ></path></svg>