<?xml version="1.0" encoding="utf-8"?> <!-- Generator: IcoMoon.io --> <!DOCTYPE svg PUBLIC "-//W3C//DTD SVG 1.1//EN" "http://www.w3.org/Graphics/SVG/1.1/DTD/svg11.dtd"> <svg width="512" height="512" viewBox="0 0 512 512" xmlns="http://www.w3.org/2000/svg" xmlns:xlink="http://www.w3.org/1999/xlink" fill="#000000"><path d="M 416.00,320.00l 32.00,0.00 l0.00,64.00 l-32.00,0.00 L 416.00,320.00 z M 416.00,416.00l 32.00,0.00 l0.00,64.00 l-32.00,0.00 L 416.00,416.00 z M 416.00,224.00l 32.00,0.00 l0.00,64.00 l-32.00,0.00 L 416.00,224.00 z M 416.00,128.00l 32.00,0.00 l0.00,64.00 l-32.00,0.00 L 416.00,128.00 z M 416.00,32.00l 32.00,0.00 l0.00,64.00 l-32.00,0.00 L 416.00,32.00 z M 64.00,320.00l 32.00,0.00 l0.00,64.00 L 64.00,384.00 L 64.00,320.00 z M 64.00,416.00l 32.00,0.00 l0.00,64.00 L 64.00,480.00 L 64.00,416.00 z M 64.00,224.00l 32.00,0.00 l0.00,64.00 L 64.00,288.00 L 64.00,224.00 z M 64.00,128.00l 32.00,0.00 l0.00,64.00 L 64.00,192.00 L 64.00,128.00 z M 64.00,32.00l 32.00,0.00 l0.00,64.00 L 64.00,96.00 L 64.00,32.00 z M 384.00,288.00l0.00,192.00 L 128.00,480.00 L 128.00,288.00 L 384.00,288.00 z M 128.00,32.00l 256.00,0.00 l0.00,192.00 L 128.00,224.00 L 128.00,32.00 z M 32.00,0.00l0.00,512.00 l 448.00,0.00 L 480.00,0.00 L 32.00,0.00 z" ></path></svg>