<?xml version="1.0" encoding="utf-8"?> <!-- Generator: IcoMoon.io --> <!DOCTYPE svg PUBLIC "-//W3C//DTD SVG 1.1//EN" "http://www.w3.org/Graphics/SVG/1.1/DTD/svg11.dtd"> <svg width="512" height="512" viewBox="0 0 512 512" xmlns="http://www.w3.org/2000/svg" xmlns:xlink="http://www.w3.org/1999/xlink" fill="#000000"><path d="M 256.00,512.00q-69.50,0.00 -128.50-34.25t-93.25-93.25t-34.25-128.50q0.00-52.00 20.25-99.50t 54.50-81.75t 81.75-54.50t 99.50-20.25t 99.50,20.25t 81.75,54.50t 54.50,81.75t 20.25,99.50t-20.25,99.50t-54.50,81.75t-81.75,54.50t-99.50,20.25zM 116.50,81.00q 2.00,3.00 7.50,7.00q 5.00,4.00 14.75,3.75t 15.25,0.25q 12.50-15.50 26.50-23.50q 8.00-5.00 19.75-8.00 t 19.25-3.50l 7.50-1.00q-3.00,3.50 -7.75,9.25t-13.25,21.75t-10.00,30.00q 2.00,2.00 14.25,5.25t 13.75,5.75l 32.00,0.00 q 6.50,0.00 9.00,11.50t-1.50,18.50q-2.50,0.50 -12.75,6.50t-25.25,15.00t-21.50,12.50q-1.00,2.00 -1.50,2.50q-1.00,2.00 1.75,16.75t-1.25,24.75q-0.50,1.00 -2.25,0.25t-5.25-2.75t-6.00-3.00q-4.00-2.00 -8.75-2.50t-4.75,0.00q-5.50,7.50 -8.50,14.00q 1.50,8.50 2.50,10.50 q 6.50,13.50 19.00,25.25t 28.50,13.75q 9.00,1.00 18.25-3.75t 16.00-11.25t 15.75-12.00t 16.50-5.00q 18.50,0.00 30.50,6.25t 12.00,17.25q0.00,3.00 -3.00,5.50l 0.25,0.25t 0.75,0.25q-1.50,1.50 -4.50,2.50t-5.25,1.50t-6.50,0.75t-5.25,0.25q-6.00,1.00 -15.00,12.25t-16.00,13.75q-8.50,3.00 -20.50,12.25t-22.75,15.25t-20.75,4.50q 2.50,3.00 1.00,3.50q-0.50,0.00 2.00,2.50 q 21.50,16.00 58.50,15.50q-8.50,5.00 -24.00,6.50q 9.50,4.00 19.50,6.50q 38.00,2.50 61.50-5.50t 42.00-28.50q-2.00,13.00 -10.00,24.50q 3.50-1.50 7.50-4.00q 24.50-25.00 34.50-46.50t 9.00-45.50l0.00-1.25 l0.00-1.25 q0.00-4.00 -0.50-6.50q 7.50,9.00 10.50,21.00q 1.50-58.50 -12.00-82.00q 19.50,11.50 30.50,32.00q 0.50-59.00 -18.50-97.00q 14.50,10.00 25.50,23.00q-9.50-42.50 -40.00-79.50q-63.50-57.50 -149.00-57.50q-78.00,0.00 -139.50,49.00z" ></path></svg>