<?xml version="1.0" encoding="utf-8"?> <!-- Generator: IcoMoon.io --> <!DOCTYPE svg PUBLIC "-//W3C//DTD SVG 1.1//EN" "http://www.w3.org/Graphics/SVG/1.1/DTD/svg11.dtd"> <svg width="512" height="512" viewBox="0 0 512 512" xmlns="http://www.w3.org/2000/svg" xmlns:xlink="http://www.w3.org/1999/xlink" fill="#000000"><path d="M 426.688,0.00L 85.344,0.00 C 38.406,0.00,0.00,38.406,0.00,85.341l0.00,341.313 C0.00,473.625, 38.406,512.00, 85.344,512.00l 341.341,0.00 C 473.622,512.00, 512.00,473.623, 512.00,426.652L 512.00,85.341 C 512.00,38.406, 473.622,0.00, 426.688,0.00z M 144.00,336.00c-44.183,0.00-80.00-35.817-80.00-80.00 c0.00-44.183, 35.817-80.00, 80.00-80.00s 80.00,35.817, 80.00,80.00C 224.00,300.183, 188.183,336.00, 144.00,336.00z M 368.00,336.00c-44.184,0.00-80.00-35.817-80.00-80.00 c0.00-44.183, 35.816-80.00, 80.00-80.00s 80.00,35.817, 80.00,80.00C 448.00,300.183, 412.184,336.00, 368.00,336.00z" ></path></svg>