<?xml version="1.0" encoding="utf-8"?> <!-- Generator: IcoMoon.io --> <!DOCTYPE svg PUBLIC "-//W3C//DTD SVG 1.1//EN" "http://www.w3.org/Graphics/SVG/1.1/DTD/svg11.dtd"> <svg width="512" height="512" viewBox="0 0 512 512" xmlns="http://www.w3.org/2000/svg" xmlns:xlink="http://www.w3.org/1999/xlink" fill="#000000"><path d="M 496.00,384.00l-480.00,0.00 q-6.50,0.00 -11.25-4.75t-4.75-11.25q0.00-94.00 58.25-160.25t 149.75-79.75q 6.50,0.00 11.25-4.75t 4.75-11.25t-4.75-11.25t-11.25-4.75t-11.25-4.75t-4.75-11.25t 4.75-11.25t 11.25-4.75l 96.00,0.00 q 6.50,0.00 11.25,4.75t 4.75,11.25t-4.75,11.25t-11.25,4.75t-11.25,4.75t-4.75,11.25t 4.75,11.25t 11.25,4.75 q 91.50,13.50 149.75,79.75t 58.25,160.25q0.00,6.50 -4.75,11.25t-11.25,4.75zM 16.00,416.00l 480.00,0.00 q 6.50,0.00 11.25,4.75t 4.75,11.25t-4.75,11.25t-11.25,4.75l-480.00,0.00 q-6.50,0.00 -11.25-4.75t-4.75-11.25t 4.75-11.25t 11.25-4.75z" ></path></svg>