<?xml version="1.0" encoding="utf-8"?> <!-- Generator: IcoMoon.io --> <!DOCTYPE svg PUBLIC "-//W3C//DTD SVG 1.1//EN" "http://www.w3.org/Graphics/SVG/1.1/DTD/svg11.dtd"> <svg width="512" height="512" viewBox="0 0 512 512" xmlns="http://www.w3.org/2000/svg" xmlns:xlink="http://www.w3.org/1999/xlink" fill="#000000"><path d="M 512.00,293.00q0.00,5.00 -4.25,9.00t-13.00,6.75t-18.00,4.75t-23.50,3.25t-25.00,1.75t-27.25,1.00t-25.25,0.50l-23.75,0.00 l-64.00,0.00 l0.00-64.00 l-0.50,0.00 q-0.50-23.00 -9.00-40.00q 13.50-3.50 25.50-5.00l0.00-15.50 q-48.00-29.00 -48.00-120.00q0.00-37.50 26.75-56.50t 69.25-19.00t 69.25,19.00t 26.75,56.50q0.00,94.50 -48.00,121.50l0.00,14.00 q 50.50,7.00 81.00,28.00t 31.00,54.00zM 208.00,389.00l0.00,14.00 q 50.50,7.00 81.00,28.25t 31.00,53.75q0.00,5.00 -4.25,9.00t-13.00,6.75t-18.00,4.75t-23.50,3.25t-25.00,2.00t-27.25,1.00t-25.25,0.25l-23.75,0.00 l-23.75,0.00 t-25.25-0.25t-27.25-1.00t-25.00-2.00t-23.50-3.25t-18.00-4.75t-13.00-6.75t-4.25-9.00q 0.50-32.50 31.00-53.75t 81.00-28.25l0.00-15.50 q-48.00-29.00 -48.00-120.00q0.00-37.50 26.75-56.50t 69.25-19.00t 69.25,19.00t 26.75,56.50 q0.00,94.50 -48.00,121.50z" ></path></svg>