<?xml version="1.0" encoding="utf-8"?> <!-- Generator: IcoMoon.io --> <!DOCTYPE svg PUBLIC "-//W3C//DTD SVG 1.1//EN" "http://www.w3.org/Graphics/SVG/1.1/DTD/svg11.dtd"> <svg width="500.00000000000006" height="500" viewBox="0 0 500 500" xmlns="http://www.w3.org/2000/svg" xmlns:xlink="http://www.w3.org/1999/xlink" fill="#000000"><path d="M 329.50,282.75c-17.95,0.00-32.50,20.15-32.50,44.975c0.00,24.85, 14.55,45.00, 32.50,45.00s 32.50-20.15, 32.50-45.00 C 361.975,302.875, 347.425,282.75, 329.50,282.75z M 442.65,165.65c 3.70-9.125, 3.875-61.00-15.85-110.65c0.00,0.00-45.30,4.95-113.80,51.975 c-14.375-3.975-38.70-5.95-63.00-5.95c-24.325,0.00-48.625,2.00-63.025,5.95C 118.50,59.95, 73.225,55.00, 73.225,55.00 C 53.50,104.65, 53.65,156.525, 57.375,165.65C 34.175,190.85, 20.00,221.10, 20.00,262.425c0.00,179.65, 149.05,182.525, 186.675,182.525 c 8.525,0.00, 25.475,0.025, 43.35,0.05c 17.875-0.025, 34.825-0.05, 43.30-0.05c 37.65,0.00, 186.675-2.875, 186.675-182.525 C 480.00,221.10, 465.85,190.85, 442.65,165.65z M 250.70,422.875L 249.325,422.875 c-94.30,0.00-167.75-11.25-167.75-102.90c0.00-21.95, 7.775-42.325, 26.15-59.225 c 30.725-28.175, 82.65-13.25, 141.60-13.25c 0.225,0.00, 0.475,0.00, 0.70-0.025c 0.25,0.00, 0.475,0.025, 0.675,0.025c 58.95,0.00, 110.90-14.925, 141.60,13.25 c 18.375,16.90, 26.125,37.275, 26.125,59.225C 418.425,411.625, 345.025,422.875, 250.70,422.875z M 170.525,282.75c-17.95,0.00-32.50,20.15-32.50,44.975 c0.00,24.85, 14.55,45.00, 32.50,45.00s 32.50-20.15, 32.50-45.00C 203.025,302.875, 188.475,282.75, 170.525,282.75z" ></path></svg>