<?xml version="1.0" encoding="utf-8"?> <!-- Generator: IcoMoon.io --> <!DOCTYPE svg PUBLIC "-//W3C//DTD SVG 1.1//EN" "http://www.w3.org/Graphics/SVG/1.1/DTD/svg11.dtd"> <svg width="512" height="512" viewBox="0 0 512 512" xmlns="http://www.w3.org/2000/svg" xmlns:xlink="http://www.w3.org/1999/xlink" fill="#000000"><path d="M 480.00,288.00l-35.00,0.00 q-10.00,60.00 -53.25,103.50t-103.75,53.50l0.00,35.00 q0.00,13.00 -9.25,22.50t-22.50,9.50t-22.75-9.50t-9.50-22.50l0.00-35.00 q-60.50-10.00 -103.75-53.50t-53.25-103.50l-35.00,0.00 q-13.00,0.00 -22.50-9.25t-9.50-22.75t 9.50-22.75t 22.50-9.25l 35.00,0.00 q 10.00-60.00 53.25-103.50t 103.75-53.50l0.00-35.00 q0.00-13.00 9.50-22.50t 22.75-9.50t 22.50,9.50t 9.25,22.50l0.00,35.00 q 60.50,10.00 103.75,53.50t 53.25,103.50l 35.00,0.00 q 13.00,0.00 22.50,9.25t 9.50,22.75t-9.50,22.75t-22.50,9.25zM 256.00,128.00q-53.00,0.00 -90.50,37.50t-37.50,90.50t 37.50,90.50t 90.50,37.50t 90.50-37.50t 37.50-90.50t-37.50-90.50t-90.50-37.50z" ></path></svg>