<?xml version="1.0" encoding="utf-8"?> <!-- Generator: IcoMoon.io --> <!DOCTYPE svg PUBLIC "-//W3C//DTD SVG 1.1//EN" "http://www.w3.org/Graphics/SVG/1.1/DTD/svg11.dtd"> <svg width="512" height="512" viewBox="0 0 512 512" xmlns="http://www.w3.org/2000/svg" xmlns:xlink="http://www.w3.org/1999/xlink" fill="#000000"><path d="M 448.25,320.00q-13.25,0.00 -22.75-9.25t-9.50-22.75l0.00-16.00 q0.00-6.50 -4.50-11.25t-11.25-4.75t-11.50,4.75t-4.75,11.25l0.00,16.00 l0.00,192.00 q0.00,13.50 -9.25,22.75t-22.50,9.25t-22.75-9.25t-9.50-22.75l0.00-208.00 q0.00-6.50 -4.75-11.25t-11.25-4.75t-11.25,4.75t-4.75,11.25l0.00,16.00 l0.00,64.00 q0.00,13.50 -9.25,22.75t-22.50,9.25t-22.75-9.25t-9.50-22.75 l0.00-80.00 q0.00-6.50 -4.75-11.25t-11.25-4.75t-11.25,4.75t-4.75,11.25l0.00,16.00 l0.00,64.00 q0.00,13.50 -9.25,22.75t-22.50,9.25t-22.75-9.25t-9.50-22.75l0.00-80.00 q0.00-6.50 -4.75-11.25t-11.25-4.75t-11.25,4.75t-4.75,11.25l0.00,16.00 l0.00,32.00 q0.00,13.50 -9.25,22.75t-22.50,9.25t-22.75-9.25t-9.50-22.75l0.00-128.00 q0.00-6.00 2.50-10.00l 29.50-118.00q0.00-26.50 18.75-45.25 t 45.25-18.75l 224.00,0.00 q 26.50,0.00 45.25,18.75t 18.75,45.25l 3.00,12.50l 53.00,126.50q 8.00,9.00 8.00,21.00l0.00,1.50 q 0.50,1.50 0.00,4.00l0.00,58.50 q0.00,13.00 -9.25,22.50t-22.50,9.50z" ></path></svg>