<?xml version="1.0" encoding="utf-8"?> <!-- Generator: IcoMoon.io --> <!DOCTYPE svg PUBLIC "-//W3C//DTD SVG 1.1//EN" "http://www.w3.org/Graphics/SVG/1.1/DTD/svg11.dtd"> <svg width="512" height="512" viewBox="0 0 512 512" xmlns="http://www.w3.org/2000/svg" xmlns:xlink="http://www.w3.org/1999/xlink" fill="#000000"><path d="M 448.00,448.00q-18.50,64.00 -64.00,64.00l-224.00,0.00 q-24.00,0.00 -37.75-16.00t-26.25-48.00q-18.50-40.00 -48.00-112.00q-3.50-8.50 -7.50-21.00t-6.50-20.50l-2.00-7.50l0.00-95.00 q0.00-13.50 9.50-22.75t 22.75-9.25t 22.50,9.25t 9.25,22.75l0.00,48.00 q0.00,6.50 4.75,11.25t 11.25,4.75t 11.25-4.75t 4.75-11.25l0.00-176.00 q0.00-13.50 9.50-22.75t 22.75-9.25t 22.50,9.25t 9.25,22.75l0.00,176.00 q0.00,6.50 4.75,11.25t 11.25,4.75t 11.25-4.75t 4.75-11.25l0.00-208.00 q0.00-13.00 9.50-22.50t 22.75-9.50t 22.50,9.50t 9.25,22.50l0.00,208.00 q0.00,6.50 4.75,11.25t 11.25,4.75t 11.25-4.75t 4.75-11.25l0.00-208.00 q0.00-13.00 9.50-22.50t 22.75-9.50t 22.50,9.50t 9.25,22.50l0.00,208.00 q0.00,6.50 4.75,11.25t 11.50,4.75t 11.25-4.75t 4.50-11.25l0.00-144.00 q0.00-13.00 9.50-22.50t 22.75-9.50t 22.50,9.50 t 9.25,22.50l0.00,224.00 q0.00,12.00 -8.00,43.75t-16.00,58.50t-8.00,25.75z" ></path></svg>