<?xml version="1.0" encoding="utf-8"?> <!-- Generator: IcoMoon.io --> <!DOCTYPE svg PUBLIC "-//W3C//DTD SVG 1.1//EN" "http://www.w3.org/Graphics/SVG/1.1/DTD/svg11.dtd"> <svg width="512" height="512" viewBox="0 0 512 512" xmlns="http://www.w3.org/2000/svg" xmlns:xlink="http://www.w3.org/1999/xlink" fill="#000000"><path d="M 256.00,512.00q-52.00,0.00 -99.50-20.25t-81.75-54.50t-54.50-81.75t-20.25-99.50t 20.25-99.50t 54.50-81.75t 81.75-54.50t 99.50-20.25t 99.50,20.25t 81.75,54.50t 54.50,81.75t 20.25,99.50t-20.25,99.50t-54.50,81.75t-81.75,54.50t-99.50,20.25zM 144.00,128.00q-20.00,0.00 -34.00,18.75t-14.00,45.25t 14.00,45.25t 34.00,18.75t 34.00-18.75t 14.00-45.25 t-14.00-45.25t-34.00-18.75zM 368.00,128.00q-20.00,0.00 -34.00,18.75t-14.00,45.25t 14.00,45.25t 34.00,18.75t 34.00-18.75t 14.00-45.25t-14.00-45.25t-34.00-18.75zM 400.00,336.00q-6.50,0.00 -11.25,4.75t-4.75,11.25l-0.50,0.00 q-26.50,20.50 -51.25,26.25t-76.50,5.75t-76.50-5.75t-51.25-26.25q0.00-6.50 -4.75-11.25t-11.25-4.75t-11.25,4.75t-4.75,11.25 q 0.50,1.00 1.50,2.50q 11.50,29.00 54.00,45.25t 104.00,16.25l 0.50,0.00 l0.00,0.00 q 59.00,0.00 100.75-15.00t 55.25-42.00l 4.00-7.00q0.00-6.50 -4.75-11.25t-11.25-4.75z" ></path></svg>