<?xml version="1.0" encoding="utf-8"?> <!-- Generator: IcoMoon.io --> <!DOCTYPE svg PUBLIC "-//W3C//DTD SVG 1.1//EN" "http://www.w3.org/Graphics/SVG/1.1/DTD/svg11.dtd"> <svg width="512" height="512" viewBox="0 0 512 512" xmlns="http://www.w3.org/2000/svg" xmlns:xlink="http://www.w3.org/1999/xlink" fill="#000000"><path d="M 448.00,416.00l-32.00,0.00 l-16.00,0.00 q-6.50,0.00 -11.25-4.75t-4.75-11.25l0.00-160.00 q0.00-6.50 4.75-11.25t 11.25-4.75l 16.00,0.00 q0.00-74.00 -41.25-117.00t-118.75-43.00t-118.75,43.00t-41.25,117.00l 16.00,0.00 q 6.50,0.00 11.25,4.75t 4.75,11.25l0.00,160.00 q0.00,6.50 -4.75,11.25t-11.25,4.75l-16.00,0.00 q0.00,26.50 18.75,45.25t 45.25,18.75l 32.00,0.00 q0.00-13.50 9.25-22.75t 22.75-9.25l 32.00,0.00 q 13.50,0.00 22.75,9.25t 9.25,22.50t-9.25,22.75t-22.75,9.50l-16.00,0.00 l-16.00,0.00 l-64.00,0.00 q-40.00,0.00 -68.00-28.00t-28.00-68.00q-26.50,0.00 -45.25-28.00t-18.75-68.00q0.00-26.00 8.75-48.00t 23.25-34.50l0.00-13.50 q0.00-45.50 17.75-87.00t 47.75-71.50t 71.50-47.75t 87.00-17.75t 87.00,17.75t 71.50,47.75t 47.75,71.50t 17.75,87.00l0.00,13.50 q 14.50,12.50 23.25,34.50t 8.75,48.00 q0.00,40.00 -18.75,68.00t-45.25,28.00z" ></path></svg>