<?xml version="1.0" encoding="utf-8"?> <!-- Generator: IcoMoon.io --> <!DOCTYPE svg PUBLIC "-//W3C//DTD SVG 1.1//EN" "http://www.w3.org/Graphics/SVG/1.1/DTD/svg11.dtd"> <svg width="500.00000000000006" height="500" viewBox="0 0 500 500" xmlns="http://www.w3.org/2000/svg" xmlns:xlink="http://www.w3.org/1999/xlink" fill="#000000"><path d="M 429.725,103.75c-41.80-38.35-109.575-38.35-151.375,0.00L 250.00,129.80L 221.625,103.75c-41.80-38.35-109.55-38.35-151.35,0.00 c-47.025,43.175-47.025,113.10,0.00,156.275L 250.00,425.00l 179.725-164.975C 476.75,216.875, 476.75,146.925, 429.725,103.75z M 403.125,234.375L 250.00,377.225L 96.90,234.375 c-15.45-14.15-21.425-32.80-21.425-52.50c0.00-19.65, 3.45-35.80, 18.90-49.975C 108.00,119.375, 126.325,112.50, 145.925,112.50 c 19.625,0.00, 37.95,11.90, 51.575,24.425L 250.00,182.575L 302.50,136.925C 316.125,124.40, 334.425,112.50, 354.05,112.50s 37.95,6.875, 51.60,19.40 c 15.425,14.175, 18.85,30.325, 18.90,49.975C 424.55,201.55, 418.55,220.225, 403.125,234.375z" ></path></svg>