<?xml version="1.0" encoding="utf-8"?> <!-- Generator: IcoMoon.io --> <!DOCTYPE svg PUBLIC "-//W3C//DTD SVG 1.1//EN" "http://www.w3.org/Graphics/SVG/1.1/DTD/svg11.dtd"> <svg width="512" height="512" viewBox="0 0 512 512" xmlns="http://www.w3.org/2000/svg" xmlns:xlink="http://www.w3.org/1999/xlink" fill="#000000"><path d="M 30.269,0.00l 41.072,460.815L 255.719,512.00l 184.862-51.262L 481.731,0.00L 30.269,0.00 z M 405.381,431.412L 256.768,472.60l0.00,0.233 l-0.388-0.117l-0.391,0.117L 255.989,472.60 l-148.611-41.188L 72.257,37.669l 368.248,0.00 L 405.381,431.412zM 325.377,265.102L 318.842,338.378L 255.874,355.374L 255.737,355.413L 192.806,338.455L 188.781,293.338L 132.036,293.338L 139.951,382.094L 255.737,414.221L 255.797,414.221L 255.874,414.221L 255.989,414.182L 371.66,382.094L 387.18,208.588L 181.197,208.588L 176.046,150.714L 392.117,150.714L 392.313,150.714L 397.369,94.201L 114.26,94.201L 129.509,265.102 z" ></path></svg>