<?xml version="1.0" encoding="utf-8"?> <!-- Generator: IcoMoon.io --> <!DOCTYPE svg PUBLIC "-//W3C//DTD SVG 1.1//EN" "http://www.w3.org/Graphics/SVG/1.1/DTD/svg11.dtd"> <svg width="512" height="512" viewBox="0 0 512 512" xmlns="http://www.w3.org/2000/svg" xmlns:xlink="http://www.w3.org/1999/xlink" fill="#000000"><path d="M 64.00,512.00l0.00-448.00 l 448.00,0.00 l0.00,448.00 l-448.00,0.00 zM 480.00,96.00l-384.00,0.00 l0.00,320.00 l 384.00,0.00 l0.00-320.00 zM 192.00,128.00q 26.50,0.00 45.25,18.75t 18.75,45.25t-18.75,45.25t-45.25,18.75t-45.00-18.75t-19.00-45.25l0.00-0.50 q 0.50-26.50 19.00-45.00t 45.00-18.50zM 215.50,296.50l 87.00,87.50l-174.50,0.00 l0.00-46.50 l 41.00-41.00q 9.00-9.00 23.25-9.00t 23.25,9.00zM 345.00,232.50q 9.00-9.00 23.25-9.00t 23.25,9.00l 56.50,56.50l0.00,95.00 l-100.50,0.00 l-76.50-76.50zM 32.00,448.00l-32.00,0.00 l0.00-448.00 l 448.00,0.00 l0.00,32.00 l-416.00,0.00 l0.00,416.00 z" ></path></svg>