<?xml version="1.0" encoding="utf-8"?> <!-- Generator: IcoMoon.io --> <!DOCTYPE svg PUBLIC "-//W3C//DTD SVG 1.1//EN" "http://www.w3.org/Graphics/SVG/1.1/DTD/svg11.dtd"> <svg width="500.00000000000006" height="500" viewBox="0 0 500 500" xmlns="http://www.w3.org/2000/svg" xmlns:xlink="http://www.w3.org/1999/xlink" fill="#000000"><path d="M 380.00,250.00c0.00,71.80-58.225,130.00-130.00,130.00c-71.80,0.00-130.00-58.20-130.00-130.00c0.00-8.55, 0.85-16.90, 2.45-25.00L 35.00,225.00 l0.00,172.80 c0.00,37.10, 30.05,67.20, 67.20,67.20l 295.60,0.00 c 37.10,0.00, 67.20-30.075, 67.20-67.20L 465.00,225.00 l-87.425,0.00 C 379.15,233.10, 380.00,241.45, 380.00,250.00z M 397.80,35.00 L 102.20,35.00 C 65.075,35.00, 35.00,65.10, 35.00,102.20L 35.00,175.00 l 108.85,0.00 C 167.375,141.75, 206.15,120.00, 250.00,120.00s 82.625,21.75, 106.15,55.00L 465.00,175.00 L 465.00,102.20 C 465.00,65.10, 434.90,35.00, 397.80,35.00z M 430.675,118.00c0.00,6.625-5.40,12.00-12.00,12.00l-35.975,0.00 c-6.60,0.00-12.00-5.40-12.00-12.00L 370.70,82.00 c0.00-6.625, 5.425-12.00, 12.00-12.00l 35.975,0.00 c 6.625,0.00, 12.00,5.40, 12.00,12.00L 430.675,118.00 z M 330.00,250.00c0.00-44.20-35.825-80.00-80.00-80.00S 170.00,205.80, 170.00,250.00 s 35.825,80.00, 80.00,80.00S 330.00,294.20, 330.00,250.00z" ></path></svg>