<?xml version="1.0" encoding="utf-8"?> <!-- Generator: IcoMoon.io --> <!DOCTYPE svg PUBLIC "-//W3C//DTD SVG 1.1//EN" "http://www.w3.org/Graphics/SVG/1.1/DTD/svg11.dtd"> <svg width="512" height="512" viewBox="0 0 512 512" xmlns="http://www.w3.org/2000/svg" xmlns:xlink="http://www.w3.org/1999/xlink" fill="#000000"><path d="M 480.00,192.00l-192.00,0.00 l0.00,32.00 l 128.00,0.00 l 0.25,0.00 l 0.75,0.00 q 17.00,0.50 21.50,5.00l 68.50,47.00q 5.00,5.00 5.00,12.00t-5.00,12.00l-68.50,47.00q-5.00,5.00 -22.50,5.00l-128.00,0.00 l0.00,128.00 q0.00,13.00 -9.25,22.50t-22.75,9.50t-22.75-9.50t-9.25-22.50l0.00-128.00 l-192.00,0.00 q-13.00,0.00 -22.50-9.50t-9.50-22.50l0.00-64.00 q0.00-13.00 9.50-22.50t 22.50-9.50l 192.00,0.00 l0.00-32.00 l-128.00,0.00 q-17.50,0.00 -22.50-5.00l-68.50-47.00q-5.00-5.00 -5.00-12.00 t 5.00-12.00l 68.50-47.00q 4.50-5.00 21.50-5.00l 0.75,0.00 l 0.25,0.00 l 128.00,0.00 l0.00-32.00 q0.00-13.00 9.25-22.50t 22.75-9.50t 22.75,9.50t 9.25,22.50l0.00,32.00 l 192.00,0.00 q 13.00,0.00 22.50,9.25t 9.50,22.75l0.00,64.00 q0.00,13.50 -9.50,22.75t-22.50,9.25z" ></path></svg>