<?xml version="1.0" encoding="utf-8"?> <!-- Generator: IcoMoon.io --> <!DOCTYPE svg PUBLIC "-//W3C//DTD SVG 1.1//EN" "http://www.w3.org/Graphics/SVG/1.1/DTD/svg11.dtd"> <svg width="512" height="512" viewBox="0 0 512 512" xmlns="http://www.w3.org/2000/svg" xmlns:xlink="http://www.w3.org/1999/xlink" fill="#000000"><path d="M 96.00,32.00l 320.00,0.00 l0.00,160.00 L 96.00,192.00 L 96.00,32.00 z M 160.00,352.00c0.00-53.008, 42.992-96.00, 96.00-96.00s 96.00,42.992, 96.00,96.00c0.00,53.024-42.992,96.00-96.00,96.00 S 160.00,405.024, 160.00,352.00z M 64.00,64.00l0.00,384.00 c0.00,32.00, 32.00,64.00, 64.00,64.00l 256.00,0.00 c 32.00,0.00, 64.00-32.00, 64.00-64.00L 448.00,64.00 c0.00-32.00-32.00-64.00-64.00-64.00L 128.00,0.00 C 96.00,0.00, 64.00,32.00, 64.00,64.00z M 224.00,352.00c0.00,17.664, 14.336,32.00, 32.00,32.00s 32.00-14.336, 32.00-32.00 s-14.336-32.00-32.00-32.00S 224.00,334.336, 224.00,352.00z" ></path></svg>