<?xml version="1.0" encoding="utf-8"?> <!-- Generator: IcoMoon.io --> <!DOCTYPE svg PUBLIC "-//W3C//DTD SVG 1.1//EN" "http://www.w3.org/Graphics/SVG/1.1/DTD/svg11.dtd"> <svg width="500.00000000000006" height="500" viewBox="0 0 500 500" xmlns="http://www.w3.org/2000/svg" xmlns:xlink="http://www.w3.org/1999/xlink" fill="#000000"><path d="M 250.00,10.00c-132.55,0.00-240.00,107.45-240.00,240.00s 107.45,240.00, 240.00,240.00s 240.00-107.45, 240.00-240.00S 382.55,10.00, 250.00,10.00z M 316.125,320.75 c-50.05,0.00-67.425-22.75-76.65-51.05L 230.175,240.525C 223.25,219.25, 217.65,203.85, 192.20,203.85c-17.65,0.00-40.65,11.575-40.65,47.45 c0.00,28.00, 19.25,45.50, 39.20,45.50c 16.95,0.00, 27.10-9.525, 32.40-14.275l 8.85,25.275c-6.025,4.375-18.35,12.95-42.675,12.95 c-33.625,0.00-65.625-23.925-65.625-68.25c0.00-46.10, 33.325-73.225, 67.65-73.225c 38.475,0.00, 52.80,14.025, 64.975,51.925l 9.55,29.15 c 6.95,21.325, 21.625,36.775, 50.85,36.775c 19.675,0.00, 30.10-4.40, 30.10-15.15c0.00-8.475-4.925-14.60-19.675-18.10l-19.675-4.675 c-24.025-5.825-33.575-18.375-33.575-38.225c0.00-31.775, 25.475-41.70, 51.525-41.70c 29.525,0.00, 47.45,10.80, 49.75,37.025l-28.925,3.525 c-1.15-12.55-8.675-17.80-22.575-17.80c-12.725,0.00-20.525,5.825-20.525,15.75c0.00,8.775, 3.75,14.025, 16.50,16.925l 18.50,4.075 c 24.875,5.825, 38.20,18.10, 38.20,41.725C 376.325,309.675, 352.00,320.75, 316.125,320.75z" ></path></svg>