<?xml version="1.0" encoding="utf-8"?> <!-- Generator: IcoMoon.io --> <!DOCTYPE svg PUBLIC "-//W3C//DTD SVG 1.1//EN" "http://www.w3.org/Graphics/SVG/1.1/DTD/svg11.dtd"> <svg width="500.00000000000006" height="500" viewBox="0 0 500 500" xmlns="http://www.w3.org/2000/svg" xmlns:xlink="http://www.w3.org/1999/xlink" fill="#000000"><path d="M 196.85,314.425c-10.475,9.40-30.60,28.25-64.10,28.25c-39.525,0.00-77.60-34.65-77.60-90.075c0.00-71.025, 45.50-93.925, 80.45-93.925 c 50.40,0.00, 61.45,30.40, 75.175,72.55l 18.325,57.75c 18.30,55.975, 52.675,101.00, 151.75,101.00c 71.05,0.00, 119.15-21.925, 119.15-79.65 c0.00-46.775-26.375-71.025-75.60-82.575L 387.75,219.70c-25.20-5.775-32.65-16.15-32.65-33.50c0.00-19.625, 15.45-31.175, 40.65-31.175 c 27.50,0.00, 42.375,10.40, 44.675,35.225l 57.275-6.925C 493.125,131.375, 457.625,110.00, 399.20,110.00c-51.55,0.00-101.925,19.625-101.925,82.55 c0.00,39.25, 18.90,64.075, 66.40,75.625l 38.975,9.225c 29.20,6.925, 38.95,19.075, 38.95,35.825c0.00,21.35-20.625,30.00-59.575,30.00 c-57.825,0.00-86.90-30.60-100.625-72.725l-18.925-57.75C 238.425,137.725, 210.025,110.00, 133.85,110.00C 65.95,110.00,0.00,163.70,0.00,254.90 C0.00,342.675, 63.30,390.00, 129.85,390.00c 48.125,0.00, 72.55-16.90, 84.50-25.575L 196.85,314.425z" ></path></svg>