<?xml version="1.0" encoding="utf-8"?> <!-- Generator: IcoMoon.io --> <!DOCTYPE svg PUBLIC "-//W3C//DTD SVG 1.1//EN" "http://www.w3.org/Graphics/SVG/1.1/DTD/svg11.dtd"> <svg width="512" height="512" viewBox="0 0 512 512" xmlns="http://www.w3.org/2000/svg" xmlns:xlink="http://www.w3.org/1999/xlink" fill="#000000"><path d="M 503.00,503.00q-9.00,9.00 -21.50,9.00t-21.50-9.00l-224.50-224.50l-52.50,52.50l0.00,0.50 q 9.00,9.00 9.00,21.75t-9.00,21.75t-21.75,9.00t-21.75-9.00l-130.50-130.50q-9.00-9.00 -9.00-21.75t 9.00-21.75t 21.75-9.00t 21.75,9.00l 0.50,0.50l 148.50-148.50l-0.50-0.50q-9.00-9.00 -9.00-21.75t 9.00-21.75t 21.75-9.00t 21.75,9.00l 130.50,130.50q 9.00,9.00 9.00,21.75t-9.00,21.75 t-21.75,9.00t-21.75-9.00l-0.50-0.50l-52.50,52.50l 224.50,225.00q 9.00,9.00 9.00,21.50t-9.00,21.50zM 168.50,125.00l-43.00,43.50l 90.50,90.50l 43.00-43.00z" ></path></svg>