<?xml version="1.0" encoding="utf-8"?> <!-- Generator: IcoMoon.io --> <!DOCTYPE svg PUBLIC "-//W3C//DTD SVG 1.1//EN" "http://www.w3.org/Graphics/SVG/1.1/DTD/svg11.dtd"> <svg width="512" height="512" viewBox="0 0 512 512" xmlns="http://www.w3.org/2000/svg" xmlns:xlink="http://www.w3.org/1999/xlink" fill="#000000"><path d="M 512.00,144.00q0.00,29.00 -17.50,77.25t-47.00,93.25q-17.50,27.50 -27.75,43.25t-26.75,39.50t-28.00,37.75t-26.75,30.50t-27.75,25.50t-26.75,15.00t-27.75,6.00t-27.75-6.25t-26.75-15.25t-28.00-25.75t-27.00-30.75t-28.00-37.75t-26.75-39.25t-27.25-42.50q-31.00-47.50 -47.75-94.25t-16.75-76.25l0.00,0.00 q0.00-59.50 42.25-101.75t 101.75-42.25 q 33.50,0.00 62.50,14.25t 49.50,39.25q 20.00-25.00 49.25-39.25t 62.75-14.25q 59.50,0.00 101.75,42.25t 42.25,101.75l0.00,0.00 zM 368.00,64.00q-20.50,0.00 -42.50,14.25t-37.50,33.75q-1.50,2.00 -5.75,9.00t-7.00,11.25t-8.25,8.00t-11.00,3.75l0.00,304.00 q 11.50,0.00 23.00-5.75t 20.50-14.25t 20.50-24.00t 19.75-28.25t 21.75-33.75l 22.50-35.00q 29.50-43.50 48.00-88.00t 16.00-75.00q0.00-33.00 -23.50-56.50 t-56.50-23.50z" ></path></svg>