<?xml version="1.0" encoding="utf-8"?> <!-- Generator: IcoMoon.io --> <!DOCTYPE svg PUBLIC "-//W3C//DTD SVG 1.1//EN" "http://www.w3.org/Graphics/SVG/1.1/DTD/svg11.dtd"> <svg width="512" height="512" viewBox="0 0 512 512" xmlns="http://www.w3.org/2000/svg" xmlns:xlink="http://www.w3.org/1999/xlink" fill="#000000"><path d="M 384.00,255.50q-31.50,33.50 -47.75,60.75t-16.25,51.75l0.00,0.00 q0.00,6.50 -4.75,11.25t-11.25,4.75l-96.00,0.00 q-6.50,0.00 -11.25-4.75t-4.75-11.25l0.00,0.00 q0.00-24.50 -16.25-51.75t-47.75-60.75q-32.00-42.50 -32.00-95.50q0.00-43.50 21.50-80.25t 58.25-58.25t 80.25-21.50t 80.25,21.50t 58.25,58.25t 21.50,80.25q0.00,53.00 -32.00,95.50zM 208.00,416.00l 96.00,0.00 q 6.50,0.00 11.25,4.75t 4.75,11.25t-4.75,11.25t-11.25,4.75l-96.00,0.00 q-6.50,0.00 -11.25-4.75t-4.75-11.25t 4.75-11.25t 11.25-4.75zM 256.00,512.00q-26.50,0.00 -45.25-9.50t-18.75-22.50l 128.00,0.00 q0.00,13.00 -18.75,22.50t-45.25,9.50z" ></path></svg>