<?xml version="1.0" encoding="utf-8"?> <!-- Generator: IcoMoon.io --> <!DOCTYPE svg PUBLIC "-//W3C//DTD SVG 1.1//EN" "http://www.w3.org/Graphics/SVG/1.1/DTD/svg11.dtd"> <svg width="512" height="512" viewBox="0 0 512 512" xmlns="http://www.w3.org/2000/svg" xmlns:xlink="http://www.w3.org/1999/xlink" fill="#000000"><path d="M 426.00,0.00L 86.00,0.00 C 38.70,0.00,0.00,38.70,0.00,86.00l0.00,340.00 c0.00,47.30, 38.70,86.00, 86.00,86.00l 340.00,0.00 c 47.30,0.00, 86.00-38.70, 86.00-86.00L 512.00,86.00 C 512.00,38.70, 473.30,0.00, 426.00,0.00z M 192.00,416.00l-64.00,0.00 L 128.00,192.00 l 64.00,0.00 L 192.00,416.00 z M 160.00,160.00c-17.673,0.00-32.00-14.327-32.00-32.00s 14.327-32.00, 32.00-32.00s 32.00,14.327, 32.00,32.00S 177.673,160.00, 160.00,160.00z M 416.00,416.00l-64.00,0.00 L 352.00,288.00 c0.00-17.673-14.327-32.00-32.00-32.00s-32.00,14.327-32.00,32.00l0.00,128.00 l-64.00,0.00 L 224.00,192.00 l 64.00,0.00 l0.00,39.736 C 301.199,213.604, 321.376,192.00, 344.00,192.00c 39.765,0.00, 72.00,35.817, 72.00,80.00 L 416.00,416.00 z" ></path></svg>