<?xml version="1.0" encoding="utf-8"?> <!-- Generator: IcoMoon.io --> <!DOCTYPE svg PUBLIC "-//W3C//DTD SVG 1.1//EN" "http://www.w3.org/Graphics/SVG/1.1/DTD/svg11.dtd"> <svg width="500.00000000000006" height="500" viewBox="0 0 500 500" xmlns="http://www.w3.org/2000/svg" xmlns:xlink="http://www.w3.org/1999/xlink" fill="#000000"><path d="M 196.475,367.35l-20.25,20.10c-17.55,17.375-46.075,17.40-63.60,0.00c-8.425-8.375-13.05-19.45-13.05-31.275 s 4.65-22.925, 13.05-31.30l 74.50-73.925c 15.425-15.325, 44.475-37.85, 65.65-16.85c 9.725,9.65, 25.425,9.575, 35.05-0.125 c 9.65-9.70, 9.60-25.40-0.125-35.05c-35.975-35.70-89.175-29.10-135.50,16.85l-74.50,73.925C 59.85,307.45, 50.00,331.05, 50.00,356.175 c0.00,25.10, 9.85,48.70, 27.725,66.45C 96.125,440.90, 120.275,450.00, 144.425,450.00s 48.35-9.10, 66.75-27.375l 20.25-20.125 c 9.725-9.65, 9.775-25.35, 0.125-35.025C 221.90,357.775, 206.20,357.725, 196.475,367.35z M 422.275,80.225 c-38.65-38.35-92.675-40.425-128.475-4.925l-25.225,25.025c-9.725,9.65-9.80,25.325-0.15,35.05c 9.675,9.725, 25.35,9.775, 35.05,0.125 l 25.225-25.025c 18.525-18.40, 42.80-10.775, 58.65,4.925c 8.425,8.35, 13.05,19.475, 13.05,31.275c0.00,11.825-4.65,22.925-13.05,31.275 l-79.50,78.85c-36.325,36.05-53.40,19.15-60.675,11.925c-9.725-9.65-25.40-9.575-35.025,0.125c-9.65,9.725-9.60,25.425, 0.125,35.05 c 16.675,16.55, 35.75,24.75, 55.70,24.75c 24.45,0.00, 50.275-12.30, 74.825-36.675l 79.475-78.85C 440.15,195.40, 450.00,171.80, 450.00,146.70 S 440.15,97.975, 422.275,80.225z" ></path></svg>