<?xml version="1.0" encoding="utf-8"?> <!-- Generator: IcoMoon.io --> <!DOCTYPE svg PUBLIC "-//W3C//DTD SVG 1.1//EN" "http://www.w3.org/Graphics/SVG/1.1/DTD/svg11.dtd"> <svg width="512" height="512" viewBox="0 0 512 512" xmlns="http://www.w3.org/2000/svg" xmlns:xlink="http://www.w3.org/1999/xlink" fill="#000000"><path d="M 480.00,288.00l-256.00,0.00 q-13.00,0.00 -22.50-9.25t-9.50-22.50t 9.50-22.75t 22.50-9.50l 256.00,0.00 q 13.00,0.00 22.50,9.50t 9.50,22.75t-9.50,22.50t-22.50,9.25zM 480.00,96.00l-256.00,0.00 q-13.00,0.00 -22.50-9.25t-9.50-22.50t 9.50-22.75t 22.50-9.50l 256.00,0.00 q 13.00,0.00 22.50,9.50t 9.50,22.75t-9.50,22.50t-22.50,9.25zM 96.00,512.00l-64.00,0.00 q-13.50,0.00 -22.75-9.50t-9.25-22.50l0.00-64.00 q0.00-13.00 9.25-22.50t 22.75-9.50l 64.00,0.00 q 13.00,0.00 22.50,9.50t 9.50,22.50l0.00,64.00 q0.00,13.50 -9.50,22.75t-22.50,9.25zM 96.00,320.00l-64.00,0.00 q-13.50,0.00 -22.75-9.25t-9.25-22.75l0.00-64.00 q0.00-13.00 9.25-22.50t 22.75-9.50l 64.00,0.00 q 13.00,0.00 22.50,9.50t 9.50,22.50l0.00,64.00 q0.00,13.50 -9.50,22.75t-22.50,9.25zM 96.00,128.00l-64.00,0.00 q-13.50,0.00 -22.75-9.25t-9.25-22.75l0.00-64.00 q0.00-13.00 9.25-22.50t 22.75-9.50l 64.00,0.00 q 13.00,0.00 22.50,9.50 t 9.50,22.50l0.00,64.00 q0.00,13.50 -9.50,22.75t-22.50,9.25zM 224.00,416.00l 256.00,0.00 q 13.00,0.00 22.50,9.50t 9.50,22.75t-9.50,22.50t-22.50,9.25l-256.00,0.00 q-13.50,0.00 -22.75-9.25t-9.25-22.50t 9.25-22.75t 22.75-9.50z" ></path></svg>