<?xml version="1.0" encoding="utf-8"?> <!-- Generator: IcoMoon.io --> <!DOCTYPE svg PUBLIC "-//W3C//DTD SVG 1.1//EN" "http://www.w3.org/Graphics/SVG/1.1/DTD/svg11.dtd"> <svg width="500.00000000000006" height="500" viewBox="0 0 500 500" xmlns="http://www.w3.org/2000/svg" xmlns:xlink="http://www.w3.org/1999/xlink" fill="#000000"><path d="M 425.00,25.00L 200.00,25.00 C 172.50,25.00, 150.50,47.50, 150.50,75.00l0.00,75.00 L 200.00,150.00 L 200.00,75.00 l 225.00,0.00 l0.00,350.00 L 200.00,425.00 l0.00-50.00 L 150.50,375.00 l0.00,50.00 c0.00,27.50, 22.00,50.00, 49.50,50.00l 225.00,0.00 c 27.50,0.00, 50.00-22.50, 50.00-50.00L 475.00,75.00 C 475.00,47.50, 452.50,25.00, 425.00,25.00z M 250.00,360.00l 100.00-97.50l-100.00-97.50L 250.00,225.00 L 25.00,225.00 l0.00,75.00 l 225.00,0.00 L 250.00,360.00 z" ></path></svg>