<?xml version="1.0" encoding="utf-8"?> <!-- Generator: IcoMoon.io --> <!DOCTYPE svg PUBLIC "-//W3C//DTD SVG 1.1//EN" "http://www.w3.org/Graphics/SVG/1.1/DTD/svg11.dtd"> <svg width="500.00000000000006" height="500" viewBox="0 0 500 500" xmlns="http://www.w3.org/2000/svg" xmlns:xlink="http://www.w3.org/1999/xlink" fill="#000000"><path d="M 275.525,425.00L 74.50,425.00 L 74.50,75.00 l 201.00,0.00 l0.00,75.00 L 325.00,150.00 L 325.00,75.00 c0.00-27.50-22.475-50.00-50.00-50.00L 75.00,25.00 C 47.50,25.00, 25.00,47.50, 25.00,75.00l0.00,350.00 c0.00,27.50, 22.50,50.00, 50.00,50.00l 200.00,0.00 c 27.525,0.00, 50.00-22.50, 50.00-50.00l0.00-50.00 l-49.475,0.00 L 275.525,425.00 z M 475.00,262.50l-99.475-97.50L 375.525,225.00 l-225.00,0.00 l0.00,75.00 l 225.00,0.00 l0.00,60.00 L 475.00,262.50z" ></path></svg>