<?xml version="1.0" encoding="utf-8"?> <!-- Generator: IcoMoon.io --> <!DOCTYPE svg PUBLIC "-//W3C//DTD SVG 1.1//EN" "http://www.w3.org/Graphics/SVG/1.1/DTD/svg11.dtd"> <svg width="512" height="512" viewBox="0 0 512 512" xmlns="http://www.w3.org/2000/svg" xmlns:xlink="http://www.w3.org/1999/xlink" fill="#000000"><path d="M 447.50,512.00l-383.50,0.00 q-13.50,0.00 -22.75-9.25t-9.25-22.75l0.00-447.50 q0.00-13.50 9.25-22.75t 22.75-9.25l 224.00,0.00 l0.00,127.50 l-176.00,0.00 q-6.50,0.00 -11.25,4.50t-4.75,11.50l0.00,32.00 q0.00,6.50 4.75,11.25t 11.25,4.75l 367.50,0.50l0.00,0.50 l0.00,287.00 q0.00,13.50 -9.25,22.75t-22.75,9.25zM 431.50,272.00q0.00-7.00 -4.50-11.50t-11.00-4.50l-304.00,0.00 q-6.50,0.00 -11.25,4.50t-4.75,11.50l0.00,32.00 q0.00,6.50 4.75,11.25t 11.25,4.75l 304.00,0.00 q 6.50,0.00 11.00-4.75t 4.50-11.25l0.00-32.00 zM 431.50,399.50q0.00-6.50 -4.50-11.25t-11.00-4.75l-304.00,0.00 q-6.50,0.00 -11.25,4.75t-4.75,11.25l0.00,32.00 q0.00,7.00 4.75,11.50t 11.25,4.50l 304.00,0.00 q 6.50,0.00 11.00-4.50t 4.50-11.50l0.00-32.00 zM 320.00,0.00q 13.00,0.00 22.00,9.00l 128.00,128.50q 9.50,9.50 9.50,23.00l-159.50,0.00 l0.00-160.50 z" ></path></svg>