<?xml version="1.0" encoding="utf-8"?> <!-- Generator: IcoMoon.io --> <!DOCTYPE svg PUBLIC "-//W3C//DTD SVG 1.1//EN" "http://www.w3.org/Graphics/SVG/1.1/DTD/svg11.dtd"> <svg width="512" height="512" viewBox="0 0 512 512" xmlns="http://www.w3.org/2000/svg" xmlns:xlink="http://www.w3.org/1999/xlink" fill="#000000"><path d="M 426.671,0.00L 85.343,0.00 C 38.406,0.00,0.00,38.405,0.00,85.345l0.00,341.311 C0.00,473.625, 38.406,512.00, 85.343,512.00l 341.328,0.00 C 473.609,512.00, 512.00,473.625, 512.00,426.655L 512.00,85.345 C 512.00,38.405, 473.609,0.00, 426.671,0.00z M 426.671,64.00c 3.994,0.00, 7.773,1.167, 11.01,3.171 L 256.00,217.373L 74.323,67.173C 77.562,65.168, 81.345,64.00, 85.343,64.00L 426.671,64.00 z M 85.343,448.00c-0.962,0.00-1.91-0.073-2.842-0.204 l 112.813-156.483l-14.628-14.627L 64.00,393.371L 64.00,87.802 L 256.00,320.00L 448.00,87.803l0.00,305.568 L 331.314,276.686l-14.627,14.627l 112.814,156.484 c-0.929,0.13-1.873,0.203-2.831,0.203L 85.343,448.00 z" ></path></svg>