<?xml version="1.0" encoding="utf-8"?> <!-- Generator: IcoMoon.io --> <!DOCTYPE svg PUBLIC "-//W3C//DTD SVG 1.1//EN" "http://www.w3.org/Graphics/SVG/1.1/DTD/svg11.dtd"> <svg width="512" height="512" viewBox="0 0 512 512" xmlns="http://www.w3.org/2000/svg" xmlns:xlink="http://www.w3.org/1999/xlink" fill="#000000"><path d="M 352.00,512.00l0.00-192.00 l 160.00-64.00l0.00,192.00 zM 352.00,64.00l 160.00-64.00l0.00,224.00 l-160.00,64.00l0.00-224.00 zM 192.00,256.00l 128.00,64.00l0.00,192.00 l-128.00-64.00l0.00-192.00 zM 192.00,0.00l 128.00,64.00l0.00,224.00 l-128.00-64.00l0.00-224.00 zM0.00,320.00l 160.00-64.00l0.00,192.00 l-160.00,64.00l0.00-192.00 zM0.00,64.00l 160.00-64.00l0.00,224.00 l-160.00,64.00l0.00-224.00 z" ></path></svg>