<?xml version="1.0" encoding="utf-8"?> <!-- Generator: IcoMoon.io --> <!DOCTYPE svg PUBLIC "-//W3C//DTD SVG 1.1//EN" "http://www.w3.org/Graphics/SVG/1.1/DTD/svg11.dtd"> <svg width="512" height="512" viewBox="0 0 512 512" xmlns="http://www.w3.org/2000/svg" xmlns:xlink="http://www.w3.org/1999/xlink" fill="#000000"><path d="M 512.00,31.50l-109.50,191.00q-39.50-43.50 -96.50-57.00l 76.50-134.00q 7.50-13.00 22.00-22.50t 28.00-9.50l 64.50,0.00 q 13.50,0.00 18.00,9.50t-3.00,22.50zM 420.50,352.00q0.00,43.50 -21.25,80.25t-58.25,58.25t-80.50,21.50t-80.50-21.50t-58.25-58.25t-21.25-80.25t 21.25-80.50t 58.25-58.50t 80.50-21.50t 80.50,21.50t 58.25,58.50t 21.25,80.50zM 324.50,304.00q0.00-25.00 -17.50-36.75 t-46.50-11.75l-48.00,0.00 q-6.50,0.00 -11.25,4.75t-4.75,11.50t 4.75,11.50t 11.25,4.75l 48.00,0.00 q 1.50,0.00 4.50-0.50q 7.50,0.00 11.00,0.25t 8.25,1.75t 6.50,5.00t 1.75,9.25t-1.75,9.25t-6.50,5.00t-8.25,1.75t-11.00,0.25l-4.50,0.00 l-16.00,0.00 q-6.50,0.00 -11.25,4.50t-4.75,11.25t 4.75,11.50t 11.25,4.75l 16.00,0.00 q 13.50,0.00 22.75,9.25t 9.25,22.50t-9.25,22.75t-22.75,9.50l-48.00,0.00 l0.00,0.00 q-6.50,0.00 -11.25,4.75t-4.75,11.25t 4.75,11.25t 11.25,4.75l0.00,0.00 l 48.00,0.00 q 26.50,0.00 45.25-18.75t 18.75-45.25q0.00-29.00 -22.00-48.00q 3.00-2.50 8.75-7.00t 7.75-6.50t 3.75-7.00t 1.75-11.50zM 9.00,31.50q-7.50-13.00 -3.00-22.50t 18.00-9.50l 64.50,0.00 q 13.50,0.00 28.00,9.50t 22.00,22.50l 76.50,134.00q-57.00,13.50 -96.50,57.00z" ></path></svg>