<?xml version="1.0" encoding="utf-8"?> <!-- Generator: IcoMoon.io --> <!DOCTYPE svg PUBLIC "-//W3C//DTD SVG 1.1//EN" "http://www.w3.org/Graphics/SVG/1.1/DTD/svg11.dtd"> <svg width="512" height="512" viewBox="0 0 512 512" xmlns="http://www.w3.org/2000/svg" xmlns:xlink="http://www.w3.org/1999/xlink" fill="#000000"><path d="M 512.00,31.50l-109.50,191.00q-40.00-43.50 -96.50-57.00l 76.50-134.00q 7.50-13.00 22.00-22.50t 28.00-9.50l 64.50,0.00 q 13.50,0.00 18.00,9.50t-3.00,22.50zM 420.50,352.00q0.00,43.50 -21.25,80.25t-58.25,58.25t-80.50,21.50t-80.50-21.50t-58.25-58.25t-21.25-80.25t 21.25-80.50t 58.25-58.50t 80.50-21.50t 80.50,21.50t 58.25,58.50t 21.25,80.50zM 9.00,31.50q-7.50-13.00 -3.00-22.50t 18.00-9.50 l 64.50,0.00 q 13.50,0.00 28.00,9.50t 22.00,22.50l 76.50,134.00q-57.00,13.50 -96.50,57.00z" ></path></svg>