<?xml version="1.0" encoding="utf-8"?> <!-- Generator: IcoMoon.io --> <!DOCTYPE svg PUBLIC "-//W3C//DTD SVG 1.1//EN" "http://www.w3.org/Graphics/SVG/1.1/DTD/svg11.dtd"> <svg width="500.00000000000006" height="500" viewBox="0 0 500 500" xmlns="http://www.w3.org/2000/svg" xmlns:xlink="http://www.w3.org/1999/xlink" fill="#000000"><path d="M 346.925,0.00L 153.075,0.00 C 125.00,0.00, 102.05,22.95, 102.05,51.025l0.00,397.95 C 102.05,477.025, 125.00,500.00, 153.075,500.00l 193.85,0.00 c 28.075,0.00, 51.025-22.975, 51.025-51.025 L 397.95,51.025 C 397.95,22.95, 375.00,0.00, 346.925,0.00z M 250.00,479.60c-19.70,0.00-35.70-11.425-35.70-25.525s 16.00-25.525, 35.70-25.525 c 19.725,0.00, 35.70,11.425, 35.70,25.525S 269.725,479.60, 250.00,479.60z M 357.125,403.05L 142.85,403.05 L 142.85,66.325 l 214.275,0.00 L 357.125,403.05 z" ></path></svg>