<?xml version="1.0" encoding="utf-8"?> <!-- Generator: IcoMoon.io --> <!DOCTYPE svg PUBLIC "-//W3C//DTD SVG 1.1//EN" "http://www.w3.org/Graphics/SVG/1.1/DTD/svg11.dtd"> <svg width="512" height="512" viewBox="0 0 512 512" xmlns="http://www.w3.org/2000/svg" xmlns:xlink="http://www.w3.org/1999/xlink" fill="#000000"><path d="M 384.00,511.50q-22.50,0.50 -112.00,0.50t-112.00-0.50q-63.50-1.50 -95.75-8.50t-32.25-23.50q0.00-10.00 10.00-40.25t 22.00-63.50t 22.00-76.50t 10.00-75.75q0.00-96.00 176.00-96.00t 176.00,96.00q0.00,32.50 10.00,75.75t 22.00,76.50t 22.00,63.50t 10.00,40.25q0.00,16.50 -32.25,23.50t-95.75,8.50zM 272.00,239.50q 34.00,0.00 56.75,8.00t 23.25,23.50l0.00,0.50 q0.00,6.50 4.75,11.25t 11.25,4.75 t 11.25-4.75t 4.75-11.25q0.00-58.50 -96.00-63.50l0.00-16.50 q0.00-6.50 -4.75-11.25t-11.25-4.75t-11.25,4.75t-4.75,11.25l0.00,16.50 q-96.00,5.00 -96.00,63.50q0.00,11.00 3.25,19.00t 10.50,13.25t 15.75,8.50t 22.50,4.75t 27.00,2.00t 33.00,0.50q 34.50,0.00 57.25,8.25t 22.75,23.75t-22.75,23.75t-57.25,8.25q-34.00,0.00 -56.75-8.00t-23.25-23.50l0.00-0.50 q0.00-6.50 -4.75-11.25 t-11.25-4.75t-11.25,4.75t-4.75,11.25q0.00,58.50 96.00,63.50l0.00,16.50 q0.00,6.50 4.75,11.25t 11.25,4.75t 11.25-4.75t 4.75-11.25l0.00-16.50 q 96.00-5.00 96.00-63.50q0.00-64.00 -112.00-64.00q-7.00,0.00 -17.50,0.25t-17.00,0.50t-14.50,0.00t-13.00-1.25t-9.50-2.75t-6.50-5.00t-2.00-7.75q0.00-15.50 23.00-23.75t 57.00-8.25zM 272.00,95.50q-30.00,0.00 -55.00,3.00q-10.50-21.00 -17.75-40.75 t-7.25-26.25q0.00-8.00 13.00-16.00q 12.00,7.00 30.50,11.50t 36.50,4.50t 36.50-4.50t 30.50-11.50q 13.00,8.00 13.00,16.00q0.00,6.50 -7.25,26.25t-17.75,40.75q-25.00-3.00 -55.00-3.00z" ></path></svg>