<?xml version="1.0" encoding="utf-8"?> <!-- Generator: IcoMoon.io --> <!DOCTYPE svg PUBLIC "-//W3C//DTD SVG 1.1//EN" "http://www.w3.org/Graphics/SVG/1.1/DTD/svg11.dtd"> <svg width="512" height="512" viewBox="0 0 512 512" xmlns="http://www.w3.org/2000/svg" xmlns:xlink="http://www.w3.org/1999/xlink" fill="#000000"><path d="M 512.00,192.00q0.00,21.00 -4.50,38.00t-11.00,29.75t-20.00,22.25t-24.25,16.00t-31.75,10.75t-34.75,6.50t-40.75,3.25t-42.50,1.25t-46.50,0.25t-46.50-0.25t-42.50-1.25t-40.75-3.25t-34.75-6.50t-31.75-10.75t-24.25-16.00t-20.00-22.25t-11.00-29.75t-4.50-38.00q0.00-35.00 19.50-69.25t 54.00-61.75l-9.50-29.00l 92.00-15.50q 48.00-16.50 100.00-16.50q 90.00,0.00 162.50,47.00 l 29.50-15.00l 48.00,96.00l-0.50,0.50q 16.50,32.00 16.50,63.50zM 470.50,145.00l-22.50,15.00l-96.00-80.00l 34.00-17.00q-59.50-31.00 -130.00-31.00q-39.50,0.00 -78.00,10.50l 14.00,21.50l-96.00,64.00l-12.50-37.00q-24.50,20.50 -38.00,45.00t-13.50,49.50q0.00,41.50 23.00,65.00l 9.00-26.50l 96.00,32.00l-18.50,28.00q 34.50,4.00 114.50,4.00q 46.00,0.00 68.00-0.50l 12.00-47.50l 80.00-16.00l 23.00,40.50q 41.00-23.50 41.00-79.00q0.00-20.00 -9.50-40.50z M 192.00,176.00l 32.00-80.00l 96.00,32.00l-16.00,64.00zM 110.00,489.50q-46.00-18.00 -46.00-41.50l-32.00-128.00q 26.50,13.50 66.00,21.00zM 192.00,508.50q-26.00-3.50 -49.00-9.00l-13.00-153.00q 28.00,3.50 62.00,4.50l0.00,157.50 zM 288.00,352.00l0.00,159.00 q-17.00,1.00 -32.00,1.00t-32.00-1.00l0.00-159.00 l 32.00,0.00 l 32.00,0.00 zM 369.00,499.50q-23.00,5.50 -49.00,9.00l0.00-157.50 q 34.00-1.00 62.00-4.50zM 480.00,320.00l-32.00,128.00q0.00,23.50 -46.00,41.50l 12.00-148.50 q 39.50-7.50 66.00-21.00z" ></path></svg>