<?xml version="1.0" encoding="utf-8"?> <!-- Generator: IcoMoon.io --> <!DOCTYPE svg PUBLIC "-//W3C//DTD SVG 1.1//EN" "http://www.w3.org/Graphics/SVG/1.1/DTD/svg11.dtd"> <svg width="512" height="512" viewBox="0 0 512 512" xmlns="http://www.w3.org/2000/svg" xmlns:xlink="http://www.w3.org/1999/xlink" fill="#000000"><path d="M 320.00,160.00c0.00-16.00, 48.00-32.00, 64.00-32.00s 32.00,16.00, 32.00,32.00l0.00,128.00 c0.00,16.00-16.00,32.00-32.00,32.00s-64.00-16.00-64.00-32.00L 320.00,160.00 z M0.00,32.00l0.00,384.00 c0.00,32.00, 32.00,64.00, 64.00,64.00l 192.00,0.00 c 32.00,0.00, 64.00-32.00, 64.00-64.00l0.00-32.00 l 96.00,0.00 c 32.00,0.00, 64.00-32.00, 64.00-64.00L 480.00,128.00 c0.00-32.00-32.00-64.00-64.00-64.00l-96.00,0.00 L 320.00,32.00 L0.00,32.00 z" ></path></svg>