<?xml version="1.0" encoding="utf-8"?> <!-- Generator: IcoMoon.io --> <!DOCTYPE svg PUBLIC "-//W3C//DTD SVG 1.1//EN" "http://www.w3.org/Graphics/SVG/1.1/DTD/svg11.dtd"> <svg width="512" height="512" viewBox="0 0 512 512" xmlns="http://www.w3.org/2000/svg" xmlns:xlink="http://www.w3.org/1999/xlink" fill="#000000"><path d="M 448.25,256.00q-26.25,0.00 -55.00-8.00t-60.75-16.00t-66.25-8.00t-101.00,16.50t-95.25,15.50q-98.50-3.00 -58.50-64.00q 15.00-23.00 32.25-44.75t 45.25-49.75t 57.25-48.25t 68.25-34.50t 78.50-14.25q 50.50,0.00 92.25,15.00t 69.25,41.00t 42.50,61.00t 15.00,74.50q0.00,31.00 -18.75,47.50t-45.00,16.50zM 266.50,256.00q 24.50,0.00 50.00,4.50q-17.50,88.50 3.50,203.50 q 4.00,20.00 -0.75,34.00t-18.25,14.00l-103.50,0.00 q-14.50,0.00 -25.75-13.25t-11.75-31.25q-3.00-106.50 29.00-200.50q 46.50-11.00 77.50-11.00z" ></path></svg>