<?xml version="1.0" encoding="utf-8"?> <!-- Generator: IcoMoon.io --> <!DOCTYPE svg PUBLIC "-//W3C//DTD SVG 1.1//EN" "http://www.w3.org/Graphics/SVG/1.1/DTD/svg11.dtd"> <svg width="512" height="512" viewBox="0 0 512 512" xmlns="http://www.w3.org/2000/svg" xmlns:xlink="http://www.w3.org/1999/xlink" fill="#000000"><path d="M 480.00,106.496L 472.576,0.00L 124.432,108.704L 128.00,200.08l0.00,157.824 c-9.312-1.376-18.56-1.568-27.12-0.496C 59.024,362.592,0.00,403.12,0.00,446.896c0.00,47.088, 67.136,73.232, 114.336,62.864 c 44.544-9.808, 94.208-56.656, 87.424-96.88L 192.00,387.232L 192.00,200.08 l 224.00-75.968l0.00,172.816 c-12.72-3.024-25.76-4.064-37.504-2.592 c-41.84,5.168-100.88,45.712-100.88,89.456c0.00,47.088, 67.136,73.248, 114.336,62.88c 44.56-9.792, 94.208-56.656, 87.424-96.88L 480.00,324.848L 480.00,106.496 z" ></path></svg>