<?xml version="1.0" encoding="utf-8"?> <!-- Generator: IcoMoon.io --> <!DOCTYPE svg PUBLIC "-//W3C//DTD SVG 1.1//EN" "http://www.w3.org/Graphics/SVG/1.1/DTD/svg11.dtd"> <svg width="500.00000000000006" height="500" viewBox="0 0 500 500" xmlns="http://www.w3.org/2000/svg" xmlns:xlink="http://www.w3.org/1999/xlink" fill="#000000"><path d="M 458.025,238.025l-186.55-123.75C 257.15,104.725, 245.40,111.75, 245.40,129.875l0.00,240.225 c0.00,18.15, 11.75,25.175, 26.075,15.60l 186.55-123.725 c0.00,0.00, 6.975-5.00, 6.975-11.975S 458.025,238.025, 458.025,238.025z M 231.15,238.025L 51.05,114.25C 36.75,104.725, 25.025,111.75, 25.025,129.875l0.00,240.225 c0.00,18.15, 11.725,25.175, 26.05,15.60l 180.10-123.725c0.00,0.00, 6.975-5.00, 6.975-11.975S 231.15,238.025, 231.15,238.025z" ></path></svg>