<?xml version="1.0" encoding="utf-8"?> <!-- Generator: IcoMoon.io --> <!DOCTYPE svg PUBLIC "-//W3C//DTD SVG 1.1//EN" "http://www.w3.org/Graphics/SVG/1.1/DTD/svg11.dtd"> <svg width="512" height="512" viewBox="0 0 512 512" xmlns="http://www.w3.org/2000/svg" xmlns:xlink="http://www.w3.org/1999/xlink" fill="#000000"><path d="M 482.75,192.00q-13.25,0.00 -22.75-9.50t-9.50-22.50l0.00-52.00 l-107.00,107.50q-9.50,9.00 -22.25,9.00t-21.75-9.25t-9.00-22.00t 9.00-21.75l 108.00-107.50l-53.00,0.00 q-13.00,0.00 -22.50-9.50t-9.50-22.75t 9.50-22.50t 22.50-9.25l 128.00,0.00 q 13.50,0.00 22.75,9.25t 9.25,22.75l0.00,128.00 q0.00,13.00 -9.25,22.50t-22.50,9.50zM 326.50,402.00l 43.50-43.50q 7.50-7.00 26.25-6.00t 38.00,6.00t 31.75,11.00 q 28.00,13.00 41.00,32.75t 1.50,31.25l-53.00,53.00q-22.00,22.00 -58.75,24.75t-79.75-11.50t-91.00-45.25t-91.50-74.50t-74.50-91.50t-45.25-90.75t-11.50-79.50t 24.75-58.75l 53.00-53.00q 10.50-10.50 27.75,2.00t 36.75,40.50q 9.00,13.50 14.50,48.25t-4.00,47.75l-43.50,43.50q 9.00,32.50 47.50,80.00t 86.00,86.25t 80.50,47.25z" ></path></svg>