<?xml version="1.0" encoding="utf-8"?> <!-- Generator: IcoMoon.io --> <!DOCTYPE svg PUBLIC "-//W3C//DTD SVG 1.1//EN" "http://www.w3.org/Graphics/SVG/1.1/DTD/svg11.dtd"> <svg width="512" height="512" viewBox="0 0 512 512" xmlns="http://www.w3.org/2000/svg" xmlns:xlink="http://www.w3.org/1999/xlink" fill="#000000"><path d="M 271.75,512.00q-47.75,0.00 -88.25-23.25t-64.00-63.25t-23.50-87.50l0.00-210.00 q0.00-53.00 37.50-90.50t 90.50-37.50t 90.50,37.50t 37.50,90.50l0.00,176.00 q0.00,33.00 -23.50,56.50t-56.50,23.50t-56.50-23.50t-23.50-56.50l0.00-80.00 q0.00-13.50 9.25-22.75t 22.50-9.25t 22.75,9.25t 9.50,22.75l0.00,80.00 q0.00,6.50 4.75,11.25t 11.25,4.75t 11.25-4.75t 4.75-11.25l0.00-176.00 q0.00-64.00 -64.00-64.00 t-64.00,64.00l0.00,205.00 q0.00,47.50 32.75,81.25t 79.25,33.75t 79.25-33.75t 32.75-81.25l0.00-141.00 q0.00-13.50 9.25-22.75t 22.50-9.25t 22.75,9.50t 9.50,22.50l0.00,146.00 q0.00,47.50 -23.75,87.50t-64.25,63.25t-88.25,23.25z" ></path></svg>