<?xml version="1.0" encoding="utf-8"?> <!-- Generator: IcoMoon.io --> <!DOCTYPE svg PUBLIC "-//W3C//DTD SVG 1.1//EN" "http://www.w3.org/Graphics/SVG/1.1/DTD/svg11.dtd"> <svg width="512" height="512" viewBox="0 0 512 512" xmlns="http://www.w3.org/2000/svg" xmlns:xlink="http://www.w3.org/1999/xlink" fill="#000000"><path d="M 320.00,384.00q-37.00,0.00 -64.00-17.50l0.00,81.50 q0.00,26.50 -18.75,45.25t-45.25,18.75l-32.00,0.00 q-26.50,0.00 -45.25-18.75t-18.75-45.25q0.00-1.50 0.25-3.50t 2.00-7.50t 4.75-9.75t 9.50-7.75t 15.50-3.50l 4.75,0.00 l 4.75,0.00 t 4.25-0.25t 4.50-0.50l 3.75-0.75t 3.50-1.25t 2.50-2.00t 2.25-2.75t 1.25-3.75t 0.50-4.75l0.00-208.00 q0.00-13.50 9.25-22.75t 22.75-9.25l 32.00,0.00 q 13.50,0.00 22.75,9.25t 9.25,22.75l0.00,64.00 q0.00,14.00 19.25,23.00t 44.75,9.00q 38.50,0.00 67.25-26.00t 28.75-70.00q0.00-31.00 -21.75-53.00t-57.50-32.50t-80.75-10.50q-34.50,0.00 -62.50,7.00t-50.50,21.75t-34.75,40.00t-12.25,59.25q0.00,18.00 19.50,44.50l-75.50,75.50q-40.00-55.00 -40.00-120.00q0.00-46.50 14.50-84.50t 38.75-63.50t 57.50-43.00t 69.50-25.25t 75.75-7.75q 39.00,0.00 75.75,7.50t 69.50,23.25t 57.50,38.25 t 39.00,54.00t 14.25,69.00q0.00,40.50 -12.25,75.00t-35.50,60.75t-60.50,41.25t-83.75,15.00z" ></path></svg>