<?xml version="1.0" encoding="utf-8"?> <!-- Generator: IcoMoon.io --> <!DOCTYPE svg PUBLIC "-//W3C//DTD SVG 1.1//EN" "http://www.w3.org/Graphics/SVG/1.1/DTD/svg11.dtd"> <svg width="512" height="512" viewBox="0 0 512 512" xmlns="http://www.w3.org/2000/svg" xmlns:xlink="http://www.w3.org/1999/xlink" fill="#000000"><path d="M 120.688,160.00c0.00-16.00, 16.00-32.00, 32.00-32.00L 198.40,128.00 c 16.00,0.00, 32.00,16.00, 32.00,32.00l0.00,192.00 c0.00,16.00-16.00,32.00-32.00,32.00L 152.688,384.00 c-16.00,0.00-32.00-16.00-32.00-32.00L 120.688,160.00 z M 281.60,160.00c0.00-16.00, 16.00-32.00, 32.00-32.00l 45.712,0.00 c 16.00,0.00, 32.00,16.00, 32.00,32.00l0.00,192.00 c0.00,16.00-16.00,32.00-32.00,32.00L 313.60,384.00 c-16.00,0.00-32.00-16.00-32.00-32.00L 281.60,160.00 z M0.00,256.00c0.00,141.392, 114.608,256.00, 256.00,256.00s 256.00-114.608, 256.00-256.00 c0.00-141.376-114.608-256.00-256.00-256.00S0.00,114.624,0.00,256.00z" ></path></svg>