<?xml version="1.0" encoding="utf-8"?> <!-- Generator: IcoMoon.io --> <!DOCTYPE svg PUBLIC "-//W3C//DTD SVG 1.1//EN" "http://www.w3.org/Graphics/SVG/1.1/DTD/svg11.dtd"> <svg width="512" height="512" viewBox="0 0 512 512" xmlns="http://www.w3.org/2000/svg" xmlns:xlink="http://www.w3.org/1999/xlink" fill="#000000"><path d="M 510.00,217.00q-12.50,60.50 -61.00,97.75t-112.00,37.25l-96.00,0.00 q-19.00,0.00 -32.00,16.00l-30.50,127.00q-1.50,7.00 -7.75,12.00t-13.25,5.00l-79.00,0.00 q-7.00,0.00 -10.75-5.00t-2.25-12.00l 3.50-15.00l 56.50,0.00 q 7.00,0.00 13.25-5.00t 7.75-12.00l 30.50-127.00q 13.00-16.00 32.00-16.00l 96.00,0.00 q 63.50,0.00 112.00-37.25t 61.00-97.75q 2.50-11.50 3.00-24.50l0.00-0.50 l0.00-53.50 l 1.25,1.00t 1.75,1.50q 18.00,21.00 25.25,49.00 t 0.75,59.00zM 273.00,288.00l-96.00,0.00 q-19.00,0.00 -32.00,16.00l-30.50,127.00q-1.50,7.00 -7.75,12.00t-13.25,5.00l-79.00,0.00 q-7.00,0.00 -10.75-5.00t-2.25-12.00l 95.00-410.00q 1.50-6.50 11.25-13.75t 17.25-7.25q 151.00,1.50 169.50,1.50q 32.00,0.00 71.00,12.75t 54.50,30.75q 18.00,21.00 25.25,49.00t 0.75,59.00q-12.50,60.50 -61.00,97.75t-112.00,37.25zM 273.00,96.00l-48.00,0.00 q-16.00,0.00 -21.25,3.25t-10.75,12.75l-16.00,61.00q-2.00,6.50 6.25,12.75t 15.25,6.25q 5.00,0.00 21.50-0.50t 20.50-0.50q 36.00,0.00 57.50-15.25t 21.50-39.25q0.00-20.50 -10.75-30.50t-35.75-10.00z" ></path></svg>