<?xml version="1.0" encoding="utf-8"?> <!-- Generator: IcoMoon.io --> <!DOCTYPE svg PUBLIC "-//W3C//DTD SVG 1.1//EN" "http://www.w3.org/Graphics/SVG/1.1/DTD/svg11.dtd"> <svg width="500.00000000000006" height="500" viewBox="0 0 500 500" xmlns="http://www.w3.org/2000/svg" xmlns:xlink="http://www.w3.org/1999/xlink" fill="#000000"><path d="M 421.375,120.875c 6.80,12.85, 10.175,28.725, 10.175,47.80c0.00,43.30-18.25,78.25-54.70,104.775c-36.50,26.55-87.475,39.80-152.95,39.80 L 208.575,313.25 c-11.525,0.00-23.05,9.05-25.625,20.125l-18.40,78.475c-2.575,11.10-14.10,20.175-25.625,20.175L 105.375,432.025 l-3.00,12.825 C 99.775,455.925, 107.075,465.00, 118.575,465.00l 53.725,0.00 c 11.525,0.00, 23.075-9.05, 25.60-20.15l 18.425-78.50c 2.60-11.025, 14.10-20.10, 25.625-20.10l 15.325,0.00 c 65.475,0.00, 116.45-13.25, 152.925-39.825C 446.725,279.925, 465.00,245.00, 465.00,201.65c0.00-19.075-3.375-34.95-10.175-47.775 c-6.775-12.75-16.65-23.15-29.525-31.075C 423.925,121.975, 422.80,121.65, 421.375,120.875z M 131.075,378.85l 18.425-78.50 c 2.60-11.025, 14.075-20.10, 25.625-20.10l 15.325,0.00 c 65.475,0.00, 116.45-13.25, 152.925-39.825c 36.475-26.525, 54.725-61.45, 54.725-104.775 c0.00-19.075-3.375-34.95-10.20-47.775c-6.775-12.75-16.65-23.15-29.50-31.075c-13.175-8.05-28.65-13.65-46.575-16.925 C 293.90,36.65, 272.875,35.00, 248.725,35.00L 136.85,35.00 c-11.55,0.00-23.075,9.00-25.675,20.10L 35.525,378.825c-2.60,11.10, 4.70,20.175, 16.20,20.175 l 53.725,0.00 C 117.00,399.00, 128.55,389.95, 131.075,378.85z M 174.975,191.025l 16.15-68.725C 193.725,111.225, 205.25,102.175, 216.725,102.175l 17.60,0.00 c 20.475,0.00, 36.025,3.45, 46.425,10.30c 10.425,6.80, 15.65,17.275, 15.65,31.50c0.00,21.475-8.125,38.075-24.25,49.725 c-16.15,11.625-38.60,17.50-67.60,17.50L 191.25,211.20 C 179.70,211.20, 172.425,202.10, 174.975,191.025z" ></path></svg>