<?xml version="1.0" encoding="utf-8"?> <!-- Generator: IcoMoon.io --> <!DOCTYPE svg PUBLIC "-//W3C//DTD SVG 1.1//EN" "http://www.w3.org/Graphics/SVG/1.1/DTD/svg11.dtd"> <svg width="512" height="512" viewBox="0 0 512 512" xmlns="http://www.w3.org/2000/svg" xmlns:xlink="http://www.w3.org/1999/xlink" fill="#000000"><path d="M 480.002,144.003L 368.003,32.004L 400.003,0.004L 512.002,112.003zM 448.00,176.00 L 432.00,352.00 C 288.00,352.00 80.00,512.00 80.00,512.00 L 53.435,485.435 L 190.267,348.603 C 195.754,350.787 201.734,352.00 208.00,352.00 C 234.51,352.00 256.00,330.51 256.00,304.00 C 256.00,277.49 234.51,256.00 208.00,256.00 C 181.49,256.00 160.00,277.49 160.00,304.00 C 160.00,310.266 161.213,316.245 163.397,321.733 L 26.565,458.565 L 0.00,432.00 C 0.00,432.00 160.00,224.00 160.00,80.00 L 336.00,64.00 L 448.00,176.00 Z" ></path></svg>