<?xml version="1.0" encoding="utf-8"?> <!-- Generator: IcoMoon.io --> <!DOCTYPE svg PUBLIC "-//W3C//DTD SVG 1.1//EN" "http://www.w3.org/Graphics/SVG/1.1/DTD/svg11.dtd"> <svg width="512" height="512" viewBox="0 0 512 512" xmlns="http://www.w3.org/2000/svg" xmlns:xlink="http://www.w3.org/1999/xlink" fill="#000000"><path d="M 156.50,144.50l-44.00,43.50q 9.00,32.50 47.50,80.25t 86.25,86.25t 80.75,47.50l 43.50-43.50q 7.50-7.50 26.50-6.25t 38.25,6.00t 31.75,10.75q 28.00,13.50 41.00,33.25t 1.50,30.75l-53.50,53.50q-21.50,22.00 -58.50,24.75t-80.00-11.50t-91.00-45.25t-91.50-74.50t-74.75-91.75t-45.50-91.25t-11.50-79.75t 24.75-58.25l 53.50-53.50q 10.50-10.50 27.50,2.25t 36.50,40.25 q 9.50,13.50 15.00,48.50t-4.00,48.00z" ></path></svg>