<?xml version="1.0" encoding="utf-8"?> <!-- Generator: IcoMoon.io --> <!DOCTYPE svg PUBLIC "-//W3C//DTD SVG 1.1//EN" "http://www.w3.org/Graphics/SVG/1.1/DTD/svg11.dtd"> <svg width="352" height="448" viewBox="0 0 352 448" xmlns="http://www.w3.org/2000/svg" xmlns:xlink="http://www.w3.org/1999/xlink" fill="#000000"><path d="M 352.00,310.00q0.00,6.75 -2.50,17.625t-5.25,17.125q-5.25,12.50 -30.50,26.50q-23.50,12.75 -46.50,12.75q-6.75,0.00 -13.125-0.875t-14.375-3.125t-11.875-3.625t-13.875-5.125t-12.25-4.50q-24.50-8.75 -43.75-20.75q-32.00-19.75 -66.125-53.875t-53.875-66.125q-12.00-19.25 -20.75-43.75q-0.75-2.25 -4.50-12.25t-5.125-13.875t-3.625-11.875t-3.125-14.375t-0.875-13.125 q0.00-23.00 12.75-46.50q 14.00-25.25 26.50-30.50q 6.25-2.75 17.125-5.25t 17.625-2.50q 3.50,0.00 5.25,0.75q 4.50,1.50 13.25,19.00q 2.75,4.75 7.50,13.50t 8.75,15.875t 7.75,13.375q 0.75,1.00 4.375,6.25t 5.375,8.875t 1.75,7.125q0.00,5.00 -7.125,12.50t-15.50,13.75t-15.50,13.25t-7.125,11.50q0.00,2.25 1.25,5.625t 2.125,5.125t 3.50,6.00t 2.875,4.75q 19.00,34.25 43.50,58.75t 58.75,43.50 q 0.50,0.25 4.75,2.875t 6.00,3.50t 5.125,2.125t 5.625,1.25q 4.50,0.00 11.50-7.125t 13.25-15.50t 13.75-15.50t 12.50-7.125q 3.50,0.00 7.125,1.75t 8.875,5.375t 6.25,4.375q 6.25,3.75 13.375,7.75t 15.875,8.75t 13.50,7.50q 17.50,8.75 19.00,13.25q 0.75,1.75 0.75,5.25z" ></path></svg>