<?xml version="1.0" encoding="utf-8"?> <!-- Generator: IcoMoon.io --> <!DOCTYPE svg PUBLIC "-//W3C//DTD SVG 1.1//EN" "http://www.w3.org/Graphics/SVG/1.1/DTD/svg11.dtd"> <svg width="512" height="512" viewBox="0 0 512 512" xmlns="http://www.w3.org/2000/svg" xmlns:xlink="http://www.w3.org/1999/xlink" fill="#000000"><path d="M 245.296,316.16c-0.416-0.288-48.544-81.20-48.704-82.24c-9.952-21.744-17.984-43.984-1.248-53.856l-69.456-117.12 C 107.888,76.40, 56.976,149.424, 152.272,314.912c 100.384,174.40, 195.92,167.152, 215.072,155.344l-67.68-114.32 C 283.664,365.344, 270.192,349.84, 245.296,316.16z M 413.792,425.872l 0.016-0.096c0.00,0.00-52.848-89.056-52.88-89.088 c-4.192-7.056-13.20-9.28-20.224-5.184l-32.384,19.152l 67.872,114.656c0.00,0.00, 32.384-19.056, 32.368-19.12l 0.064,0.00 C 416.064,441.776, 417.776,432.656, 413.792,425.872z M 236.576,155.776L 236.576,155.712 c 7.44-4.40, 9.184-13.52, 5.20-20.24l 0.032-0.096 c0.00,0.00-54.368-91.664-54.40-91.68c-4.176-7.088-13.216-9.28-20.208-5.184L 134.816,57.664l 69.376,117.184C 204.192,174.848, 236.56,155.824, 236.576,155.776 z" ></path></svg>