<?xml version="1.0" encoding="utf-8"?> <!-- Generator: IcoMoon.io --> <!DOCTYPE svg PUBLIC "-//W3C//DTD SVG 1.1//EN" "http://www.w3.org/Graphics/SVG/1.1/DTD/svg11.dtd"> <svg width="512" height="512" viewBox="0 0 512 512" xmlns="http://www.w3.org/2000/svg" xmlns:xlink="http://www.w3.org/1999/xlink" fill="#000000"><path d="M 448.00,480.00l0.00,16.00 q0.00,6.50 -4.75,11.25t-11.25,4.75l-32.00,0.00 q-6.50,0.00 -11.25-4.75t-4.75-11.25l0.00-16.00 l-256.00,0.00 l0.00,16.00 q0.00,6.50 -4.75,11.25t-11.25,4.75l-32.00,0.00 q-6.50,0.00 -11.25-4.75t-4.75-11.25l0.00-16.00 q-26.50,0.00 -45.25-18.75t-18.75-45.25l0.00-32.00 q0.00-35.00 18.25-72.25t 48.50-62.50t 61.25-25.25q 13.00,0.00 22.50-9.25t 9.50-22.75l0.00-32.00 q0.00-13.00 9.25-22.50 t 22.75-9.50t 22.75,9.50t 9.25,22.50l 64.00,0.00 q0.00-13.00 9.25-22.50t 22.75-9.50t 22.75,9.50t 9.25,22.50l0.00,32.00 q0.00,13.50 9.25,22.75t 22.75,9.25q 31.00,0.00 61.25,25.25t 48.50,62.50t 18.25,72.25l0.00,32.00 q0.00,26.50 -18.75,45.25t-45.25,18.75zM 256.00,256.00q-40.00,0.00 -68.00,28.25t-28.00,68.00t 28.00,67.75t 68.00,28.00t 68.00-28.00t 28.00-68.00t-28.00-68.00 t-68.00-28.00zM 256.00,416.00q-26.50,0.00 -45.25-18.75t-18.75-45.25t 18.75-45.25t 45.25-18.75t 45.25,18.75t 18.75,45.25t-18.75,45.25t-45.25,18.75zM 448.00,192.00l-16.25,0.00 t-14.25-0.50t-13.75-1.50t-10.00-2.75t-7.50-4.50t-2.25-6.75l0.00-51.50 q-12.50-11.00 -50.00-19.75t-78.00-8.75t-78.00,8.75t-50.00,19.75l0.00,51.50 q0.00,4.00 -2.25,6.75t-7.50,4.50 t-10.00,2.75t-13.75,1.50t-14.25,0.50l-16.25,0.00 l-17.50,0.00 t-14.50-0.50t-13.50-1.50t-9.50-2.75t-7.00-4.50t-2.00-6.75l0.00-43.50 q0.00-31.00 34.75-54.25t 92.25-34.75t 129.00-11.50t 129.00,11.50t 92.25,34.75t 34.75,54.25l0.00,43.50 q0.00,4.00 -2.00,6.75t-7.00,4.50t-9.50,2.75t-13.50,1.50t-14.50,0.50l-17.50,0.00 z" ></path></svg>