<?xml version="1.0" encoding="utf-8"?> <!-- Generator: IcoMoon.io --> <!DOCTYPE svg PUBLIC "-//W3C//DTD SVG 1.1//EN" "http://www.w3.org/Graphics/SVG/1.1/DTD/svg11.dtd"> <svg width="512" height="512" viewBox="0 0 512 512" xmlns="http://www.w3.org/2000/svg" xmlns:xlink="http://www.w3.org/1999/xlink" fill="#000000"><path d="M 448.00,512.00l-384.00,0.00 q-26.50,0.00 -45.25-18.75t-18.75-45.25l0.00-16.00 q0.00-6.50 4.75-11.25t 11.25-4.75l 112.00,0.00 q 26.50,0.00 45.25-18.75t 18.75-45.25l0.00-304.00 q0.00-6.50 4.75-11.25t 11.25-4.75l 240.00,0.00 q 26.50,0.00 45.25,18.75t 18.75,45.25l0.00,352.00 q0.00,26.50 -18.75,45.25t-45.25,18.75zM 320.00,432.00q0.00,6.50 4.75,11.25t 11.25,4.75l 32.00,0.00 q 6.50,0.00 11.25-4.75t 4.75-11.25l0.00-32.00 q0.00-6.50 -4.75-11.25t-11.25-4.75l-32.00,0.00 q-6.50,0.00 -11.25,4.75t-4.75,11.25l0.00,32.00 zM 320.00,336.00q0.00,6.50 4.75,11.25t 11.25,4.75l 32.00,0.00 q 6.50,0.00 11.25-4.75t 4.75-11.25l0.00-32.00 q0.00-6.50 -4.75-11.25t-11.25-4.75l-32.00,0.00 q-6.50,0.00 -11.25,4.75t-4.75,11.25l0.00,32.00 zM 320.00,240.00q0.00,6.50 4.75,11.25t 11.25,4.75l 32.00,0.00 q 6.50,0.00 11.25-4.75t 4.75-11.25l0.00-32.00 q0.00-6.50 -4.75-11.25t-11.25-4.75l-32.00,0.00 q-6.50,0.00 -11.25,4.75t-4.75,11.25l0.00,32.00 zM 224.00,432.00q0.00,6.50 4.75,11.25t 11.25,4.75l 32.00,0.00 q 6.50,0.00 11.25-4.75t 4.75-11.25l0.00-32.00 q0.00-6.50 -4.75-11.25t-11.25-4.75l-32.00,0.00 q-6.50,0.00 -11.25,4.75t-4.75,11.25l0.00,32.00 zM 224.00,336.00q0.00,6.50 4.75,11.25t 11.25,4.75l 32.00,0.00 q 6.50,0.00 11.25-4.75t 4.75-11.25l0.00-32.00 q0.00-6.50 -4.75-11.25t-11.25-4.75l-32.00,0.00 q-6.50,0.00 -11.25,4.75t-4.75,11.25l0.00,32.00 zM 224.00,240.00q0.00,6.50 4.75,11.25t 11.25,4.75l 32.00,0.00 q 6.50,0.00 11.25-4.75t 4.75-11.25l0.00-32.00 q0.00-6.50 -4.75-11.25t-11.25-4.75l-32.00,0.00 q-6.50,0.00 -11.25,4.75t-4.75,11.25l0.00,32.00 zM 480.00,112.00q0.00-6.50 -4.75-11.25t-11.25-4.75l-224.00,0.00 q-6.50,0.00 -11.25,4.75t-4.75,11.25 l0.00,32.00 q0.00,6.50 4.75,11.25t 11.25,4.75l 224.00,0.00 q 6.50,0.00 11.25-4.75t 4.75-11.25l0.00-32.00 zM 480.00,208.00q0.00-6.50 -4.75-11.25t-11.25-4.75l-32.00,0.00 q-6.50,0.00 -11.25,4.75t-4.75,11.25l0.00,32.00 q0.00,6.50 4.75,11.25t 11.25,4.75l 32.00,0.00 q 6.50,0.00 11.25-4.75t 4.75-11.25l0.00-32.00 zM 480.00,304.00q0.00-6.50 -4.75-11.25t-11.25-4.75l-32.00,0.00 q-6.50,0.00 -11.25,4.75t-4.75,11.25 l0.00,32.00 q0.00,6.50 4.75,11.25t 11.25,4.75l 32.00,0.00 q 6.50,0.00 11.25-4.75t 4.75-11.25l0.00-32.00 zM 480.00,400.00q0.00-6.50 -4.75-11.25t-11.25-4.75l-32.00,0.00 q-6.50,0.00 -11.25,4.75t-4.75,11.25l0.00,32.00 q0.00,6.50 4.75,11.25t 11.25,4.75l 32.00,0.00 q 6.50,0.00 11.25-4.75t 4.75-11.25l0.00-32.00 zM 128.00,384.00l-96.00,0.00 q-13.00,0.00 -22.50-9.25t-9.50-22.75l0.00-320.00 q0.00-13.00 9.50-22.50t 22.50-9.50l 96.00,0.00 q 13.00,0.00 22.50,9.50t 9.50,22.50l0.00,320.00 q0.00,13.50 -9.25,22.75t-22.75,9.25z" ></path></svg>