<?xml version="1.0" encoding="utf-8"?> <!-- Generator: IcoMoon.io --> <!DOCTYPE svg PUBLIC "-//W3C//DTD SVG 1.1//EN" "http://www.w3.org/Graphics/SVG/1.1/DTD/svg11.dtd"> <svg width="512" height="512" viewBox="0 0 512 512" xmlns="http://www.w3.org/2000/svg" xmlns:xlink="http://www.w3.org/1999/xlink" fill="#000000"><path d="M 426.688,0.00L 85.344,0.00 C 38.406,0.00,0.00,38.406,0.00,85.341l0.00,341.313 C0.00,473.625, 38.406,512.00, 85.344,512.00l 341.34,0.00 C 473.622,512.00, 512.00,473.623, 512.00,426.652L 512.00,85.341 C 512.00,38.406, 473.622,0.00, 426.688,0.00z M 256.00,32.00c 34.357,0.00, 66.902,7.745, 96.00,21.569L 352.00,197.13 L 195.221,40.351C 214.549,34.914, 234.934,32.00, 256.00,32.00z M 32.00,256.00c0.00-87.944, 50.688-164.037, 124.437-200.693L 213.13,112.00L 34.643,290.487 C 32.906,279.245, 32.00,267.729, 32.00,256.00z M 128.00,439.831c-37.342-26.049-66.382-63.174-82.336-106.625L 128.00,250.87L 128.00,439.831 z M 256.00,480.00 c-34.357,0.00-66.902-7.745-96.00-21.569L 160.00,384.00 l 279.831,0.00 C 399.353,442.026, 332.116,480.00, 256.00,480.00z M 458.431,352.00L 384.00,352.00 L 384.00,72.168 c 58.026,40.479, 96.00,107.715, 96.00,183.832C 480.00,290.357, 472.255,322.902, 458.431,352.00z" ></path></svg>