<?xml version="1.0" encoding="utf-8"?> <!-- Generator: IcoMoon.io --> <!DOCTYPE svg PUBLIC "-//W3C//DTD SVG 1.1//EN" "http://www.w3.org/Graphics/SVG/1.1/DTD/svg11.dtd"> <svg width="512" height="512" viewBox="0 0 512 512" xmlns="http://www.w3.org/2000/svg" xmlns:xlink="http://www.w3.org/1999/xlink" fill="#000000"><path d="M 352.00,197.13 L 169.772,14.902 C 196.717,5.264 225.742,0.00 256.00,0.00 C 289.952,0.00 322.352,6.625 352.00,18.628 L 352.00,197.13 ZM 384.00,352.00 L 384.00,34.257 C 460.517,78.521 512.00,161.246 512.00,256.00 C 512.00,289.952 505.375,322.352 493.372,352.00 L 384.00,352.00 ZM 160.00,384.00 L 477.743,384.00 C 433.479,460.517 350.754,512.00 256.00,512.00 C 222.048,512.00 189.648,505.375 160.00,493.372 L 160.00,384.00 ZM 213.13,112.00 L 7.489,317.641 C 2.607,297.896 0.00,277.254 0.00,256.00 C 0.00,159.309 53.613,75.149 132.726,31.596 L 213.13,112.00 ZM 128.00,250.87 L 128.00,477.743 C 80.702,450.382 42.982,408.319 21.063,357.807 L 128.00,250.87 Z" ></path></svg>