<?xml version="1.0" encoding="utf-8"?> <!-- Generator: IcoMoon.io --> <!DOCTYPE svg PUBLIC "-//W3C//DTD SVG 1.1//EN" "http://www.w3.org/Graphics/SVG/1.1/DTD/svg11.dtd"> <svg width="512" height="512" viewBox="0 0 512 512" xmlns="http://www.w3.org/2000/svg" xmlns:xlink="http://www.w3.org/1999/xlink" fill="#000000"><path d="M 256.00,384.00c-16.00,0.00-32.00-16.00-32.00-32.00l0.00-64.00 l-64.00,0.00 c-16.00,0.00-32.00-16.00-32.00-32.00s 16.00-32.00, 32.00-32.00l 64.00,0.00 l0.00-64.00 c0.00-16.00, 16.00-32.00, 32.00-32.00s 32.00,16.00, 32.00,32.00l0.00,64.00 l 64.00,0.00 c 16.00,0.00, 32.00,16.00, 32.00,32.00s-16.00,32.00-32.00,32.00l-64.00,0.00 l0.00,64.00 C 288.00,368.00, 272.00,384.00, 256.00,384.00z M0.00,256.00c0.00,141.392, 114.624,256.00, 256.00,256.00c 141.376,0.00, 256.00-114.608, 256.00-256.00S 397.376,0.00, 256.00,0.00 C 114.624,0.00,0.00,114.608,0.00,256.00z" ></path></svg>