<?xml version="1.0" encoding="utf-8"?> <!-- Generator: IcoMoon.io --> <!DOCTYPE svg PUBLIC "-//W3C//DTD SVG 1.1//EN" "http://www.w3.org/Graphics/SVG/1.1/DTD/svg11.dtd"> <svg width="512" height="512" viewBox="0 0 512 512" xmlns="http://www.w3.org/2000/svg" xmlns:xlink="http://www.w3.org/1999/xlink" fill="#000000"><path d="M 288.00,413.50l0.00,66.50 q0.00,13.50 -9.50,22.75t-22.75,9.25t-22.50-9.25t-9.25-22.75l0.00-66.50 q-53.50-8.00 -97.50-39.00t-69.25-79.00t-25.25-103.50q0.00-13.00 9.25-22.50t 22.75-9.50l 384.00,0.00 q 13.00,0.00 22.50,9.50t 9.50,22.50q0.00,55.50 -25.25,103.50t-69.25,79.25t-97.50,38.75zM 352.00,128.00l0.00-96.00 q0.00-13.00 9.25-22.50t 22.50-9.50t 22.75,9.50t 9.50,22.50l0.00,96.00 l-64.00,0.00 z M 96.00,128.00l0.00-96.00 q0.00-13.00 9.25-22.50t 22.50-9.50t 22.75,9.50t 9.50,22.50l0.00,96.00 l-64.00,0.00 z" ></path></svg>