<?xml version="1.0" encoding="utf-8"?> <!-- Generator: IcoMoon.io --> <!DOCTYPE svg PUBLIC "-//W3C//DTD SVG 1.1//EN" "http://www.w3.org/Graphics/SVG/1.1/DTD/svg11.dtd"> <svg width="512" height="512" viewBox="0 0 512 512" xmlns="http://www.w3.org/2000/svg" xmlns:xlink="http://www.w3.org/1999/xlink" fill="#000000"><path d="M 256.00,512.00q-69.50,0.00 -128.50-34.25t-93.25-93.25t-34.25-128.50q0.00-48.50 17.25-92.50t 48.75-78.50q 1.50-1.50 5.75-6.00t 7.00-7.25t 7.50-5.25t 9.75-2.50q 13.00,0.00 22.50,9.50t 9.50,22.50q0.00,8.00 -1.75,14.00t-3.75,8.00l-1.50,2.50q-27.00,26.50 -42.00,61.50t-15.00,74.00q0.00,52.00 25.75,96.25t 70.00,70.00t 96.25,25.75t 96.25-25.75t 70.00-70.00t 25.75-96.25 q0.00-39.00 -15.00-74.25t-41.50-61.75q-7.50-7.50 -7.50-24.00q0.00-13.00 9.50-22.50t 22.50-9.50q 3.50,0.00 6.75,1.00t 5.25,2.00t 5.25,4.00t 4.25,4.25t 4.50,5.25t 4.00,4.50q 31.50,34.50 48.75,78.50t 17.25,92.50q0.00,52.00 -20.25,99.50t-54.50,81.75t-81.75,54.50t-99.50,20.25zM 256.00,256.00q-13.50,0.00 -22.75-9.25t-9.25-22.75l0.00-192.00 q0.00-13.50 9.50-22.75t 22.75-9.25 t 22.50,9.25t 9.25,22.75l0.00,192.00 q0.00,13.50 -9.25,22.75t-22.75,9.25z" ></path></svg>