<?xml version="1.0" encoding="utf-8"?> <!-- Generator: IcoMoon.io --> <!DOCTYPE svg PUBLIC "-//W3C//DTD SVG 1.1//EN" "http://www.w3.org/Graphics/SVG/1.1/DTD/svg11.dtd"> <svg width="500.00000000000006" height="500" viewBox="0 0 500 500" xmlns="http://www.w3.org/2000/svg" xmlns:xlink="http://www.w3.org/1999/xlink" fill="#000000"><path d="M 34.975,250.00c0.00,6.975, 6.975,11.975, 6.975,11.975l 186.575,123.725c 14.30,9.575, 26.05,2.55, 26.05-15.60L 254.575,129.875 c0.00-18.15-11.75-25.15-26.05-15.625l-186.575,123.75C 41.975,238.025, 34.975,243.025, 34.975,250.00z M 261.875,250.00c0.00,6.975, 6.975,11.975, 6.975,11.975 l 180.075,123.725c 14.325,9.575, 26.05,2.55, 26.05-15.60L 474.975,129.875 c0.00-18.15-11.725-25.15-26.05-15.625l-180.075,123.75 C 268.85,238.025, 261.875,243.025, 261.875,250.00z" ></path></svg>