<?xml version="1.0" encoding="utf-8"?> <!-- Generator: IcoMoon.io --> <!DOCTYPE svg PUBLIC "-//W3C//DTD SVG 1.1//EN" "http://www.w3.org/Graphics/SVG/1.1/DTD/svg11.dtd"> <svg width="512" height="512" viewBox="0 0 512 512" xmlns="http://www.w3.org/2000/svg" xmlns:xlink="http://www.w3.org/1999/xlink" fill="#000000"><path d="M 480.00,512.00l-256.00,0.00 l0.00-0.50 q-13.00,0.00 -22.50-9.25t-9.50-22.75l0.00-61.00 q 42.50-18.50 69.25-55.00t 26.75-76.00q0.00-34.50 -21.50-64.00t-58.25-46.75t-80.25-17.25q-13.00,0.00 -22.50-9.25t-9.50-22.75l0.00-95.50 q0.00-13.00 9.50-22.50t 22.50-9.50l 192.00,0.00 l0.00,176.00 q0.00,6.50 4.75,11.25t 11.25,4.75l 175.50,0.00 q 0.50,0.50 0.50,1.00l0.00,287.00 q0.00,13.50 -9.25,22.75t-22.75,9.25zM 352.00-0.50 q 13.00,0.50 22.00,9.50l 128.50,128.50q 9.50,9.50 9.00,22.50l-159.50,0.00 l0.00-160.50 zM 256.00,287.50q0.00,33.50 -27.00,59.25t-69.00,33.75l0.00,19.00 q0.00,7.00 -4.75,11.50t-11.25,4.50l-32.00,0.00 q-6.50,0.00 -11.25-4.50t-4.75-11.50l0.00-48.00 q0.00-13.00 9.50-22.50t 22.50-9.50q 26.50,0.00 45.25-9.25t 18.75-22.50t-18.75-22.75t-45.25-9.50t-45.25,9.50t-18.75,22.50q0.00,7.00 -4.75,11.50t-11.25,4.50l-32.00,0.00 q-6.50,0.00 -11.25-4.50t-4.75-11.50l0.00-32.00 q0.00-7.50 8.75-18.00t 24.25-21.00t 40.75-17.75t 54.25-7.25q 53.00,0.00 90.50,28.25t 37.50,67.75zM 112.00,447.50l 32.00,0.00 q 6.50,0.00 11.25,4.75t 4.75,11.25l0.00,32.00 q0.00,7.00 -4.75,11.50t-11.25,4.50l-32.00,0.00 q-6.50,0.00 -11.25-4.50t-4.75-11.50l0.00-32.00 q0.00-6.50 4.75-11.25t 11.25-4.75z" ></path></svg>