<?xml version="1.0" encoding="utf-8"?> <!-- Generator: IcoMoon.io --> <!DOCTYPE svg PUBLIC "-//W3C//DTD SVG 1.1//EN" "http://www.w3.org/Graphics/SVG/1.1/DTD/svg11.dtd"> <svg width="500.00000000000006" height="500" viewBox="0 0 500 500" xmlns="http://www.w3.org/2000/svg" xmlns:xlink="http://www.w3.org/1999/xlink" fill="#000000"><path d="M 352.25,55.85C 323.725,35.275, 287.95,25.00, 244.85,25.00C 212.05,25.00, 184.40,32.25, 161.925,46.70C 126.25,69.35, 107.30,107.80, 105.00,162.05l 82.65,0.00 c0.00-15.80, 4.60-31.025, 13.825-45.675s 24.875-21.975, 46.95-21.975c 22.425,0.00, 37.90,5.95, 46.35,17.825c 8.475,11.925, 12.70,25.10, 12.70,39.55 c0.00,12.575-6.30,24.075-13.90,34.55c-4.175,6.10-9.70,11.70-16.525,16.85c0.00,0.00-44.825,28.75-64.525,51.85 c-11.425,13.40-12.45,33.45-13.45,62.225c-0.075,2.05, 0.70,6.275, 7.875,6.275s 57.925,0.00, 64.30,0.00s 7.70-4.725, 7.80-6.80 c 0.45-10.475, 1.625-15.825, 3.55-21.875c 3.625-11.425, 13.425-21.40, 24.475-29.975l 22.75-15.70c 20.525-16.00, 36.925-29.125, 44.15-39.425 C 386.325,192.80, 395.00,171.95, 395.00,147.225C 395.00,106.85, 380.725,76.40, 352.25,55.85z M 243.525,373.10c-28.50-0.85-52.00,18.85-52.90,49.75 c-0.90,30.875, 21.45,51.275, 49.95,52.125c 29.75,0.875, 52.625-18.20, 53.525-49.075C 294.975,395.00, 273.275,373.975, 243.525,373.10z" ></path></svg>