<?xml version="1.0" encoding="utf-8"?> <!-- Generator: IcoMoon.io --> <!DOCTYPE svg PUBLIC "-//W3C//DTD SVG 1.1//EN" "http://www.w3.org/Graphics/SVG/1.1/DTD/svg11.dtd"> <svg width="512" height="512" viewBox="0 0 512 512" xmlns="http://www.w3.org/2000/svg" xmlns:xlink="http://www.w3.org/1999/xlink" fill="#000000"><path d="M 470.00,252.00q 10.00,25.50 10.00,52.00q0.00,48.00 -30.00,88.50t-81.50,64.00t-112.50,23.50t-112.50-23.50t-81.50-64.00t-30.00-88.50q0.00-26.50 10.00-52.00q-18.50-7.00 -30.25-23.25t-11.75-36.75q0.00-26.50 18.75-45.25t 45.25-18.75q 18.50,0.00 33.75,9.75t 23.25,25.75q 51.00-30.00 114.50-34.50q 1.00-5.50 3.25-14.25t 7.00-27.25t 8.00-30.75l 3.25-12.25q 6.00-12.50 15.00-12.50l 83.00,0.00 q 5.00-14.00 17.25-23.00t 27.75-9.00q 20.00,0.00 34.00,14.00t 14.00,34.00t-14.00,34.00t-34.00,14.00q-15.50,0.00 -27.75-9.00t-17.25-23.00l-70.50,0.00 l-16.50,64.50q 68.50,3.00 123.00,35.00q 8.00-16.00 23.25-25.75t 33.75-9.75q 26.50,0.00 45.25,18.75t 18.75,45.25q0.00,20.50 -11.75,36.75t-30.25,23.25zM 63.75,160.00q-13.25,0.00 -22.50,9.25t-9.25,22.75t 9.25,22.75t 22.50,9.25 t 22.75-9.25t 9.50-22.75t-9.50-22.75t-22.75-9.25zM 159.75,224.00q-13.25,0.00 -22.50,9.50t-9.25,22.75t 9.25,22.50t 22.50,9.25t 22.75-9.25t 9.50-22.50t-9.50-22.75t-22.75-9.50zM 256.00,384.00q-27.00,0.00 -40.75-3.25t-23.25-12.75q0.00-6.50 -4.75-11.25t-11.25-4.75t-11.25,4.75t-4.75,11.25q0.00,3.50 1.50,6.50q 5.00,16.50 31.50,29.00t 63.00,12.50 q 37.00,0.00 63.50-12.25t 31.00-29.25q 1.50-3.50 1.50-6.50q0.00-6.50 -4.75-11.25t-11.25-4.75t-11.25,4.75t-4.75,11.25q-16.00,16.00 -64.00,16.00zM 351.75,224.00q-13.25,0.00 -22.50,9.50t-9.25,22.75t 9.25,22.50t 22.50,9.25t 22.75-9.25t 9.50-22.50t-9.50-22.75t-22.75-9.50zM 447.75,160.00q-13.25,0.00 -22.50,9.25t-9.25,22.75t 9.25,22.75t 22.75,9.25 t 22.75-9.25t 9.25-22.75t-9.50-22.75t-22.75-9.25z" ></path></svg>