<?xml version="1.0" encoding="utf-8"?> <!-- Generator: IcoMoon.io --> <!DOCTYPE svg PUBLIC "-//W3C//DTD SVG 1.1//EN" "http://www.w3.org/Graphics/SVG/1.1/DTD/svg11.dtd"> <svg width="512" height="512" viewBox="0 0 512 512" xmlns="http://www.w3.org/2000/svg" xmlns:xlink="http://www.w3.org/1999/xlink" fill="#000000"><path d="M 511.50,170.50q-0.50,7.50 -4.75,14.50t-10.75,7.00l-165.00,0.00 q-12.00,0.50 -11.50-17.00l 63.00-63.00q-54.50-48.00 -126.50-48.00q-52.00,0.00 -96.25,25.75t-70.00,70.00t-25.75,96.50t 25.75,96.25t 70.00,69.75t 96.25,25.75q 44.00,0.00 82.75-18.75t 65.75-51.75l 50.50,39.50q-36.00,44.50 -88.00,69.75t-111.00,25.25q-52.00,0.00 -99.50-20.25t-81.75-54.50 t-54.50-81.75t-20.25-99.50t 20.25-99.25t 54.50-81.50t 81.75-54.50t 99.50-20.25q 48.50,0.00 92.75,17.50t 79.25,49.00l 67.00-67.00q 17.50-0.50 17.00,11.50z" ></path></svg>