<?xml version="1.0" encoding="utf-8"?> <!-- Generator: IcoMoon.io --> <!DOCTYPE svg PUBLIC "-//W3C//DTD SVG 1.1//EN" "http://www.w3.org/Graphics/SVG/1.1/DTD/svg11.dtd"> <svg width="512" height="512" viewBox="0 0 512 512" xmlns="http://www.w3.org/2000/svg" xmlns:xlink="http://www.w3.org/1999/xlink" fill="#000000"><path d="M 495.50,512.00l-67.00-67.00q-34.50,31.50 -78.75,49.25t-93.25,17.75q-79.50,0.00 -144.25-44.75t-93.25-116.25l 59.50-24.00q 21.50,54.00 69.75,87.50t 108.25,33.50q 72.50,0.00 127.00-48.50l-63.00-63.50q-0.50-7.00 4.25-11.75t 11.75-4.25l 154.50,0.00 q 7.00,0.00 13.75,6.75t 7.25,13.75l 0.50,160.00q 0.50,12.00 -17.00,11.50zM 256.50,64.00q-72.50,0.00 -127.00,48.00l 63.00,63.50 q 0.50,7.00 -4.25,11.75t-11.75,4.75l-154.50,0.00 q-7.00-0.50 -13.75-7.25t-7.25-13.75l-0.50-160.00q-0.50-12.00 17.00-11.50l 67.00,67.00q 34.50-31.50 78.75-49.00t 93.25-17.50q 79.50,0.00 144.25,44.50t 93.25,116.50l-59.50,23.50q-21.50-54.00 -69.75-87.25t-108.25-33.25z" ></path></svg>