<?xml version="1.0" encoding="utf-8"?> <!-- Generator: IcoMoon.io --> <!DOCTYPE svg PUBLIC "-//W3C//DTD SVG 1.1//EN" "http://www.w3.org/Graphics/SVG/1.1/DTD/svg11.dtd"> <svg width="512" height="512" viewBox="0 0 512 512" xmlns="http://www.w3.org/2000/svg" xmlns:xlink="http://www.w3.org/1999/xlink" fill="#000000"><path d="M 480.00,448.00l-128.00,0.00 q-13.50,0.00 -22.75-9.50t-9.25-22.75t 9.25-22.50t 22.75-9.25l 128.00,0.00 q 13.50,0.00 22.75,9.25t 9.25,22.50t-9.25,22.75t-22.75,9.50zM 355.00,320.00q-16.00,13.00 -35.00,21.00l0.00,14.00 q-14.00,5.00 -23.00,17.25t-9.00,27.75l0.00,32.00 q0.00,20.00 14.00,34.00t 34.00,14.00l 16.00,0.00 l0.00,31.00 q-35.00,1.00 -96.00,1.00l-38.00,0.00 t-40.50-0.50t-43.50-1.25t-40.00-2.25t-37.75-4.25 t-28.75-6.00t-20.75-8.25t-6.75-11.00q 1.00-44.00 55.00-77.75t 137.00-44.75l0.00-16.50 q-26.00-11.50 -45.00-32.50t-30.00-49.25t-16.00-60.50t-5.00-69.25q0.00-32.50 12.50-57.25t 34.50-40.00t 50.50-23.00t 62.50-7.75t 62.50,7.75t 50.50,23.00t 34.50,40.00t 12.50,57.25q0.00,110.00 -37.50,165.00q-17.00,9.00 -23.50,27.00z" ></path></svg>