<?xml version="1.0" encoding="utf-8"?> <!-- Generator: IcoMoon.io --> <!DOCTYPE svg PUBLIC "-//W3C//DTD SVG 1.1//EN" "http://www.w3.org/Graphics/SVG/1.1/DTD/svg11.dtd"> <svg width="512" height="512" viewBox="0 0 512 512" xmlns="http://www.w3.org/2000/svg" xmlns:xlink="http://www.w3.org/1999/xlink" fill="#000000"><path d="M 480.00,288.00l-71.00,0.00 l-23.50,84.00q-1.50,6.00 -6.50,9.25t-11.00,2.75q-6.00,0.50 -11.00-2.75t-6.50-9.25l-46.50-167.50l-46.50,167.50q-1.50,6.00 -6.50,9.25t-11.00,2.75q-6.00,0.50 -11.00-2.75t-6.50-9.25l-46.50-167.50l-16.00,83.50l-42.50,0.00 l-85.50,0.00 q-13.00,0.00 -22.50-9.25t-9.50-22.50t 9.50-22.75t 22.50-9.50l 103.00,0.00 l 23.50-84.00q 1.50-5.50 6.50-8.75t 11.00-2.75q 6.00-0.50 11.00,2.75 t 6.50,8.75l 46.50,168.00l 46.50-168.00q 1.50-5.50 6.50-8.75t 11.00-2.75q 6.00-0.50 11.00,2.75t 6.50,8.75l 46.50,168.00l 16.00-84.00l 42.50,0.00 l 53.50,0.00 q 13.50,0.00 22.75,9.50t 9.25,22.75t-9.25,22.50t-22.75,9.25z" ></path></svg>