<?xml version="1.0" encoding="utf-8"?> <!-- Generator: IcoMoon.io --> <!DOCTYPE svg PUBLIC "-//W3C//DTD SVG 1.1//EN" "http://www.w3.org/Graphics/SVG/1.1/DTD/svg11.dtd"> <svg width="512" height="512" viewBox="0 0 512 512" xmlns="http://www.w3.org/2000/svg" xmlns:xlink="http://www.w3.org/1999/xlink" fill="#000000"><path d="M 512.00,0.00zM 256.00,0.00l0.00,0.00 l0.00,0.00 zM 384.00,32.00q 53.00,0.00 90.50-9.25t 37.50-22.75l0.00,128.00 l-512.00,0.00 l0.00-128.00 l0.00,0.00 q0.00,13.50 37.50,22.75t 90.50,9.25t 90.50-9.25t 37.50-22.75q0.00,13.50 37.50,22.75t 90.50,9.25zM 256.00,512.00q-47.00-13.50 -84.25-32.75t-62.50-39.25t-44.25-48.50t-29.75-52.00t-18.25-58.25t-10.75-59.00t-6.25-62.25l 512.00,0.00 q-3.00,38.00 -6.25,62.25t-10.75,59.00t-18.25,58.25t-29.75,52.00t-44.25,48.50t-62.50,39.25t-84.25,32.75z" ></path></svg>