<?xml version="1.0" encoding="utf-8"?> <!-- Generator: IcoMoon.io --> <!DOCTYPE svg PUBLIC "-//W3C//DTD SVG 1.1//EN" "http://www.w3.org/Graphics/SVG/1.1/DTD/svg11.dtd"> <svg width="512" height="512" viewBox="0 0 512 512" xmlns="http://www.w3.org/2000/svg" xmlns:xlink="http://www.w3.org/1999/xlink" fill="#000000"><path d="M 448.00,512.00q-19.50-12.50 -25.75-34.25t-6.25-56.25l0.00-34.50 q0.00-14.50 9.50-24.75t 22.50-10.25l 32.00,0.00 q 13.50,0.00 22.75,10.25t 9.25,24.75l0.00,34.50 q0.00,26.50 -19.00,50.25t-45.00,40.25zM 400.00,512.00l-304.00,0.00 q-33.50,0.00 -63.75-28.75t-31.75-67.25q0.00-24.50 11.25-55.50t 25.00-55.00t 34.75-59.25t 31.00-54.25l 185.50,0.00 q 26.50,0.00 45.25-18.75t 18.75-45.25l0.00-32.00 q0.00-19.50 17.25-42.75 t 40.00-38.25t 38.75-15.00q 23.00,0.00 42.75,31.50t 21.25,64.50q0.00,27.00 -13.25,60.50t-32.00,65.25t-37.50,62.75t-32.00,61.75t-13.25,53.75q 2.50,53.00 16.00,112.00zM 320.00,96.00l0.00,32.00 q0.00,13.00 -9.25,22.50t-22.75,9.50l-256.00,0.00 q-13.00,0.00 -22.50-9.50t-9.50-22.50l0.00-32.00 q0.00-25.50 17.00-48.00t 42.75-35.25t 52.25-12.75l 272.00,0.00 q-6.50,0.00 -17.25,7.75t-21.25,20.25 t-18.00,31.00t-7.50,37.00z" ></path></svg>