<?xml version="1.0" encoding="utf-8"?> <!-- Generator: IcoMoon.io --> <!DOCTYPE svg PUBLIC "-//W3C//DTD SVG 1.1//EN" "http://www.w3.org/Graphics/SVG/1.1/DTD/svg11.dtd"> <svg width="500.00000000000006" height="500" viewBox="0 0 500 500" xmlns="http://www.w3.org/2000/svg" xmlns:xlink="http://www.w3.org/1999/xlink" fill="#000000"><path d="M 438.625,386.70l-94.475-94.475c 14.25-23.425, 22.45-50.875, 22.45-80.30c0.00-85.40-74.025-159.425-159.45-159.425 C 121.75,52.50, 52.50,121.75, 52.50,207.15c0.00,85.425, 74.00,159.45, 159.425,159.45c 28.40,0.00, 55.00-7.70, 77.875-21.075l 94.975,95.00 c 9.325,9.30, 24.375,9.30, 33.65,0.00l 23.575-23.55C 451.275,407.675, 447.90,395.975, 438.625,386.70z M 100.10,207.15 c0.00-59.125, 47.925-107.075, 107.05-107.075c 59.15,0.00, 111.85,52.70, 111.85,111.85s-47.925,107.075-107.075,107.075S 100.10,266.30, 100.10,207.15z" ></path></svg>