<?xml version="1.0" encoding="utf-8"?> <!-- Generator: IcoMoon.io --> <!DOCTYPE svg PUBLIC "-//W3C//DTD SVG 1.1//EN" "http://www.w3.org/Graphics/SVG/1.1/DTD/svg11.dtd"> <svg width="512" height="512" viewBox="0 0 512 512" xmlns="http://www.w3.org/2000/svg" xmlns:xlink="http://www.w3.org/1999/xlink" fill="#000000"><path d="M 256.00,512.00q-42.00-21.00 -76.00-44.50t-59.50-45.00t-44.75-51.00t-32.00-51.25t-21.25-57.25t-13.00-58.25t-6.75-65.25t-2.50-66.50t-0.25-73.00q0.00,13.00 37.50,22.50t 90.50,9.50t 90.50-9.50t 37.50-22.50q0.00,13.00 37.50,22.50t 90.50,9.50t 90.50-9.50t 37.50-22.50q0.00,49.00 -0.25,73.00t-2.50,66.50t-6.75,65.25t-13.00,58.25t-21.25,57.25t-32.00,51.25t-44.75,51.00 t-59.50,45.00t-76.00,44.50zM 256.00,64.00l0.00,0.00 q0.00,13.00 -28.25,22.50t-67.75,9.50q-27.00,0.00 -53.50-4.50t-42.50-12.00q0.00,39.50 1.00,63.50t 4.75,57.25t 11.25,54.75t 21.50,48.50t 34.25,47.00t 50.25,41.50t 69.00,40.00l0.00-368.00 l0.00,0.00 zM 256.00,0.00l0.00,0.00 l0.00,0.00 z" ></path></svg>