<?xml version="1.0" encoding="utf-8"?> <!-- Generator: IcoMoon.io --> <!DOCTYPE svg PUBLIC "-//W3C//DTD SVG 1.1//EN" "http://www.w3.org/Graphics/SVG/1.1/DTD/svg11.dtd"> <svg width="500.00000000000006" height="500" viewBox="0 0 500 500" xmlns="http://www.w3.org/2000/svg" xmlns:xlink="http://www.w3.org/1999/xlink" fill="#000000"><path d="M 375.00,325.00c-17.20,0.00-32.95,5.825-45.60,15.55l-130.475-78.275C 199.55,258.275, 200.00,254.175, 200.00,250.00c0.00-4.20-0.45-8.275-1.075-12.275 l 130.475-78.275C 342.05,169.175, 357.80,175.00, 375.00,175.00c 41.40,0.00, 75.00-33.575, 75.00-75.00s-33.60-75.00-75.00-75.00s-75.00,33.575-75.00,75.00c0.00,4.175, 0.45,8.275, 1.10,12.275 L 170.625,190.575C 157.975,180.825, 142.20,175.00, 125.00,175.00c-41.425,0.00-75.00,33.575-75.00,75.00c0.00,41.40, 33.575,75.00, 75.00,75.00c 17.20,0.00, 32.975-5.825, 45.625-15.55l 130.475,78.275 C 300.45,391.725, 300.00,395.80, 300.00,400.00c0.00,41.40, 33.60,75.00, 75.00,75.00s 75.00-33.60, 75.00-75.00S 416.40,325.00, 375.00,325.00z" ></path></svg>