<?xml version="1.0" encoding="utf-8"?> <!-- Generator: IcoMoon.io --> <!DOCTYPE svg PUBLIC "-//W3C//DTD SVG 1.1//EN" "http://www.w3.org/Graphics/SVG/1.1/DTD/svg11.dtd"> <svg width="512" height="512" viewBox="0 0 512 512" xmlns="http://www.w3.org/2000/svg" xmlns:xlink="http://www.w3.org/1999/xlink" fill="#000000"><path d="M 480.50,384.00l-41.00,0.00 q 9.00,15.50 9.00,32.00q0.00,26.50 -18.75,45.25t-45.25,18.75t-45.25-18.75t-18.75-45.25q0.00-16.50 9.00-32.00l-146.00,0.00 q 9.00,15.50 9.00,32.00q0.00,26.50 -18.75,45.25t-45.25,18.75t-45.25-18.75t-18.75-45.25q0.00-16.50 9.00-32.00l-41.00,0.00 q-13.00,0.00 -22.50-9.25t-9.50-22.75l0.00-127.00 q-0.50-14.50 9.50-25.00l 62.50-62.50q 11.00-10.50 26.50-9.50l 93.50,0.00 l0.00-32.00 q0.00-13.50 9.50-22.75t 22.50-9.25l 256.00,0.00 q 13.00,0.00 22.50,9.50t 9.50,22.50l0.00,256.00 q0.00,13.00 -9.25,22.50t-22.75,9.50zM 192.50,176.00q0.00-6.50 -4.75-11.25t-11.25-4.75l-78.50,0.00 l-65.50,65.50l0.00,46.50 q0.00,6.50 4.75,11.25t 11.25,4.75l 128.00,0.00 q 6.50,0.00 11.25-4.75t 4.75-11.25l0.00-96.00 z" ></path></svg>