<?xml version="1.0" encoding="utf-8"?> <!-- Generator: IcoMoon.io --> <!DOCTYPE svg PUBLIC "-//W3C//DTD SVG 1.1//EN" "http://www.w3.org/Graphics/SVG/1.1/DTD/svg11.dtd"> <svg width="512" height="512" viewBox="0 0 512 512" xmlns="http://www.w3.org/2000/svg" xmlns:xlink="http://www.w3.org/1999/xlink" fill="#000000"><path d="M 448.00,512.00l-118.00,0.00 q 50.50-22.00 84.25-64.75t 33.75-89.75q0.00-33.00 -12.00-62.00t-35.00-52.00t-60.50-36.50t-84.50-14.00l0.00-0.50 q-10.00,0.00 -16.25-0.25t-16.25-2.00t-16.00-4.75t-10.75-9.50t-4.75-15.50q0.00-11.50 10.75-19.25t 24.25-10.25t 29.00-2.50q 96.50,0.00 160.00,32.00l0.00-128.50 q-18.50-18.50 -65.50-32.00l 97.50,0.00 q 26.50,0.00 45.25,18.75t 18.75,45.25l0.00,384.00 q0.00,26.50 -18.75,45.25 t-45.25,18.75zM 64.00,155.00q0.00,33.00 12.00,62.25t 35.00,52.25t 60.50,36.50t 84.50,14.00q 10.00,0.00 16.25,0.25t 16.25,2.00t 16.00,4.75t 10.75,9.50t 4.75,15.50q0.00,11.50 -10.75,19.25t-24.25,10.25t-29.00,2.50q-96.50,0.00 -160.00-32.00l0.00,128.00 q 18.50,18.50 65.50,32.00l-97.50,0.00 q-26.50,0.00 -45.25-18.75t-18.75-45.25l0.00-384.00 q0.00-26.50 18.75-45.25t 45.25-18.75l 118.00,0.00 q-50.50,22.00 -84.25,65.00t-33.75,90.00z" ></path></svg>