<?xml version="1.0" encoding="utf-8"?> <!-- Generator: IcoMoon.io --> <!DOCTYPE svg PUBLIC "-//W3C//DTD SVG 1.1//EN" "http://www.w3.org/Graphics/SVG/1.1/DTD/svg11.dtd"> <svg width="500.00000000000006" height="500" viewBox="0 0 500 500" xmlns="http://www.w3.org/2000/svg" xmlns:xlink="http://www.w3.org/1999/xlink" fill="#000000"><path d="M 304.10,246.325c-5.75-3.85-12.85-7.175-21.00-9.90C 275.00,233.775, 265.875,231.30, 255.925,229.125C 248.075,227.25, 242.35,225.80, 238.925,224.825 C 235.60,223.875, 232.275,222.55, 229.05,220.875C 225.925,219.275, 223.45,217.35, 221.725,215.15C 220.075,213.075, 219.275,210.70, 219.275,207.80 c0.00-4.70, 2.50-8.675, 7.625-12.125c 5.325-3.60, 12.50-5.40, 21.30-5.40c 9.475,0.00, 16.375,1.625, 20.525,4.85 c 4.25,3.35, 7.975,8.05, 11.00,14.05c 2.675,4.70, 5.025,7.95, 7.375,10.05c 2.45,2.25, 6.00,3.40, 10.55,3.40 c 5.025,0.00, 9.275-1.825, 12.65-5.425c 3.325-3.60, 5.025-7.70, 5.025-12.20c0.00-4.70-1.325-9.55-3.85-14.425 c-2.50-4.80-6.55-9.475-11.925-13.825c-5.375-4.30-12.20-7.80-20.30-10.40c-8.05-2.60-17.70-3.875-28.675-3.875 c-13.725,0.00-25.85,1.95-36.05,5.825C 204.15,172.25, 196.125,177.975, 190.625,185.35C 185.10,192.775, 182.30,201.40, 182.30,210.95 c0.00,10.00, 2.675,18.55, 7.95,25.325c 5.20,6.725, 12.30,12.05, 21.10,15.925c 8.625,3.75, 19.45,7.10, 32.20,9.90 c 9.375,2.00, 16.975,3.925, 22.55,5.725c 5.35,1.70, 9.80,4.225, 13.10,7.45c 3.175,3.075, 4.725,6.975, 4.725,11.975 c0.00,6.30-2.975,11.45-9.10,15.775c-6.25,4.40-14.575,6.625-24.75,6.625c-7.375,0.00-13.40-1.10-17.85-3.275 c-4.425-2.15-7.90-4.90-10.30-8.175c-2.50-3.425-4.875-7.75-7.05-12.90c-1.95-4.70-4.375-8.35-7.20-10.825 c-2.975-2.575-6.60-3.875-10.825-3.875c-5.15,0.00-9.45,1.65-12.825,4.90c-3.40,3.30-5.125,7.30-5.125,11.95 c0.00,7.40, 2.65,15.10, 7.85,22.825c 5.175,7.70, 11.975,13.90, 20.25,18.475c 11.55,6.30, 26.35,9.50, 43.975,9.50 c 14.70,0.00, 27.60-2.35, 38.40-6.925c 10.90-4.675, 19.275-11.225, 24.95-19.475c 5.725-8.325, 8.60-17.825, 8.60-28.225 c0.00-8.725-1.65-16.175-4.975-22.275C 314.65,255.325, 310.00,250.25, 304.10,246.325z M 250.00,10.00c-132.55,0.00-240.00,107.45-240.00,240.00s 107.45,240.00, 240.00,240.00 c 132.575,0.00, 240.00-107.45, 240.00-240.00S 382.575,10.00, 250.00,10.00z M 307.525,384.40c-12.15,0.00-23.625-3.15-33.675-8.70 c-7.30,1.40-14.80,2.125-22.50,2.125c-67.85,0.00-122.875-56.625-122.875-126.425c0.00-8.725, 0.85-17.20, 2.50-25.425 C 124.75,215.10, 121.175,202.45, 121.175,188.925c0.00-40.475, 31.90-73.325, 71.25-73.325c 13.95,0.00, 26.925,4.125, 37.925,11.25C 237.15,125.625, 244.175,125.00, 251.35,125.00 c 67.85,0.00, 122.875,56.625, 122.875,126.425c0.00,9.30-0.975,18.375-2.825,27.125c 4.725,9.825, 7.375,20.85, 7.375,32.575 C 378.75,351.575, 346.875,384.40, 307.525,384.40z" ></path></svg>