<?xml version="1.0" encoding="utf-8"?> <!-- Generator: IcoMoon.io --> <!DOCTYPE svg PUBLIC "-//W3C//DTD SVG 1.1//EN" "http://www.w3.org/Graphics/SVG/1.1/DTD/svg11.dtd"> <svg width="500.00000000000006" height="500" viewBox="0 0 500 500" xmlns="http://www.w3.org/2000/svg" xmlns:xlink="http://www.w3.org/1999/xlink" fill="#000000"><path d="M 16.80,336.40L 25.00,301.40l-8.20-36.175c-0.225-1.075-2.275-1.90-4.80-1.90c-2.55,0.00-4.60,0.825-4.80,1.90L0.00,301.40 l 7.225,35.00c 0.20,1.10, 2.25,1.90, 4.80,1.90C 14.525,338.30, 16.575,337.50, 16.80,336.40z M 68.05,355.825L 75.00,301.725L 68.05,218.05 C 67.85,215.90, 65.25,214.225, 62.10,214.225c-3.175,0.00-5.775,1.65-5.925,3.80L 50.00,301.725l 6.175,54.10c 0.15,2.125, 2.75,3.775, 5.925,3.775 C 65.25,359.625, 67.85,357.95, 68.05,355.825z M 119.20,354.95L 125.00,301.75L 119.20,190.325c-0.15-2.60-3.25-4.675-7.025-4.675 c-3.80,0.00-6.90,2.05-7.025,4.675L 100.00,301.75l 5.15,53.225c 0.125,2.60, 3.225,4.65, 7.025,4.65 C 115.95,359.625, 119.05,357.575, 119.20,354.95z M 170.25,354.15L 175.00,301.775l-4.75-112.25C 170.125,186.425, 166.625,183.975, 162.25,183.975 c-4.40,0.00-7.90,2.45-8.025,5.55L 150.00,301.775l 4.25,52.375c 0.075,3.075, 3.60,5.525, 8.00,5.525C 166.625,359.675, 170.125,357.275, 170.25,354.15z M 221.25,353.50L 225.00,301.80L 221.25,173.10C 221.175,169.55, 217.15,166.675, 212.30,166.675c-4.85,0.00-8.85,2.875-8.925,6.425L 200.00,301.75 c0.00,0.075, 3.375,51.725, 3.375,51.725c 0.075,3.50, 4.075,6.375, 8.925,6.375C 217.15,359.875, 221.175,357.025, 221.25,353.50z M 256.95,359.90 c 0.15,0.00, 177.475,0.10, 178.625,0.10c 35.60,0.00, 64.425-27.90, 64.425-62.325s-28.825-62.325-64.425-62.325c-8.85,0.00-17.25,1.725-24.925,4.85 C 405.525,184.05, 356.80,140.00, 297.40,140.00c-14.525,0.00-28.70,2.75-41.20,7.45C 251.35,149.275, 250.025,151.125, 250.00,154.75l0.00,197.775 C 250.05,356.35, 253.10,359.525, 256.95,359.90z" ></path></svg>