<?xml version="1.0" encoding="utf-8"?> <!-- Generator: IcoMoon.io --> <!DOCTYPE svg PUBLIC "-//W3C//DTD SVG 1.1//EN" "http://www.w3.org/Graphics/SVG/1.1/DTD/svg11.dtd"> <svg width="512" height="512" viewBox="0 0 512 512" xmlns="http://www.w3.org/2000/svg" xmlns:xlink="http://www.w3.org/1999/xlink" fill="#000000"><path d="M 416.00,512.00l-320.00,0.00 q-13.00,0.00 -22.50-9.50t-9.50-22.50l0.00-448.00 q0.00-13.00 9.25-22.50t 22.75-9.50l 320.00,0.00 q 13.50,0.00 22.75,9.25t 9.25,22.75l0.00,448.00 q0.00,13.50 -9.50,22.75t-22.50,9.25zM 256.00,32.00q-26.50,0.00 -45.25,18.75t-18.75,45.25t 18.75,45.25t 45.25,18.75t 45.25-18.75t 18.75-45.25t-18.75-45.25t-45.25-18.75zM 256.00,224.00q-53.00,0.00 -90.50,37.50 t-37.50,90.50t 37.50,90.50t 90.50,37.50t 90.50-37.50t 37.50-90.50t-37.50-90.50t-90.50-37.50zM 256.00,416.00q-26.50,0.00 -45.25-18.75t-18.75-45.25t 18.75-45.25t 45.25-18.75t 45.25,18.75t 18.75,45.25t-18.75,45.25t-45.25,18.75zM 256.00,128.00q-13.00,0.00 -22.50-9.25t-9.50-22.50t 9.50-22.75t 22.75-9.50t 22.50,9.50t 9.25,22.75t-9.50,22.50t-22.50,9.25z" ></path></svg>