<?xml version="1.0" encoding="utf-8"?> <!-- Generator: IcoMoon.io --> <!DOCTYPE svg PUBLIC "-//W3C//DTD SVG 1.1//EN" "http://www.w3.org/Graphics/SVG/1.1/DTD/svg11.dtd"> <svg width="512" height="512" viewBox="0 0 512 512" xmlns="http://www.w3.org/2000/svg" xmlns:xlink="http://www.w3.org/1999/xlink" fill="#000000"><path d="M 507.00,99.50l-23.50,23.50q-5.00,5.00 -12.00,5.00t-11.50-5.00l-18.00-17.50l-26.00,26.00q 30.00,31.00 46.75,71.50t 16.75,85.00q0.00,45.50 -17.50,87.00t-47.50,71.50t-71.50,47.75t-87.00,17.75t-87.00-17.75t-71.50-47.75t-47.75-71.50t-17.75-87.00q0.00-44.50 17.00-85.00t 47.00-71.50l-26.00-26.00l-18.00,17.50q-4.50,5.00 -11.50,5.00t-12.00-5.00l-23.50-23.50q-5.00-5.00 -5.00-12.00t 5.00-11.50 l 71.00-71.00q 4.50-5.00 11.50-5.00t 12.00,5.00l 23.50,23.50q 5.00,5.00 5.00,12.00t-5.00,11.50l-17.50,18.00l 29.50,30.00q 41.00-26.50 89.50-33.50l0.00-2.00 l-16.50,0.00 q-6.50,0.00 -11.25-4.75t-4.75-11.25l0.00-32.00 q0.00-7.00 4.75-11.50t 11.25-4.50l 96.00,0.00 q 6.50,0.00 11.25,4.50t 4.75,11.50l0.00,32.00 q0.00,6.50 -4.75,11.25t-11.25,4.75l-16.00,0.00 l0.00,2.00 q 48.00,7.00 89.00,33.50l 29.50-30.00l-17.50-18.00q-5.00-4.50 -5.00-11.50t 5.00-12.00l 23.50-23.50 q 5.00-5.00 12.00-5.00t 11.50,5.00l 71.00,71.00q 5.00,4.50 5.00,11.50t-5.00,12.00zM 256.00,128.00q-43.50,0.00 -80.25,21.50t-58.25,58.25t-21.50,80.25t 21.50,80.25t 58.25,58.25t 80.25,21.50t 80.25-21.50t 58.25-58.25t 21.50-80.25t-21.50-80.25t-58.25-58.25t-80.25-21.50zM 288.00,288.00q0.00,13.50 -9.25,22.75t-22.75,9.25q-13.00,0.00 -22.50-9.25 t-9.50-22.50t 9.50-22.75t 22.50-9.50q 1.50,0.00 5.00,0.50l 75.00-64.00l0.00-0.50 l 16.00,0.00 l0.00,16.00 l-64.50,75.50q 0.50,3.50 0.50,4.50z" ></path></svg>