<?xml version="1.0" encoding="utf-8"?> <!-- Generator: IcoMoon.io --> <!DOCTYPE svg PUBLIC "-//W3C//DTD SVG 1.1//EN" "http://www.w3.org/Graphics/SVG/1.1/DTD/svg11.dtd"> <svg width="512" height="512" viewBox="0 0 512 512" xmlns="http://www.w3.org/2000/svg" xmlns:xlink="http://www.w3.org/1999/xlink" fill="#000000"><path d="M 224.00,32.00l0.00,224.00 l 64.00,0.00 L 288.00,32.00 L 224.00,32.00 z M 32.00,288.00c0.00,123.712, 100.288,224.00, 224.00,224.00c 123.712,0.00, 224.00-100.288, 224.00-224.00 c0.00-101.472-67.472-187.184-160.00-214.72l0.00,68.00 c 56.496,24.688, 96.00,81.104, 96.00,146.72c0.00,88.368-71.632,160.00-160.00,160.00c-88.368,0.00-160.00-71.632-160.00-160.00 c0.00-65.616, 39.488-122.032, 96.00-146.72L 192.00,73.28 C 99.472,100.816, 32.00,186.528, 32.00,288.00z" ></path></svg>