<?xml version="1.0" encoding="utf-8"?> <!-- Generator: IcoMoon.io --> <!DOCTYPE svg PUBLIC "-//W3C//DTD SVG 1.1//EN" "http://www.w3.org/Graphics/SVG/1.1/DTD/svg11.dtd"> <svg width="512" height="512" viewBox="0 0 512 512" xmlns="http://www.w3.org/2000/svg" xmlns:xlink="http://www.w3.org/1999/xlink" fill="#000000"><path d="M 66.72,224.00C 80.208,143.60, 143.616,80.208, 224.00,66.72L 224.00,160.00 l 64.00,0.00 L 288.00,66.72 c 80.384,13.488, 143.792,76.88, 157.28,157.28L 352.00,224.00 l0.00,64.00 l 93.28,0.00 c-13.488,80.40-76.896,143.792-157.28,157.28L 288.00,352.00 l-64.00,0.00 l0.00,93.28 C 143.616,431.792, 80.208,368.40, 66.72,288.00L 160.00,288.00 l0.00-64.00 L 66.72,224.00 z M0.00,256.00c0.00,141.392, 114.608,256.00, 256.00,256.00s 256.00-114.608, 256.00-256.00S 397.392,0.00, 256.00,0.00S0.00,114.608,0.00,256.00z" ></path></svg>