<?xml version="1.0" encoding="utf-8"?> <!-- Generator: IcoMoon.io --> <!DOCTYPE svg PUBLIC "-//W3C//DTD SVG 1.1//EN" "http://www.w3.org/Graphics/SVG/1.1/DTD/svg11.dtd"> <svg width="512" height="512" viewBox="0 0 512 512" xmlns="http://www.w3.org/2000/svg" xmlns:xlink="http://www.w3.org/1999/xlink" fill="#000000"><path d="M 480.00,439.00l0.00,41.00 q0.00,13.50 -9.50,22.75t-22.75,9.25t-22.50-9.25t-9.25-22.75l0.00-32.00 l-320.00,0.00 l0.00,32.00 q0.00,13.50 -9.25,22.75t-22.50,9.25t-22.75-9.25t-9.50-22.75l0.00-41.00 q-14.50-8.50 -23.25-23.00t-8.75-32.00l0.00-96.00 q0.00-15.50 13.75-35.75t 33.75-36.75l 16.50-55.50q0.00-26.50 18.75-45.25t 45.25-18.75l 36.50,0.00 l 183.00,0.00 l 36.50,0.00 q 26.50,0.00 45.25,18.75t 18.75,45.25 l 16.50,55.50q 20.00,16.50 33.75,36.75t 13.75,35.75l0.00,96.00 q0.00,17.50 -8.75,32.00t-23.25,23.00zM 64.00,352.25q0.00,13.25 9.50,22.50t 22.75,9.25t 22.50-9.25t 9.25-22.50t-9.25-22.75t-22.50-9.50t-22.75,9.50t-9.50,22.75zM 400.00,192.00q0.00-13.00 -9.25-22.50t-22.75-9.50l-224.00,0.00 q-13.50,0.00 -22.75,9.50t-9.25,22.50l-16.00,32.00q0.00,13.50 9.50,22.75t 22.50,9.25 l 256.00,0.00 q 13.00,0.00 22.50-9.25t 9.50-22.75zM 415.75,320.00q-13.25,0.00 -22.50,9.50t-9.25,22.75t 9.25,22.50t 22.50,9.25t 22.75-9.25t 9.50-22.50t-9.50-22.75t-22.75-9.50zM 173.50,64.00l 14.50-53.00q 2.00-4.50 7.00-7.50t 10.50-3.00l 102.50,0.00 q 5.00,0.00 10.00,3.00t 7.00,7.50l 14.00,53.00l-165.50,0.00 z" ></path></svg>