<?xml version="1.0" encoding="utf-8"?> <!-- Generator: IcoMoon.io --> <!DOCTYPE svg PUBLIC "-//W3C//DTD SVG 1.1//EN" "http://www.w3.org/Graphics/SVG/1.1/DTD/svg11.dtd"> <svg width="512" height="512" viewBox="0 0 512 512" xmlns="http://www.w3.org/2000/svg" xmlns:xlink="http://www.w3.org/1999/xlink" fill="#000000"><path d="M 339.00,416.00l-166.00,0.00 q-23.50-16.50 -44.50-38.00q-17.00,6.00 -32.50,6.00q-40.00,0.00 -68.00-28.25t-28.00-67.75q0.00-31.50 18.50-56.50t 47.50-34.50q 0.50-3.50 0.50-5.00l 189.50,0.00 l0.00,73.50 l-64.00,37.00l 47.00,81.50l 81.00-47.00l-32.00-55.50l0.00-89.50 l 157.50,0.00 q 2.50,17.50 2.50,64.00q0.00,22.50 -10.50,47.00t-27.50,45.50t-34.75,37.75t-36.25,29.75zM 64.00,256.00q0.00-7.00 0.50-23.50q-15.00,8.50 -23.75,23.25 t-8.75,32.25q0.00,26.50 18.75,45.25t 45.25,18.75q 2.00,0.00 8.00-1.00q-40.00-50.50 -40.00-95.00zM 288.00,96.00q0.00,11.50 4.50,27.50q 19.50,13.50 25.50,36.50l-32.00,0.00 q-1.00-7.00 -2.50-12.00q-27.50-19.00 -27.50-52.00q0.00-26.50 18.75-45.25t 45.25-18.75q 7.00,0.00 16.00,2.00q-21.00,5.50 -34.50,22.50t-13.50,39.50zM 192.00,64.00q0.00,11.50 4.50,27.50q 27.50,19.50 27.50,52.50q0.00,7.00 -2.50,16.00l-32.00,0.00 q 2.50-9.00 2.50-16.00 q0.00-12.00 -4.50-28.00q-27.50-19.00 -27.50-52.00q0.00-26.50 18.75-45.25t 45.25-18.75q 7.50,0.00 16.00,2.00q-21.00,5.50 -34.50,22.50t-13.50,39.50zM 384.00,512.00l-256.00,0.00 q-27.50,0.00 -58.00-10.75t-50.25-26.00t-19.75-27.25l 512.00,0.00 q0.00,12.00 -19.75,27.25t-50.25,26.00t-58.00,10.75z" ></path></svg>