<?xml version="1.0" encoding="utf-8"?> <!-- Generator: IcoMoon.io --> <!DOCTYPE svg PUBLIC "-//W3C//DTD SVG 1.1//EN" "http://www.w3.org/Graphics/SVG/1.1/DTD/svg11.dtd"> <svg width="512" height="512" viewBox="0 0 512 512" xmlns="http://www.w3.org/2000/svg" xmlns:xlink="http://www.w3.org/1999/xlink" fill="#000000"><path d="M 448.00,192.00q-27.00,0.00 -56.50-12.50t-50.50-35.50t-21.00-48.00l0.00-64.00 q0.00-13.00 -9.25-22.50t-22.75-9.50q-8.50,0.00 -16.00,4.50q-18.50,8.50 -33.25,24.75t-14.75,34.75q0.00,12.50 0.25,19.75t 1.00,20.50t 2.75,21.50t 5.50,17.00t 9.25,13.00t 13.25,4.25l-192.00,0.00 q-13.00,0.00 -22.50,9.50t-9.50,22.75t 9.50,22.50t 22.50,9.25l 144.00,0.00 q 6.50,0.00 11.25,4.75t 4.75,11.25t-4.75,11.25 t-11.25,4.75l-176.00,0.00 q-13.00,0.00 -22.50,9.50t-9.50,22.75t 9.25,22.50t 22.75,9.25l 176.00,0.00 q 6.50,0.00 11.25,4.75t 4.75,11.25t-4.75,11.25t-11.25,4.75l-176.00,0.00 q-13.00,0.00 -22.50,9.50t-9.50,22.75t 9.25,22.50t 22.75,9.25l 176.00,0.00 q 6.50,0.00 11.25,4.75t 4.75,11.25t-4.75,11.25t-11.25,4.75l-144.00,0.00 q-13.00,0.00 -22.50,9.50t-9.50,22.75t 9.50,22.50 t 22.50,9.25l 384.00,0.00 q 26.50,0.00 45.25-18.75t 18.75-45.25l0.00-192.00 q0.00-26.50 -18.75-45.25t-45.25-18.75z" ></path></svg>