<?xml version="1.0" encoding="utf-8"?> <!-- Generator: IcoMoon.io --> <!DOCTYPE svg PUBLIC "-//W3C//DTD SVG 1.1//EN" "http://www.w3.org/Graphics/SVG/1.1/DTD/svg11.dtd"> <svg width="500.00000000000006" height="500" viewBox="0 0 500 500" xmlns="http://www.w3.org/2000/svg" xmlns:xlink="http://www.w3.org/1999/xlink" fill="#000000"><path d="M 158.825,315.95c 3.275,8.875-88.50,90.85-34.95,157.275c 12.55,15.55, 55.025-74.375, 115.375-115.10C 272.525,335.675, 350.00,287.85, 350.00,261.45 l0.00-171.00 C 350.00,58.65, 227.175,25.00, 133.80,25.00C 99.575,25.00, 50.00,239.375, 50.00,273.45C 50.00,307.625, 155.525,307.025, 158.825,315.95z M 375.00,313.55c 16.45,0.00, 75.00-9.975, 75.00-78.05 L 450.00,114.325 c0.00-68.05-58.55-75.55-75.00-75.55c-16.425,0.00, 25.00,14.325, 25.00,56.475l0.00,159.325 C 400.00,298.775, 358.575,313.55, 375.00,313.55z" ></path></svg>