<?xml version="1.0" encoding="utf-8"?> <!-- Generator: IcoMoon.io --> <!DOCTYPE svg PUBLIC "-//W3C//DTD SVG 1.1//EN" "http://www.w3.org/Graphics/SVG/1.1/DTD/svg11.dtd"> <svg width="640" height="512" viewBox="0 0 640 512" xmlns="http://www.w3.org/2000/svg" xmlns:xlink="http://www.w3.org/1999/xlink" fill="#000000"><path d="M 632.00,368.00L 640.00,368.00 l0.00,16.00 c-4.784,0.00-10.048,0.00-16.00,0.00c-17.664,0.00-32.00,14.336-32.00,32.00c0.00,5.856,0.00,11.28,0.00,16.00L 48.00,432.00 c0.00-4.72,0.00-10.144,0.00-16.00c0.00-17.664-14.336-32.00-32.00-32.00c-5.104,0.00-10.656,0.00-16.00,0.00l0.00-16.00 l 8.00,0.00 C 12.416,368.00, 16.00,364.416, 16.00,360.00S 12.416,352.00, 8.00,352.00L0.00,352.00 l0.00-16.00 l 8.00,0.00 C 12.416,336.00, 16.00,332.416, 16.00,328.00S 12.416,320.00, 8.00,320.00L0.00,320.00 l0.00-16.00 l 8.00,0.00 C 12.416,304.00, 16.00,300.416, 16.00,296.00S 12.416,288.00, 8.00,288.00L0.00,288.00 l0.00-16.00 l 8.00,0.00 C 12.416,272.00, 16.00,268.416, 16.00,264.00 S 12.416,256.00, 8.00,256.00L0.00,256.00 l0.00-16.00 l 8.00,0.00 C 12.416,240.00, 16.00,236.416, 16.00,232.00S 12.416,224.00, 8.00,224.00L0.00,224.00 l0.00-16.00 l 8.00,0.00 C 12.416,208.00, 16.00,204.416, 16.00,200.00S 12.416,192.00, 8.00,192.00L0.00,192.00 l0.00-16.00 l 8.00,0.00 C 12.416,176.00, 16.00,172.416, 16.00,168.00S 12.416,160.00, 8.00,160.00L0.00,160.00 L0.00,144.00 c 4.784,0.00, 10.048,0.00, 16.00,0.00c 17.664,0.00, 32.00-14.336, 32.00-32.00c0.00-5.856,0.00-11.28,0.00-16.00l 544.00,0.00 c0.00,4.72,0.00,10.144,0.00,16.00c0.00,17.664, 14.336,32.00, 32.00,32.00c 5.952,0.00, 11.216,0.00, 16.00,0.00l0.00,16.00 l-8.00,0.00 c-4.416,0.00-8.00,3.584-8.00,8.00s 3.584,8.00, 8.00,8.00L 640.00,176.00 l0.00,16.00 l-8.00,0.00 c-4.416,0.00-8.00,3.584-8.00,8.00s 3.584,8.00, 8.00,8.00L 640.00,208.00 l0.00,16.00 l-8.00,0.00 c-4.416,0.00-8.00,3.584-8.00,8.00s 3.584,8.00, 8.00,8.00L 640.00,240.00 l0.00,16.00 l-8.00,0.00 c-4.416,0.00-8.00,3.584-8.00,8.00s 3.584,8.00, 8.00,8.00L 640.00,272.00 l0.00,16.00 l-8.00,0.00 c-4.416,0.00-8.00,3.584-8.00,8.00s 3.584,8.00, 8.00,8.00L 640.00,304.00 l0.00,16.00 l-8.00,0.00 c-4.416,0.00-8.00,3.584-8.00,8.00s 3.584,8.00, 8.00,8.00L 640.00,336.00 l0.00,16.00 l-8.00,0.00 c-4.416,0.00-8.00,3.584-8.00,8.00S 627.584,368.00, 632.00,368.00z M 576.00,176.00 c0.00-17.664-14.336-32.00-32.00-32.00L 96.00,144.00 c-17.664,0.00-32.00,14.336-32.00,32.00l0.00,176.00 c0.00,17.664, 14.336,32.00, 32.00,32.00l 448.00,0.00 c 17.664,0.00, 32.00-14.336, 32.00-32.00L 576.00,176.00 z M 544.00,368.00L 96.00,368.00 c-8.848,0.00-16.00-7.168-16.00-16.00L 80.00,176.00 c0.00-8.848, 7.152-16.00, 16.00-16.00l 448.00,0.00 c 8.832,0.00, 16.00,7.152, 16.00,16.00l0.00,176.00 C 560.00,360.832, 552.832,368.00, 544.00,368.00z M 182.192,223.808L 118.624,223.808 l0.00,9.44 l 26.432,0.00 L 145.056,304.00 L 155.68,304.00 l0.00-70.752 l 26.496,0.00 L 182.176,223.808 z M 204.288,223.808l-10.624,0.00 L 193.664,304.00 l 10.624,0.00 L 204.288,223.808 z M 236.144,247.84c 1.664-4.992, 4.592-8.96, 8.736-11.904 c 4.128-2.96, 9.28-4.432, 15.44-4.432c 5.36,0.00, 9.808,1.328, 13.344,4.00c 3.552,2.656, 6.24,6.912, 8.096,12.752l 10.432-2.464 c-2.144-7.392-5.952-13.136-11.424-17.216s-12.224-6.128-20.24-6.128c-7.072,0.00-13.552,1.616-19.44,4.848 c-5.888,3.216-10.416,7.952-13.632,14.176c-3.184,6.224-4.784,13.504-4.784,21.84c0.00,7.664, 1.424,14.832, 4.256,21.504 c 2.816,6.688, 6.944,11.776, 12.336,15.296c 5.424,3.52, 12.448,5.28, 21.088,5.28c 8.336,0.00, 15.408-2.288, 21.184-6.864s 9.776-11.216, 12.00-19.936 l-10.624-2.688c-1.456,6.752-4.256,11.84-8.352,15.28c-4.128,3.424-9.136,5.136-15.088,5.136c-4.88,0.00-9.424-1.264-13.616-3.776 s-7.28-6.32-9.264-11.408s-2.992-11.04-2.992-17.872C 233.632,257.952, 234.464,252.816, 236.144,247.84z M 373.808,223.808l-14.368,0.00 l-39.808,39.68 l0.00-39.68 l-10.624,0.00 L 309.008,304.00 l 10.624,0.00 l0.00-27.808 l 13.152-12.72L 361.312,304.00l 14.00,0.00 l-35.12-47.68L 373.808,223.808z M 447.008,294.56l-49.184,0.00 l0.00-27.312 l 44.32,0.00 l0.00-9.44 l-44.32,0.00 l0.00-24.56 l 47.312,0.00 l0.00-9.44 l-57.936,0.00 L 387.20,304.00 l 59.808,0.00 L 447.008,294.56 z M 522.00,223.808l-63.568,0.00 l0.00,9.44 l 26.432,0.00 L 484.864,304.00 l 10.624,0.00 l0.00-70.752 l 26.496,0.00 L 521.984,223.808 z" ></path></svg>