<?xml version="1.0" encoding="utf-8"?> <!-- Generator: IcoMoon.io --> <!DOCTYPE svg PUBLIC "-//W3C//DTD SVG 1.1//EN" "http://www.w3.org/Graphics/SVG/1.1/DTD/svg11.dtd"> <svg width="624" height="512" viewBox="0 0 624 512" xmlns="http://www.w3.org/2000/svg" xmlns:xlink="http://www.w3.org/1999/xlink" fill="#000000"><path d="M 624.00,311.008L 624.00,400.00 c0.00,17.664-14.336,32.00-32.00,32.00L 32.00,432.00 c-17.664,0.00-32.00-14.336-32.00-32.00l0.00-88.00 c 26.512,0.00, 48.00-21.504, 48.00-48.00c0.00-26.512-21.488-48.00-48.00-48.00L0.00,128.00 c0.00-17.664, 14.336-32.00, 32.00-32.00l 560.00,0.00 c 17.664,0.00, 32.00,14.336, 32.00,32.00l0.00,87.008 c-26.512,0.00-48.00,21.488-48.00,48.00 C 576.00,289.504, 597.488,311.008, 624.00,311.008z M 544.00,176.00c0.00-17.664-14.336-32.00-32.00-32.00L 112.00,144.00 c-17.664,0.00-32.00,14.336-32.00,32.00l0.00,176.00 c0.00,17.664, 14.336,32.00, 32.00,32.00l 400.00,0.00 c 17.664,0.00, 32.00-14.336, 32.00-32.00L 544.00,176.00 z M 512.00,368.00L 112.00,368.00 c-8.848,0.00-16.00-7.168-16.00-16.00L 96.00,176.00 c0.00-8.848, 7.152-16.00, 16.00-16.00l 400.00,0.00 c 8.832,0.00, 16.00,7.152, 16.00,16.00l0.00,176.00 C 528.00,360.832, 520.832,368.00, 512.00,368.00z M 199.52,248.608l-14.512-41.28l-14.512,41.28l-41.824,1.76l 32.864,27.264L 150.192,320.00l 34.816-24.416L 219.808,320.00 l-11.328-42.352l 32.848-27.264L 199.52,248.608z M 327.52,248.608l-14.512-41.28l-14.512,41.28l-41.824,1.76l 32.864,27.264L 278.192,320.00l 34.816-24.416 L 347.808,320.00l-11.328-42.352l 32.848-27.264L 327.52,248.608z M 455.52,248.608l-14.512-41.28l-14.512,41.28l-41.808,1.76l 32.848,27.264L 406.192,320.00 l 34.816-24.416L 475.808,320.00l-11.328-42.352l 32.848-27.264L 455.52,248.608z" ></path></svg>