<?xml version="1.0" encoding="utf-8"?> <!-- Generator: IcoMoon.io --> <!DOCTYPE svg PUBLIC "-//W3C//DTD SVG 1.1//EN" "http://www.w3.org/Graphics/SVG/1.1/DTD/svg11.dtd"> <svg width="512" height="512" viewBox="0 0 512 512" xmlns="http://www.w3.org/2000/svg" xmlns:xlink="http://www.w3.org/1999/xlink" fill="#000000"><path d="M 256.00,56.00c-114.896,0.00-208.00,93.12-208.00,208.00s 93.104,208.00, 208.00,208.00c 114.864,0.00, 208.00-93.12, 208.00-208.00 S 370.88,56.00, 256.00,56.00z M 254.32,432.432c-92.784,0.00-168.00-75.216-168.00-168.00c0.00-92.784, 75.216-168.00, 168.00-168.00c 92.768,0.00, 168.00,75.216, 168.00,168.00 C 422.32,357.216, 347.088,432.432, 254.32,432.432z M 302.88,274.096l-47.68,0.00 l0.00-80.512 c0.00-8.736-7.088-15.84-15.824-15.84 c-8.752,0.00-15.84,7.088-15.84,15.84l0.00,96.336 c0.00,8.752, 7.088,15.824, 15.84,15.824l 63.504,0.00 c 8.752,0.00, 15.84-7.072, 15.84-15.824 C 318.72,281.184, 311.632,274.096, 302.88,274.096z" ></path></svg>