<?xml version="1.0" encoding="utf-8"?> <!-- Generator: IcoMoon.io --> <!DOCTYPE svg PUBLIC "-//W3C//DTD SVG 1.1//EN" "http://www.w3.org/Graphics/SVG/1.1/DTD/svg11.dtd"> <svg width="384" height="448" viewBox="0 0 384 448" xmlns="http://www.w3.org/2000/svg" xmlns:xlink="http://www.w3.org/1999/xlink" fill="#000000"><path d="M 272.00,232.00l0.00,16.00 q0.00,3.25 -2.375,5.625t-5.625,2.375l-96.00,0.00 q-3.25,0.00 -5.625-2.375t-2.375-5.625l0.00-112.00 q0.00-3.25 2.375-5.625t 5.625-2.375l 16.00,0.00 q 3.25,0.00 5.625,2.375t 2.375,5.625l0.00,88.00 l 72.00,0.00 q 3.25,0.00 5.625,2.375t 2.375,5.625zM 320.00,224.00q0.00-26.00 -10.125-49.625t-27.375-40.875t-40.875-27.375t-49.625-10.125t-49.625,10.125 t-40.875,27.375t-27.375,40.875t-10.125,49.625t 10.125,49.625t 27.375,40.875t 40.875,27.375t 49.625,10.125t 49.625-10.125t 40.875-27.375t 27.375-40.875t 10.125-49.625zM 384.00,224.00q0.00,52.25 -25.75,96.375t-69.875,69.875t-96.375,25.75t-96.375-25.75t-69.875-69.875t-25.75-96.375t 25.75-96.375t 69.875-69.875 t 96.375-25.75t 96.375,25.75t 69.875,69.875t 25.75,96.375z" ></path></svg>