<?xml version="1.0" encoding="utf-8"?> <!-- Generator: IcoMoon.io --> <!DOCTYPE svg PUBLIC "-//W3C//DTD SVG 1.1//EN" "http://www.w3.org/Graphics/SVG/1.1/DTD/svg11.dtd"> <svg width="512" height="512" viewBox="0 0 512 512" xmlns="http://www.w3.org/2000/svg" xmlns:xlink="http://www.w3.org/1999/xlink" fill="#000000"><path d="M 128.00,160.00l 64.00,0.00 l0.00,288.00 L 128.00,448.00 L 128.00,160.00 z M 224.00,160.00l 64.00,0.00 l0.00,288.00 l-64.00,0.00 L 224.00,160.00 z M 320.00,160.00l 64.00,0.00 l0.00,288.00 l-64.00,0.00 L 320.00,160.00 z M 32.00,64.00l0.00,64.00 l 32.00,0.00 l0.00,320.00 c0.00,32.00, 32.00,64.00, 64.00,64.00 l 256.00,0.00 c 32.00,0.00, 64.00-32.00, 64.00-64.00L 448.00,128.00 l 32.00,0.00 L 480.00,64.00 l-128.00,0.00 L 352.00,0.00 L 160.00,0.00 l0.00,64.00 L 32.00,64.00 z" ></path></svg>