<?xml version="1.0" encoding="utf-8"?> <!-- Generator: IcoMoon.io --> <!DOCTYPE svg PUBLIC "-//W3C//DTD SVG 1.1//EN" "http://www.w3.org/Graphics/SVG/1.1/DTD/svg11.dtd"> <svg width="500.00000000000006" height="500" viewBox="0 0 500 500" xmlns="http://www.w3.org/2000/svg" xmlns:xlink="http://www.w3.org/1999/xlink" fill="#000000"><path d="M 250.00,10.00C 117.45,10.00, 10.00,117.45, 10.00,250.00S 117.45,490.00, 250.00,490.00c 132.55,0.00, 239.975-107.45, 239.975-240.00S 382.575,10.00, 250.00,10.00z M 314.40,353.55 c-9.825,4.675-18.70,7.95-26.60,9.85c-7.95,1.875-16.60,2.825-25.825,2.825c-10.50,0.00-19.775-1.35-27.85-4.025 c-8.05-2.675-14.95-6.525-20.65-11.475c-5.70-4.95-9.65-10.25-11.85-15.85s-3.30-13.70-3.30-24.325L 198.325,229.025 L 172.95,229.025 L 172.95,196.15 c 9.00-2.975, 16.75-7.225, 23.175-12.775c 6.425-5.525, 11.60-12.175, 15.475-19.95C 215.50,155.675, 218.20,145.775, 219.65,133.80l 32.65,0.00 l0.00,58.775 l 54.475,0.00 l0.00,36.475 l-54.475,0.00 l0.00,59.60 c0.00,13.475, 0.70,22.125, 2.125,25.95s 4.025,6.875, 7.85,9.15c 5.10,3.075, 10.925,4.65, 17.45,4.65 c 11.625,0.00, 23.20-3.825, 34.675-11.50L 314.40,353.55 z" ></path></svg>