<?xml version="1.0" encoding="utf-8"?> <!-- Generator: IcoMoon.io --> <!DOCTYPE svg PUBLIC "-//W3C//DTD SVG 1.1//EN" "http://www.w3.org/Graphics/SVG/1.1/DTD/svg11.dtd"> <svg width="512" height="512" viewBox="0 0 512 512" xmlns="http://www.w3.org/2000/svg" xmlns:xlink="http://www.w3.org/1999/xlink" fill="#000000"><path d="M 288.016,224.00 L 288.015,341.092 C 288.015,370.801 287.63,387.92 290.78,396.342 C 293.905,404.719 301.739,413.415 310.275,418.443 C 321.617,425.237 334.546,428.631 349.129,428.631 C 375.056,428.631 390.368,425.207 416.00,408.361 L 416.00,485.333 L 416.00,485.333 C 394.15,495.609 375.067,501.63 357.338,505.794 C 339.588,509.915 320.408,511.997 299.806,511.997 C 276.392,511.997 262.578,509.054 244.601,503.169 C 226.622,497.235 211.271,488.766 198.591,477.899 C 185.866,466.938 177.08,455.295 172.167,442.983 C 167.254,430.665 164.809,412.776 164.809,389.361 L 164.809,209.811 L 96.096,209.811 L 96.096,137.308 C 116.20,130.787 138.678,121.414 152.986,109.232 C 167.363,97.007 178.869,82.379 187.539,65.26 C 196.235,48.187 202.213,26.404 205.475,0.002 L 288.017,0.002 L 288.016,128.00 L 416.00,128.00 L 416.00,224.00 L 288.016,224.00 Z" ></path></svg>