<?xml version="1.0" encoding="utf-8"?> <!-- Generator: IcoMoon.io --> <!DOCTYPE svg PUBLIC "-//W3C//DTD SVG 1.1//EN" "http://www.w3.org/Graphics/SVG/1.1/DTD/svg11.dtd"> <svg width="500.00000000000006" height="500" viewBox="0 0 500 500" xmlns="http://www.w3.org/2000/svg" xmlns:xlink="http://www.w3.org/1999/xlink" fill="#000000"><path d="M 390.00,454.90c-19.40,9.25-37.00,15.775-52.725,19.50c-15.75,3.70-32.80,5.60-51.075,5.60c-20.775,0.00-39.125-2.675-55.125-7.975 c-15.95-5.325-29.55-12.90-40.85-22.675c-11.275-9.875-19.10-20.30-23.45-31.375c-4.375-11.075-6.55-27.125-6.55-48.15L 160.225,208.475 L 110.00,208.475 L 110.00,143.375 C 127.85,137.50, 143.175,129.125, 155.875,118.15c 12.75-10.95, 22.95-24.125, 30.675-39.50C 194.25,63.275, 199.525,43.75, 202.45,20.00l 64.625,0.00 l0.00,116.275 l 107.875,0.00 l0.00,72.20 l-107.875,0.00 l0.00,117.975 c0.00,26.65, 1.40,43.775, 4.225,51.375c 2.75,7.55, 7.95,13.60, 15.525,18.125c 10.10,6.10, 21.575,9.15, 34.525,9.15 c 23.025,0.00, 45.90-7.575, 68.65-22.70L 390.00,454.90 z" ></path></svg>