<?xml version="1.0" encoding="utf-8"?> <!-- Generator: IcoMoon.io --> <!DOCTYPE svg PUBLIC "-//W3C//DTD SVG 1.1//EN" "http://www.w3.org/Graphics/SVG/1.1/DTD/svg11.dtd"> <svg width="500.00000000000006" height="500" viewBox="0 0 500 500" xmlns="http://www.w3.org/2000/svg" xmlns:xlink="http://www.w3.org/1999/xlink" fill="#000000"><path d="M 250.00,10.00c-132.55,0.00-240.00,107.45-240.00,240.00s 107.45,240.00, 240.00,240.00s 240.00-107.45, 240.00-240.00S 382.55,10.00, 250.00,10.00z M 347.60,206.625 c 0.10,2.025, 0.15,4.075, 0.15,6.125c0.00,62.45-47.55,134.475-134.50,134.475c-26.675,0.00-51.55-7.80-72.45-21.25 c 3.70,0.45, 7.475,0.65, 11.275,0.65c 22.15,0.00, 42.525-7.55, 58.725-20.25c-20.675-0.375-38.15-14.05-44.175-32.80 c 2.875,0.55, 5.85,0.85, 8.875,0.85c 4.325,0.00, 8.50-0.575, 12.45-1.65c-21.60-4.35-37.925-23.45-37.925-46.35 c0.00-0.20,0.00-0.40, 0.025-0.575C 156.425,229.375, 163.725,231.50, 171.45,231.75C 158.80,223.275, 150.45,208.825, 150.45,192.40 c0.00-8.675, 2.325-16.80, 6.40-23.775C 180.15,197.25, 215.00,216.075, 254.275,218.025c-0.80-3.45-1.225-7.05-1.225-10.775 c0.00-26.10, 21.175-47.275, 47.275-47.275c 13.60,0.00, 25.875,5.725, 34.50,14.925c 10.775-2.10, 20.90-6.025, 30.025-11.45 c-3.55,11.025-11.025,20.30-20.80,26.15c 9.575-1.15, 18.675-3.675, 27.15-7.45C 364.875,191.625, 356.825,199.95, 347.60,206.625z" ></path></svg>