<?xml version="1.0" encoding="utf-8"?> <!-- Generator: IcoMoon.io --> <!DOCTYPE svg PUBLIC "-//W3C//DTD SVG 1.1//EN" "http://www.w3.org/Graphics/SVG/1.1/DTD/svg11.dtd"> <svg width="512" height="512" viewBox="0 0 512 512" xmlns="http://www.w3.org/2000/svg" xmlns:xlink="http://www.w3.org/1999/xlink" fill="#000000"><path d="M 512.00,128.00q-45.50,0.00 -60.50,2.00q 29.00-17.50 44.50-66.00q-4.50,3.00 -14.75,9.50t-16.50,10.25t-15.75,7.75t-18.00,5.50q-31.00-33.00 -76.50-33.00q-46.00,0.00 -72.25,19.25t-26.25,60.75q0.00,2.00 -0.50,13.50t-0.50,21.25t 1.00,13.25q-67.00-3.50 -118.50-26.50t-89.50-69.50q-16.00,27.50 -16.00,48.00q0.00,28.50 8.00,47.25t 28.00,32.25q-20.00,0.50 -36.00,0.50 q0.00,76.00 73.00,90.50q-13.50,4.00 -28.00,4.00q-10.00,0.00 -19.50-2.00q 9.50,30.50 38.25,48.75t 64.25,18.75q-11.50,11.50 -27.00,18.50t-35.50,9.75t-32.50,3.25t-33.00,0.50q-2.00,0.00 -14.50,0.75t-17.50,0.25q 13.50,26.00 55.25,44.50t 105.75,18.50q 56.00,0.00 103.75-18.25t 81.00-48.75t 56.75-70.00t 34.50-82.00t 11.00-85.00q0.00-1.50 4.75-2.75t 12.25-3.75t 15.75-6.75t 17.00-13.25 t 14.25-21.50z" ></path></svg>