<?xml version="1.0" encoding="utf-8"?> <!-- Generator: IcoMoon.io --> <!DOCTYPE svg PUBLIC "-//W3C//DTD SVG 1.1//EN" "http://www.w3.org/Graphics/SVG/1.1/DTD/svg11.dtd"> <svg width="512" height="512" viewBox="0 0 512 512" xmlns="http://www.w3.org/2000/svg" xmlns:xlink="http://www.w3.org/1999/xlink" fill="#000000"><path d="M 507.00,483.00l-23.50,24.00q-5.00,4.50 -12.00,4.50t-12.00-4.50l-75.50-76.00q-30.00,17.00 -64.00,17.00q-53.00,0.00 -90.50-37.50t-37.50-90.50t 37.50-90.50t 90.50-37.50t 90.50,37.50t 37.50,90.50q0.00,34.00 -17.00,63.50l 76.00,76.00q 5.00,5.00 5.00,11.75t-5.00,11.75zM 320.25,224.00q-39.75,0.00 -68.00,28.00t-28.25,67.75t 28.25,68.00t 68.00,28.25t 67.75-28.25t 28.00-68.00 t-28.00-67.75t-67.75-28.00zM 352.00,163.00l0.00-3.00 q0.00-13.50 9.50-22.75t 22.50-9.25l 64.00,0.00 q 13.50,0.00 23.00,9.25t 9.50,22.75l0.00,160.00 l-0.50,0.00 q0.00-57.50 -36.25-101.75t-91.75-55.25zM 192.00,224.00l0.00-128.00 q0.00-13.50 9.50-22.75t 22.50-9.25l 64.00,0.00 q 13.50,0.00 22.75,9.25t 9.25,22.75l0.00,64.00 q-38.50,0.00 -72.00,17.25t-56.00,46.75zM 192.00,415.50q 22.50,30.00 56.00,47.25t 72.00,17.25 l 32.00,0.00 q0.00,13.00 -9.25,22.50t-22.75,9.50l-288.00,0.00 q-13.00,0.00 -22.50-9.50t-9.50-22.75t 9.25-22.50t 22.75-9.25l0.00-416.50 q0.00-13.00 9.50-22.50t 22.50-9.50l 64.00,0.00 q 13.50,0.00 22.75,9.50t 9.25,22.50l0.00,288.00 l0.00,0.50 l0.00,128.00 l 32.00,0.00 l0.00-32.50 z" ></path></svg>