<?xml version="1.0" encoding="utf-8"?> <!-- Generator: IcoMoon.io --> <!DOCTYPE svg PUBLIC "-//W3C//DTD SVG 1.1//EN" "http://www.w3.org/Graphics/SVG/1.1/DTD/svg11.dtd"> <svg width="512" height="512" viewBox="0 0 512 512" xmlns="http://www.w3.org/2000/svg" xmlns:xlink="http://www.w3.org/1999/xlink" fill="#000000"><path d="M 256.00,512.00q-69.50,0.00 -128.50-34.25t-93.25-93.25t-34.25-128.50t 34.25-128.50t 93.25-93.25t 128.50-34.25t 128.50,34.25t 93.25,93.25t 34.25,128.50t-34.25,128.50t-93.25,93.25t-128.50,34.25zM 415.50,253.00l0.00-1.00 l0.00-1.00 q0.00-1.50 -0.50-2.50q0.00-0.50 -0.25-1.25t-0.50-1.00t-0.50-1.25t-0.25-1.50q-2.50-7.00 -6.50-11.00l-95.50-95.50q-9.50-9.50 -23.00-9.50t-23.00,9.50t-9.50,23.00 t 9.50,23.00l 41.00,41.00l-178.50,0.00 q-13.50,0.00 -22.75,9.50t-9.25,22.50t 9.25,22.50t 22.75,9.50l 178.50,0.00 l-41.00,41.00q-9.50,9.50 -9.50,23.00t 9.50,23.00t 23.00,9.50t 23.00-9.50l 95.50-95.50q 10.50-10.50 8.50-26.50z" ></path></svg>