<?xml version="1.0" encoding="utf-8"?> <!-- Generator: IcoMoon.io --> <!DOCTYPE svg PUBLIC "-//W3C//DTD SVG 1.1//EN" "http://www.w3.org/Graphics/SVG/1.1/DTD/svg11.dtd"> <svg width="512" height="512" viewBox="0 0 512 512" xmlns="http://www.w3.org/2000/svg" xmlns:xlink="http://www.w3.org/1999/xlink" fill="#000000"><path d="M 256.00,512.00q-52.00,0.00 -99.50-20.25t-81.75-54.50t-54.50-81.75t-20.25-99.50t 20.25-99.50t 54.50-81.75t 81.75-54.50t 99.50-20.25t 99.50,20.25t 81.75,54.50t 54.50,81.75t 20.25,99.50t-20.25,99.50t-54.50,81.75t-81.75,54.50t-99.50,20.25zM 379.50,177.00q 4.50-5.00 4.50-11.50t-4.50-11.00l-22.00-22.00q-5.00-4.50 -11.25-4.50t-11.25,4.50l-79.00,79.50 l-79.50-79.50q-4.50-4.50 -11.00-4.50t-11.00,4.50l-22.00,22.00q-4.50,4.50 -4.50,11.00t 4.50,11.50l 79.00,79.00l-79.00,79.00q-4.50,5.00 -4.50,11.50t 4.50,11.00l 22.00,22.00q 4.50,4.50 11.00,4.50t 11.00-4.50l 79.50-79.50l 79.00,79.50q 5.00,4.50 11.25,4.50t 11.25-4.50l 22.00-22.00q 4.50-4.50 4.50-11.00t-4.50-11.50l-79.50-79.00z" ></path></svg>