<?xml version="1.0" encoding="utf-8"?> <!-- Generator: IcoMoon.io --> <!DOCTYPE svg PUBLIC "-//W3C//DTD SVG 1.1//EN" "http://www.w3.org/Graphics/SVG/1.1/DTD/svg11.dtd"> <svg width="512" height="512" viewBox="0 0 512 512" xmlns="http://www.w3.org/2000/svg" xmlns:xlink="http://www.w3.org/1999/xlink" fill="#000000"><path d="M 503.00,344.00l-130.50,132.00q-1.00,1.00 -6.50,4.00q-5.00-3.00 -6.00-4.00l-8.00-7.00l 112.00-113.00q 16.00-16.50 16.00-32.50q0.00-15.00 -3.00-25.75t-5.75-14.50t-7.25-8.25l-224.00-226.50q-5.00-5.00 -15.00-10.50t-14.50-5.50l 31.00,0.00 q 14.00,0.50 22.50,9.00l 239.00,241.50q 9.00,9.50 9.00,30.75t-9.00,30.25zM 432.00,339.50l-128.00,129.50q-9.50,9.50 -24.25,9.50t-23.75-9.50l-247.00-250.50 q-12.50-13.00 -7.50-31.00q-1.50-5.00 -1.50-9.50l0.00-113.00 q0.00-13.50 9.50-23.00t 22.50-9.50l 112.00,0.00 q 4.50,0.00 9.00,1.50q 18.50-5.00 31.00,7.50l 248.00,249.50q 9.00,9.50 9.00,24.50t-9.00,24.00zM 112.00,97.00q-20.00,0.00 -34.00,14.25t-14.00,34.50t 14.00,34.25t 34.00,14.00t 34.00-14.00t 14.00-34.25t-14.00-34.50t-34.00-14.25z" ></path></svg>