<?xml version="1.0" encoding="utf-8"?> <!-- Generator: IcoMoon.io --> <!DOCTYPE svg PUBLIC "-//W3C//DTD SVG 1.1//EN" "http://www.w3.org/Graphics/SVG/1.1/DTD/svg11.dtd"> <svg width="512" height="512" viewBox="0 0 512 512" xmlns="http://www.w3.org/2000/svg" xmlns:xlink="http://www.w3.org/1999/xlink" fill="#000000"><path d="M 256.00,512.00q-69.50,0.00 -128.50-34.25t-93.25-93.25t-34.25-128.50t 34.25-128.50t 93.25-93.25t 128.50-34.25t 128.50,34.25t 93.25,93.25t 34.25,128.50t-34.25,128.50t-93.25,93.25t-128.50,34.25zM 411.50,170.50l-22.00-22.00q-5.00-4.50 -11.25-4.50t-11.25,4.50l-151.00,151.00l-71.50-71.00q-4.50-4.50 -11.00-4.50t-11.00,4.50l-22.00,22.00q-4.50,4.50 -4.50,11.00t 4.50,11.50 l 76.00,75.50q 0.50,5.50 4.00,9.00l 22.00,22.00q 5.50,5.50 13.50,4.00q 8.00,1.50 13.50-4.00l 22.00-22.00q 3.00-3.50 4.00-9.00l 156.00-156.00q 4.50-4.50 4.50-11.00t-4.50-11.00z" ></path></svg>