<?xml version="1.0" encoding="utf-8"?> <!-- Generator: IcoMoon.io --> <!DOCTYPE svg PUBLIC "-//W3C//DTD SVG 1.1//EN" "http://www.w3.org/Graphics/SVG/1.1/DTD/svg11.dtd"> <svg width="512" height="512" viewBox="0 0 512 512" xmlns="http://www.w3.org/2000/svg" xmlns:xlink="http://www.w3.org/1999/xlink" fill="#000000"><path d="M 256.00,512.00q-69.50,0.00 -128.50-34.25t-93.25-93.25t-34.25-128.50t 34.25-128.50t 93.25-93.25t 128.50-34.25t 128.50,34.25t 93.25,93.25t 34.25,128.50t-34.25,128.50t-93.25,93.25t-128.50,34.25zM 272.50,71.00q-6.50-7.00 -16.25-7.00t-16.25,7.00l-171.00,172.50q-6.00,7.00 -4.25,9.75t 9.25,2.75l 118.00,0.00 l0.00,160.00 q0.00,13.50 9.50,22.75 t 22.50,9.25l 64.50,0.00 q 13.00,0.00 22.50-9.25t 9.50-22.75l0.00-160.00 l 117.50,0.00 q 7.50,0.00 9.50-2.75t-4.00-9.75z" ></path></svg>