<?xml version="1.0" encoding="utf-8"?> <!-- Generator: IcoMoon.io --> <!DOCTYPE svg PUBLIC "-//W3C//DTD SVG 1.1//EN" "http://www.w3.org/Graphics/SVG/1.1/DTD/svg11.dtd"> <svg width="512" height="512" viewBox="0 0 512 512" xmlns="http://www.w3.org/2000/svg" xmlns:xlink="http://www.w3.org/1999/xlink" fill="#000000"><path d="M 448.00,512.00l-384.00,0.00 q-26.50,0.00 -45.25-18.75t-18.75-45.25l0.00-384.00 q0.00-26.50 18.75-45.25t 45.25-18.75l 224.00,0.00 l0.00,64.00 l-192.00,0.00 q-13.50,0.00 -22.75,9.50t-9.25,22.50l0.00,320.00 q0.00,13.50 9.25,22.75t 22.75,9.25l 320.00,0.00 q 13.50,0.00 22.75-9.25t 9.25-22.75l0.00-151.00 l 64.00-53.50l0.00,236.50 q0.00,26.50 -18.75,45.25t-45.25,18.75zM 348.00,283.50q-6.50,6.50 -17.25,4.00 t-10.75-9.50l0.00-86.00 q-112.00,0.00 -192.00,160.00l0.00-32.00 q0.00-58.00 15.00-102.00t 41.50-70.00t 60.50-39.00t 75.00-13.00l0.00-85.00 q0.00-7.00 10.75-9.75t 17.25,3.75l 157.00,123.00q 6.50,6.50 6.50,16.00t-6.50,16.50z" ></path></svg>