<?xml version="1.0" encoding="utf-8"?> <!-- Generator: IcoMoon.io --> <!DOCTYPE svg PUBLIC "-//W3C//DTD SVG 1.1//EN" "http://www.w3.org/Graphics/SVG/1.1/DTD/svg11.dtd"> <svg width="512" height="512" viewBox="0 0 512 512" xmlns="http://www.w3.org/2000/svg" xmlns:xlink="http://www.w3.org/1999/xlink" fill="#000000"><path d="M 256.00,512.00q-69.50,0.00 -128.50-34.25t-93.25-93.25t-34.25-128.50t 34.25-128.50t 93.25-93.25t 128.50-34.25t 128.50,34.25t 93.25,93.25t 34.25,128.50t-34.25,128.50t-93.25,93.25t-128.50,34.25zM 384.00,224.00l-178.50,0.00 l 41.00-41.00q 9.50-9.50 9.50-23.00t-9.50-23.00t-23.00-9.50t-23.00,9.50l-95.50,95.50q-4.00,4.00 -6.50,11.00q0.00,0.50 -1.00,3.00l-0.25,0.75 t-0.25,1.25q0.00,1.00 -0.50,2.50l0.00,1.00 l0.00,1.00 q-2.00,16.00 8.50,26.50l 95.50,95.50q 9.50,9.50 23.00,9.50t 23.00-9.50t 9.50-23.00t-9.50-23.00l-41.00-41.00l 178.50,0.00 q 13.00,0.00 22.50-9.50t 9.50-22.50t-9.25-22.50t-22.75-9.50z" ></path></svg>