<?xml version="1.0" encoding="utf-8"?> <!-- Generator: IcoMoon.io --> <!DOCTYPE svg PUBLIC "-//W3C//DTD SVG 1.1//EN" "http://www.w3.org/Graphics/SVG/1.1/DTD/svg11.dtd"> <svg width="512" height="512" viewBox="0 0 512 512" xmlns="http://www.w3.org/2000/svg" xmlns:xlink="http://www.w3.org/1999/xlink" fill="#000000"><path d="M 256.00,512.00q-69.50,0.00 -128.50-8.50t-93.25-23.25t-34.25-32.25l0.00-64.00 q0.00-4.00 3.00-9.50q 31.00,18.50 101.25,30.00t 151.75,11.50t 151.75-11.50t 101.25-30.00q 3.00,5.50 3.00,9.50l0.00,64.00 q0.00,17.50 -34.25,32.25t-93.25,23.25t-128.50,8.50zM 256.00,384.00q-69.50,0.00 -128.50-8.50t-93.25-23.25t-34.25-32.25l0.00-64.00 q0.00-4.00 3.00-9.50q 31.00,18.50 101.25,30.00t 151.75,11.50 t 151.75-11.50t 101.25-30.00q 3.00,5.50 3.00,9.50l0.00,64.00 q0.00,17.50 -34.25,32.25t-93.25,23.25t-128.50,8.50zM 256.00,256.00q-69.50,0.00 -128.50-8.50t-93.25-23.25t-34.25-32.25l0.00-64.00 q0.00-4.00 3.00-9.50q 31.00,18.50 101.25,30.00t 151.75,11.50t 151.75-11.50t 101.25-30.00q 3.00,5.50 3.00,9.50l0.00,64.00 q0.00,17.50 -34.25,32.25t-93.25,23.25t-128.50,8.50zM 256.00,128.00 q-69.50,0.00 -128.50-8.50t-93.25-23.25t-34.25-32.25t 34.25-32.25t 93.25-23.25t 128.50-8.50t 128.50,8.50t 93.25,23.25t 34.25,32.25t-34.25,32.25t-93.25,23.25t-128.50,8.50z" ></path></svg>