<?xml version="1.0" encoding="utf-8"?> <!-- Generator: IcoMoon.io --> <!DOCTYPE svg PUBLIC "-//W3C//DTD SVG 1.1//EN" "http://www.w3.org/Graphics/SVG/1.1/DTD/svg11.dtd"> <svg width="512" height="512" viewBox="0 0 512 512" xmlns="http://www.w3.org/2000/svg" xmlns:xlink="http://www.w3.org/1999/xlink" fill="#000000"><path d="M 256.00,512.00q-69.50,0.00 -128.50-34.25t-93.25-93.25t-34.25-128.50t 34.25-128.50t 93.25-93.25t 128.50-34.25t 128.50,34.25t 93.25,93.25t 34.25,128.50t-34.25,128.50t-93.25,93.25t-128.50,34.25zM 192.00,470.50q 31.50,9.50 64.00,9.50t 64.00-9.50l0.00-104.00 q-29.50,17.50 -63.75,17.50t-64.25-17.50l0.00,104.00 zM 145.50,192.00l-104.00,0.00 q-9.50,31.50 -9.50,64.00 t 9.50,64.00l 104.00,0.00 q-17.50-30.00 -17.50-64.00t 17.50-64.00zM 320.00,41.50q-31.50-9.50 -64.00-9.50t-64.00,9.50l0.00,104.00 q 30.00-17.50 64.00-17.50t 64.00,17.50l0.00-104.00 zM 256.00,160.00q-40.00,0.00 -68.00,28.00t-28.00,68.00t 28.00,68.00t 68.00,28.00t 68.00-28.00t 28.00-68.00t-28.00-68.00t-68.00-28.00zM 366.50,192.00q 17.50,30.00 17.50,64.00t-17.50,64.00l 104.00,0.00 q 9.50-31.50 9.50-64.00t-9.50-64.00l-104.00,0.00 z" ></path></svg>