<?xml version="1.0" encoding="utf-8"?> <!-- Generator: IcoMoon.io --> <!DOCTYPE svg PUBLIC "-//W3C//DTD SVG 1.1//EN" "http://www.w3.org/Graphics/SVG/1.1/DTD/svg11.dtd"> <svg width="512" height="512" viewBox="0 0 512 512" xmlns="http://www.w3.org/2000/svg" xmlns:xlink="http://www.w3.org/1999/xlink" fill="#000000"><path d="M 256.00,512.00q-69.50,0.00 -128.50-34.25t-93.25-93.25t-34.25-128.50t 34.25-128.50t 93.25-93.25t 128.50-34.25t 128.50,34.25t 93.25,93.25t 34.25,128.50t-34.25,128.50t-93.25,93.25t-128.50,34.25zM 374.50,200.50l-95.00-95.00q-11.00-10.50 -27.00-8.50l-0.75,0.00 l-0.75,0.00 q-1.50,0.00 -3.00,0.50l-0.75,0.25t-1.25,0.25l-1.00,0.50t-1.50,0.50q-7.50,2.50 -11.50,6.50 l-95.00,95.00q-9.50,9.50 -9.50,23.00t 9.50,23.00t 23.00,9.50t 23.00-9.50l 41.00-40.50l0.00,178.00 q0.00,13.50 9.25,22.75t 22.50,9.25t 22.50-9.25t 9.25-22.75l0.00-178.00 l 41.00,40.50q 9.50,9.50 23.00,9.50t 23.00-9.50t 9.50-23.00t-9.50-23.00z" ></path></svg>