<?xml version="1.0" encoding="utf-8"?> <!-- Generator: IcoMoon.io --> <!DOCTYPE svg PUBLIC "-//W3C//DTD SVG 1.1//EN" "http://www.w3.org/Graphics/SVG/1.1/DTD/svg11.dtd"> <svg width="512" height="512" viewBox="0 0 512 512" xmlns="http://www.w3.org/2000/svg" xmlns:xlink="http://www.w3.org/1999/xlink" fill="#000000"><path d="M 432.00,224.00q-22.00,0.00 -42.50,6.50t-37.00,16.00l-33.00,19.00t-37.00,16.00t-42.50,6.50q-48.50,0.00 -80.00-40.50l0.00-215.50 q 9.00,11.50 18.25,18.50t 20.25,9.75t 18.00,3.25t 19.50,0.50l 4.00,0.00 q 22.00,0.00 42.50-6.50t 37.00-16.00l 33.00-19.00t 37.00-16.00t 42.50-6.50q 20.00,0.00 40.75,12.00t 39.25,36.00l0.00,208.00 q-11.50-11.50 -21.75-18.50t-20.75-9.75t-17.50-3.25t-20.00-0.50zM 192.00,480.25q0.00,13.25 -9.25,22.50 t-22.75,9.25l-128.00,0.00 q-13.00,0.00 -22.50-9.25t-9.50-22.50t 9.50-22.75t 22.50-9.50l 32.00,0.00 l0.00-416.00 q0.00-13.00 9.25-22.50t 22.75-9.50t 22.75,9.25t 9.25,22.75l0.00,416.00 l 32.00,0.00 q 13.50,0.00 22.75,9.50t 9.25,22.75z" ></path></svg>