<?xml version="1.0" encoding="utf-8"?> <!-- Generator: IcoMoon.io --> <!DOCTYPE svg PUBLIC "-//W3C//DTD SVG 1.1//EN" "http://www.w3.org/Graphics/SVG/1.1/DTD/svg11.dtd"> <svg width="512" height="512" viewBox="0 0 512 512" xmlns="http://www.w3.org/2000/svg" xmlns:xlink="http://www.w3.org/1999/xlink" fill="#000000"><path d="M 512.00,478.50q0.00,6.00 -6.75,11.00t-20.75,8.25t-28.75,6.00t-37.75,4.25t-40.00,2.25t-43.75,1.25t-40.50,0.50l-37.75,0.00 l-37.75,0.00 t-40.50-0.50t-43.75-1.25t-40.00-2.25t-37.75-4.25t-28.75-6.00t-20.75-8.25t-6.75-11.00q 1.00-44.00 55.00-77.75t 137.00-44.75l0.00-16.50 q-26.00-11.50 -45.00-32.50t-30.00-49.25t-16.00-60.50t-5.00-69.75q0.00-32.00 12.50-57.00t 34.50-40.25 t 50.50-23.00t 62.50-7.75t 62.50,7.75t 50.50,23.00t 34.50,40.25t 12.50,57.00q0.00,175.00 -96.00,213.00l0.00,15.50 q 83.00,11.00 137.00,44.75t 55.00,77.75z" ></path></svg>