<?xml version="1.0" encoding="utf-8"?> <!-- Generator: IcoMoon.io --> <!DOCTYPE svg PUBLIC "-//W3C//DTD SVG 1.1//EN" "http://www.w3.org/Graphics/SVG/1.1/DTD/svg11.dtd"> <svg width="500.00000000000006" height="500" viewBox="0 0 500 500" xmlns="http://www.w3.org/2000/svg" xmlns:xlink="http://www.w3.org/1999/xlink" fill="#000000"><path d="M 495.00,125.00L 495.00,95.00 C 495.00,83.95, 486.025,75.00, 475.00,75.00L 25.00,75.00 C 13.95,75.00, 5.00,83.95, 5.00,95.00L 5.00,125.00 l 50.00,0.00 l0.00,50.00 l-50.00,0.00 l0.00,50.00 l 50.00,0.00 l0.00,50.00 l-50.00,0.00 l0.00,50.00 l 50.00,0.00 l0.00,50.00 l-50.00,0.00 l0.00,30.00 C 5.00,416.05, 13.95,425.00, 25.00,425.00l 450.00,0.00 c 11.025,0.00, 20.00-8.95, 20.00-20.00L 495.00,375.00 l-50.00,0.00 l0.00-50.00 l 50.00,0.00 l0.00-50.00 l-50.00,0.00 L 445.00,225.00 l 50.00,0.00 L 495.00,175.00 l-50.00,0.00 L 445.00,125.00 L 495.00,125.00 z M 195.00,325.00L 195.00,175.00 l 125.00,75.00L 195.00,325.00z" ></path></svg>