<?xml version="1.0" encoding="utf-8"?> <!-- Generator: IcoMoon.io --> <!DOCTYPE svg PUBLIC "-//W3C//DTD SVG 1.1//EN" "http://www.w3.org/Graphics/SVG/1.1/DTD/svg11.dtd"> <svg width="512" height="512" viewBox="0 0 512 512" xmlns="http://www.w3.org/2000/svg" xmlns:xlink="http://www.w3.org/1999/xlink" fill="#000000"><path d="M0.00,154.185l 20.797,27.272c0.00,0.00, 42.885-33.804, 57.18-16.901c 14.294,16.901, 68.868,220.978, 87.085,258.623 c 15.90,33.015, 59.759,76.66, 107.857,45.491c 48.068-31.17, 207.92-167.643, 236.533-328.808 c 28.59-161.113-192.36-127.363-215.765,13.005c 58.495-35.118, 89.718,14.269, 59.785,70.186 c-29.879,55.862-57.18,92.296-71.476,92.296c-14.269,0.00-25.245-37.384-41.594-102.723c-16.899-67.551-16.796-189.23-87.058-175.435 C 87.085,50.197,0.00,154.185,0.00,154.185z" ></path></svg>