<?xml version="1.0" encoding="utf-8"?> <!-- Generator: IcoMoon.io --> <!DOCTYPE svg PUBLIC "-//W3C//DTD SVG 1.1//EN" "http://www.w3.org/Graphics/SVG/1.1/DTD/svg11.dtd"> <svg width="500.00000000000006" height="500" viewBox="0 0 500 500" xmlns="http://www.w3.org/2000/svg" xmlns:xlink="http://www.w3.org/1999/xlink" fill="#000000"><path d="M 250.00,10.00c-132.55,0.00-240.00,107.45-240.00,240.00s 107.45,240.00, 240.00,240.00s 240.00-107.45, 240.00-240.00S 382.55,10.00, 250.00,10.00z M 360.00,203.775 c-12.70,72.925-83.70,134.65-105.025,148.75c-21.35,14.075-40.825-5.675-47.90-20.575C 199.00,314.925, 174.75,222.60, 168.40,214.975 C 162.05,207.30, 143.025,222.60, 143.025,222.60L 133.80,210.25c0.00,0.00, 38.675-47.05, 68.10-52.90c 31.20-6.25, 31.15,48.775, 38.65,79.35 c 7.275,29.575, 12.15,46.475, 18.475,46.475c 6.35,0.00, 18.475-16.475, 31.75-41.75c 13.30-25.325-0.55-47.65-26.55-31.775 C 274.575,146.175, 372.725,130.875, 360.00,203.775z" ></path></svg>