<?xml version="1.0" encoding="utf-8"?> <!-- Generator: IcoMoon.io --> <!DOCTYPE svg PUBLIC "-//W3C//DTD SVG 1.1//EN" "http://www.w3.org/Graphics/SVG/1.1/DTD/svg11.dtd"> <svg width="512" height="512" viewBox="0 0 512 512" xmlns="http://www.w3.org/2000/svg" xmlns:xlink="http://www.w3.org/1999/xlink" fill="#000000"><path d="M 288.00,413.00l0.00,35.00 l 64.00,0.00 q 13.00,0.00 22.50,9.25t 9.50,22.50t-9.25,22.75t-22.75,9.50l-192.00,0.00 q-13.50,0.00 -22.75-9.50t-9.25-22.75t 9.25-22.50t 22.75-9.25l 64.00,0.00 l0.00-35.00 q-68.50-11.50 -114.25-64.75t-45.75-124.25q0.00-13.00 9.25-22.50t 22.75-9.50t 22.75,9.50t 9.25,22.50q0.00,53.00 37.50,90.50t 90.50,37.50t 90.50-37.50t 37.50-90.50q0.00-13.00 9.50-22.50t 22.75-9.50t 22.50,9.50 t 9.25,22.50q0.00,71.00 -45.75,124.25t-114.25,64.75zM 256.00,320.00q-40.00,0.00 -68.00-28.00t-28.00-68.00l0.00-128.00 q0.00-40.00 28.00-68.00t 68.00-28.00t 68.00,28.00t 28.00,68.00l0.00,128.00 q0.00,40.00 -28.00,68.00t-68.00,28.00z" ></path></svg>