<?xml version="1.0" encoding="utf-8"?> <!-- Generator: IcoMoon.io --> <!DOCTYPE svg PUBLIC "-//W3C//DTD SVG 1.1//EN" "http://www.w3.org/Graphics/SVG/1.1/DTD/svg11.dtd"> <svg width="512" height="512" viewBox="0 0 512 512" xmlns="http://www.w3.org/2000/svg" xmlns:xlink="http://www.w3.org/1999/xlink" fill="#000000"><path d="M 496.50,224.00l-32.00,32.00l 32.00,32.00q 0.50,0.50 2.25,2.00t 2.50,2.50t 2.25,2.50t 2.25,2.50t 1.75,2.50t 1.50,2.75t 0.75,2.50t-0.25,2.50t-1.50,2.25l-21.50,21.50q-1.00,1.00 -2.25,1.50t-2.50,0.25t-2.50-0.75t-2.75-1.50t-2.50-1.75t-2.50-2.25l-2.50-2.50l-2.50-2.50l-2.00-2.00l-32.00-32.00l-32.00,32.00l-1.50,1.50q-15.50,15.50 -21.00,10.00l-21.50-21.50q-1.00-1.50 -1.50-3.00t 0.25-3.25t 1.50-3.25t 2.50-3.50t 3.00-3.00t 3.50-3.25 l 2.75-2.75l 32.00-32.00l-32.00-32.00l-2.25-2.25l-2.50-2.50t-2.25-2.50t-2.50-2.75t-2.00-2.50t-1.50-2.75t-0.75-2.50t 0.25-2.50t 1.50-2.25l 21.50-21.50q 1.00-1.00 2.25-1.50t 2.50-0.25t 2.50,0.75t 2.75,1.50t 2.75,2.00t 2.75,2.50t 2.50,2.25t 2.50,2.50t 2.00,2.25l 32.00,32.00l 32.00-32.00q 0.50-1.00 2.75-3.00t 3.25-3.25t 3.00-3.00t 3.50-2.50t 3.25-1.50t 3.25-0.50t 3.00,1.75l 21.50,21.50q 5.50,5.50 -10.00,21.00zM 282.50,506.00l-122.50-122.00l0.00-256.50 l 122.50-121.50q 15.00-15.00 38.00,7.50l0.00,485.00 q-22.50,22.50 -38.00,7.50zM0.00,352.00l0.00-192.50 q0.00-13.00 9.50-22.50t 22.50-9.50l 96.00,0.00 l0.00,256.50 l-96.00,0.00 q-13.00,0.00 -22.50-9.25t-9.50-22.75z" ></path></svg>