<?xml version="1.0" encoding="utf-8"?> <!-- Generator: IcoMoon.io --> <!DOCTYPE svg PUBLIC "-//W3C//DTD SVG 1.1//EN" "http://www.w3.org/Graphics/SVG/1.1/DTD/svg11.dtd"> <svg width="512" height="512" viewBox="0 0 512 512" xmlns="http://www.w3.org/2000/svg" xmlns:xlink="http://www.w3.org/1999/xlink" fill="#000000"><path d="M 507.00,28.50l-478.50,478.50q-5.00,5.00 -12.00,5.00t-11.75-4.75t-4.75-11.75t 5.00-12.00l 478.50-478.50q 5.00-5.00 12.00-5.00t 11.75,4.75t 4.75,11.75t-5.00,12.00zM 224.00,128.00l 122.50-121.50q 15.00-15.00 37.50,8.00l0.00,27.00 l-160.00,159.50l0.00-73.00 zM 64.00,352.00l0.00-192.00 q0.00-13.00 9.50-22.50t 22.50-9.50l 96.00,0.00 l0.00,105.00 l-126.50,127.00q-1.50-4.00 -1.50-8.00zM 384.00,498.50q-22.50,22.50 -37.50,7.00l-122.50-121.50 l0.00-9.00 l 160.00-160.00l0.00,283.50 z" ></path></svg>