<?xml version="1.0" encoding="utf-8"?> <!-- Generator: IcoMoon.io --> <!DOCTYPE svg PUBLIC "-//W3C//DTD SVG 1.1//EN" "http://www.w3.org/Graphics/SVG/1.1/DTD/svg11.dtd"> <svg width="512" height="512" viewBox="0 0 512 512" xmlns="http://www.w3.org/2000/svg" xmlns:xlink="http://www.w3.org/1999/xlink" fill="#000000"><path d="M 471.50,212.50l-47.00,47.00q-15.50-28.00 -40.50-50.00l0.00-209.50 l 64.00,0.00 q 13.50,0.00 22.75,9.50t 9.25,22.50l0.00,160.00 q0.00,12.00 -8.50,20.50zM 256.00,512.00q-43.50,0.00 -80.25-21.50t-58.25-58.25t-21.50-80.25t 21.50-80.25t 58.25-58.25t 80.25-21.50t 80.25,21.50t 58.25,58.25t 21.50,80.25t-21.50,80.25t-58.25,58.25t-80.25,21.50zM 296.50,303.00l-40.50-84.00 l-40.50,84.00l-94.00,11.50l 69.00,63.50l-17.50,91.00l 83.00-45.00l 83.00,45.00l-17.50-91.00l 69.00-63.50zM 320.00,0.00l 32.00,0.00 l0.00,186.00 q-15.50-8.50 -32.00-14.50l0.00-171.50 zM 160.00,0.00l 32.00,0.00 l0.00,171.50 q-17.00,6.00 -32.00,14.50l0.00-186.00 zM 87.50,259.50l-47.00-47.00q-8.50-8.50 -8.50-20.50l0.00-160.00 q0.00-13.00 9.50-22.50t 22.50-9.50l 64.00,0.00 l0.00,209.50 q-25.00,22.00 -40.50,50.00z" ></path></svg>