<?xml version="1.0" encoding="utf-8"?> <!-- Generator: IcoMoon.io --> <!DOCTYPE svg PUBLIC "-//W3C//DTD SVG 1.1//EN" "http://www.w3.org/Graphics/SVG/1.1/DTD/svg11.dtd"> <svg width="512" height="512" viewBox="0 0 512 512" xmlns="http://www.w3.org/2000/svg" xmlns:xlink="http://www.w3.org/1999/xlink" fill="#000000"><path d="M 509.50,427.00l-82.50,82.50q-6.00,6.00 -11.50,0.00l-109.50-109.00l-12.50,12.50q-3.00,3.00 -7.25,3.00t-7.25-3.00l-29.00-29.00q-49.50-2.50 -84.25-37.50t-37.25-84.00l-29.50-29.50q-3.00-3.00 -3.00-7.25t 3.00-7.25l 12.50-12.50l-109.00-109.50q-6.00-5.50 0.00-11.50l 82.50-82.50q 6.00-6.00 11.50,0.00l 109.50,109.00l 12.50-12.50q 3.00-3.00 7.25-3.00t 7.25,3.00l 29.50,29.50q 49.00,2.50 84.00,37.25t 37.50,84.25 l 29.00,29.00q 3.00,3.00 3.00,7.25t-3.00,7.25l-12.50,12.50l 109.00,109.50q 6.00,5.50 0.00,11.50zM 256.25,160.00q-39.75,0.00 -68.00,28.25t-28.25,68.00t 28.25,67.75t 68.00,28.00t 67.75-28.00t 28.00-67.75t-28.00-68.00t-67.75-28.25zM 267.50,299.00q-4.50,5.00 -11.50,5.00t-12.00-5.00l-47.00-46.50q-5.00-5.00 -5.00-11.75t 4.75-11.75t 11.75-5.00t 12.00,5.00l 35.50,35.00l 35.50-35.00 q 4.50-5.00 11.50-5.00t 12.00,5.00t 5.00,11.75t-5.00,11.75z" ></path></svg>