<?xml version="1.0" encoding="utf-8"?> <!-- Generator: IcoMoon.io --> <!DOCTYPE svg PUBLIC "-//W3C//DTD SVG 1.1//EN" "http://www.w3.org/Graphics/SVG/1.1/DTD/svg11.dtd"> <svg width="512" height="512" viewBox="0 0 512 512" xmlns="http://www.w3.org/2000/svg" xmlns:xlink="http://www.w3.org/1999/xlink" fill="#000000"><path d="M 480.00,384.00l-48.00,0.00 l-80.00,0.00 q-13.00,0.00 -22.50-9.50t-9.50-22.75t 9.50-22.50t 22.50-9.25q0.00-32.00 -64.00-32.00l-32.00,0.00 q0.00,13.50 -9.25,22.75t-22.75,9.25l-32.00,0.00 q-13.00,0.00 -22.50-9.25t-9.50-22.75l-96.00,0.00 q0.00,13.50 -9.25,22.75t-22.50,9.25t-22.75-9.25t-9.50-22.75l0.00-128.00 q0.00-13.50 9.50-22.75t 22.75-9.25t 22.50,9.25t 9.25,22.75l 96.00,0.00 q0.00-13.50 9.50-22.75 t 22.50-9.25l0.00-35.00 q-13.00-4.50 -21.75-15.75t-9.75-25.25q-17.00,5.00 -36.50,8.50t-28.00,3.50q-13.00,0.00 -22.50-9.25t-9.50-22.75t 9.50-22.75t 22.50-9.25q 10.50,0.00 35.00,4.75t 41.00,11.75q 14.50-16.50 36.00-16.50t 36.00,16.50q 16.50-7.00 41.00-11.75t 35.00-4.75q 13.50,0.00 22.75,9.25t 9.25,22.75t-9.25,22.75t-22.75,9.25q-8.50,0.00 -28.00-3.50t-36.50-8.50q-1.00,14.00 -9.75,25.25 t-21.75,15.75l0.00,35.00 q 13.50,0.00 22.75,9.25t 9.25,22.75l 32.00,0.00 q 53.50,0.00 96.75,19.00t 69.25,55.75t 26.00,85.25q 13.50,0.00 22.75,9.25t 9.25,22.50t-9.25,22.75t-22.75,9.50zM 480.00,464.00q0.00,20.00 -14.00,34.00t-34.00,14.00t-34.00-14.00t-14.00-34.00q0.00-12.00 11.25-31.75t 23.00-34.00t 13.75-14.25q 3.00,0.00 14.75,14.25t 22.50,34.00t 10.75,31.75z" ></path></svg>