<?xml version="1.0" encoding="utf-8"?> <!-- Generator: IcoMoon.io --> <!DOCTYPE svg PUBLIC "-//W3C//DTD SVG 1.1//EN" "http://www.w3.org/Graphics/SVG/1.1/DTD/svg11.dtd"> <svg width="512" height="512" viewBox="0 0 512 512" xmlns="http://www.w3.org/2000/svg" xmlns:xlink="http://www.w3.org/1999/xlink" fill="#000000"><path d="M 404.75,453.75q-36.75,38.25 -86.25,51.75t-99.00,0.00t-86.25-51.75t-50.00-89.50t0.00-102.25t 49.75-89.50l 136.00-172.50l 136.00,172.50q 36.50,38.50 49.75,89.50t0.00,102.25t-50.00,89.50zM 178.50,417.00q 4.00,4.50 5.75,6.75t 7.75,5.25t 13.00,3.00q 15.50,0.00 23.25-8.75t 7.75-20.25q0.00-14.00 -11.50-40.25t-23.25-56.25t-11.75-53.00 q0.00-14.00 12.00-37.25t 23.50-39.75l 12.00-16.50l-16.00,0.00 l-42.50,48.50q-37.50,46.50 -37.50,104.25t 37.50,104.25z" ></path></svg>