<?xml version="1.0" encoding="utf-8"?> <!-- Generator: IcoMoon.io --> <!DOCTYPE svg PUBLIC "-//W3C//DTD SVG 1.1//EN" "http://www.w3.org/Graphics/SVG/1.1/DTD/svg11.dtd"> <svg width="512" height="512" viewBox="0 0 512 512" xmlns="http://www.w3.org/2000/svg" xmlns:xlink="http://www.w3.org/1999/xlink" fill="#000000"><path d="M 512.00,128.00q-1.50,52.00 -38.75,90.00t-89.25,38.00q-14.50,0.00 -30.00-4.00q 4.00,15.50 16.75,25.75t 29.25,10.25l 48.00,48.00l 41.00,42.50q 23.00,23.00 23.00,55.25t-23.00,55.00t-55.25,22.75t-55.25-22.50l-42.50-41.00l-48.00-48.00q0.00-20.00 -14.00-34.00t-34.00-14.00l-3.50-3.50l0.00-0.50 l-123.50,159.50q-5.00,4.50 -43.25,4.50t-42.75-4.50l-22.50-22.00q-4.50-5.00 -4.50-43.25t 4.50-43.25 l 210.00-162.50l-108.00-108.50l-58.50,0.00 l-48.00-96.00l 32.00-32.00l 96.00,48.00l0.00,58.00 l 111.00,111.50l 33.00-25.50q0.00-0.50 0.50-0.50l 0.50,0.00 q-17.00-30.00 -17.00-63.50q0.00-52.00 37.75-89.50t 90.25-38.50l0.00,0.00 l0.00,19.00 l-41.00,39.00q-23.00,23.00 -23.00,55.25t 23.00,55.25t 55.50,23.00t 55.50-23.00l 38.50-40.50l 19.50,0.00 l0.00,0.00 zM 64.00,416.00q-13.50,0.00 -22.75,9.25t-9.25,22.50t 9.25,22.75t 22.75,9.50t 22.75-9.50 t 9.25-22.75t-9.25-22.50t-22.75-9.25z" ></path></svg>