<?xml version="1.0" encoding="utf-8"?> <!-- Generator: IcoMoon.io --> <!DOCTYPE svg PUBLIC "-//W3C//DTD SVG 1.1//EN" "http://www.w3.org/Graphics/SVG/1.1/DTD/svg11.dtd"> <svg width="512" height="512" viewBox="0 0 512 512" xmlns="http://www.w3.org/2000/svg" xmlns:xlink="http://www.w3.org/1999/xlink" fill="#000000"><path d="M 384.00,512.00q-67.00,0.00 -97.50-28.25t-30.50-83.75l0.00-112.00 l-16.00,0.00 l-48.00-96.00l-48.00,96.00l-80.00,0.00 l-64.00-288.00l 80.00,0.00 l 48.00,144.00l 32.00-144.00l 64.00,0.00 l 32.00,144.00l 48.00-144.00l 80.00,0.00 l-50.00,224.00l 18.00,0.00 l0.00,176.00 q0.00,15.50 12.25,31.75t 19.75,16.25q 11.50,0.00 21.75-14.75t 10.25-33.25l0.00-176.00 l 96.00,0.00 l0.00,176.00 q0.00,56.00 -29.50,84.00t-98.50,28.00z" ></path></svg>