<?xml version="1.0" encoding="utf-8"?> <!-- Generator: IcoMoon.io --> <!DOCTYPE svg PUBLIC "-//W3C//DTD SVG 1.1//EN" "http://www.w3.org/Graphics/SVG/1.1/DTD/svg11.dtd"> <svg width="512" height="512" viewBox="0 0 512 512" xmlns="http://www.w3.org/2000/svg" xmlns:xlink="http://www.w3.org/1999/xlink" fill="#000000"><path d="M 480.00,127.50q-10.00,0.00 -33.00-10.00t-48.50-22.00t-65.00-22.00t-77.50-10.00t-77.50,10.00t-65.00,22.00t-48.50,22.00t-33.00,10.00q-13.50,0.00 -22.75-9.00t-9.25-22.50q0.00-6.00 6.75-15.00t 17.25-16.00q 107.00-65.00 232.00-65.00t 232.00,65.00q 24.00,12.00 24.00,31.00q0.00,13.50 -9.25,22.50t-22.75,9.00zM 84.50,178.00q 79.00-50.00 171.50-50.00t 171.50,50.00q 20.50,13.00 20.50,30.00 q0.00,13.00 -9.75,22.25t-22.25,9.75l0.00-0.50 q-4.50,0.00 -20.75-7.50t-35.25-16.50t-47.75-16.50t-56.25-7.50t-56.25,7.50t-47.75,16.50t-35.25,16.50t-20.75,7.50q-13.50,0.00 -22.75-9.00t-9.25-22.50q0.00-17.00 20.50-30.00zM 256.00,255.50q 20.50,0.00 46.50,9.00t 45.75,24.25t 19.75,31.25q0.00,13.50 -9.50,22.75t-22.50,9.25t-24.00-5.00t-17.50-11.00t-16.75-11.25 t-21.75-5.25q-12.00,0.00 -22.25,5.25t-16.50,11.25t-17.25,11.00t-24.00,5.00t-22.50-9.25t-9.50-22.75q0.00-16.00 19.75-31.25t 45.75-24.25t 46.50-9.00zM 256.00,384.00q 26.50,0.00 45.25,18.75t 18.75,45.25t-18.75,45.25t-45.25,18.75t-45.25-18.75t-18.75-45.25t 18.75-45.25t 45.25-18.75z" ></path></svg>