<?xml version="1.0" encoding="utf-8"?> <!-- Generator: IcoMoon.io --> <!DOCTYPE svg PUBLIC "-//W3C//DTD SVG 1.1//EN" "http://www.w3.org/Graphics/SVG/1.1/DTD/svg11.dtd"> <svg width="512" height="512" viewBox="0 0 512 512" xmlns="http://www.w3.org/2000/svg" xmlns:xlink="http://www.w3.org/1999/xlink" fill="#000000"><path d="M 384.00,96.00q0.00,7.00 0.50,12.25t 2.25,10.50t 3.00,8.50t 5.00,8.50t 5.25,7.50t 7.25,9.25t 8.25,9.50q 11.00,14.00 14.25,22.75t 0.75,20.25q-3.50,17.00 -8.00,30.00l-38.50,101.00l-41.50-94.00q-4.50-11.00 -18.50-58.75t-14.00-51.25q0.00-7.00 5.00-10.50q 11.00-9.00 21.00-9.50l0.00-16.00 l-144.00,0.00 l0.00,16.00 q 4.50,0.50 7.00,3.00t 4.75,5.75t 3.75,4.75q 7.00,6.00 16.50,29.00l 16.00,53.50 l-32.00,128.00l-66.00-174.50q-10.00-25.50 -10.00-31.00t 5.50-9.50q 12.00-9.00 22.50-9.00l0.00-16.00 l-103.50,0.00 q 35.50-45.00 87.75-70.50t 111.75-25.50q 47.50,0.00 91.00,16.75t 78.00,47.25q-19.50,0.00 -30.25,8.00t-10.75,24.00zM 33.00,130.50q 12.50,14.50 30.00,61.50l 97.00,256.00l 32.00,0.00 l 64.00-192.00l 80.00,192.00l 32.00,0.00 l 75.50-195.00q 3.00-8.50 12.00-26.75t 15.25-35.00t 7.75-30.25q 1.50-20.00 1.50-29.00q 32.00,58.00 32.00,124.00 q0.00,69.50 -34.25,128.50t-93.25,93.25t-128.50,34.25q-52.00,0.00 -99.50-20.25t-81.75-54.50t-54.50-81.75t-20.25-99.50q0.00-67.00 33.00-125.50z" ></path></svg>