<?xml version="1.0" encoding="utf-8"?> <!-- Generator: IcoMoon.io --> <!DOCTYPE svg PUBLIC "-//W3C//DTD SVG 1.1//EN" "http://www.w3.org/Graphics/SVG/1.1/DTD/svg11.dtd"> <svg width="512" height="512" viewBox="0 0 512 512" xmlns="http://www.w3.org/2000/svg" xmlns:xlink="http://www.w3.org/1999/xlink" fill="#000000"><path d="M 416.00,64.00L 96.00,64.00 c-52.80,0.00-96.00,43.20-96.00,96.00l0.00,192.00 c0.00,52.80, 43.20,96.00, 96.00,96.00l 320.00,0.00 c 52.80,0.00, 96.00-43.20, 96.00-96.00L 512.00,160.00 C 512.00,107.20, 468.80,64.00, 416.00,64.00z M 480.00,352.00c0.00,16.989-6.687,33.031-18.827,45.173C 449.031,409.313, 432.99,416.00, 416.00,416.00L 96.00,416.00 c-16.989,0.00-33.031-6.687-45.172-18.827 C 38.687,385.031, 32.00,368.989, 32.00,352.00L 32.00,160.00 c0.00-16.989, 6.687-33.031, 18.828-45.172S 79.011,96.00, 96.00,96.00l 320.00,0.00 c 16.989,0.00, 33.031,6.687, 45.173,18.828C 473.314,126.969, 480.00,143.011, 480.00,160.00L 480.00,352.00 zM 192.00,384.00L 352.00,256.00L 192.00,128.00 z" ></path></svg>